<?xml version="1.0" encoding="utf-8"?>
<!-- Generator: Adobe Illustrator 25.0.0, SVG Export Plug-In . SVG Version: 6.00 Build 0)  -->
<svg version="1.1" id="Layer_1" xmlns="http://www.w3.org/2000/svg" xmlns:xlink="http://www.w3.org/1999/xlink" x="0px" y="0px"
	 viewBox="0 0 994 681" style="enable-background:new 0 0 994 681;" xml:space="preserve">
<style type="text/css">
	.st0{fill:#D1CA53;}
	.st1{fill:#EDC775;}
	.st2{fill:#DA5C47;}
	.st3{fill:#65AB99;}
	.st4{fill:#F7A8B6;}
	.st5{fill:#AB6C77;}
	.st6{fill:#AB855B;}
	.st7{fill:#FFE8C7;}
	.st8{fill:#F7BB77;}
	.st9{fill:#FFFFFF;}
</style>
<g id="Layer_1-2">
	
		<image style="overflow:visible;opacity:0.3;enable-background:new    ;" width="994" height="681" xlink:href="A9DC7D63A7B3FE6E.png" >
	</image>
	<path class="st0" d="M709.7,513.1c0.7,0.7,1.3,1.4,2,2.1c1.8-2.3,3.5-4.6,5.2-6.9l0.1-3.3c-2.5-0.3-5-0.5-7.5-0.7
		C709.6,507.2,709.7,510.2,709.7,513.1z"/>
	<path class="st0" d="M714.7,518.4l1.9,2.1l0.2-8.5c-1.2,1.6-2.5,3.1-3.7,4.7L714.7,518.4z"/>
	<path class="st0" d="M706,525c-0.7,0.8-1.4,1.6-2.2,2.4c1.8-0.1,3.6-0.2,5.4-0.3c0.1-2,0.2-4,0.3-6
		C708.3,522.3,707.1,523.7,706,525z"/>
	<path class="st0" d="M699.8,503.5c-1.6-1.5-3.2-3-4.8-4.4c-1.5,1.5-3,3-4.4,4.5c1.5,0,2.9-0.1,4.3-0.1
		C696.6,503.5,698.2,503.5,699.8,503.5z"/>
	<path class="st0" d="M699.4,529.5c-1.4,0-2.8,0-4.3,0h-2.8c1.2,1.2,2.5,2.3,3.8,3.5C697.2,531.8,698.3,530.7,699.4,529.5z"/>
	<path class="st0" d="M704.4,507.7c1.7,1.7,3.4,3.4,5.1,5.2c0-2.9-0.1-5.7-0.3-8.6c-2.9-0.2-5.8-0.3-8.7-0.4
		C701.8,505.1,703.1,506.4,704.4,507.7z"/>
	<path class="st0" d="M709.7,517.5l1.7-2c-0.6-0.6-1.1-1.2-1.7-1.8c0,0.9,0,1.9,0,2.8V517.5z"/>
	<path class="st0" d="M667.6,502.6c0.6,0.8,1.3,1.6,1.9,2.4c3.5-0.4,7-0.7,10.6-0.9c1.3-0.1,2.7-0.2,4.1-0.2
		c0.2-4.3,0.6-8.6,1.1-12.9c-1.1-0.9-2.3-1.8-3.5-2.6c-4-3-8.1-5.7-12.4-8.1c-2.1-1.2-4.4-2.2-6.7-3c-1.1-0.4-2.3-0.7-3.5-0.8
		c-1.6-0.5-3.3,0.5-3.8,2.1c-0.2,0.6-0.2,1.1,0,1.7c0.1,1.2,0.4,2.4,0.8,3.5c0.8,2.3,1.9,4.5,3.1,6.6c0.2,0.4,0.5,0.9,0.8,1.3
		c0.5-0.1,1-0.2,1.4-0.2c2.8,0,5.1,2.3,5.1,5.2c0,1.2-0.4,2.3-1.1,3.2C666.2,500.8,666.9,501.7,667.6,502.6z"/>
	<path class="st0" d="M701.9,529.5c-1.5,1.6-2.9,3.1-4.5,4.7c2.7,2.4,5.5,4.7,8.3,7c0.6-0.7,1.4-1.2,2.3-1.5c0.4-3.5,0.8-6.9,1-10.4
		C706.6,529.3,704.3,529.4,701.9,529.5z"/>
	<path class="st0" d="M685.9,526c0,0.5,0,1.1,0.1,1.7h1.6c-0.5-0.5-1.1-1.1-1.6-1.6L685.9,526z"/>
	<path class="st0" d="M679.4,516.6c1.4,1.5,2.9,3,4.3,4.5c0-1.5,0-3.1,0-4.6c0-1.8,0-3.5,0.1-5.2C682.4,513,680.9,514.8,679.4,516.6
		z"/>
	<path class="st0" d="M685.9,504c-0.1,1.6-0.1,3.1-0.2,4.7c0.2-0.3,0.5-0.6,0.7-0.9c1.2-1.3,2.3-2.6,3.5-4L685.9,504z"/>
	<path class="st0" d="M695.1,527.7c2,0,4-0.1,6.1-0.2c1.1-1.2,2.2-2.5,3.3-3.8c1.7-1.9,3.3-3.9,4.9-5.9c0-0.5,0-0.9,0-1.4v-3.1
		c-1.7-1.9-3.5-3.7-5.3-5.5c-1.3-1.3-2.7-2.7-4.1-4c-1.7,0-3.4-0.1-5.2-0.1c-1.5,0-3,0-4.6,0.1c-1.3,1.4-2.5,2.7-3.8,4.1l-0.9,1.1
		c-0.1,2.5-0.1,4.9-0.1,7.4c0,2.2,0,4.5,0.2,6.7l1.5,1.6l3.1,3C692,527.7,693.5,527.7,695.1,527.7z"/>
	<path class="st0" d="M694.7,534.5c-1.8-1.6-3.5-3.3-5.3-5l-3.4-0.1c0.2,4.2,0.6,8.3,1.1,12.4C689.7,539.4,692.2,537,694.7,534.5z"
		/>
	<path class="st0" d="M683.8,523.8c-1.8-1.9-3.7-3.9-5.5-5.8c-0.4,0.5-0.8,1-1.2,1.5c-1.8,2.4-3.6,4.9-5.3,7.3c4,0.4,8,0.6,12.1,0.7
		C683.9,526.3,683.8,525.1,683.8,523.8z"/>
	<path class="st0" d="M661.3,544.6c-1.1,2.2-1.9,4.5-2.6,6.9c-0.3,1.2-0.5,2.3-0.5,3.5c-0.3,1.7,0.7,3.3,2.4,3.6
		c0.6,0.1,1.1,0.1,1.7-0.1c1.2-0.2,2.3-0.5,3.4-1c2.2-1,4.4-2.2,6.4-3.5c4.1-2.8,8-5.8,11.7-9.1l1.3-1.2c-0.5-4.8-0.9-9.6-1.1-14.4
		c-4.4-0.2-8.8-0.5-13.2-1c-0.7,1.1-1.5,2.2-2.2,3.3C665.9,535.8,663.5,540.1,661.3,544.6z"/>
	<path class="st0" d="M690.7,560.4c0.6,2.3,1.4,4.6,2.5,6.8c0.5,1,1.1,2,1.8,2.9c0.6,1.2,2.2,1.7,3.4,1.1c0.5-0.2,0.8-0.6,1.1-1.1
		c0.7-0.9,1.4-1.9,1.8-2.9c1.1-2.2,1.9-4.4,2.6-6.8c1.2-3.9,2.1-7.8,2.8-11.8c-1.8-1.2-2.6-3.5-2-5.6c-3-2.4-5.9-4.9-8.7-7.5
		c-2.8,2.8-5.6,5.5-8.5,8.1c0.1,0.8,0.2,1.5,0.3,2.3C688.4,550.9,689.3,555.7,690.7,560.4z"/>
	<path class="st0" d="M716,548.6l0.4-19.9c-2.3,0.2-4.6,0.4-6.9,0.5c0,0.7,0,1.5-0.1,2.2c-0.1,2.7-0.3,5.3-0.5,8c0.2,0,0.4,0,0.6,0
		c2.8,0,5.1,2.3,5.2,5.2c0,1-0.3,1.9-0.8,2.7C714.6,547.7,715.3,548.1,716,548.6z"/>
	<path class="st0" d="M716.6,521.5c-1.3-1.5-2.5-3-3.8-4.5c-1,1.2-2,2.4-3,3.6c0,2.1,0,4.3-0.1,6.4c2.3-0.2,4.6-0.4,6.9-0.6
		L716.6,521.5z"/>
	<path class="st0" d="M700.1,503.5c3,0,6,0.1,9,0.2c0-0.7-0.1-1.4-0.1-2.1c-0.3-4.7-0.8-9.3-1.5-14c-4.3,3.6-8.5,7.4-12.4,11.4
		C696.8,500.5,698.5,502,700.1,503.5z"/>
	<path class="st0" d="M701.8,465.4c-0.5-1.1-1.2-2.1-1.9-3c-0.8-1.5-2.7-2-4.2-1.2c-0.5,0.3-0.9,0.7-1.2,1.2c-0.7,0.9-1.4,1.9-1.9,3
		c-1,2.2-1.8,4.5-2.5,6.9c-1.3,4.8-2.2,9.6-2.8,14.5c-0.2,1.6-0.4,3.2-0.5,4.8c2.3,1.9,4.5,3.8,6.8,5.8l1.3,1.1
		c0.6-0.6,1.1-1.2,1.7-1.8c3.4-3.6,7-7.1,10.6-10.5l0.3-0.2c-0.7-4.7-1.7-9.3-3-13.8C703.7,469.9,702.9,467.6,701.8,465.4z"/>
	<path class="st0" d="M709.3,501.6c0,0.7,0.1,1.4,0.1,2.1h0.5c2.4,0.1,4.7,0.2,7.1,0.4l0.5-24c-3.3,2.2-6.4,4.6-9.5,7.1
		C708.6,492,709,496.8,709.3,501.6z"/>
	<path class="st0" d="M650.8,509.2c-2.4,0.7-4.7,1.6-6.8,2.6c-1.1,0.5-2.1,1.2-3,2c-0.9,0.7-1.4,1.6-1.5,2.7c0.1,1.1,0.7,2,1.6,2.7
		c0.9,0.7,1.9,1.4,3,1.8c2.2,1,4.5,1.8,6.9,2.4c4.8,1.2,9.6,2.1,14.5,2.7c1.9,0.2,3.9,0.4,5.8,0.6c1.8-2.5,3.7-5,5.6-7.5
		c0.4-0.5,0.8-1,1.2-1.5c-3.5-3.9-7-8-10.2-12.2l-2.7,0.4C660.4,506.8,655.6,507.8,650.8,509.2z"/>
	<path class="st0" d="M683.8,510.9c0.1-2.2,0.2-4.5,0.3-6.7c-1.3,0.1-2.7,0.1-4,0.2c-3.4,0.2-6.9,0.6-10.3,1c3,3.8,6.2,7.4,9.5,11
		C680.8,514.5,682.3,512.7,683.8,510.9z"/>
	<path class="st0" d="M690.2,503.6c1.5-1.6,3-3.3,4.5-4.9l-1.3-1.1c-2.2-1.9-4.4-3.8-6.6-5.5c-0.4,3.9-0.7,7.8-0.8,11.7L690.2,503.6
		z"/>
	<path class="st1" d="M251.4,228.6c-1.6-1.5-3.2-3-4.8-4.4c-1.5,1.5-3,3-4.4,4.5c1.4,0,2.9-0.1,4.4-0.1
		C248.2,228.6,249.8,228.6,251.4,228.6z"/>
	<path class="st1" d="M261,229.4c0.1,2.9,0.2,5.9,0.3,8.8c0.7,0.7,1.3,1.4,2,2.1c2.6-3.2,5-6.6,7.4-9.9
		C267.4,229.9,264.2,229.6,261,229.4z"/>
	<path class="st1" d="M256,232.7c1.7,1.7,3.4,3.4,5.1,5.2c0-2.9-0.1-5.7-0.3-8.6c-2.9-0.2-5.8-0.3-8.7-0.4
		C253.4,230.2,254.7,231.4,256,232.7z"/>
	<path class="st1" d="M261.3,242.6l1.6-2.1l-1.7-1.8c0,0.9,0,1.9,0,2.8L261.3,242.6z"/>
	<path class="st1" d="M264.3,242.1c-1,1.2-2,2.4-3,3.6c0,2.1,0,4.3-0.1,6.4c3.5-0.3,7-0.6,10.5-1C269.3,248,266.9,245,264.3,242.1z"
		/>
	<path class="st1" d="M257.6,250c-0.7,0.8-1.4,1.6-2.2,2.4c1.8-0.1,3.6-0.2,5.4-0.3c0.1-2,0.2-4,0.2-6.1
		C259.9,247.4,258.7,248.7,257.6,250z"/>
	<path class="st1" d="M251,254.6c-1.4,0-2.9,0-4.3,0h-2.8c1.3,1.2,2.5,2.3,3.8,3.5C248.8,256.9,249.9,255.7,251,254.6z"/>
	<path class="st1" d="M219.2,227.7c0.6,0.8,1.3,1.6,1.9,2.4c3.5-0.4,7-0.7,10.6-0.9c1.4-0.1,2.7-0.2,4.1-0.2
		c0.2-4.3,0.6-8.6,1.1-12.9c-1.1-0.9-2.3-1.8-3.4-2.6c-3.9-3-8.1-5.7-12.4-8.1c-2.1-1.2-4.4-2.2-6.7-3c-1.1-0.4-2.3-0.7-3.5-0.8
		c-1.6-0.4-3.3,0.5-3.8,2.2c-0.1,0.5-0.1,1.1,0,1.7c0.1,1.2,0.4,2.3,0.8,3.5c0.8,2.3,1.9,4.5,3.1,6.6c0.2,0.4,0.5,0.9,0.8,1.3
		c0.5-0.1,0.9-0.2,1.4-0.2c2.8,0,5.1,2.3,5.1,5.1c0,1.2-0.4,2.3-1.1,3.2C217.8,225.8,218.5,226.7,219.2,227.7z"/>
	<path class="st1" d="M253.5,254.5c-1.5,1.6-3,3.1-4.5,4.7c2.7,2.4,5.5,4.7,8.3,7c0.6-0.7,1.4-1.2,2.3-1.5c0.4-3.5,0.8-6.9,1-10.4
		C258.3,254.4,255.9,254.5,253.5,254.5z"/>
	<path class="st1" d="M280.5,249.7l-0.1-17.9c-1.4-0.3-2.8-0.5-4.2-0.7c-1-0.2-2-0.3-3-0.4c-2.7,3.8-5.5,7.5-8.5,11.1
		c0.5,0.6,1.1,1.2,1.6,1.8c2.3,2.4,4.4,4.9,6.6,7.4l3.4-0.5C277.7,250.2,279.1,250,280.5,249.7z"/>
	<path class="st1" d="M246.7,252.7c2,0,4-0.1,6.1-0.2c1.1-1.2,2.2-2.5,3.3-3.8c1.7-1.9,3.3-3.9,4.9-5.9c0-0.5,0-0.9,0-1.4
		c0-1,0-2.1,0-3.1c-1.7-1.9-3.5-3.7-5.3-5.5c-1.3-1.3-2.7-2.7-4.1-4c-1.7,0-3.4-0.1-5.2-0.1c-1.5,0-3.1,0-4.6,0.1
		c-1.3,1.4-2.5,2.7-3.8,4.1c-0.3,0.4-0.6,0.7-0.9,1.1c-0.1,2.5-0.1,4.9-0.1,7.4c0,2.2,0.1,4.5,0.1,6.7c0.5,0.5,1,1,1.6,1.6
		c1,1,2,2,3.1,3C243.6,252.8,245.1,252.8,246.7,252.7z"/>
	<path class="st1" d="M237.5,251c0,0.6,0,1.1,0.1,1.7h1.6c-0.5-0.5-1.1-1.1-1.6-1.6L237.5,251z"/>
	<path class="st1" d="M231,241.6c1.4,1.5,2.9,3.1,4.3,4.6c0-1.6,0-3.1,0-4.6c0-1.8,0-3.5,0.1-5.2C233.9,238.1,232.5,239.8,231,241.6
		z"/>
	<path class="st1" d="M237.5,229.1c-0.1,1.6-0.1,3.1-0.2,4.7l0.7-0.8c1.2-1.3,2.3-2.6,3.5-4C240.2,229,238.8,229,237.5,229.1z"/>
	<path class="st1" d="M235.4,248.9c-1.8-1.9-3.7-3.9-5.5-5.8c-0.4,0.5-0.8,1-1.2,1.5c-1.8,2.4-3.6,4.9-5.3,7.4c4,0.4,8,0.6,12.1,0.7
		C235.5,251.4,235.4,250.1,235.4,248.9z"/>
	<path class="st1" d="M242.2,285.5c0.6,2.3,1.4,4.6,2.5,6.8c0.5,1,1.1,2,1.8,2.9c0.5,0.7,1.3,1.2,2.2,1.4c0.9-0.1,1.7-0.6,2.3-1.4
		c0.7-0.9,1.4-1.9,1.9-2.9c1.1-2.2,1.9-4.4,2.6-6.8c1.2-3.9,2.1-7.8,2.8-11.8c-1.4-1-2.2-2.5-2.2-4.2c0-0.5,0.1-0.9,0.2-1.4
		c-3-2.4-5.9-4.9-8.7-7.5c-2.8,2.8-5.6,5.5-8.6,8.1c0.1,0.8,0.2,1.5,0.3,2.3C240,275.9,240.9,280.7,242.2,285.5z"/>
	<path class="st1" d="M246.3,259.5c-1.8-1.6-3.5-3.3-5.3-5c-1.1,0-2.2,0-3.4-0.1c0.2,4.1,0.6,8.3,1.1,12.4
		C241.3,264.5,243.9,262.1,246.3,259.5z"/>
	<path class="st1" d="M212.9,269.6c-1.1,2.2-1.9,4.5-2.6,6.9c-0.3,1.2-0.5,2.3-0.5,3.5c-0.3,1.7,0.7,3.3,2.4,3.6
		c0.6,0.1,1.1,0.1,1.7-0.1c1.2-0.2,2.3-0.5,3.4-1c2.2-1,4.4-2.2,6.4-3.5c4.1-2.8,8-5.8,11.7-9.1l1.3-1.2c-0.6-4.8-0.9-9.6-1.1-14.4
		c-4.4-0.2-8.8-0.5-13.2-1c-0.7,1.1-1.5,2.2-2.2,3.3C217.5,260.9,215.1,265.2,212.9,269.6z"/>
	<path class="st1" d="M273.5,277.3c2.1,1.2,4.3,2.2,6.5,3.1l0.6,0.2l-0.1-16.6c-1.7-2.9-3.6-5.7-5.6-8.4c-0.6-0.8-1.2-1.6-1.8-2.4
		c-4,0.5-8.1,0.8-12.1,1c0,0.7,0,1.5-0.1,2.2c-0.1,2.7-0.3,5.3-0.5,8c0.2,0,0.4,0,0.6,0c2.8,0,5.1,2.3,5.1,5.1c0,1-0.3,1.9-0.8,2.7
		C268.2,274.1,270.8,275.8,273.5,277.3z"/>
	<path class="st1" d="M274.6,253l1.5,1.8c1.6,2,3.1,4,4.5,6v-8.7c-1.3,0.2-2.6,0.4-4,0.6L274.6,253z"/>
	<path class="st1" d="M131.9,491.6c-6.9-21.8,52.9-61.8,149.5-104.9L280.8,283c-0.5-0.1-0.9-0.3-1.4-0.4c-2.4-0.9-4.8-1.9-7-3.2
		c-2.9-1.7-5.8-3.5-8.5-5.5c-0.8,0.5-1.7,0.7-2.6,0.7c-0.6,0-1.1-0.1-1.6-0.3c-0.5,3.9-1.2,7.8-2.2,11.7c-0.6,2.5-1.5,4.9-2.5,7.2
		c-0.6,1.2-1.3,2.4-2.1,3.4l-0.7,0.8c-0.3,0.2-0.6,0.5-0.9,0.7c-0.7,0.5-1.5,0.7-2.4,0.8c-0.8,0-1.7-0.3-2.4-0.7
		c-0.3-0.2-0.6-0.4-0.9-0.7c-0.3-0.2-0.5-0.5-0.8-0.8c-0.9-1-1.6-2.2-2.1-3.4c-1.1-2.3-2-4.7-2.7-7.2c-1.3-4.8-2.2-9.8-2.9-14.8
		l-0.1-0.8l-0.5,0.5c-3.8,3.3-7.8,6.3-11.9,9c-2.1,1.4-4.3,2.6-6.6,3.6c-1.2,0.5-2.4,0.9-3.7,1.1c-0.3,0-0.7,0.1-1,0.1s-0.7,0-1-0.1
		c-0.7-0.1-1.4-0.4-2-0.9c-0.5-0.5-0.9-1.2-1.1-1.9c-0.1-0.3-0.2-0.7-0.2-1s0-0.7,0-1c0.1-1.3,0.3-2.6,0.6-3.8
		c0.7-2.4,1.6-4.8,2.8-7c2.2-4.4,4.8-8.7,7.6-12.8c0.7-1,1.4-2.1,2.1-3.1c-1.6-0.2-3.3-0.4-5-0.6c-5-0.6-9.9-1.6-14.7-2.9
		c-2.4-0.7-4.8-1.5-7.1-2.6c-1.2-0.5-2.3-1.2-3.3-2l-0.7-0.7c-0.2-0.3-0.4-0.5-0.6-0.8c-0.4-0.6-0.6-1.3-0.7-2.1
		c0-0.7,0.3-1.4,0.6-2.1c0.2-0.3,0.4-0.6,0.6-0.8l0.7-0.7c1-0.8,2.1-1.5,3.3-2c2.3-1.1,4.6-1.9,7.1-2.6c4.8-1.3,9.7-2.2,14.6-2.8
		l2.4-0.3l-1.3-1.7c-0.7-0.9-1.3-1.8-1.9-2.7c-2.4,1.5-5.6,0.9-7.1-1.5s-0.9-5.6,1.5-7.1l0,0l-0.7-1.2c-1.2-2.2-2.3-4.5-3.1-6.9
		c-0.4-1.2-0.7-2.5-0.8-3.8c0-0.3,0-0.7,0-1s0.1-0.7,0.1-1c0.3-1.5,1.4-2.6,2.9-2.9c0.3-0.1,0.7-0.1,1-0.1h1
		c1.3,0.1,2.5,0.4,3.7,0.9c2.4,0.9,4.6,2,6.8,3.2c4.3,2.5,8.4,5.3,12.3,8.4c1.1,0.8,2.1,1.7,3.2,2.6c0.1-1.3,0.3-2.5,0.5-3.8
		c0.7-5,1.7-9.9,3-14.7c0.7-2.4,1.6-4.8,2.6-7.1c0.6-1.2,1.3-2.3,2.1-3.3c0.2-0.2,0.5-0.5,0.7-0.7c0.3-0.2,0.5-0.4,0.8-0.6
		c0.6-0.4,1.3-0.6,2.1-0.6c0.7,0,1.4,0.3,2.1,0.7c0.3,0.2,0.6,0.4,0.8,0.6c0.2,0.2,0.5,0.5,0.7,0.7c0.8,1,1.5,2.1,2,3.3
		c1.1,2.3,1.9,4.7,2.5,7.1c1.2,4.5,2,9,2.6,13.6c3.5-3.2,7.1-6.1,11-8.8c2.1-1.4,4.3-2.7,6.6-3.8c1-0.5,2.1-0.8,3.2-1.1l-0.8-137.5
		l-200.7,30l22.5,517.8l181.4,6.4L282,497.2C195.9,511.8,138,511,131.9,491.6z M135.7,352.3c1.8,0,3.3,1.4,3.3,3.2
		c5.9-0.3,18-0.6,32.1-0.7l0.2-0.1c-9.5-16.6-17.3-30.8-20.3-36.7c-0.4,0.2-0.9,0.3-1.4,0.3c-1.9,0-3.4-1.5-3.4-3.4s1.5-3.4,3.4-3.4
		s3.4,1.5,3.4,3.4c0,1.1-0.5,2.1-1.4,2.7c3.5,5.4,11.4,18.8,20.6,34.8c6.1-17.6,11.6-32.3,14.2-38.2c-1.5-1.1-1.8-3.2-0.7-4.7
		s3.2-1.8,4.7-0.7c1.5,1.1,1.8,3.2,0.7,4.7c-0.6,0.8-1.6,1.3-2.7,1.4c-0.4,0-0.7-0.1-1.1-0.2c-1.6,6.3-6.5,21.3-12.6,39
		c10.9-3.1,20.3-5.7,25.9-7.1c0-0.1,0-0.2,0-0.4c0-1.9,1.5-3.5,3.4-3.5s3.5,1.5,3.5,3.4s-1.5,3.5-3.4,3.5c-1.4,0-2.8-0.9-3.3-2.2
		c-5.2,1.7-13.9,4.4-24.1,7.4c13.2,0,24.2,0.1,29.1,0.3V355c0-1.9,1.5-3.5,3.3-3.5c1.9,0,3.5,1.5,3.5,3.3c0,1.9-1.5,3.5-3.3,3.5
		c-1.6,0-3-1-3.4-2.5c-5.1,0.3-17.1,0.6-31.3,0.8c9.8,17.1,17.7,31.5,20.1,36.5c0.4-0.2,0.9-0.3,1.4-0.3c1.9,0,3.4,1.5,3.4,3.4
		s-1.5,3.4-3.4,3.4s-3.4-1.5-3.4-3.4c0-1.1,0.6-2.2,1.5-2.8c-3-4.5-11.2-18.4-20.9-35.2c-6.3,18.2-11.9,33.2-14.3,38.4
		c1.6,0.9,2.2,2.9,1.4,4.5c-0.9,1.6-2.9,2.2-4.5,1.4s-2.2-2.9-1.4-4.5c0.6-1.1,1.7-1.8,3-1.8c0.2,0,0.5,0,0.7,0.1
		c1.4-5.6,6.4-21.2,12.7-39.6h-0.4c-13,3.8-24.4,6.9-30.3,8.4c0.1,0.3,0.1,0.6,0.1,0.9c0,1.9-1.5,3.4-3.4,3.4s-3.4-1.5-3.4-3.4
		s1.5-3.4,3.4-3.4c1.3,0,2.4,0.7,3,1.8c5-1.7,14.2-4.5,25.1-7.7c-11.4,0-20.9-0.1-25.9-0.3c-0.4,1.8-2.1,3-3.9,2.6
		c-1.8-0.4-3-2.1-2.6-3.9c0.3-1.6,1.7-2.7,3.3-2.7L135.7,352.3L135.7,352.3z"/>
	<path class="st1" d="M235.4,235.9c0.1-2.2,0.2-4.5,0.3-6.7c-1.4,0.1-2.7,0.1-4,0.2c-3.4,0.2-6.9,0.6-10.3,1c3,3.8,6.2,7.4,9.5,11
		C232.4,239.6,233.9,237.7,235.4,235.9z"/>
	<path class="st1" d="M251.7,228.6c3,0,6,0.1,9,0.2c0-0.7-0.1-1.4-0.1-2.1c-0.3-4.7-0.8-9.3-1.5-14c-4.3,3.6-8.4,7.3-12.4,11.3
		C248.4,225.5,250.1,227,251.7,228.6z"/>
	<path class="st1" d="M202.4,234.3c-2.4,0.7-4.7,1.6-6.9,2.6c-1.1,0.5-2.1,1.2-3,2c-1.5,0.8-2,2.7-1.1,4.2c0.3,0.5,0.7,0.9,1.2,1.2
		c0.9,0.7,1.9,1.4,3,1.9c2.2,1,4.5,1.8,6.9,2.4c4.8,1.2,9.6,2.1,14.5,2.7c1.9,0.2,3.9,0.4,5.8,0.6c1.8-2.5,3.7-5,5.6-7.4l1.2-1.6
		c-3.5-3.9-7-8-10.2-12.1c-0.9,0.1-1.8,0.2-2.7,0.4C212,231.8,207.2,232.9,202.4,234.3z"/>
	<path class="st1" d="M253.4,190.5c-0.5-1.1-1.2-2.1-1.9-3c-0.8-1.5-2.7-2-4.2-1.2c-0.5,0.3-0.9,0.7-1.2,1.2c-0.7,0.9-1.4,1.9-1.9,3
		c-1,2.2-1.9,4.5-2.5,6.9c-1.3,4.8-2.2,9.6-2.8,14.5c-0.2,1.6-0.4,3.2-0.6,4.8c2.3,1.9,4.5,3.8,6.8,5.8l1.3,1.1
		c0.6-0.6,1.1-1.2,1.7-1.8c3.4-3.6,6.9-7.1,10.6-10.5l0.3-0.2c-0.7-4.7-1.7-9.3-3-13.8C255.3,195,254.5,192.7,253.4,190.5z"/>
	<path class="st1" d="M271.4,203.7c-4.1,2.6-8.1,5.5-11.8,8.6c0.6,4.8,1,9.6,1.2,14.4c0,0.7,0.1,1.4,0.1,2.1h0.5
		c3.3,0.1,6.5,0.3,9.8,0.5c0.9-1.4,1.9-2.7,2.8-4.1c2.2-3.3,4.2-6.8,6-10.3c-2.2-1.7-2.6-5-0.9-7.2c0.3-0.4,0.7-0.7,1.1-1v-7.2
		c-0.8,0.2-1.6,0.5-2.4,0.8C275.6,201.2,273.5,202.3,271.4,203.7z"/>
	<path class="st1" d="M276,226.5c-0.7,1-1.4,2.1-2.1,3.1l2.5,0.2c1.4,0.1,2.7,0.3,4.1,0.5l-0.1-10.8
		C279,221.9,277.5,224.2,276,226.5z"/>
	<path class="st1" d="M241.8,228.7c1.5-1.6,3-3.3,4.5-4.9c-0.4-0.4-0.8-0.8-1.3-1.1c-2.2-1.9-4.4-3.8-6.6-5.6
		c-0.4,3.9-0.7,7.8-0.9,11.7C238.9,228.8,240.3,228.7,241.8,228.7z"/>
	<path class="st2" d="M493.5,427.6c-45.9,13.9-89.4,25.3-128.5,33.9c-20.3-26-31.5-49.6-35.2-83.3c0-0.4-0.1-0.7-0.1-1.1
		c-6.9,3-13.7,5.9-20.2,8.9l3.6,94.3c51-8.7,113.3-23.5,180.4-43.6L493.5,427.6z"/>
	<polygon class="st0" points="724.6,158.6 724.7,156 722.4,159.3 	"/>
	<polygon class="st0" points="724.6,161.5 724.6,160.4 722.9,161 	"/>
	<polygon class="st0" points="724.5,163.4 722.4,162.7 724.5,165.6 	"/>
	<path class="st0" d="M721,163.7v9.9c0,4.2-0.1,8.4-0.2,12.6c-0.1,8.4-0.4,16.9-0.7,25.3c-0.3-8.4-0.6-16.9-0.7-25.3
		c-0.1-4.2-0.1-8.4-0.2-12.6v-9.9l-5.8,8c-2.5,3.4-4.9,6.8-7.5,10.2c-5,6.8-10.1,13.5-15.2,20.2c4.6-7.1,9.3-14.1,14.1-21
		c2.4-3.5,4.8-6.9,7.2-10.4l5.7-8.1l-9.4,3.1c-4,1.3-8,2.6-12,3.9c-8,2.6-16.1,5-24.2,7.3c7.9-3,15.8-5.9,23.8-8.6
		c4-1.4,8-2.8,12-4.1l9.4-3.2l-9.5-3c-4-1.3-8-2.6-12-3.9c-8-2.7-16-5.4-23.9-8.3c8.1,2.2,16.2,4.6,24.3,7c4,1.2,8.1,2.4,12.1,3.7
		l9.5,3l-5.9-8.2c-2.4-3.4-4.9-6.9-7.3-10.3c-4.9-6.9-9.6-13.8-14.3-20.9c5.2,6.6,10.4,13.3,15.4,20.1c2.5,3.4,5,6.8,7.5,10.1l5.9,8
		v-9.9c0-4.2,0.1-8.4,0.2-12.6c0.1-8.4,0.3-16.8,0.7-25.3c0.3,8.4,0.6,16.9,0.7,25.3c0.1,4.2,0.1,8.4,0.2,12.6v9.9l3.8-5.3l1.8-80.4
		L517.8,67l1,112.2c5.6,0.3,11.2,0.9,16.8,1.8c50.5,7.6,95.3,36.4,123.2,79.1c0.5,0.8,1,1.5,1.5,2.3c21.9-5,42.8-9.2,62.3-12.7
		l1.8-81.1L721,163.7z"/>
	<path class="st3" d="M826.6,200c3.9-5.9,7.8-11.8,11.8-17.6c2-2.9,4-5.8,6.1-8.7l6.1-8.7l6.2-8.6c2.1-2.9,4.2-5.7,6.3-8.6
		c4.2-5.7,8.5-11.4,12.8-17c-3.9,5.9-7.8,11.8-11.8,17.6c-2,2.9-4,5.8-6.1,8.7l-6.1,8.7l-6.2,8.6c-2.1,2.9-4.2,5.7-6.3,8.6
		C835.2,188.7,831,194.4,826.6,200z"/>
	<path class="st3" d="M810.8,152.6c6.8,1.9,13.6,3.8,20.4,5.9c3.4,1,6.8,2.1,10.2,3.1l10.1,3.2l10.1,3.2c3.4,1.1,6.7,2.2,10.1,3.3
		c6.7,2.2,13.4,4.6,20.1,7c-6.8-1.9-13.6-3.8-20.4-5.9c-3.4-1-6.8-2.1-10.2-3.1l-10.2-3.2l-10.1-3.2c-3.4-1.1-6.7-2.2-10.1-3.3
		C824.1,157.3,817.4,155,810.8,152.6z"/>
	<path class="st3" d="M826.3,131c4.4,5.6,8.7,11.2,13,16.8c2.1,2.8,4.2,5.7,6.3,8.5l6.3,8.6l6.2,8.6c2,2.9,4.1,5.8,6.1,8.7
		c4.1,5.8,8.1,11.6,12,17.5c-4.4-5.6-8.7-11.2-13-16.8c-2.1-2.8-4.2-5.7-6.3-8.5l-6.3-8.6l-6.2-8.6c-2-2.9-4.1-5.8-6.1-8.7
		C834.2,142.8,830.2,136.9,826.3,131z"/>
	<path class="st3" d="M851.2,122.9c0.3,7.1,0.5,14.2,0.6,21.2c0.1,3.5,0.1,7.1,0.1,10.6v10.6v10.6c0,3.5,0,7.1-0.1,10.6
		c-0.1,7.1-0.3,14.2-0.6,21.2c-0.3-7.1-0.5-14.2-0.6-21.2c-0.1-3.5-0.1-7.1-0.1-10.6v-10.6v-10.6c0-3.5,0-7.1,0.1-10.6
		C850.8,137.1,851,130,851.2,122.9z"/>
	<path class="st3" d="M811,178.8c6.6-2.5,13.3-4.9,20-7.3c3.3-1.2,6.7-2.3,10-3.5l10-3.4l10.1-3.3c3.4-1.1,6.7-2.2,10.1-3.2
		c6.7-2.1,13.5-4.2,20.3-6.1c-6.6,2.5-13.3,4.9-20,7.3c-3.3,1.2-6.7,2.3-10,3.5l-10.1,3.4l-10.1,3.3c-3.4,1.1-6.7,2.2-10.1,3.2
		C824.5,174.8,817.8,176.8,811,178.8z"/>
	<path class="st2" d="M362.4,161c3.2,0.9,6.4,1.9,9.6,2.9l7.5,2.4l-4.6-6.4l-1-1.5l-14.4,1.8L362.4,161z"/>
	<path class="st2" d="M375.4,158.2l0.6,0.9l4.6,6.3v-7.9l0,0L375.4,158.2z"/>
	<path class="st2" d="M388.3,156.6l-6.3,0.8v0.2v7.8l4.6-6.3L388.3,156.6z"/>
	<path class="st2" d="M491.4,144L390,156.4l-2.4,3.4l-4.5,6.4l7.5-2.5c3.2-1,6.3-2.1,9.5-3c6.3-2,12.7-3.9,19.1-5.8
		c-6.2,2.4-12.5,4.7-18.8,6.8c-3.1,1.1-6.3,2.2-9.5,3.3l-7.4,2.5l7.5,2.4c3.2,1,6.3,2.1,9.5,3.1c6.3,2.1,12.6,4.3,18.9,6.6
		c-6.4-1.7-12.8-3.6-19.2-5.5c-3.2-0.9-6.4-1.9-9.6-2.9l-7.5-2.4l4.6,6.4c1.9,2.7,3.9,5.4,5.8,8.1c3.8,5.5,7.6,11,11.3,16.5
		c-4.1-5.3-8.2-10.6-12.2-15.9c-2-2.7-4-5.4-6-8l-4.6-6.3v7.9c0,3.3,0,6.7-0.1,10c-0.1,6.7-0.3,13.3-0.6,20
		c-0.3-6.7-0.4-13.3-0.5-20c-0.1-3.3-0.1-6.7-0.1-10v-7.8l-4.6,6.3c-2,2.7-3.9,5.4-5.9,8.1c-3.9,5.4-7.9,10.7-12,16
		c3.6-5.6,7.4-11.1,11.1-16.6c1.9-2.8,3.8-5.5,5.7-8.2l4.5-6.4l-7.5,2.4c-3.2,1-6.3,2.1-9.5,3c-6.4,2-12.7,3.9-19.1,5.8
		c6.2-2.4,12.5-4.6,18.8-6.8c3.1-1.1,6.3-2.2,9.4-3.3l7.4-2.5l-7.5-2.4c-3.2-1-6.3-2.1-9.5-3.1l-4.8-1.6l-56.2,6.9l7.8,207.4
		c6.5-2.7,13.1-5.5,19.9-8.2c-4.1-95.7,67.4-177.8,162.8-186.9L491.4,144z"/>
	<path class="st2" d="M494.2,528.8c-4.5-0.3-9-0.9-13.5-1.6c-39.8-6.1-75.5-23.7-101.9-50.1c-22.8,5.5-44.7,10.3-65.2,14.3l3.6,94.9
		l177.4-11.2L494.2,528.8z M379.8,543.9c1.3,1.9,2.7,3.7,4,5.6c2.7,3.7,5.2,7.5,7.8,11.3c-2.8-3.6-5.6-7.2-8.4-10.9
		c-1.4-1.8-2.7-3.7-4.1-5.5l-3.2-4.3v5.4c0,2.3,0,4.6-0.1,6.8c-0.1,4.6-0.2,9.1-0.4,13.7c-0.2-4.6-0.3-9.1-0.4-13.7
		c0-2.3,0-4.6-0.1-6.8v-5.3l-3.1,4.3c-1.3,1.8-2.7,3.7-4,5.5c-2.7,3.7-5.4,7.4-8.2,11c2.5-3.8,5-7.6,7.6-11.4
		c1.3-1.9,2.6-3.8,3.9-5.6l3.1-4.4l-5.3,1.6c-2.2,0.7-4.4,1.4-6.5,2.1c-4.4,1.4-8.7,2.7-13.1,4c4.3-1.6,8.6-3.2,12.9-4.7
		c2.2-0.8,4.3-1.5,6.5-2.2l5.1-1.7l-5.1-1.6c-2.2-0.7-4.4-1.4-6.5-2.2c-4.3-1.4-8.7-2.9-13-4.5c4.4,1.2,8.8,2.5,13.2,3.8
		c2.2,0.7,4.4,1.3,6.6,2l5.2,1.6l-3.1-4.4c-1.3-1.9-2.6-3.7-4-5.6c-2.6-3.7-5.2-7.5-7.8-11.3c2.8,3.6,5.6,7.2,8.4,10.9
		c1.4,1.8,2.7,3.7,4.1,5.5l3.2,4.3v-5.4c0-2.3,0-4.6,0.1-6.9c0.1-4.6,0.2-9.1,0.4-13.7c0.2,4.6,0.3,9.1,0.4,13.7
		c0,2.3,0.1,4.6,0.1,6.9v5.3l3.1-4.3c1.4-1.8,2.7-3.7,4-5.5c2.7-3.7,5.4-7.4,8.3-11c-2.5,3.8-5,7.6-7.6,11.4
		c-1.3,1.9-2.6,3.8-3.9,5.6l-3.1,4.4l5.1-1.7c2.2-0.7,4.4-1.4,6.5-2.1c4.4-1.4,8.7-2.7,13.1-4c-4.3,1.6-8.6,3.2-12.9,4.7
		c-2.1,0.8-4.3,1.5-6.5,2.2l-5.1,1.7l5.1,1.6c2.2,0.7,4.3,1.4,6.5,2.1c4.3,1.4,8.6,2.9,13,4.5c-4.4-1.2-8.8-2.5-13.2-3.8
		c-2.2-0.7-4.4-1.3-6.6-2l-5.1-1.6L379.8,543.9z"/>
	<path class="st0" d="M687.3,367.2c11.6-5,22.6-9.9,33-14.8l0.4-17.4c-4.5-8.2-8-14.7-10-18.7c-2.5,1.1-5.4,0-6.5-2.5s0-5.4,2.5-6.5
		s5.4,0,6.5,2.5c1,2.1,0.3,4.7-1.6,6c2.1,3.2,5.3,8.4,9.2,15l1.5-69.4c-17.3,2.5-36.3,5.9-56.5,10.1c15.5,27.7,21.9,52.7,20.5,86.6
		c-45.2,19.4-97.9,39.1-154.8,57.6c-3.4,1.1-6.9,2.2-10.3,3.3l0.1,9.1l3.8-1.2c59.1-18.7,113.6-38.9,159.9-58.7
		C685.6,367.6,686.4,367.3,687.3,367.2z"/>
	<path class="st0" d="M719.9,371l0.2-6.7c-5.4,2.4-11,4.7-16.6,7.1C708.2,371.3,713.8,371.1,719.9,371z"/>
	<path class="st0" d="M655.3,476.4c0.5-0.5,1.2-0.8,1.9-1c0.3-0.1,0.7-0.1,1-0.1s0.7,0,1,0c1.3,0.1,2.5,0.4,3.7,0.9
		c2.4,0.9,4.6,1.9,6.8,3.2c4.3,2.5,8.4,5.4,12.3,8.5c1.1,0.8,2.2,1.7,3.2,2.5c0.2-1.3,0.3-2.5,0.5-3.8c0.7-5,1.7-9.9,3-14.7
		c0.7-2.4,1.5-4.8,2.6-7.1c0.6-1.2,1.3-2.3,2.1-3.3l0.7-0.7c0.3-0.2,0.5-0.4,0.8-0.6c0.6-0.4,1.3-0.6,2.1-0.6c0.7,0,1.4,0.3,2,0.7
		c0.3,0.2,0.6,0.4,0.8,0.6s0.5,0.5,0.7,0.7c0.8,1,1.5,2.1,2,3.3c1.1,2.3,1.9,4.7,2.5,7.1c1.2,4.5,2,9,2.6,13.6
		c3.1-2.8,6.3-5.4,9.7-7.9l0.8-36.4c-2.6-1-3.8-3.9-2.8-6.5c0.5-1.3,1.6-2.4,3-2.8l1.2-53c-10.7,3-19.5,5.4-25.2,6.8
		c0.1,0.4,0.2,0.9,0.2,1.3c0,2.8-2.2,5-5,5s-5-2.2-5-5s2.2-5,5-5c1.9,0,3.6,1,4.4,2.7c5.6-1.9,14.6-4.7,25.6-8l0.1-3.4
		c-8.1,0-15.2-0.1-20.7-0.2c-4.9,2.1-10,4.1-15.1,6.2C671,460.8,604,522.6,521.9,528.8l0.5,52.7l191.9,32.9l1.4-63
		c-1.2-0.8-2.5-1.6-3.7-2.5c-0.8,0.5-1.7,0.7-2.6,0.7c-0.6,0-1.1-0.1-1.7-0.3c-0.5,3.9-1.2,7.8-2.2,11.7c-0.6,2.5-1.5,4.9-2.5,7.2
		c-0.6,1.2-1.3,2.4-2.1,3.4c-0.2,0.3-0.5,0.5-0.7,0.8c-0.3,0.3-0.6,0.5-0.9,0.7c-1.4,1-3.3,1-4.7,0c-0.3-0.2-0.6-0.4-0.9-0.7
		c-0.3-0.2-0.5-0.5-0.8-0.8c-0.9-1-1.6-2.2-2.2-3.4c-1.1-2.3-2-4.7-2.7-7.2c-1.3-4.8-2.3-9.8-2.9-14.8l-0.1-0.8l-0.5,0.5
		c-3.8,3.3-7.8,6.3-11.9,9c-2.1,1.4-4.3,2.6-6.7,3.6c-1.2,0.5-2.4,0.9-3.7,1.1l-1,0.1c-0.3,0-0.7,0-1-0.1c-1.5-0.2-2.7-1.3-3.1-2.7
		c-0.1-0.3-0.2-0.7-0.2-1s0-0.7,0-1c0.1-1.3,0.3-2.6,0.6-3.8c0.7-2.4,1.6-4.8,2.8-7c2.2-4.4,4.8-8.7,7.6-12.8c0.7-1,1.4-2.1,2.1-3.1
		c-1.7-0.2-3.3-0.4-5-0.6c-5-0.6-9.9-1.6-14.7-2.9c-2.4-0.7-4.8-1.5-7.1-2.6c-1.2-0.5-2.3-1.2-3.3-2.1c-0.2-0.2-0.5-0.5-0.7-0.7
		c-0.2-0.3-0.4-0.5-0.6-0.8c-0.4-0.6-0.6-1.3-0.7-2.1c0-0.7,0.3-1.4,0.7-2.1c0.2-0.3,0.4-0.6,0.6-0.8c0.2-0.2,0.5-0.5,0.7-0.7
		c1-0.8,2.1-1.5,3.3-2c2.3-1.1,4.6-1.9,7.1-2.6c4.8-1.3,9.7-2.2,14.7-2.8l2.5-0.3c-0.4-0.6-0.9-1.1-1.3-1.7c-0.7-0.9-1.3-1.8-2-2.7
		c-2.4,1.5-5.6,0.9-7.1-1.5s-0.9-5.6,1.5-7.1l0,0c-0.2-0.4-0.5-0.8-0.7-1.2c-1.3-2.2-2.3-4.5-3.1-6.9c-0.4-1.2-0.7-2.5-0.8-3.8
		c0-0.3,0-0.7,0-1s0.1-0.7,0.2-1C654.5,477.6,654.8,477,655.3,476.4z"/>
	<path class="st1" d="M745.4,353.1l0.1,4.6c0.7-1.9,1.3-3.7,2-5.5L745.4,353.1z"/>
	<path class="st3" d="M832.9,269.3c-4.3-13.5-37.8-16.6-89.6-10.6l1.8,81.7c2.7-1.4,5.4-2.8,8-4.1c4.3-11.6,7.8-20.6,9.9-25.5
		c-2.2-1.6-2.7-4.7-1.1-7c1.6-2.2,4.7-2.7,7-1.1c2.2,1.6,2.7,4.7,1.1,7c-0.9,1.3-2.5,2.1-4.1,2.1c-0.5,0-1.1-0.1-1.6-0.3
		c-1.2,4.6-3.6,12.5-6.8,22.5C808.5,307.2,837.5,283.6,832.9,269.3z"/>
	<path class="st3" d="M926.2,501.1l0.9-0.8l1-48.1c-2.1-0.1-4.2-0.2-6.3-0.3c-4.6-0.1-9.2-0.2-13.7-0.3l-3.3,3c-2.1,2-4.2,4-6.3,6
		c-0.2,3.2-0.3,6.5-0.4,9.7c0,4.2-0.1,8.4-0.1,12.6c2.5,2.4,4.9,4.8,7.4,7.1c3.8,3.6,7.7,7.1,11.6,10.6c0.9,0,1.9,0.1,2.8,0.1
		C922,501,924.1,501,926.2,501.1z"/>
	<path class="st3" d="M902.7,492.9c-1.6-1.5-3.2-3.1-4.7-4.6c0,3.7,0.1,7.3,0.2,11c4.1,0.4,8.2,0.7,12.4,1
		C907.9,497.9,905.3,495.4,902.7,492.9z"/>
	<path class="st3" d="M899,451.7c-0.1,1.1-0.2,2.2-0.2,3.4c1.1-1,2.3-2.1,3.4-3.1l0.2-0.2L899,451.7z"/>
	<path class="st3" d="M928.3,444l0.2-10.1c-2,1.7-4,3.3-6,5C924.5,440.6,926.4,442.3,928.3,444z"/>
	<path class="st3" d="M926.8,514.8c-2.6-2.2-5.1-4.4-7.6-6.6c-1.2,1.1-2.5,2.1-3.7,3.2c-5.2,4.4-10.5,8.7-15.8,12.8
		c0.2,2.3,0.4,4.6,0.7,6.9c1,10,2.7,20,5,29.8c0.8,3.5,1.8,6.9,3,10.3l17.3-1.7L926.8,514.8z"/>
	<path class="st3" d="M898.8,420.5c-2.2-1.6-4.4-3.2-6.6-4.8c-8.3-5.9-16.9-11.2-25.9-15.9c-4.4-2.3-9.1-4.3-13.9-5.8
		c-2.3-0.8-4.8-1.2-7.2-1.4c-2.4-0.1-4.7,0.4-6.2,1.8s-1.7,3.9-1.4,6.2c0.3,2.4,0.9,4.8,1.8,7.1c1.8,4.7,4.1,9.2,6.7,13.4
		c5.3,8.6,11.2,16.9,17.6,24.7c0.8,0.9,1.5,1.9,2.3,2.8c9.8-0.7,19.7-1,29.6-1.1C896.5,438.5,897.5,429.5,898.8,420.5z"/>
	<path class="st3" d="M922,448.1l6.2,0.4l0.1-3.8c-2-1.8-4-3.6-6.1-5.4c-3.3,2.8-6.5,5.6-9.7,8.5C915.7,447.8,918.8,448,922,448.1z"
		/>
	<path class="st3" d="M887.1,472.1c2.3,2.4,4.5,4.7,6.8,7c0.1-2.9,0.2-5.8,0.3-8.8c0.1-1.9,0.2-3.8,0.3-5.7
		C892,467.1,889.6,469.6,887.1,472.1z"/>
	<path class="st3" d="M893.9,484.2c-3.1-3.1-6.2-6.3-9.2-9.5c-5.1,5.3-10.1,10.8-15,16.5c1.4,1.3,2.4,3,2.9,4.8
		c7,1.2,14.1,2.1,21.2,2.9C893.8,493.9,893.8,489.1,893.9,484.2z"/>
	<path class="st3" d="M911.3,501c-4.4-0.2-8.7-0.5-13.1-0.8c0.2,7.2,0.7,14.4,1.2,21.6c6.5-4.6,12.8-9.3,19-14.3
		C916,505.3,913.6,503.2,911.3,501z"/>
	<path class="st3" d="M925.6,501.5l-5.8-0.2l-2.2-0.1c1.3,1.2,2.7,2.4,4.1,3.5C923,503.7,924.3,502.6,925.6,501.5z"/>
	<path class="st3" d="M838.7,536.5c-0.9,2.2-1.5,4.4-1.9,6.7c-0.4,1.8,0,3.7,1,5.3c1,1.1,2.9,1.6,5.2,1.5c2.4-0.1,4.7-0.5,6.9-1.2
		c4.8-1.4,9.4-3.2,13.8-5.5c9.1-4.5,17.8-9.5,26.2-15.1c1.7-1.1,3.4-2.2,5-3.4c-0.6-8.3-1-16.7-1.1-25l-4.6-0.4
		c-5.5-0.4-10.9-1-16.3-1.6c0,0.4,0,0.8,0,1.3c-0.2,5.8-5.2,10.3-11,10.1l0,0c-2-0.1-3.9-0.7-5.5-1.9c-3.9,5.2-7.6,10.5-11,15.9
		C842.8,527.5,840.5,531.9,838.7,536.5z"/>
	<path class="st3" d="M831.4,458.5c-4.8,1.1-9.5,2.6-14.1,4.5c-2.2,0.9-4.2,2.1-6.1,3.5c-1.8,1.4-2.9,3-3,4.5s0.9,3.2,2.6,4.8
		c1.7,1.6,3.7,2.9,5.8,4c4.4,2.4,8.9,4.3,13.6,5.9c7.9,2.7,15.9,4.9,24,6.7c2.1-2.7,5.4-4.3,8.8-4.1c0.9,0,1.9,0.2,2.8,0.5
		c5.2-5.9,10.5-11.6,16.1-17.2c-5.5-5.9-10.8-12-15.9-18.2c-1.6,0.1-3.1,0.3-4.7,0.4C851.2,454.6,841.2,456.3,831.4,458.5z"/>
	<path class="st3" d="M894.9,458.7c0.2-2.3,0.3-4.6,0.5-6.9c-8.5,0.2-17.1,0.5-25.6,1.2c4.7,5.5,9.5,10.8,14.4,16.1
		C887.7,465.5,891.3,462.1,894.9,458.7z"/>
	<path class="st3" d="M907,447.6c4.1-3.6,8.2-7.2,12.4-10.7c-1-0.9-2-1.7-3-2.6c-4.8-4-9.6-7.9-14.6-11.6
		c-1.1,8.2-1.9,16.5-2.5,24.8C901.9,447.5,904.4,447.5,907,447.6z"/>
	<path class="st3" d="M927.1,501.6h-0.3l-4.4,3.8c1.5,1.3,3,2.6,4.5,3.8L927.1,501.6z"/>
	<path class="st3" d="M925.7,357.3c-2,0-4,1.3-5.6,3.1c-1.6,1.9-3,3.9-4,6.1c-2.3,4.5-4.1,9.1-5.6,13.9c-2.9,9.7-5.2,19.5-6.8,29.5
		c-0.7,4-1.2,7.9-1.8,11.9c5,3.9,9.9,8,14.8,12.1c1,0.9,2.1,1.8,3.1,2.6c2.9-2.4,5.9-4.8,8.8-7.1l1.5-69.8
		C929,358.3,927.4,357.5,925.7,357.3z"/>
	<path class="st3" d="M740.2,121.5l0.2,10.1c3-3.9,6-7.9,9-11.8c-2.9,4.5-5.9,9-8.9,13.4l0.5,20.1c1-0.3,2-0.6,2.9-0.9
		c8-2.6,16.1-5,24.2-7.3c-7.9,3-15.8,5.9-23.8,8.6c-1.1,0.4-2.2,0.8-3.3,1.2l0.3,12.1l3.2,1c8,2.7,16,5.4,23.9,8.3
		c-8.1-2.2-16.2-4.5-24.3-7l-2.7-0.8l0.5,21.6c2.7,3.9,5.4,7.9,8,11.9c-2.7-3.4-5.3-6.8-8-10.3l1.2,54.5
		c80.9-13,134.8-11.6,140.8,7.1c6.5,20.4-45.5,56.8-131.4,96.7c-2,6.1-4.2,12.6-6.6,19.4c16.1-4.6,30-8.5,38.2-10.5
		c0-0.2,0-0.4,0-0.5c0-2.8,2.2-5,5-5s5,2.2,5,5s-2.2,5-5,5c-2.1,0-4-1.3-4.7-3.3c-7.7,2.5-20.5,6.4-35.7,10.9
		c19.5-0.1,35.8,0.1,43.1,0.5c0-0.1,0-0.2,0-0.2c0-2.8,2.2-5,5-5s5,2.2,5,5s-2.2,5-5,5c-2.3,0-4.3-1.5-4.9-3.7
		c-7.5,0.5-25.1,1-46,1.1v0.6c14.3,25.1,25.8,46.1,29.3,53.3c2.5-1.1,5.5,0,6.6,2.5s0,5.5-2.5,6.6s-5.5,0-6.6-2.5
		c-1-2.2-0.3-4.9,1.8-6.2c-4.2-6.3-15.3-24.9-28.5-47.9l4.7,207.3L903.3,572c-1.1-3.2-2-6.4-2.8-9.6c-2.3-10-4-20.2-4.9-30.5
		c-0.1-1.4-0.2-2.7-0.3-4.1c-1.3,0.9-2.5,1.9-3.8,2.8c-8.2,6.1-16.9,11.7-25.9,16.6c-4.6,2.5-9.4,4.6-14.4,6.2
		c-2.6,0.8-5.3,1.4-8,1.5c-0.7,0-1.5,0-2.2,0c-0.8-0.1-1.5-0.2-2.3-0.4c-1.7-0.4-3.2-1.3-4.4-2.5c-1.1-1.3-1.9-2.9-2.2-4.6
		c-0.1-0.8-0.2-1.5-0.2-2.3c0-0.7,0.1-1.5,0.1-2.2c0.4-2.7,1.1-5.4,2.1-7.9c1.9-4.9,4.3-9.6,7.1-14c3.7-5.9,7.7-11.6,12-17
		c-1.5-2.7-1.7-5.9-0.5-8.8c-8-1.4-15.9-3.2-23.7-5.5c-5-1.5-9.9-3.4-14.5-5.8c-2.4-1.2-4.7-2.8-6.8-4.6c-0.5-0.5-1-1-1.5-1.6
		s-0.9-1.2-1.3-1.9c-0.9-1.5-1.4-3.2-1.4-4.9c0.1-1.7,0.7-3.4,1.7-4.8c0.5-0.6,1-1.2,1.5-1.8c0.5-0.5,1.1-1,1.6-1.5
		c2.2-1.7,4.6-3,7.1-4.1c4.8-2.1,9.8-3.7,14.9-4.9c10-2.3,20.2-3.8,30.4-4.7l1.6-0.1l-0.9-1.1c-6.4-8-12.2-16.4-17.5-25.2
		c-2.7-4.4-4.9-9.1-6.8-13.9c-0.9-2.5-1.6-5.1-1.9-7.7c0-0.7-0.1-1.4-0.1-2.1s0.1-1.4,0.2-2.1c0.5-3.1,2.8-5.5,5.9-6.1
		c0.7-0.2,1.4-0.3,2.1-0.3c0.7,0,1.4,0,2,0c2.6,0.2,5.2,0.8,7.7,1.6c4.9,1.7,9.6,3.8,14.1,6.3c8.9,5,17.5,10.5,25.7,16.7
		c2.1,1.5,4.1,3,6.1,4.6c0.5-3.4,1-6.7,1.6-10.1c1.7-10.1,4.1-20.1,7.2-29.9c1.5-4.9,3.5-9.7,5.9-14.3c1.2-2.4,2.7-4.6,4.5-6.5
		c0.5-0.5,1-1,1.5-1.4c0.6-0.4,1.1-0.9,1.8-1.2c1.3-0.8,2.8-1.2,4.3-1.2c1.5,0.1,2.9,0.6,4.2,1.5l0.3,0.2L936.1,84L740.2,121.5z"/>
	<path class="st4" d="M923,594.2l-848.1-6.5l8.4-478.2l861.8-73.2L923,594.2z M79,583.7l840.2,6.4l21.7-549.6L87.2,113.1L79,583.7z"
		/>
	<path class="st5" d="M928.8,611.5l-871-42.1l17.1-470l860.3-48.1L928.8,611.5z M66,561.8l854.9,41.3l6.3-543.4L82.6,107L66,561.8z"
		/>
	<path class="st6" d="M388,73.9c0,1.1-0.3,2.2-0.9,3.2c-0.6,0.9-1.6,1.4-2.7,1.3L362,79.8l-58.2,304.8c-0.5,2.2-2.6,3.5-4.8,3
		c-1.5-0.3-2.7-1.5-3-3L230.2,65.9c-3.1,0.5-6.2,0.8-9.4,1.1c-3.2,0.2-6.3,0.3-9.4,0.4c-2.6,0-3.9-1.3-3.9-3.9s1.2-3.9,3.6-3.9
		l76.4-5.7h0.4c1.1,0,2.1,0.4,2.8,1.2c0.7,0.8,1.1,1.9,1.1,3c0,2.1-1.3,3.4-3.9,3.9l-25.2,1.8l45.1,257.9L354,80.5l-27,1.8
		c-1,0-1.9-0.3-2.7-0.9c-0.8-0.6-1.3-1.7-1.2-2.7c0-2.9,1.2-4.4,3.5-4.4l57.2-4c1.1,0,2.1,0.3,3,0.9C387.6,71.8,388,72.8,388,73.9z"
		/>
	<path class="st6" d="M433.4,252.4c0,2.4-1.3,3.8-3.9,4.2l-58.6,4.6c-0.2,3.1-0.4,6.1-0.5,9c-0.1,3-0.2,6.1-0.2,9.4
		c0,3.6,0.2,8,0.7,13.5s1.5,10.9,3,16.2c1.4,5,3.7,9.6,6.9,13.7c2.9,3.7,7.4,5.8,12.1,5.7c3.2,0.1,6.3-0.5,9.2-1.8
		c2.1-1,4.1-2.3,6-3.7c1.4-1.1,2.7-2.3,3.9-3.7c0.6-1,1.7-1.7,2.8-1.8c2.6,0,3.9,1.3,3.9,3.9c0,0.6-0.1,1.2-0.4,1.8
		c-1,2.2-2.5,4.2-4.4,5.7c-2,1.6-4.2,3-6.6,4.1s-4.9,1.9-7.5,2.5c-2.3,0.6-4.7,0.9-7.1,0.9c-7.6,0-14-2.1-19.4-6.4
		c-5.4-4.4-9.9-9.8-13.1-15.9c-3.5-6.5-6-13.4-7.6-20.5c-1.6-6.6-2.4-13.4-2.5-20.2c0.1-7.3,0.9-14.5,2.3-21.6
		c1.5-7.9,4-15.5,7.5-22.7c3.3-6.9,7.8-13,13.5-18.1c5.5-4.9,12.7-7.6,20.1-7.4c10.4,0,18.6,3.4,24.5,10.1
		c5.9,6.8,10.3,14.8,12.8,23.5c0.5,2.6,1,5.1,1.6,7.6C433.1,247.3,433.4,249.9,433.4,252.4z M408.6,242.4c0-2.4-0.1-5.3-0.4-8.9
		c-0.2-3.4-0.9-6.8-2-10.1c-1-3-2.5-5.8-4.4-8.4c-2-2.4-5-3.7-8.2-3.6c-3.3,0-6.2,1.7-8.7,5.1c-2.6,3.7-4.8,7.8-6.4,12.1
		c-1.7,4.5-3.2,9.1-4.3,13.9c-1.1,4.6-1.8,8.1-2.3,10.5l36.2-2.8c0.2-1.3,0.4-2.6,0.4-3.9L408.6,242.4z"/>
	<path class="st6" d="M566.3,348.3c0.1,5.1-1.4,10.1-4.4,14.2c-3,4-6.5,7.6-10.5,10.6c-6.5,4.9-13.9,8.4-21.8,10.3
		c-7.8,2.1-15.9,3.1-24,3.2c-5.4-0.1-10.8-0.4-16.2-1.1c-6.2-0.7-12.3-2.1-18.1-4.3c-5.5-1.9-10.5-4.9-14.7-8.9c-4-3.8-6-8.8-6-14.9
		c0-5.9,2.1-10.5,6.2-13.7s9.2-4.9,14.4-4.8c5.4,0,9.6,1.7,12.6,5.1s4.4,7.9,4.4,13.3c0,3.1-1.3,4.6-3.9,4.6c-1.9,0-3-0.8-3.4-2.3
		s-0.7-3.3-1.1-5.3c-0.3-1.9-1-3.7-2.1-5.3c-1.1-1.5-3.3-2.3-6.6-2.3c-6.7,0-10,3.5-10,10.6c-0.1,4.3,1.8,8.3,5.1,11
		c3.6,2.9,7.8,5.2,12.2,6.6c4.7,1.5,9.6,2.5,14.6,3s9.1,0.7,12.4,0.7c4.4-0.1,8.7-0.5,13-1.2c5.4-0.8,10.7-2.1,15.8-3.9
		c4.9-1.6,9.4-4,13.3-7.3c3.5-2.7,5.5-6.9,5.5-11.3c0-4.5-2.4-8.2-7.1-11c-5.6-3.2-11.7-5.6-17.9-7.3c-7.2-2-15-3.9-23.4-5.7
		c-8.4-1.8-16.2-3.8-23.4-6c-6.4-1.8-12.4-4.6-18-8.1c-4.7-3.2-7.1-7.4-7.1-12.6c-0.1-4.3,1.2-8.5,3.9-11.9c2.7-3.3,6.1-6,10-8
		c-6.1-2.3-11.9-5.6-16.9-9.8c-5.2-4.1-8.1-10.3-8-16.9c0-3.9,1-7.8,3-11.2c2-3.5,4.7-6.6,7.8-9.1c3.2-2.6,6.7-5,10.3-7
		c3.3-1.9,6.8-3.4,10.5-4.5c15.1-4.3,31.1-4.3,46.2,0c0.7-0.7,1.9-2,3.6-3.9c1.7-1.9,3.4-3.9,5.3-6c1.7-2,3.6-3.8,5.5-5.5
		c1.8-1.5,3.1-2.3,4.1-2.3c1.7,0.2,3.3,0.8,4.6,1.7c1.9,1.1,2.8,2.2,2.8,3.4c0,1.9-0.5,3.2-1.4,3.9l-15.3,12.1
		c5.3,2.3,10.2,5.5,14.4,9.6c4.2,4,6.2,9.3,6.2,16c0.2,5.9-1.9,11.7-5.9,16.2c-4.1,4.5-9,8.1-14.6,10.7c-5.8,2.7-12,4.7-18.3,5.9
		c-5.6,1.1-11.3,1.7-17,1.8c-2.2,0-4.4-0.1-6.6-0.4c-2.2-0.2-4.4-0.6-6.6-1.1c-2.7,0.9-5.3,2-7.8,3.4c-2.8,1.5-4.3,3.7-4.3,6.6
		c0,1.7,1.5,3.1,4.4,4.4c3.2,1.4,6.5,2.5,9.9,3.4c3.7,0.9,7.3,1.7,10.8,2.3s5.9,1,7.1,1.2c5.4,1.2,11.7,2.5,18.8,3.9
		c7,1.4,13.8,3.5,20.2,6.4c6.1,2.6,11.7,6.4,16.3,11.2C564,335.4,566.3,341.2,566.3,348.3z M527.2,255.8c0-8.4-2.7-14.6-8-18.8
		s-11.9-6.3-19.7-6.3c-8.1,0-14.6,2.6-19.7,7.9c-5.1,5.2-7.6,12-7.6,20.4c0,7.6,2.3,13.3,6.9,17s10.6,5.6,17.9,5.5
		c3.8,0,7.6-0.6,11.2-1.8c3.5-1.1,6.8-2.8,9.8-5c2.8-2.1,5.1-4.9,6.8-8C526.4,263.4,527.3,259.6,527.2,255.8L527.2,255.8z"/>
	<path class="st6" d="M672.1,311.6c0,2.4-1.2,3.8-3.5,4l-28.1,3.5c-1.1,0.3-2.4,0-3.2-0.9c-0.7-0.8-1.1-1.9-1.2-3
		c-0.1-1.2-0.1-2.4,0-3.6s0.2-2.2,0.2-2.9c-4.7,2.3-9.6,4.1-14.7,5.1c-4.9,1.2-10,1.9-15.1,2c-3.8,0-8.3-0.2-13.7-0.7
		c-5.2-0.5-10.4-1.6-15.3-3.4c-4.6-1.6-8.7-4.1-12.2-7.5c-3.3-3.2-5-7.5-5-13c0-5.9,2.2-10.5,6.8-13.7c4.8-3.3,10.3-5.7,16-6.9
		c6.2-1.4,12.6-2.3,19-2.5c6.5-0.2,11.8-0.4,15.8-0.4c3.2,0,6.4,0.2,9.6,0.5c3.2,0.3,6.4,0.8,9.6,1.6v-6c0-5.2-0.4-10.3-1.2-15.4
		c-0.7-4.8-2.3-9.4-4.6-13.6c-2.2-4-5.5-7.4-9.4-9.8c-4-2.5-9.1-3.7-15.3-3.7c-2.6,0-5.1,0.3-7.6,0.7c-2.7,0.5-5.2,1.3-7.6,2.5
		c-2.3,1.1-4.3,2.8-5.9,4.8c-1.6,2.2-2.4,4.9-2.3,7.6c0,4,0.9,6.8,2.8,8.2c1.8,1.4,4,2.4,6.2,2.8c2.2,0.5,4.3,0.9,6.2,1.2
		c1.7,0.1,3,1.6,2.8,3.4l0,0c0,1.1-0.4,2.1-1.2,2.8c-0.7,0.7-1.7,1.1-2.7,1.1c-3.1,0-6.2-0.5-9.2-1.2c-3.2-0.8-6.2-2-9.1-3.7
		c-2.6-1.6-4.9-3.7-6.7-6.2s-2.7-5.6-2.7-8.7c-0.2-4,1-7.9,3.4-11.2c2.3-3,5.3-5.4,8.7-7.1c3.6-1.8,7.4-3,11.4-3.7
		c3.8-0.7,7.6-1,11.4-1.1c9.7,0,17.9,1.5,24.7,4.6c6.5,2.9,12.1,7.3,16.3,13c4.3,6,7.3,12.8,8.9,20c1.8,8.3,2.7,16.7,2.7,25.1
		c0,5.5-0.2,11-0.7,16.8s-0.9,11.3-1.4,16.8l13.1-1.8c1,0,2,0.3,2.8,0.9C671.6,309.6,672.1,310.6,672.1,311.6z M636.9,278.4
		c-3.3-1-6.7-1.6-10.1-2c-3.4-0.4-6.7-0.5-10.1-0.5c-3.2,0.1-6.4,0.4-9.6,0.9c-3.7,0.6-7.4,1.6-10.8,3c-3.3,1.3-6.3,3.2-8.9,5.6
		c-2.5,2.2-3.8,5.5-3.7,8.8c-0.1,2.5,0.7,5,2.3,7c1.6,1.9,3.6,3.3,5.9,4.3c2.4,1.1,4.9,1.8,7.5,2.1c2.5,0.4,5,0.5,7.5,0.5
		c5.3,0,10.6-0.7,15.8-2s10-3.8,14-7.4L636.9,278.4z"/>
	<path class="st6" d="M752.7,280.8c0.1,4.4-1.1,8.7-3.6,12.4c-2.3,3.5-5.4,6.5-8.9,8.9c-3.6,2.4-7.7,4.2-11.9,5.3
		c-4.2,1.2-8.6,1.8-13,1.8c-3.8-0.1-7.6-0.4-11.4-1.1c-4.5-0.7-8.8-1.9-13-3.5c-3.9-1.5-7.5-3.7-10.7-6.6c-2.9-2.7-4.5-6.5-4.4-10.5
		c-0.1-3.7,1.4-7.3,4.1-9.8c2.8-2.5,6.4-3.8,10.1-3.7c3.5,0.1,6.8,1.3,9.6,3.4c3.3,2.3,5,5.2,5,8.7c0,2.6-1.3,3.9-3.9,3.9
		c-1.4,0-2.4-0.4-2.8-1.2c-0.5-0.9-1-1.9-1.4-2.8c-0.5-1.1-1.2-2-2-2.8s-2.3-1.2-4.4-1.2c-3.1,0-4.6,1.9-4.6,5.8
		c0,2.7,1.3,5.2,3.6,6.7c2.6,1.9,5.5,3.4,8.5,4.3c3.2,1.1,6.6,1.8,10,2.2c2.6,0.3,5.2,0.5,7.8,0.5c2.3,0,4.5-0.2,6.8-0.5
		s4.6-1.1,6.8-2.1c2-1,3.8-2.5,5.2-4.3c1.3-1.9,2-4.2,2-6.6c0-2.8-1.7-5.2-5-7.1c-3.9-2.2-8-3.9-12.3-5.4
		c-4.8-1.7-10.1-3.5-15.8-5.5c-5.5-1.9-10.8-4.4-15.8-7.5c-4.8-2.9-8.9-6.7-12.2-11.2s-5-10.2-5-17.1c0-5.2,1-10.4,3.2-15.1
		c2.1-4.6,5-8.7,8.7-12.1c7.5-7,17.3-11.1,27.5-11.6c1.9,0,3.9,0.1,6,0.2s4.1,0.2,6,0.2c4.3,0,8.6-0.5,12.8-1.6
		c3.8-1.1,6.6-4.1,8.5-9.1c0.3-1.7,1.8-3,3.5-2.8c1.1,0,2.2,0.4,3,1.1c0.9,0.7,1.3,1.7,1.3,2.9l-3.5,44l-1,15.7
		c0.1,1-0.4,2.1-1.2,2.7c-0.9,0.6-1.9,0.9-3,0.9c-1,0.1-2-0.4-2.7-1.2c-0.6-0.9-0.9-1.9-0.9-3c0.2-3.1,0.5-6.1,0.9-9.1
		s0.5-6,0.5-9.1c0-8.3-2.6-14.3-7.8-18.1s-11.7-5.7-19.6-5.8c-6-0.1-12,1.6-17,5c-4.7,3.3-7.1,8.7-7.1,16c-0.1,4.8,1.6,9.5,4.8,13.1
		c3.4,3.8,7.5,6.9,11.9,9.4c5,2.9,10.2,5.3,15.6,7.4c5.3,2.1,10.5,4.5,15.6,7.1c4.3,2.2,8.3,5,11.9,8.4
		C751.1,272.4,752.8,276.5,752.7,280.8z"/>
	<path class="st7" d="M394,68.9c0,1.1-0.3,2.2-0.9,3.2c-0.6,0.9-1.6,1.4-2.7,1.3L368,74.8l-58.2,304.8c-0.5,2.2-2.6,3.5-4.8,3.1
		c-1.5-0.3-2.7-1.5-3.1-3.1L236.3,60.9c-3.1,0.5-6.2,0.8-9.4,1.1s-6.3,0.3-9.4,0.3c-2.6,0-3.9-1.3-3.9-3.9s1.2-3.9,3.6-3.9l76.4-5.7
		h0.4c1.1,0,2.1,0.4,2.9,1.2c0.7,0.8,1.1,1.9,1.1,3c0,2.1-1.3,3.4-3.9,3.9l-25.2,1.8L314,316.6l46.2-241.1l-27,1.8
		c-1,0-1.9-0.3-2.7-0.9c-0.9-0.6-1.3-1.7-1.3-2.7c0-2.9,1.2-4.4,3.5-4.4l57.2-4c1.1,0,2.1,0.3,3,0.9C393.6,66.8,394,67.8,394,68.9z"
		/>
	<path class="st7" d="M439.5,247.4c0,2.4-1.3,3.8-3.9,4.2l-58.6,4.6c-0.2,3.1-0.4,6.1-0.5,9.1s-0.2,6.1-0.2,9.4
		c0,3.5,0.2,8,0.7,13.5s1.5,10.9,3,16.2c1.4,5,3.7,9.6,6.9,13.7c2.9,3.7,7.4,5.8,12.1,5.7c3.2,0.1,6.3-0.5,9.2-1.8
		c2.1-1,4.1-2.3,6-3.7c1.4-1.1,2.7-2.3,3.9-3.7c0.6-1,1.7-1.6,2.9-1.8c2.6,0,3.9,1.3,3.9,3.9c0,0.6-0.1,1.2-0.4,1.8
		c-1,2.2-2.5,4.2-4.4,5.7c-2,1.6-4.2,3-6.6,4.1s-4.9,1.9-7.5,2.5c-2.3,0.5-4.7,0.8-7.1,0.9c-7.6,0-14-2.1-19.4-6.4
		c-5.4-4.4-9.9-9.8-13.1-15.9c-3.5-6.5-6-13.4-7.6-20.5c-1.6-6.6-2.4-13.4-2.5-20.2c0.1-7.3,0.9-14.5,2.3-21.6
		c1.5-7.9,4-15.5,7.5-22.7c3.3-6.9,7.8-13,13.5-18.1c5.5-4.9,12.7-7.6,20.1-7.4c10.4,0,18.6,3.4,24.5,10.1
		c6,6.8,10.3,14.8,12.8,23.5c0.5,2.6,1,5.1,1.6,7.6C439.2,242.3,439.5,244.8,439.5,247.4z M414.6,237.4c0-2.4-0.1-5.3-0.4-8.9
		c-0.2-3.4-0.9-6.9-2-10.1c-1-3-2.5-5.8-4.4-8.3c-1.9-2.4-4.6-3.6-8.2-3.6c-3.3,0-6.2,1.7-8.7,5.1c-2.6,3.7-4.8,7.8-6.4,12.1
		c-1.7,4.5-3.2,9.1-4.3,13.9c-1.1,4.6-1.8,8.1-2.3,10.5l36.2-2.8c0.2-1.3,0.4-2.6,0.4-3.9L414.6,237.4z"/>
	<path class="st7" d="M572.3,343.3c0.1,5.1-1.4,10.1-4.4,14.2c-3,4-6.5,7.6-10.5,10.7c-6.5,4.9-13.9,8.4-21.8,10.3
		c-7.8,2.1-15.9,3.1-24,3.2c-5.4-0.1-10.8-0.4-16.2-1.1c-6.2-0.7-12.3-2.1-18.1-4.3c-5.5-1.9-10.5-4.9-14.7-8.9c-4-3.8-6-8.8-6-14.9
		c0-5.9,2.1-10.5,6.2-13.7s9.2-4.9,14.4-4.8c5.4,0,9.6,1.7,12.6,5.1s4.4,7.9,4.4,13.3c0,3.1-1.3,4.6-3.9,4.6c-1.9,0-3-0.8-3.4-2.3
		s-0.7-3.3-1.1-5.3c-0.3-1.9-1-3.7-2.1-5.3c-1.1-1.5-3.3-2.3-6.6-2.3c-6.6,0-9.9,3.6-10,10.7c-0.1,4.3,1.8,8.3,5.1,11
		c3.6,2.9,7.8,5.2,12.3,6.6c4.7,1.5,9.6,2.5,14.6,3s9.1,0.7,12.4,0.7c4.4-0.1,8.7-0.5,13-1.2c5.4-0.8,10.7-2.1,15.8-3.9
		c4.9-1.6,9.4-4,13.3-7.3c3.5-2.7,5.5-6.9,5.5-11.3c0-4.5-2.4-8.2-7.1-11c-5.6-3.2-11.7-5.7-17.9-7.3c-7.2-2-15-3.9-23.4-5.7
		c-8.4-1.8-16.2-3.8-23.5-6c-6.3-1.8-12.4-4.5-18-8.1c-4.7-3.2-7.1-7.4-7.1-12.6c-0.1-4.3,1.2-8.5,3.9-11.9c2.7-3.3,6.1-6,9.9-8
		c-6.1-2.3-11.9-5.6-16.9-9.8c-5.2-4.1-8.1-10.3-8-16.9c0-3.9,1-7.8,3-11.2c2-3.5,4.7-6.5,7.8-9.1c3.2-2.6,6.7-5,10.3-7
		c3.3-1.9,6.8-3.4,10.5-4.4c15.1-4.3,31.1-4.3,46.2,0c0.7-0.7,1.9-2,3.5-3.9c1.7-1.9,3.4-3.9,5.3-6c1.7-1.9,3.6-3.8,5.5-5.5
		c1.8-1.5,3.1-2.3,4.1-2.3c1.6,0.1,3.2,0.7,4.6,1.6c1.9,1.1,2.8,2.2,2.8,3.4c0,1.9-0.5,3.2-1.4,3.9l-15.3,12.1
		c5.3,2.3,10.2,5.5,14.4,9.6c4.1,4,6.2,9.3,6.2,16c0.2,5.9-1.9,11.7-5.8,16.1c-4.1,4.5-9,8.1-14.6,10.7c-5.8,2.7-12,4.7-18.3,5.9
		c-5.6,1.1-11.3,1.7-17,1.8c-2.2,0-4.4-0.1-6.6-0.4c-2.2-0.2-4.4-0.6-6.6-1.1c-2.7,0.9-5.3,2-7.8,3.4c-2.8,1.5-4.3,3.7-4.3,6.6
		c0,1.7,1.5,3.1,4.4,4.4c3.2,1.4,6.5,2.5,10,3.4c3.7,1,7.3,1.7,10.8,2.3s5.9,1,7.1,1.2c5.5,1.2,11.7,2.5,18.8,3.9
		c7,1.4,13.8,3.5,20.2,6.4c6.1,2.6,11.7,6.4,16.3,11.2C570.1,330.3,572.3,336.2,572.3,343.3z M533.3,250.8c0-8.3-2.7-14.6-8-18.8
		s-11.9-6.3-19.7-6.3c-8.1,0-14.6,2.6-19.7,7.9c-5.1,5.2-7.6,12.1-7.6,20.4c0,7.6,2.3,13.3,6.9,17s10.6,5.5,17.9,5.5
		c3.8,0,7.6-0.6,11.2-1.8c3.5-1.1,6.8-2.8,9.8-5C530,265.3,533.4,258.2,533.3,250.8L533.3,250.8z"/>
	<path class="st7" d="M678.2,306.6c0,2.5-1.2,3.8-3.5,4l-28.1,3.5c-1.1,0.3-2.4,0-3.2-0.9c-0.7-0.8-1.2-1.9-1.2-3
		c-0.1-1.2-0.1-2.4,0-3.6s0.2-2.2,0.2-2.9c-4.7,2.3-9.6,4.1-14.7,5.1c-4.9,1.2-10,1.9-15.1,2c-3.8,0-8.3-0.2-13.7-0.7
		c-5.2-0.5-10.3-1.6-15.3-3.4c-4.6-1.6-8.7-4.1-12.3-7.5c-3.3-3.2-5-7.5-5-13c0-5.9,2.2-10.5,6.8-13.7c4.8-3.3,10.3-5.7,16-6.9
		c6.2-1.4,12.6-2.3,19-2.5c6.5-0.2,11.8-0.4,15.8-0.4c2.8,0,6,0.2,9.6,0.5c3.2,0.3,6.4,0.8,9.6,1.6v-6c0-5.2-0.4-10.3-1.2-15.4
		c-0.7-4.8-2.3-9.3-4.6-13.6c-2.2-4-5.5-7.4-9.4-9.8c-4-2.5-9.1-3.7-15.3-3.7c-2.6,0-5.1,0.3-7.6,0.7c-2.7,0.5-5.2,1.3-7.6,2.5
		c-2.3,1.1-4.3,2.8-5.9,4.8c-1.6,2.2-2.4,4.9-2.3,7.6c0,4,1,6.7,2.8,8.2c1.8,1.4,4,2.4,6.2,2.8c2.3,0.5,4.3,0.9,6.2,1.2
		c1.7,0.1,3,1.7,2.8,3.4l0,0c0,1.1-0.4,2.1-1.2,2.8c-0.7,0.7-1.7,1-2.7,1.1c-3.1,0-6.2-0.5-9.2-1.2c-3.2-0.8-6.2-2-9.1-3.7
		c-2.7-1.6-4.9-3.7-6.8-6.2c-1.8-2.5-2.7-5.6-2.7-8.7c-0.2-4,1-7.9,3.4-11.2c2.3-3,5.3-5.4,8.7-7.1c3.6-1.8,7.5-3.1,11.4-3.7
		c3.8-0.7,7.6-1,11.4-1.1c9.7,0,17.9,1.5,24.7,4.6c6.5,2.9,12.1,7.3,16.3,13c4.3,6,7.3,12.8,8.9,20c1.8,8.2,2.7,16.7,2.7,25.1
		c0,5.5-0.2,11.1-0.7,16.8s-0.9,11.3-1.4,16.8l13.2-1.8c1,0,2,0.3,2.8,0.9C677.7,304.6,678.2,305.5,678.2,306.6z M643,273.3
		c-3.3-1-6.7-1.6-10.1-2c-3.4-0.4-6.7-0.5-10.1-0.5c-3.2,0.1-6.4,0.4-9.6,0.9c-3.7,0.6-7.4,1.6-10.8,3.1c-3.3,1.3-6.3,3.2-8.9,5.6
		c-2.5,2.2-3.8,5.5-3.7,8.8c-0.1,2.5,0.7,5,2.3,7c1.6,1.9,3.6,3.3,5.9,4.3c2.4,1.1,4.9,1.8,7.5,2.1c2.5,0.4,5,0.5,7.5,0.5
		c5.3,0,10.6-0.7,15.8-2s10-3.8,14-7.4L643,273.3z"/>
	<path class="st7" d="M758.8,275.8c0.1,4.4-1.1,8.7-3.5,12.4c-2.3,3.5-5.4,6.5-8.9,8.9c-3.7,2.4-7.7,4.2-11.9,5.3
		c-4.2,1.2-8.6,1.8-13,1.8c-3.8-0.1-7.6-0.4-11.4-1.1c-4.5-0.7-8.8-1.9-13-3.5c-3.9-1.5-7.5-3.8-10.6-6.6c-2.9-2.7-4.6-6.5-4.4-10.5
		c-0.1-3.7,1.4-7.3,4.1-9.8c2.8-2.5,6.4-3.9,10.1-3.8c3.5,0.1,6.8,1.3,9.6,3.4c3.3,2.3,5,5.1,5,8.7c0,2.6-1.3,3.9-3.9,3.9
		c-1.1,0.1-2.2-0.3-2.8-1.2c-0.5-0.9-1-1.9-1.4-2.8c-0.5-1.1-1.2-2-2-2.8s-2.3-1.2-4.4-1.2c-3.1,0-4.6,1.9-4.6,5.8
		c0,2.7,1.3,5.2,3.5,6.7c2.6,1.9,5.5,3.4,8.5,4.3c3.2,1.1,6.6,1.8,10,2.2c2.6,0.3,5.2,0.5,7.8,0.5c2.3,0,4.5-0.2,6.8-0.5
		c2.3-0.4,4.6-1.1,6.8-2.1c2-1,3.8-2.5,5.2-4.3c1.4-1.9,2.1-4.2,2-6.6c0-2.9-1.7-5.2-5-7.1c-3.9-2.2-8-3.9-12.2-5.3
		c-4.9-1.7-10.1-3.5-15.8-5.5c-5.5-1.9-10.8-4.4-15.8-7.5c-4.8-2.9-9-6.7-12.4-11.2c-3.3-4.5-5-10.2-5-17.1
		c-0.1-5.2,1-10.4,3.2-15.1c2.1-4.6,5-8.7,8.7-12.1c7.5-7,17.3-11.1,27.5-11.6c1.9,0,3.9,0.1,6,0.2s4.1,0.2,6,0.2
		c4.3,0.1,8.6-0.5,12.8-1.6c3.8-1.1,6.6-4.1,8.5-9.1c0.3-1.7,1.8-3,3.6-2.8c1.1,0,2.2,0.4,3,1.1c0.8,0.7,1.3,1.8,1.2,2.8l-3.5,44
		l-1.1,15.6c0.1,1-0.4,2-1.2,2.7c-0.9,0.6-1.9,0.9-3,0.9c-1,0.1-2.1-0.4-2.7-1.2c-0.6-0.9-0.9-1.9-0.9-3c0.2-3.1,0.5-6.1,0.9-9.1
		s0.5-6,0.5-9c0-8.3-2.6-14.3-7.8-18.1s-11.7-5.7-19.4-5.7c-6.1-0.2-12,1.6-17,5c-4.7,3.3-7.1,8.7-7.1,16c-0.1,4.8,1.6,9.5,4.8,13.1
		c3.4,3.7,7.5,6.9,11.9,9.4c5,2.9,10.2,5.4,15.6,7.5c5.3,2.1,10.5,4.5,15.6,7.1c4.3,2.2,8.3,5,11.9,8.3
		C757.1,267.4,758.9,271.5,758.8,275.8z"/>
	<path class="st6" d="M480.7,619.3c0,1.6-1.2,2.6-3.6,3l-139.2,6.2c-2.8,0-4.3-1-4.3-3.1c0-1.6,1.2-2.5,3.5-2.9l30.9-1.3
		l-13.1-233.3l-14,1c-4.6,0.3-9.3,0.5-14,0.5c-1,0.1-2-0.3-2.8-0.9c-0.7-0.5-1.1-1.3-1.1-2.2c0-1.5,1.2-2.5,3.5-2.9l91.6-4.9h0.4
		c1-0.2,2,0,2.8,0.6c0.7,0.5,1.1,1.3,1.1,2.2c0,1.6-1.2,2.5-3.5,2.9l-25.6,1.3l-6.4,234.7l82.8-3.6l5-30.6c0-1.9,1.3-2.9,3.9-2.9
		c1-0.1,2,0.3,2.8,0.9c0.7,0.5,1.1,1.3,1.1,2.2L480.7,619.3z"/>
	<path class="st6" d="M524,562.7c0,1.8-1.2,2.8-3.5,2.9l-28.1,2.6c-1.1,0.2-2.3,0-3.2-0.7c-0.7-0.5-1.1-1.3-1.2-2.2s-0.1-1.8,0-2.6
		c0.1-0.7,0.2-1.4,0.2-2.1c-4.8,1.7-9.7,3-14.7,3.7c-5,0.9-10,1.4-15.1,1.5c-3.8,0-8.3-0.2-13.7-0.5c-5.2-0.3-10.3-1.1-15.3-2.4
		c-4.4-1.1-8.5-2.9-12.2-5.5c-3.2-2.1-5.1-5.7-5-9.5c0-4.3,2.2-7.7,6.7-10c5-2.5,10.4-4.2,16-5.1c6.3-1,12.6-1.7,19-1.8
		c6.5-0.2,11.8-0.3,15.8-0.3c2.8,0,6,0.1,9.6,0.4c3.2,0.2,6.4,0.6,9.6,1.2V528c0-3.8-0.4-7.6-1.2-11.3c-0.8-3.6-2.4-7-4.6-10
		c-2.5-3.1-5.7-5.6-9.4-7.1c-4-1.8-9.1-2.7-15.3-2.7c-2.6,0-5.1,0.2-7.6,0.5c-2.6,0.3-5.2,0.9-7.6,1.8c-2.2,0.7-4.2,1.9-5.9,3.5
		c-1.5,1.4-2.4,3.5-2.3,5.6c0,3,0.9,4.9,2.8,6s4,1.8,6.2,2.1s4.3,0.7,6.2,0.9c1.9,0.3,2.8,1.1,2.8,2.5c0,0.9-0.5,1.7-1.2,2.1
		c-0.8,0.5-1.7,0.8-2.7,0.8c-3.1,0-6.2-0.3-9.2-0.9c-3.1-0.5-6.2-1.5-9.1-2.7c-2.5-1.1-4.8-2.6-6.8-4.5c-1.7-1.7-2.7-4-2.7-6.4
		c-0.1-3.1,1.1-6.1,3.4-8.2c2.5-2.3,5.5-4.1,8.7-5.2c3.7-1.3,7.5-2.2,11.4-2.7c3.8-0.5,7.6-0.8,11.4-0.8c9.7,0,17.9,1.1,24.7,3.4
		c6.1,1.9,11.7,5.1,16.3,9.5c4.1,4,7.2,9.1,8.9,14.6c1.8,5.9,2.7,12.1,2.7,18.3c0,4.1-0.2,8.2-0.7,12.2c-0.5,4.2-1,8.2-1.4,12.2
		l13.1-1.3c1,0,2,0.2,2.8,0.7C523.4,561.1,524,561.9,524,562.7z M488.8,538.4c-3.3-0.7-6.7-1.2-10.1-1.4c-3.4-0.3-6.8-0.4-10.1-0.4
		c-3.2,0-6.4,0.3-9.6,0.7c-3.7,0.4-7.3,1.2-10.8,2.2c-3.1,0.9-6.1,2.3-8.9,4.1c-2.3,1.3-3.7,3.8-3.7,6.4c-0.1,2,0.8,3.9,2.3,5.1
		c1.7,1.4,3.7,2.5,5.9,3.2c2.4,0.8,4.9,1.3,7.5,1.6s5.1,0.4,7.5,0.4c5.3,0,10.6-0.5,15.8-1.4c5-0.8,9.7-2.7,14-5.4L488.8,538.4z"/>
	<path class="st6" d="M648,558c0,0.9-0.4,1.7-1.1,2.3c-0.8,0.7-1.8,1-2.8,1l-60,0.5c-2.6,0-3.9-1-3.9-3c0-1.8,1.3-2.9,3.9-3.3h18.8
		c0.7-5.5,1.3-11.1,1.8-16.7c0.5-5.6,0.7-11.2,0.7-16.7c0-2.9-0.1-6.6-0.3-10.9c-0.2-4.3-1.1-8.4-2.7-12.4
		c-1.5-3.9-3.9-7.4-7.1-10.1c-3.2-2.8-7.6-4.1-13.3-4.1c-4.2,0-8.3,1-12.1,2.9c-3.3,1.4-6.4,3.5-8.9,6.1c-2.3,2.4-4.2,5.2-5.7,8.2
		c-1.4,2.9-2.4,5.9-3,9.1c-0.6,3-0.9,6-0.9,9.1v21.5l16-0.5c1,0,2.1,0.2,3,0.7c0.8,0.3,1.3,1.1,1.2,2c0,2.1-1.3,3.1-3.9,3.1
		l-62.9,1.8c-1,0-2.1-0.2-3-0.7c-0.8-0.3-1.3-1.1-1.2-1.9c0-2.1,1.3-3.1,3.9-3.1l33.7-1L525.4,486l-25.9,1c-1,0.2-2.1,0-3-0.5
		c-0.8-0.4-1.2-1.2-1.2-2.1c0-1.7,1.2-2.8,3.5-3.1l47.2-1.8c2.8,0,4.3,1,4.3,2.9l0.3,12.7c3.3-4.7,7.6-8.6,12.6-11.4
		c5.7-3.2,12.1-4.8,18.7-4.6c8.8,0,16,0.9,21.7,2.6c5.1,1.4,9.8,4,13.7,7.5c3.4,3.3,5.9,7.4,7.3,11.9c1.5,5.1,2.2,10.4,2.1,15.8
		c0,13.1-2,26.1-6,38.5l23-0.3c1.1,0,2.1,0.3,3,0.8C647.5,556.2,648,557.1,648,558z"/>
	<path class="st6" d="M775.8,541.5c0,1.4-1,2.3-2.8,2.9c-1,0.2-3.3,0.7-7.1,1.6c-3.8,0.9-7.8,1.8-12.1,2.7l-11.7,2.6
		c-2,0.5-4,0.9-6,1.2c-1,0.1-2-0.3-2.8-0.9c-0.7-0.5-1.1-1.3-1.1-2.2c0-1.6,0.1-3.2,0.4-4.8c0.2-1.6,0.3-3.2,0.3-4.8
		c-2.6,1-5.3,1.8-8,2.5c-3.2,0.8-6.5,1.5-10,2.1c-3.4,0.6-6.8,1.1-10.1,1.4c-2.9,0.3-5.9,0.5-8.9,0.5c-4.5,0-10-0.3-16.5-0.9
		c-6.3-0.6-12.6-1.7-18.6-3.5c-5.4-1.5-10.5-3.8-15.1-6.9c-4.1-2.9-6.2-6.5-6.2-10.8c0-4.8,2.2-8.8,6.6-11.9
		c4.9-3.4,10.3-5.9,16-7.5c6.4-1.9,13-3.3,19.7-4c5.9-0.7,11.8-1.1,17.8-1.2c6.1,0,12.1,0.5,18.1,1.4c5.9,1,11.7,2.9,17,5.6
		c0.2-3.3,0.3-6.6,0.3-9.9v-10.1c0-16.8-0.1-33.5-0.3-50.2s-0.6-33.4-1.1-50.2h-21.3c-2.8,0-4.3-0.9-4.3-2.9s1.4-2.9,4.3-2.9h45.5
		c2.6,0,3.9,1,3.9,3.1c0,1.6-0.1,3.2-0.3,4.8c-0.2,1.6-0.5,3.2-0.7,4.5l-2.1,17.9c-2.1,18.9-3.6,37.8-4.3,56.8
		c-0.7,15.2-1.1,30.7-1.1,46.4v14.3c0,4.7,0.1,9.4,0.3,14.3l3.9-0.9c1.9-0.4,3.8-0.9,5.9-1.3l5.5-1.2c1-0.3,2.1-0.4,3.2-0.5
		C774.5,538.7,775.8,539.6,775.8,541.5z M734.3,513.8c-4.4-3.1-9.4-5.3-14.7-6.5c-5.7-1.4-11.6-2.1-17.5-2.1
		c-4.3,0-8.6,0.4-12.8,1.2c-4,0.7-7.9,1.9-11.5,3.5c-3.2,1.4-6,3.5-8.2,6.2c-2,2.7-3.1,6-3,9.3c-0.1,2.8,0.8,5.5,2.7,7.7
		c2,2.1,4.4,3.7,7.1,4.7c3.1,1.2,6.4,1.9,9.7,2.2c3.5,0.4,7.1,0.5,10.7,0.5c6.6,0,13.1-0.6,19.5-1.8c6.2-1,12.1-3.2,17.4-6.5
		c0.2-2.9,0.4-6,0.5-9.1S734.3,516.9,734.3,513.8z"/>
	<path class="st7" d="M486.8,615.6c0,1.6-1.2,2.6-3.5,3L344,624.8c-2.8,0-4.3-1-4.3-3.1c0-1.6,1.2-2.5,3.5-2.8l30.9-1.3L361,384.2
		l-14,1c-4.6,0.3-9.3,0.5-14,0.5c-1,0.1-2-0.3-2.8-0.9c-0.7-0.5-1.1-1.3-1.1-2.2c0-1.6,1.2-2.5,3.6-2.9l91.6-4.9h0.4
		c1-0.2,2,0,2.8,0.6c0.7,0.5,1.1,1.3,1.1,2.2c0,1.5-1.2,2.5-3.5,2.9l-25.6,1.3L393,616.5l82.8-3.6l5-30.6c0-1.9,1.3-2.9,3.9-2.9
		c1,0,2,0.3,2.8,0.9c0.7,0.5,1.1,1.3,1.1,2.2L486.8,615.6z"/>
	<path class="st7" d="M530.1,559c0,1.8-1.2,2.8-3.6,2.9l-28.1,2.6c-1.1,0.2-2.3,0-3.2-0.7c-0.7-0.5-1.1-1.3-1.2-2.2s-0.1-1.8,0-2.6
		c0.1-0.7,0.2-1.4,0.2-2.1c-4.8,1.7-9.7,3-14.7,3.7c-5,0.9-10,1.4-15.1,1.5c-3.8,0-8.4-0.2-13.7-0.5c-5.2-0.3-10.3-1.1-15.3-2.5
		c-4.4-1.1-8.5-2.9-12.3-5.5c-3.2-2.1-5.1-5.7-5-9.5c0-4.3,2.2-7.7,6.8-10c5-2.5,10.4-4.2,16-5.1c6.3-1.1,12.6-1.7,19-1.8
		c6.5-0.2,11.8-0.3,15.8-0.3c2.8,0,6,0.1,9.6,0.4c3.2,0.2,6.4,0.6,9.6,1.2v-4.4c0-3.8-0.4-7.6-1.2-11.3c-0.8-3.6-2.4-7-4.6-10
		c-2.5-3.1-5.7-5.6-9.4-7.1c-4-1.8-9.1-2.7-15.3-2.7c-2.6,0-5.1,0.2-7.6,0.5c-2.6,0.3-5.2,0.9-7.6,1.8c-2.2,0.8-4.2,1.9-5.9,3.5
		c-1.5,1.4-2.4,3.5-2.3,5.6c0,2.9,0.9,4.9,2.8,6s4,1.8,6.2,2.1c2.3,0.3,4.3,0.7,6.2,0.9c1.9,0.3,2.8,1.1,2.8,2.5
		c0,0.9-0.5,1.7-1.2,2.1c-0.8,0.5-1.7,0.8-2.7,0.8c-3.1,0-6.2-0.3-9.2-0.9c-3.1-0.5-6.2-1.5-9.1-2.7c-2.5-1.1-4.8-2.6-6.8-4.5
		c-1.7-1.7-2.7-4-2.7-6.4c-0.1-3.1,1.1-6.1,3.4-8.2c2.5-2.3,5.5-4.1,8.7-5.2c3.7-1.3,7.5-2.2,11.4-2.7c3.8-0.5,7.6-0.8,11.4-0.8
		c9.7,0,17.9,1.1,24.7,3.4c6.1,1.9,11.7,5.1,16.3,9.5c4.1,4,7.2,9.1,8.9,14.6c1.8,6,2.7,12.1,2.7,18.4c0,4.1-0.2,8.2-0.7,12.2
		c-0.5,4.2-0.9,8.2-1.4,12.2l13.1-1.3c1,0,2,0.2,2.8,0.7C529.5,557.5,530,558.2,530.1,559z M494.9,534.8c-3.3-0.7-6.7-1.2-10.1-1.4
		c-3.4-0.3-6.8-0.4-10.1-0.4c-3.2,0-6.4,0.3-9.6,0.7c-3.7,0.4-7.3,1.2-10.8,2.2c-3.1,0.9-6.1,2.3-8.9,4.1c-2.3,1.3-3.7,3.8-3.7,6.4
		c-0.1,2,0.8,3.9,2.3,5.1c1.7,1.4,3.7,2.5,5.9,3.2c2.4,0.8,4.9,1.3,7.5,1.6s5.1,0.4,7.5,0.4c5.3,0,10.6-0.5,15.8-1.4
		c5-0.8,9.7-2.7,14-5.4L494.9,534.8z"/>
	<path class="st7" d="M654,554.3c0,0.9-0.4,1.7-1.1,2.3c-0.8,0.7-1.8,1-2.8,1l-60,0.5c-2.6,0-3.9-1-3.9-3s1.3-2.9,3.9-3.3H609
		c0.7-5.5,1.3-11.1,1.8-16.7c0.5-5.6,0.7-11.2,0.7-16.7c0-2.9-0.1-6.5-0.3-10.9c-0.2-4.3-1.1-8.4-2.7-12.4
		c-1.5-3.9-3.9-7.4-7.1-10.1c-3.2-2.8-7.6-4.1-13.3-4.1c-7.9,0.3-15.4,3.5-21,9c-2.3,2.4-4.2,5.2-5.7,8.2c-1.4,2.9-2.4,5.9-3,9.1
		c-0.6,3-0.9,6-0.9,9.1v21.5l16-0.5c1,0,2.1,0.2,3,0.7c0.8,0.3,1.3,1.1,1.2,1.9c0,2.1-1.3,3.1-3.9,3.1l-62.9,1.8c-1,0-2.1-0.2-3-0.7
		c-0.8-0.3-1.3-1.1-1.2-2c0-2.1,1.3-3.1,3.9-3.1l33.7-1l-12.8-55.8l-25.9,1c-1,0.2-2.1,0-3-0.5c-0.8-0.4-1.2-1.2-1.2-2.1
		c0-1.7,1.2-2.8,3.6-3.1l47.2-1.8c2.8,0,4.3,0.9,4.3,2.9l0.3,12.7c3.3-4.7,7.6-8.5,12.6-11.4c5.7-3.2,12.1-4.8,18.7-4.7
		c8.8,0,16,0.9,21.7,2.6c5.1,1.4,9.8,4,13.7,7.5c3.4,3.3,5.9,7.4,7.3,11.9c1.5,5.1,2.2,10.4,2.1,15.8c0,13.1-2,26.1-6,38.5l23.1-0.3
		c1.1,0,2.1,0.3,3,0.8C653.6,552.6,654.1,553.4,654,554.3z"/>
	<path class="st7" d="M781.9,537.8c0,1.4-0.9,2.3-2.8,2.8c-1,0.2-3.3,0.7-7.1,1.6s-7.8,1.8-12.1,2.7c-4.3,1-8.2,1.8-11.7,2.6
		c-2,0.5-4,0.9-6,1.2c-1,0.1-2-0.3-2.8-0.9c-0.7-0.5-1.1-1.3-1.1-2.2c0-1.6,0.1-3.2,0.3-4.8s0.4-3.2,0.4-4.8c-2.6,1-5.3,1.8-8,2.5
		c-3.2,0.8-6.5,1.5-9.9,2.1s-6.8,1.1-10.1,1.4c-2.9,0.3-5.9,0.5-8.9,0.5c-4.5,0-10-0.3-16.5-0.9c-6.3-0.6-12.6-1.7-18.7-3.5
		c-5.4-1.5-10.5-3.8-15.1-6.9c-4.1-2.9-6.2-6.5-6.2-10.8c0-4.8,2.2-8.8,6.6-11.9c4.9-3.4,10.3-5.9,16-7.5c6.4-1.9,13-3.3,19.7-4
		c5.9-0.7,11.8-1.1,17.8-1.2c6.1,0,12.1,0.5,18.1,1.4c5.9,1,11.7,2.8,17,5.6c0.2-3.3,0.4-6.6,0.4-9.9v-10.2
		c0-16.8-0.1-33.5-0.4-50.2c-0.2-16.7-0.6-33.4-1.1-50.2h-21.4c-2.8,0-4.3-1-4.3-2.9s1.4-2.9,4.3-2.9h45.5c2.6,0,3.9,1,3.9,3.1
		c0,1.6-0.1,3.2-0.4,4.8c-0.2,1.6-0.5,3.2-0.7,4.5l-2.1,17.9c-2.1,18.9-3.5,37.8-4.3,56.8c-0.7,15.2-1.1,30.7-1.1,46.5v14.3
		c0,4.7,0.1,9.4,0.4,14.3c0.7-0.2,2-0.5,3.9-0.9s3.8-0.9,5.9-1.3l5.5-1.2c1.1-0.2,2.1-0.4,3.2-0.5C780.6,535,781.9,536,781.9,537.8z
		 M740.4,510.1c-4.4-3.1-9.4-5.3-14.7-6.5c-5.8-1.4-11.7-2.1-17.6-2.1c-4.3,0-8.6,0.4-12.8,1.2c-4,0.7-7.9,1.9-11.5,3.5
		c-3.2,1.4-6,3.5-8.2,6.2c-2,2.7-3.1,6-3,9.3c-0.1,2.8,0.8,5.5,2.7,7.7c2,2.1,4.4,3.7,7.1,4.7c3.1,1.2,6.4,1.9,9.8,2.2
		c3.6,0.4,7.1,0.5,10.7,0.5c6.6,0,13.1-0.6,19.5-1.8c6.2-1,12.1-3.2,17.4-6.5c0.2-2.9,0.4-6,0.5-9.1
		C740.3,516.3,740.4,513.2,740.4,510.1z"/>
</g>
<g>
	<g>
		<ellipse class="st6" cx="864.2" cy="552.4" rx="68.2" ry="77.3"/>
	</g>
</g>
<g>
	<g>
		<ellipse class="st6" cx="920.9" cy="591.2" rx="31" ry="34"/>
	</g>
</g>
<g>
	<g>
		<ellipse class="st8" cx="872.7" cy="561.1" rx="68.2" ry="77.3"/>
	</g>
</g>
<g>
	<g>
		<ellipse class="st9" cx="926.6" cy="597.4" rx="31" ry="34"/>
	</g>
</g>
<g>
	<ellipse class="st6" cx="96" cy="112.8" rx="51.6" ry="63.6"/>
</g>
<g>
	<ellipse class="st6" cx="135.5" cy="153.6" rx="29" ry="35.7"/>
</g>
<g>
	<ellipse class="st4" cx="89" cy="105.1" rx="51.6" ry="63.6"/>
</g>
<g>
	<ellipse class="st9" cx="130" cy="148.8" rx="29" ry="35.7"/>
</g>
</svg>
