<svg id="Layer_1" data-name="Layer 1" xmlns="http://www.w3.org/2000/svg" viewBox="0 0 20 20"><defs><style>.cls-1{fill:#e6e6e6;}</style></defs><path class="cls-1" d="M4.29,15.06l0-.37c.24-2.07-.56-3.12-2.62-3.41l.07-.52C4,11.07,5,12.26,4.89,14.4l2.44-.51A1.36,1.36,0,0,0,8,12.35L6.45,9.12A.26.26,0,0,0,6.27,9l-2-.11a2.63,2.63,0,0,1-1.48-.4L1.53,7.72l.28-.44,1.26.81a2.26,2.26,0,0,0,1.22.32l2,.11a.8.8,0,0,1,.59.33l1.63,3.37a1.88,1.88,0,0,1-1,2.14l-.08,0Z"/><path class="cls-1" d="M12.54,11.39H9.47a.53.53,0,0,1-.53-.53V7.28a.53.53,0,0,1,.53-.53h3.07a.53.53,0,0,1,.53.53v.83h-.53V7.28H9.47v3.58h3.07v-.09h.53v.08A.53.53,0,0,1,12.54,11.39Z"/><rect class="cls-1" x="10.64" y="7.58" width="0.73" height="0.52"/><path class="cls-1" d="M12.93,16.14a1.31,1.31,0,0,1-.85-.3.66.66,0,0,1-.22-.63l.65-2.78a.83.83,0,0,1,.25-.41l1.36-1.17.34.39-1.35,1.17a.24.24,0,0,0-.09.14l-.65,2.77a.16.16,0,0,0,.06.14.8.8,0,0,0,.65.14.15.15,0,0,0,.12-.1l.68-2.75,1.73-1.31a.15.15,0,0,0,.07-.14V7.6a.6.6,0,0,0-.51-.34.71.71,0,0,0-.75.29l-.87,1.78H11.88a.26.26,0,0,0-.26.26.26.26,0,0,0,.26.25h1.94a.18.18,0,0,0,.16-.1L14.7,8.2l.47.22L14.45,10a.68.68,0,0,1-.63.4H11.88a.77.77,0,0,1-.78-.77.78.78,0,0,1,.78-.78h1.34L14,7.29a1.26,1.26,0,0,1,1.3-.55,1.13,1.13,0,0,1,.93.8V11.3a.72.72,0,0,1-.28.56l-1.59,1.2-.63,2.56a.65.65,0,0,1-.47.48A1.06,1.06,0,0,1,12.93,16.14Z"/><path class="cls-1" d="M18,15.53a.92.92,0,0,1-.45-.12l-2.26-1.3a.9.9,0,0,1-.35-.42l-.17-.49.49-.18.17.49a.33.33,0,0,0,.12.14L17.8,15a.35.35,0,0,0,.49-.12.36.36,0,0,0-.11-.5L16.12,13l-.21-.64.5-.16.15.46,1.9,1.21A.89.89,0,0,1,18,15.53Z"/><path class="cls-1" d="M1.75,16v-.52a1.57,1.57,0,1,0,0-3.13v-.51a2.08,2.08,0,1,1,0,4.16Z"/><path class="cls-1" d="M3.64,8.59l-.51-.12.78-3.09a.69.69,0,0,1,.46-.49l2.28-.74.16.5-2.28.73a.2.2,0,0,0-.12.13Z"/><path class="cls-1" d="M14.48,6.73a1.47,1.47,0,1,1,1.46-1.47A1.46,1.46,0,0,1,14.48,6.73Zm0-2.4a.94.94,0,1,0,.94.93A.94.94,0,0,0,14.48,4.33Z"/></svg>