<svg id="Layer_1" data-name="Layer 1" xmlns="http://www.w3.org/2000/svg" viewBox="0 0 20 20"><defs><style>.cls-1{fill:#e6e6e6;}</style></defs><path class="cls-1" d="M17.23,6.9H14.49a.86.86,0,0,0-.86.86v3.16h-1a2.39,2.39,0,0,0,.07-.74h0a7,7,0,0,0-.65-3A3.21,3.21,0,0,0,11,6,2.17,2.17,0,0,0,11.6,4.4a2,2,0,1,0-4,0,.24.24,0,0,0,.24.24H8a1.23,1.23,0,0,0,0,.27A1.62,1.62,0,0,0,9.28,6.52a4,4,0,0,0-.12,1l-.59.5-1.44.12L5.47,7.63a.49.49,0,0,0-.47,0A.43.43,0,0,0,4.85,8V9.22a.24.24,0,0,0,.24.24h.28L4.94,11a.24.24,0,0,0,.16.3.24.24,0,0,0,.29-.17l.47-1.62h.68a7.67,7.67,0,0,0,.37,6H6.49l-1.78-2,.38-1.3a.24.24,0,0,0-.17-.29.24.24,0,0,0-.29.16l-.36,1.24a2.38,2.38,0,0,0-2.35,1.85.24.24,0,0,0,.17.29l.34.07a1.8,1.8,0,0,0,1.4,1.94,1.4,1.4,0,0,0,.41,0,1.81,1.81,0,0,0,1.69-1.18l.27.06a.31.31,0,0,0,.23,0,.26.26,0,0,0,.13-.18,2,2,0,0,0,0-.24h5a2,2,0,0,0,4,0h.22a.34.34,0,0,0,.25-.09.31.31,0,0,0,.08-.23A2.67,2.67,0,0,0,16,15a3.67,3.67,0,0,0-.26-2.39.63.63,0,0,0,.28-.52v-.66h1.2a.85.85,0,0,0,.86-.86V7.76a.86.86,0,0,0-.86-.86ZM5,16.79a1.36,1.36,0,0,1-1,.17h0a1.34,1.34,0,0,1-1-1.37l2.57.59a1.4,1.4,0,0,1-.52.61Zm1.18-.94L2.44,15a1.91,1.91,0,0,1,1.89-1.25l1.81,2S6.13,15.82,6.13,15.85Zm3.58-4.13a2,2,0,0,0-.07.71v.9H8.78V12.1c0-1.39.75-1.63,1.09-1.68H12.2a1,1,0,0,1-.22.69,1.13,1.13,0,0,1-.82.24h-.85a.58.58,0,0,0-.6.37ZM9.64,13.8v.57H8A.7.7,0,0,1,8.12,14a.57.57,0,0,1,.42-.16ZM12.19,10H10c-.09-.27-.16-.57-.23-.88l.66-.42a1,1,0,0,0,.51-.9.87.87,0,0,0-.52-.69.88.88,0,0,0-.8.09,2.45,2.45,0,0,1,.12-.6l.3-.06a2,2,0,0,0,.55-.22c.46.27,1.46,1.16,1.57,3.68ZM8.07,4.17a1.54,1.54,0,0,1,3.06.23,1.61,1.61,0,0,1-.89,1.53V4.68a.46.46,0,0,0-.47-.51H8.07Zm.36.74a1.24,1.24,0,0,1,0-.27H9.77V6.07H9.6A1.17,1.17,0,0,1,8.43,4.91ZM8.12,8.58l.56-.05a.2.2,0,0,0,.14-.06l1-.87h0a.51.51,0,0,1,.31-.12.3.3,0,0,1,.13,0,.38.38,0,0,1,.23.29.53.53,0,0,1-.3.46L9.07,9h-1v-.4Zm-1,.08.53-.05V9H7c-.08,0-.1-.06-.11-.12A.19.19,0,0,1,7.12,8.66Zm-.56-.17a.69.69,0,0,0-.1.39s0,.07,0,.1H5.32v-.9l1.24.41Zm.48,1h2.1a.28.28,0,0,0,.13,0l.11-.07c0,.23.11.45.17.66-.48.14-1.25.6-1.25,2.09v1.25a1,1,0,0,0-.53.28,1.18,1.18,0,0,0-.29.74H7A6.94,6.94,0,0,1,7,9.46Zm.39,6c-.09-.2-.17-.4-.25-.6H9.64c.32,0,.48-.14.48-.43V12.67H12a.24.24,0,0,0,.24-.24A.23.23,0,0,0,12,12.2H10.12a.8.8,0,0,1,0-.31s0-.06.15-.06h.85a1.5,1.5,0,0,0,1.16-.4l0,0h3.2v.66a.15.15,0,0,1-.15.15H13.05a.23.23,0,0,0-.24.23.24.24,0,0,0,.24.24h2.22a2.77,2.77,0,0,1,.35,1.46,2.57,2.57,0,0,0-2.09-1.07,2.54,2.54,0,0,0-1.83.77A2.66,2.66,0,0,0,11,15.45Zm6.13,1.73A1.56,1.56,0,0,1,12,15.92h3a1.55,1.55,0,0,1-1.51,1.25Zm1.78-1.72H11.43a2.12,2.12,0,0,1,2.1-1.91,2.1,2.1,0,0,1,2,1.5h0c0,.13.06.26.08.4Zm2.28-4.92a.39.39,0,0,1-.39.39H14.1V9.7h3.52Zm0-1.31H14.1v-.5h3.52Zm0-1H14.1V7.76a.39.39,0,0,1,.39-.38h2.74a.39.39,0,0,1,.39.38Z"/></svg>