<?xml version="1.0" encoding="utf-8"?>
<!-- Generator: Adobe Illustrator 25.0.0, SVG Export Plug-In . SVG Version: 6.00 Build 0)  -->
<svg version="1.1" id="Layer_1" xmlns="http://www.w3.org/2000/svg" xmlns:xlink="http://www.w3.org/1999/xlink" x="0px" y="0px"
	 viewBox="0 0 1920 1080" style="enable-background:new 0 0 1920 1080;" xml:space="preserve">
<style type="text/css">
	.st0{opacity:0.2;}
	.st1{fill:#B3B3B3;}
	.st2{fill:#999999;}
</style>
<g class="st0">
	<path class="st1" d="M99.1,588c-11.7-6.8-23.6-13.3-35.6-19.4s-24.5-11.6-37-16.7c-12.5-5.1-25.3-9.3-38.4-12.7
		c-6.5-1.7-13.1-2.8-19.8-3.3c-3.3-0.3-6.5-0.1-9.8,0.4c-3.1,0.5-6,2-7.4,4.2s-1,5.5,0.1,8.5c1.2,3,2.7,5.9,4.6,8.6
		c3.8,5.5,8.1,10.6,12.8,15.3c9.5,9.5,19.6,18.4,30.3,26.6c43,32.7,90,59.8,139.8,80.5c12.4,5.2,25.1,9.5,38,13
		c6.3,1.8,12.8,2.9,19.4,3.5c3.1,0.3,6.2,0.2,9.3-0.2c2.9-0.5,5.3-1.7,6.4-3.3s0.9-4.4-0.1-7.2c-1.1-2.9-2.5-5.7-4.3-8.3
		c-3.6-5.5-7.8-10.7-12.3-15.5c-9.2-9.8-19.1-19-29.5-27.5C144.7,617.3,122.4,601.7,99.1,588z M99.5,587.5
		c11.7,6.8,23.3,13.8,34.7,21.2c11.4,7.3,22.7,15,33.5,23.1c11,8.1,21.4,16.9,31.2,26.5c5,4.8,9.5,10.1,13.5,15.8
		c2.1,3,3.8,6.2,5.1,9.6c0.3,0.9,0.6,1.8,0.8,2.8c0.2,1,0.3,2,0.4,3.1c0.4,4.7-2.2,9.2-6.5,11.2c-0.9,0.5-1.9,0.9-2.9,1.2
		c-1,0.3-1.9,0.5-2.9,0.7c-3.6,0.6-7.3,0.7-10.9,0.4c-7-0.6-13.8-1.8-20.6-3.6c-13.2-3.6-26.2-8.1-38.8-13.5
		c-25-10.8-49.3-23.2-72.6-37.2c-23.4-13.8-45.9-29.1-67.3-45.9c-10.7-8.4-20.9-17.5-30.4-27.3c-4.8-4.9-9.2-10.3-13-16
		c-2-2.9-3.6-6.1-4.8-9.4c-0.3-0.9-0.5-1.8-0.7-2.6c-0.2-0.9-0.3-1.9-0.3-2.8c-0.1-2,0.4-4,1.3-5.8c1.1-1.7,2.6-3,4.4-3.9
		c0.8-0.4,1.7-0.8,2.6-1c0.9-0.2,1.8-0.4,2.7-0.6c3.5-0.5,7-0.6,10.5-0.2c6.8,0.7,13.6,1.9,20.2,3.8c13.1,3.7,25.9,8.3,38.3,13.8
		c12.5,5.3,24.7,11.2,36.8,17.4S87.7,580.6,99.5,587.5L99.5,587.5z"/>
	<path class="st1" d="M52.8,600.6c-6,12.1-11.8,24.4-17,36.8s-10,25.2-14.2,38c-4.3,12.8-7.6,25.9-10.1,39.2
		c-1.3,6.6-1.9,13.2-2,19.9c-0.1,3.3,0.3,6.5,1,9.7c0.8,3.1,2.3,5.9,4.7,7.1s5.6,0.6,8.5-0.7c3-1.4,5.7-3.1,8.3-5.1
		c5.2-4.2,10-8.8,14.4-13.8c8.9-10.1,17.1-20.8,24.5-32c15-22.5,28.4-45.9,40.2-70.2c12-24.2,22.3-49.1,30.9-74.6
		c4.3-12.7,7.8-25.6,10.4-38.8c1.3-6.4,2.1-13,2.3-19.5c0.1-3.1-0.2-6.2-0.9-9.3c-0.7-2.9-2.1-5.2-3.8-6.1s-4.4-0.6-7.2,0.5
		c-2.9,1.3-5.5,2.9-8,4.8c-5.3,4-10.2,8.5-14.7,13.3c-9.2,9.8-17.7,20.3-25.4,31.2C79,553.2,65,576.4,52.8,600.6z M52.2,600.3
		c6-12.2,12.3-24.2,18.8-36c6.6-11.9,13.4-23.6,20.9-35c7.4-11.5,15.5-22.5,24.3-32.9c4.5-5.3,9.5-10.1,14.9-14.5
		c2.8-2.3,5.9-4.2,9.3-5.7c0.9-0.4,1.8-0.7,2.8-1c1-0.3,2-0.5,3-0.6c4.7-0.7,9.3,1.6,11.6,5.7c0.5,0.9,1,1.8,1.4,2.8
		c0.3,0.9,0.6,1.9,0.9,2.8c0.8,3.6,1.2,7.2,1.1,10.9c-0.1,7-0.8,13.9-2.2,20.8c-2.8,13.4-6.4,26.6-11,39.6
		c-9.1,25.7-19.9,50.7-32.3,74.9c-12.2,24.3-26,47.8-41.4,70.2c-7.7,11.3-16.1,22-25.3,32.1c-4.6,5.1-9.7,9.8-15.1,14
		c-2.8,2.2-5.8,4-9,5.4c-0.9,0.3-1.7,0.6-2.6,0.9c-0.9,0.2-1.8,0.4-2.8,0.5c-2,0.2-4-0.1-5.8-1c-1.7-1-3.2-2.4-4.2-4.1
		c-0.5-0.8-0.9-1.7-1.2-2.5c-0.3-0.9-0.5-1.7-0.8-2.6c-0.7-3.4-1.1-6.9-0.9-10.5c0.2-6.8,1-13.6,2.4-20.3
		c2.9-13.3,6.6-26.4,11.2-39.2c4.5-12.8,9.5-25.4,14.9-37.8S46.2,612.5,52.2,600.3L52.2,600.3z"/>
	<path class="st1" d="M119.1,607.1c-3.5-13.1-7.2-26.1-11.5-39s-9.1-25.5-14.4-38C88,517.7,81.9,505.6,75.1,494
		c-3.4-5.8-7.3-11.3-11.6-16.3c-2.1-2.5-4.5-4.7-7.2-6.6c-2.6-1.8-5.6-2.9-8.2-2.2c-2.6,0.8-4.6,3.2-5.9,6.1c-1.3,3-2.3,6.1-2.8,9.3
		c-1.2,6.6-1.8,13.2-1.8,19.9c0,13.5,0.8,26.9,2.6,40.2c7.2,53.5,21.3,105.9,41.9,155.9c5.1,12.4,11,24.4,17.7,36
		c3.2,5.7,7,11.1,11.2,16.2c2,2.4,4.3,4.6,6.8,6.4c2.4,1.8,5,2.5,6.9,2.1s3.8-2.4,5.1-5.2c1.3-2.8,2.3-5.8,2.9-8.9
		c1.3-6.5,2-13,2.2-19.6c0.4-13.4-0.1-26.9-1.4-40.3C130.6,660,125.9,633.3,119.1,607.1z M119.7,607c3.5,13.1,6.7,26.2,9.6,39.5
		c2.9,13.2,5.5,26.6,7.4,40c2.1,13.5,3.2,27.2,3.4,40.8c0.1,7-0.5,13.9-1.7,20.8c-0.6,3.6-1.7,7.1-3.2,10.4
		c-0.4,0.9-0.9,1.7-1.4,2.6c-0.6,0.9-1.2,1.7-1.9,2.5c-3,3.6-8,5-12.5,3.3c-1-0.3-1.9-0.7-2.9-1.2c-0.8-0.5-1.7-1-2.5-1.5
		c-3-2.1-5.7-4.6-8-7.5c-4.5-5.3-8.5-11.1-12-17.1c-6.8-11.9-12.8-24.3-17.8-37c-10.1-25.3-18.5-51.2-25.1-77.7
		c-6.8-26.3-11.9-53.1-15.2-80.1c-1.6-13.5-2.4-27.2-2.2-40.8c0.1-6.9,0.8-13.7,2.1-20.5c0.7-3.5,1.7-6.8,3.2-10
		c0.4-0.8,0.9-1.6,1.4-2.4c0.5-0.8,1.1-1.5,1.8-2.2c1.4-1.5,3.1-2.6,5-3.1c2-0.4,4-0.3,5.9,0.3c0.9,0.3,1.8,0.7,2.6,1.1
		c0.8,0.5,1.6,1,2.3,1.4c2.8,2.1,5.4,4.5,7.6,7.2c4.4,5.3,8.2,11,11.6,17c6.6,11.9,12.4,24.1,17.4,36.8c5.1,12.6,9.6,25.4,13.7,38.3
		S116.2,593.9,119.7,607L119.7,607z"/>
	<path class="st1" d="M71.9,583.7c-13.1,3.5-26,7.4-38.9,11.7s-25.5,9.2-37.9,14.6c-12.4,5.3-24.4,11.5-36,18.4
		c-5.8,3.4-11.2,7.3-16.3,11.7c-2.5,2.1-4.7,4.6-6.6,7.2c-1.8,2.6-2.9,5.7-2.2,8.3c0.8,2.6,3.2,4.6,6.1,5.9c3,1.3,6.1,2.2,9.3,2.8
		c6.6,1.1,13.2,1.7,19.9,1.7c13.5-0.1,26.9-1,40.2-2.9c26.7-3.7,53.2-9.2,79.2-16.5c26-7.1,51.5-16,76.3-26.5
		c12.3-5.2,24.3-11.2,35.9-18c5.7-3.3,11.1-7.1,16.1-11.3c2.4-2,4.5-4.3,6.4-6.8c1.7-2.4,2.5-5,2.1-6.9s-2.5-3.7-5.2-5
		c-2.8-1.3-5.8-2.3-8.9-2.8c-6.5-1.3-13.1-2-19.7-2.1c-13.4-0.3-26.9,0.3-40.2,1.7C124.7,571.8,98.1,576.8,71.9,583.7z M71.8,583.1
		c13.1-3.6,26.2-6.9,39.5-9.9c13.2-3,26.6-5.6,40-7.7c13.5-2.1,27.1-3.3,40.8-3.6c6.9-0.1,13.9,0.4,20.8,1.5
		c3.6,0.6,7.1,1.6,10.4,3.1c0.9,0.4,1.7,0.9,2.6,1.4c0.9,0.6,1.7,1.2,2.5,1.9c3.6,3,5,8,3.4,12.5c-0.3,1-0.7,2-1.2,2.9
		c-0.5,0.8-1,1.7-1.5,2.5c-2.1,3-4.6,5.7-7.4,8.1c-5.3,4.5-11,8.6-17,12.1c-11.9,6.9-24.2,12.9-36.9,18.1
		c-25.2,10.3-51.1,18.8-77.5,25.6c-26.3,7-53,12.3-80,15.7c-13.5,1.7-27.2,2.6-40.8,2.5c-6.9,0-13.8-0.7-20.5-2
		c-3.5-0.6-6.8-1.7-10.1-3.2c-0.8-0.4-1.6-0.9-2.4-1.3c-0.8-0.5-1.5-1.1-2.2-1.7c-1.5-1.4-2.6-3.1-3.2-5c-0.4-2-0.3-4,0.3-5.9
		c0.3-0.9,0.7-1.8,1.1-2.6c0.5-0.8,0.9-1.6,1.4-2.3c2.1-2.8,4.5-5.4,7.2-7.6c5.3-4.4,11-8.3,16.9-11.6c11.8-6.7,24.1-12.6,36.7-17.6
		c12.5-5.2,25.3-9.8,38.2-14S58.7,586.7,71.8,583.1L71.8,583.1z"/>
	<circle class="st1" cx="156.4" cy="510.8" r="14"/>
	
		<ellipse transform="matrix(0.9985 -5.530035e-02 5.530035e-02 0.9985 -37.4445 8.7149)" class="st1" cx="138.8" cy="681" rx="14" ry="14"/>
</g>
<g class="st0">
	<path class="st2" d="M389.2,745.8c15.6,15.3,31.7,26.5,48.2,34c-12.7,12-24,28.3-33.7,49c-13.8-14.3-30.2-25.8-48.6-35.2
		C369.6,780.1,381.2,763.8,389.2,745.8z"/>
	
		<rect x="382.3" y="736.7" transform="matrix(0.7776 -0.6288 0.6288 0.7776 -396.0152 410.9354)" class="st1" width="1" height="57"/>
	<circle class="st1" cx="344.1" cy="772.7" r="4"/>
	
		<rect x="369.8" y="754.9" transform="matrix(0.3621 -0.9321 0.9321 0.3621 -493.5921 844.652)" class="st1" width="1" height="56.2"/>
	<circle class="st1" cx="352.6" cy="818.4" r="4"/>
	
		<rect x="346.8" y="801.8" transform="matrix(0.777 -0.6295 0.6295 0.777 -421.9492 413.3739)" class="st1" width="51.4" height="1"/>
	<circle class="st1" cx="381.9" cy="838.9" r="4.2"/>
	
		<rect x="365.5" y="814.6" transform="matrix(0.3525 -0.9358 0.9358 0.3525 -509.5299 893.8988)" class="st1" width="51.4" height="1"/>
	<circle class="st1" cx="428.1" cy="830.6" r="4.5"/>
	
		<rect x="410" y="783.3" transform="matrix(0.7564 -0.6541 0.6541 0.7564 -429.9995 465.847)" class="st1" width="1" height="53.8"/>
	<circle class="st1" cx="449.1" cy="801" r="4.5"/>
	
		<rect x="424.7" y="767.9" transform="matrix(0.3135 -0.9496 0.9496 0.3135 -461.2324 948.2537)" class="st1" width="1" height="50.4"/>
	<circle class="st1" cx="441.1" cy="755.6" r="4.5"/>
	
		<rect x="394.3" y="772.7" transform="matrix(0.7494 -0.6621 0.6621 0.7494 -406.4593 472.5561)" class="st1" width="53.5" height="1"/>
	<circle class="st1" cx="411.3" cy="735.3" r="4.5"/>
	
		<rect x="375.6" y="760.3" transform="matrix(0.3219 -0.9468 0.9468 0.3219 -447.2948 896.9874)" class="st1" width="54" height="1"/>
	<circle class="st1" cx="364.9" cy="743.2" r="4.5"/>
	<path class="st1" d="M408.1,772.5c0,0-10.1,9.5-12.3,9.9s-14.7-5-14.7-5s9.1,10.1,9.4,12.5s-3,13-3,13s8-7.8,10.1-8.2
		s13.1,4.3,13.1,4.3s-7.7-9.3-7.8-12S408.1,772.5,408.1,772.5z"/>
</g>
<g class="st0">
	<path class="st2" d="M1563,931c43.4,63.6,91.8,114.4,144.7,153.5c-55.3,27.6-108.7,70.7-160.2,129.3
		c-37.7-58.8-87-110.8-145.1-157.6C1460.5,1027.2,1514.7,987.4,1563,931z"/>
	<polygon class="st1" points="1568.6,1077.5 1476.5,901.4 1479.9,900 1572,1076.1 	"/>
	
		<ellipse transform="matrix(0.2419 -0.9703 0.9703 0.2419 96.7126 2080.8618)" class="st1" cx="1380" cy="978.5" rx="13.3" ry="14.6"/>
	<polygon class="st1" points="1549.7,1092.7 1378.9,979.9 1381.1,977.1 1551.8,1090 	"/>
	<polygon class="st1" points="1373.9,1136.2 1372.2,1133.1 1541.3,1063.3 1542.9,1066.5 	"/>
	<polygon class="st1" points="1631.3,1242.3 1538.5,1078.5 1541.8,1077 1634.6,1240.9 	"/>
	<polygon class="st1" points="1731.2,1165.4 1573,1071.4 1574.9,1068.5 1733.2,1162.5 	"/>
	
		<ellipse transform="matrix(0.2419 -0.9703 0.9703 0.2419 340.2512 2453.7739)" class="st1" cx="1740.5" cy="1009.1" rx="15.2" ry="16.7"/>
	<polygon class="st1" points="1569.2,1090.2 1567.4,1087.1 1739.5,1007.5 1741.3,1010.6 	"/>
	
		<ellipse transform="matrix(0.2419 -0.9703 0.9703 0.2419 361.7124 2296.0454)" class="st1" cx="1650.3" cy="916.5" rx="15.2" ry="16.7"/>
	<polygon class="st1" points="1548.3,1068.1 1545.1,1066.2 1648.6,915.5 1651.8,917.5 	"/>
	
		<ellipse transform="matrix(0.2419 -0.9703 0.9703 0.2419 246.601 2117.21)" class="st1" cx="1478.3" cy="900.8" rx="15.2" ry="16.7"/>
	<path class="st1" d="M1608.6,1034.6c0,0-43.7,21.9-51.9,21.4s-48.4-29.2-48.4-29.2s24.4,40.9,23.3,48.8s-21.4,39.5-21.4,39.5
		s34.9-18.2,42.9-17.8s43.2,25.7,43.2,25.7s-19.9-37.3-18.1-46.1S1608.6,1034.6,1608.6,1034.6z"/>
</g>
<g class="st0">
	<circle class="st2" cx="168.7" cy="972.7" r="197.7"/>
	
		<ellipse transform="matrix(0.9993 -3.837653e-02 3.837653e-02 0.9993 -29.3597 2.9392)" class="st1" cx="61.9" cy="766.2" rx="18.9" ry="18.9"/>
	
		<ellipse transform="matrix(0.9999 -1.514631e-02 1.514631e-02 0.9999 -15.0833 -0.141)" class="st1" cx="-16.9" cy="995.7" rx="18.9" ry="18.9"/>
	<circle class="st1" cx="396.9" cy="991.6" r="18.9"/>
	
		<ellipse transform="matrix(1 -7.691628e-03 7.691628e-03 1 -8.0988 -4.684727e-02)" class="st1" cx="-10.1" cy="1052.9" rx="18.9" ry="18.9"/>
	<circle class="st1" cx="367.5" cy="942.7" r="18.9"/>
	<circle class="st1" cx="279.9" cy="747.3" r="18.9"/>
	<ellipse transform="matrix(0.9604 -0.2785 0.2785 0.9604 -270.1206 89.8078)" class="st1" cx="181" cy="995.7" rx="206" ry="4.3"/>
	
		<ellipse transform="matrix(0.3274 -0.9449 0.9449 0.3274 -807.8992 848.9682)" class="st1" cx="192.4" cy="992" rx="258.8" ry="7.8"/>
	
		<ellipse transform="matrix(0.8683 -0.4961 0.4961 0.8683 -466.7456 225.2476)" class="st1" cx="190.8" cy="991.6" rx="5.3" ry="258.8"/>
	<ellipse transform="matrix(1 -7.155789e-03 7.155789e-03 1 -7.1204 1.362)" class="st1" cx="186.8" cy="995.7" rx="206.9" ry="5"/>
</g>
<g class="st0">
	<path class="st1" d="M1596.8,800.4c-5.6,4.5-11,9.2-16.3,14s-10.3,9.9-15.2,15.2c-4.9,5.2-9.4,10.8-13.5,16.6
		c-2.1,2.9-3.9,6-5.4,9.2c-0.7,1.6-1.3,3.2-1.6,4.9c-0.9,2.3,0.2,4.9,2.5,5.8c0.8,0.3,1.6,0.4,2.4,0.2c1.7,0,3.4-0.2,5.1-0.6
		c3.4-0.9,6.8-2,10-3.5c6.5-2.9,12.8-6.2,18.8-10c24.2-15.1,46.5-33.3,66.1-54.1c4.9-5.2,9.4-10.6,13.5-16.4
		c2.1-2.8,3.9-5.8,5.4-8.9c0.7-1.5,1.3-3,1.6-4.7c0.8-1.8,0-4-1.8-4.8c-0.7-0.3-1.4-0.4-2.2-0.3c-1.7,0-3.3,0.2-4.9,0.5
		c-3.4,0.8-6.8,1.8-10,3.2c-6.6,2.7-13,5.9-19.1,9.5C1619.9,783.3,1608,791.4,1596.8,800.4z M1596.6,800.1c5.6-4.5,11.2-8.9,17-13.2
		c5.8-4.3,11.6-8.4,17.7-12.3c6.1-3.9,12.4-7.4,19-10.5c3.3-1.6,6.8-2.8,10.4-3.7c1.9-0.5,3.8-0.7,5.7-0.7c0.5,0,1,0.1,1.6,0.1
		c0.5,0.1,1.1,0.2,1.6,0.4c1.2,0.4,2.2,1.1,3,2c0.7,1,1.2,2.1,1.3,3.3c0.1,0.5,0.1,1.1,0.1,1.6c-0.1,0.5-0.1,1-0.2,1.5
		c-0.4,1.9-1,3.7-1.8,5.5c-1.6,3.3-3.5,6.5-5.7,9.5c-4.3,5.9-9,11.4-14,16.6c-20.1,20.6-42.8,38.7-67.4,53.7
		c-6.2,3.7-12.6,7-19.2,9.9c-3.3,1.5-6.8,2.6-10.3,3.5c-1.8,0.4-3.7,0.6-5.6,0.6c-0.5,0-1-0.1-1.4-0.1c-0.5-0.1-1-0.2-1.4-0.4
		c-2.1-0.6-3.6-2.5-3.7-4.7c0-0.5,0-1,0-1.5c0.1-0.5,0.1-1,0.2-1.4c0.4-1.8,1-3.6,1.8-5.2c1.6-3.3,3.5-6.4,5.7-9.3
		c4.3-5.8,9-11.3,14-16.4c5-5.2,10.2-10.1,15.5-14.9S1591,804.6,1596.6,800.1z"/>
	<path class="st1" d="M1594.4,825.7c4.9,5.3,9.9,10.4,15,15.3s10.6,9.7,16.2,14.2c5.5,4.5,11.4,8.6,17.5,12.4c3,1.9,6.2,3.5,9.5,4.8
		c1.6,0.6,3.3,1.1,5,1.3c2.3,0.7,4.9-0.6,5.6-2.9c0.2-0.8,0.3-1.6,0.1-2.4c-0.1-1.7-0.5-3.4-1-5c-1.1-3.4-2.5-6.6-4.1-9.7
		c-3.3-6.3-7.1-12.4-11.2-18.1c-16.7-23.2-36.3-44.2-58.3-62.4c-5.5-4.5-11.2-8.7-17.2-12.4c-2.9-1.9-6-3.5-9.3-4.8
		c-1.5-0.6-3.1-1.1-4.8-1.3c-1.9-0.7-4,0.3-4.7,2.2c-0.3,0.7-0.3,1.5-0.1,2.2c0.1,1.7,0.4,3.3,0.9,4.9c1,3.3,2.3,6.6,3.8,9.7
		c3.2,6.4,6.7,12.5,10.7,18.5C1575.8,803.8,1584.7,815.1,1594.4,825.7z M1594.1,825.9c-4.9-5.2-9.7-10.6-14.3-16.1
		c-4.7-5.5-9.2-11.1-13.4-16.9c-4.3-5.8-8.2-11.9-11.7-18.2c-1.8-3.2-3.2-6.6-4.4-10.1c-0.6-1.8-1-3.7-1.1-5.7c0-0.5,0-1,0-1.5
		c0-0.5,0.1-1.1,0.3-1.6c0.5-2.4,2.5-4.3,5-4.7c0.5-0.1,1.1-0.2,1.6-0.2c0.5,0,1,0,1.6,0.1c1.9,0.3,3.8,0.8,5.6,1.5
		c3.4,1.4,6.7,3,9.9,5c6.1,3.9,12,8.2,17.5,12.8c21.9,18.7,41.4,40.1,58,63.7c4.1,5.9,7.9,12.1,11.2,18.5c1.7,3.2,3,6.6,4.1,10.1
		c0.6,1.8,0.9,3.6,1,5.5c0,0.5,0,1,0,1.5c-0.1,0.5-0.1,1-0.3,1.5c-0.5,2.1-2.2,3.7-4.4,4c-0.5,0.1-1,0.1-1.5,0.1
		c-0.5,0-1-0.1-1.4-0.1c-1.8-0.3-3.6-0.8-5.3-1.5c-3.4-1.4-6.6-3.1-9.6-5c-6-3.9-11.8-8.2-17.3-12.9c-5.5-4.6-10.8-9.5-15.9-14.5
		S1599,831.2,1594.1,825.9z"/>
	<path class="st1" d="M1610,794.1c-7.1-0.8-14.3-1.3-21.4-1.6s-14.3-0.3-21.5,0c-7.1,0.3-14.3,1-21.3,2.2c-3.5,0.6-6.9,1.5-10.3,2.7
		c-1.6,0.6-3.2,1.4-4.6,2.3c-2.3,1-3.3,3.6-2.3,5.9c0.3,0.8,0.9,1.4,1.5,1.9c1.2,1.2,2.6,2.3,4.1,3.2c3,1.8,6.2,3.4,9.5,4.6
		c6.7,2.5,13.5,4.6,20.4,6.2c27.9,6.4,56.4,9.3,85,8.5c7.1-0.2,14.2-0.9,21.2-2c3.4-0.5,6.8-1.4,10.1-2.5c1.6-0.5,3.1-1.2,4.4-2.1
		c1.9-0.7,2.8-2.8,2.1-4.7c-0.3-0.7-0.8-1.3-1.4-1.8c-1.2-1.2-2.5-2.2-3.9-3.1c-3-1.9-6.1-3.5-9.3-4.8c-6.6-2.7-13.3-5-20.2-6.8
		C1638.3,798.3,1624.2,795.7,1610,794.1z M1610,793.8c7.1,0.7,14.3,1.6,21.3,2.7s14.2,2.3,21.2,3.9c7.1,1.5,14,3.5,20.8,6
		c3.5,1.3,6.8,2.8,10,4.7c1.7,1,3.2,2.2,4.6,3.5c0.3,0.4,0.7,0.8,1,1.2c0.3,0.4,0.6,0.9,0.9,1.4c1.2,2.2,0.9,4.9-0.7,6.8
		c-0.3,0.4-0.7,0.8-1.1,1.2c-0.4,0.3-0.8,0.6-1.2,1c-1.6,1.1-3.4,1.9-5.2,2.6c-3.5,1.2-7.1,2.1-10.7,2.7c-7.2,1.1-14.4,1.8-21.6,1.9
		c-28.8,0.4-57.6-2.9-85.6-9.7c-7-1.7-13.9-3.9-20.6-6.6c-3.4-1.3-6.7-3-9.8-4.9c-1.6-1-3.1-2.1-4.4-3.5c-0.3-0.4-0.6-0.7-0.9-1.1
		c-0.3-0.4-0.5-0.8-0.8-1.3c-1.1-1.9-0.8-4.3,0.7-5.9c0.3-0.4,0.6-0.7,1-1.1c0.4-0.3,0.8-0.6,1.2-0.9c1.6-1,3.2-1.8,5-2.4
		c3.4-1.2,7-2,10.6-2.5c7.1-1.1,14.3-1.6,21.5-1.7c7.2-0.2,14.4,0,21.5,0.4S1602.9,793,1610,793.8L1610,793.8z"/>
	<path class="st1" d="M1589.6,813c-0.7,7.1-1.2,14.3-1.5,21.4s-0.2,14.3,0.1,21.5c0.3,7.1,1.1,14.3,2.4,21.3
		c0.6,3.5,1.5,6.9,2.8,10.2c0.6,1.6,1.4,3.2,2.3,4.6c1,2.3,3.6,3.3,5.9,2.3c0.8-0.3,1.4-0.9,1.9-1.6c1.2-1.2,2.2-2.6,3.1-4.1
		c1.8-3,3.3-6.2,4.5-9.5c2.5-6.7,4.5-13.5,6.1-20.5c6.2-27.9,8.9-56.4,7.9-85c-0.3-7.1-1-14.1-2.2-21.1c-0.6-3.4-1.4-6.8-2.6-10.1
		c-0.5-1.6-1.3-3-2.2-4.4c-0.7-1.9-2.9-2.8-4.7-2.1c-0.7,0.3-1.3,0.8-1.7,1.4c-1.2,1.2-2.2,2.5-3.1,3.9c-1.8,3-3.4,6.1-4.7,9.3
		c-2.7,6.6-4.9,13.4-6.7,20.2C1593.6,784.7,1591.1,798.8,1589.6,813z M1589.3,813c0.7-7.1,1.5-14.3,2.5-21.4
		c1-7.1,2.2-14.2,3.7-21.2c1.5-7.1,3.4-14,5.8-20.9c1.2-3.5,2.8-6.8,4.7-10c1-1.7,2.1-3.2,3.5-4.6c0.4-0.3,0.8-0.7,1.2-1
		c0.4-0.3,0.9-0.6,1.4-0.9c1.1-0.6,2.3-0.8,3.5-0.8c1.2,0.2,2.4,0.6,3.3,1.4c0.4,0.3,0.8,0.7,1.2,1.1c0.3,0.4,0.7,0.8,1,1.2
		c1.1,1.6,2,3.3,2.6,5.2c1.2,3.5,2.2,7.1,2.8,10.7c1.2,7.2,1.8,14.4,2,21.6c0.6,28.8-2.5,57.6-9.1,85.7c-1.7,7-3.8,13.9-6.4,20.7
		c-1.3,3.4-2.9,6.7-4.8,9.8c-1,1.6-2.1,3.1-3.4,4.4c-0.4,0.3-0.7,0.6-1.1,0.9c-0.4,0.3-0.8,0.5-1.3,0.8c-0.9,0.5-2,0.7-3.1,0.6
		c-1-0.2-2-0.6-2.8-1.3c-0.4-0.3-0.7-0.6-1.1-1c-0.3-0.4-0.6-0.8-0.9-1.1c-1-1.6-1.8-3.2-2.4-5c-1.2-3.4-2.1-7-2.6-10.5
		c-1.1-7.1-1.7-14.3-1.8-21.5c-0.2-7.2-0.1-14.3,0.2-21.5S1588.6,820.2,1589.3,813L1589.3,813z"/>
	<circle class="st1" cx="1569.4" cy="757.6" r="7.4"/>
	<circle class="st1" cx="1574.2" cy="860" r="7.4"/>
	<circle class="st1" cx="1650.3" cy="798.2" r="7.4"/>
</g>
<g class="st0">
	
		<ellipse transform="matrix(0.7071 -0.7071 0.7071 0.7071 -2.7566 1597.6451)" class="st2" cx="1927.2" cy="802.2" rx="210.8" ry="210.8"/>
	<circle class="st1" cx="1813.3" cy="582" r="20.1"/>
	<circle class="st1" cx="1729.3" cy="826.7" r="20.1"/>
	<circle class="st1" cx="1736.5" cy="887.7" r="20.1"/>
	<circle class="st1" cx="1859.6" cy="1089.4" r="20.1"/>
	
		<ellipse transform="matrix(0.9604 -0.2785 0.2785 0.9604 -153.4169 573.0434)" class="st1" cx="1940.3" cy="826.5" rx="219.6" ry="4.6"/>
	
		<ellipse transform="matrix(0.3274 -0.9449 0.9449 0.3274 535.9112 2398.2053)" class="st1" cx="1952.5" cy="822.7" rx="276" ry="8.3"/>
	
		<ellipse transform="matrix(0.8683 -0.4961 0.4961 0.8683 -150.9291 1075.9663)" class="st1" cx="1950.7" cy="822.2" rx="5.7" ry="276"/>
	
		<ellipse transform="matrix(1 -7.155789e-03 7.155789e-03 1 -5.8659 13.9495)" class="st1" cx="1946.4" cy="826.7" rx="220.6" ry="5.3"/>
</g>
</svg>
