<svg id="Layer_1" data-name="Layer 1" xmlns="http://www.w3.org/2000/svg" viewBox="0 0 142.21 142.22"><defs><style>.cls-1{fill:#c65906;}</style></defs><path class="cls-1" d="M82.15,60c-4.38-4.36-8.86-8.62-13.49-12.71s-9.46-8-14.41-11.65a135.89,135.89,0,0,0-15.5-10.05,50.63,50.63,0,0,0-8.34-3.76,18.13,18.13,0,0,0-4.36-1,4.94,4.94,0,0,0-3.77,1,4.87,4.87,0,0,0-.94,3.76,18.57,18.57,0,0,0,1,4.32,50.25,50.25,0,0,0,3.88,8.24A136.52,136.52,0,0,0,36.55,53.46,275.42,275.42,0,0,0,61.12,81,275.57,275.57,0,0,0,89,105.19a138.75,138.75,0,0,0,15.28,10.11,50.11,50.11,0,0,0,8.15,3.81,17.71,17.71,0,0,0,4.14,1,3.16,3.16,0,0,0,4-3.94,17.86,17.86,0,0,0-.92-4.18,51.46,51.46,0,0,0-3.65-8.25,140.65,140.65,0,0,0-9.85-15.54A239.14,239.14,0,0,0,82.15,60Zm.21-.21c4.39,4.35,8.7,8.8,12.88,13.36s8.28,9.22,12.14,14.09a136.84,136.84,0,0,1,10.72,15.29,51.56,51.56,0,0,1,4.12,8.56,19.91,19.91,0,0,1,1.15,4.84c0,.44,0,.89,0,1.33a9.79,9.79,0,0,1-.19,1.4,5.68,5.68,0,0,1-1.41,2.75,5.77,5.77,0,0,1-2.74,1.45,11.67,11.67,0,0,1-1.41.2c-.45,0-.89,0-1.34,0a20.1,20.1,0,0,1-4.87-1.09,52.48,52.48,0,0,1-8.67-4A137.17,137.17,0,0,1,87.23,107.5,277.28,277.28,0,0,1,59.46,82.67,277.69,277.69,0,0,1,35,54.6,137.78,137.78,0,0,1,24.77,39a52.13,52.13,0,0,1-3.9-8.56,19.69,19.69,0,0,1-1-4.7c0-.42,0-.83,0-1.25A9.38,9.38,0,0,1,20,23.23a5.19,5.19,0,0,1,1.26-2.39,5.06,5.06,0,0,1,2.39-1.22,11.19,11.19,0,0,1,1.28-.16c.41,0,.83,0,1.24,0a19.44,19.44,0,0,1,4.66,1.1,53.43,53.43,0,0,1,8.47,4A135.43,135.43,0,0,1,54.62,35.14c4.91,3.78,9.62,7.79,14.23,11.92S78,55.42,82.36,59.78Z"/><path class="cls-1" d="M60.23,60.2c-4.06,4.65-8,9.41-11.79,14.3s-7.32,10-10.68,15.14a139.17,139.17,0,0,0-9,16.12,51.24,51.24,0,0,0-3.2,8.57,18.35,18.35,0,0,0-.67,4.41,4.94,4.94,0,0,0,1.26,3.7,4.9,4.9,0,0,0,3.82.69,17.86,17.86,0,0,0,4.24-1.3,50.49,50.49,0,0,0,8-4.41,137.43,137.43,0,0,0,14.55-11.29A277.28,277.28,0,0,0,82.6,79.8a275.67,275.67,0,0,0,22.29-29.4A137.2,137.2,0,0,0,114,34.49a50.05,50.05,0,0,0,3.26-8.38,17.57,17.57,0,0,0,.7-4.19,4.23,4.23,0,0,0-1-3.14,4.19,4.19,0,0,0-3.25-.59,17.6,17.6,0,0,0-4.11,1.18,52.2,52.2,0,0,0-8,4.2A138.84,138.84,0,0,0,86.78,34.42,239.36,239.36,0,0,0,60.23,60.2ZM60,60q6.08-7,12.49-13.73c4.26-4.49,8.65-8.87,13.25-13a136.36,136.36,0,0,1,14.56-11.71,52.16,52.16,0,0,1,8.27-4.67,19.61,19.61,0,0,1,4.75-1.46c.44-.05.88-.1,1.33-.13a9.71,9.71,0,0,1,1.41.09,5.77,5.77,0,0,1,2.84,1.23,5.9,5.9,0,0,1,1.62,2.64,11.86,11.86,0,0,1,.29,1.39c0,.45.05.89.06,1.34a20.16,20.16,0,0,1-.76,4.93,53.24,53.24,0,0,1-3.4,8.91A135,135,0,0,1,107.31,52a278.43,278.43,0,0,1-23,29.34A276.85,276.85,0,0,1,58,107.56a137.3,137.3,0,0,1-14.87,11.27,52.35,52.35,0,0,1-8.29,4.45,19.24,19.24,0,0,1-4.62,1.35c-.42,0-.83.08-1.25.1a9.43,9.43,0,0,1-1.29-.09,5.2,5.2,0,0,1-2.46-1.1,5,5,0,0,1-1.37-2.31,8,8,0,0,1-.25-1.26c0-.41,0-.83,0-1.24a19.92,19.92,0,0,1,.8-4.72,52.74,52.74,0,0,1,3.45-8.72,135.93,135.93,0,0,1,9.49-16c3.45-5.14,7.14-10.11,11-15S56,64.66,60,60Z"/><path class="cls-1" d="M88.75,70.74c0-6.18-.17-12.36-.55-18.53s-1.06-12.31-2-18.42A138.22,138.22,0,0,0,82.4,15.72a51.73,51.73,0,0,0-3.24-8.55,18.42,18.42,0,0,0-2.41-3.76,4.94,4.94,0,0,0-3.38-1.95,4.87,4.87,0,0,0-3.33,2,17.78,17.78,0,0,0-2.33,3.77,51.43,51.43,0,0,0-3.09,8.57,136.11,136.11,0,0,0-3.49,18.08A275.19,275.19,0,0,0,59,70.74a274.08,274.08,0,0,0,2.61,36.8,139.88,139.88,0,0,0,3.65,17.95,51.13,51.13,0,0,0,3.07,8.45,18.12,18.12,0,0,0,2.24,3.62,4.27,4.27,0,0,0,2.79,1.73,4.23,4.23,0,0,0,2.83-1.69,17.71,17.71,0,0,0,2.3-3.6,50.79,50.79,0,0,0,3.25-8.42,137.5,137.5,0,0,0,4-18A239.52,239.52,0,0,0,88.75,70.74Zm.29,0Q89.1,80,88.71,89.3c-.26,6.19-.67,12.37-1.38,18.54a136.33,136.33,0,0,1-3.24,18.4,52.48,52.48,0,0,1-3.13,9,20.06,20.06,0,0,1-2.61,4.23c-.3.33-.61.65-.92,1a9.75,9.75,0,0,1-1.12.86,5.12,5.12,0,0,1-5.9,0,10,10,0,0,1-1.14-.86q-.48-.47-.93-1a20.31,20.31,0,0,1-2.67-4.22,52.41,52.41,0,0,1-3.32-8.94,134,134,0,0,1-3.6-18.39,277.12,277.12,0,0,1-2.08-37.19,276.06,276.06,0,0,1,2.57-37.12A137.7,137.7,0,0,1,63,15.35a52.72,52.72,0,0,1,3.3-8.82,19.1,19.1,0,0,1,2.59-4.06q.42-.45.87-.9a10.22,10.22,0,0,1,1-.77A5.13,5.13,0,0,1,73.37,0a5,5,0,0,1,2.55.83,7.92,7.92,0,0,1,1,.79c.29.29.57.59.85.9A19.24,19.24,0,0,1,80.3,6.6a52.51,52.51,0,0,1,3.15,8.83,135.8,135.8,0,0,1,3.4,18.28c.8,6.14,1.3,12.31,1.64,18.49S89,64.56,89,70.74Z"/><path class="cls-1" d="M70.63,55c-6.18.06-12.35.26-18.52.68S39.8,56.77,33.7,57.71a138.13,138.13,0,0,0-18,4A51.4,51.4,0,0,0,7.13,65a18.39,18.39,0,0,0-3.74,2.44,4.88,4.88,0,0,0-1.93,3.39,4.89,4.89,0,0,0,2,3.32,18.5,18.5,0,0,0,3.79,2.3,50.87,50.87,0,0,0,8.59,3A136.41,136.41,0,0,0,34,82.83a275.29,275.29,0,0,0,36.88,1.86,275.39,275.39,0,0,0,36.77-2.86,138.36,138.36,0,0,0,17.94-3.78A50.41,50.41,0,0,0,134,74.92a17.06,17.06,0,0,0,3.6-2.26,4.25,4.25,0,0,0,1.72-2.8A4.21,4.21,0,0,0,137.57,67,17.45,17.45,0,0,0,134,64.76a52.64,52.64,0,0,0-8.44-3.19,139.27,139.27,0,0,0-18-3.9A239.65,239.65,0,0,0,70.63,55Zm0-.29q9.28-.12,18.56.21c6.19.21,12.38.58,18.55,1.25a135,135,0,0,1,18.42,3.11,50.49,50.49,0,0,1,9,3.07,20,20,0,0,1,4.25,2.58c.33.3.66.6,1,.91a10.94,10.94,0,0,1,.87,1.11,5.84,5.84,0,0,1,1,2.94,5.71,5.71,0,0,1-.9,3,9.87,9.87,0,0,1-.84,1.14c-.31.32-.63.63-1,.94a20.09,20.09,0,0,1-4.2,2.7A53.57,53.57,0,0,1,126.4,81,136.85,136.85,0,0,1,108,84.7,278.76,278.76,0,0,1,70.86,87a279.55,279.55,0,0,1-37.14-2.32,137.77,137.77,0,0,1-18.3-3.64,53,53,0,0,1-8.84-3.23A19.9,19.9,0,0,1,2.5,75.29c-.3-.29-.61-.57-.9-.87a9,9,0,0,1-.78-1A5.11,5.11,0,0,1,0,70.82a5.16,5.16,0,0,1,.81-2.56,9.81,9.81,0,0,1,.78-1c.29-.29.6-.58.9-.86a19.26,19.26,0,0,1,4.06-2.54,52.24,52.24,0,0,1,8.81-3.21A137.34,137.34,0,0,1,33.61,57.1c6.14-.83,12.31-1.37,18.48-1.76S64.45,54.71,70.63,54.66Z"/><circle class="cls-1" cx="116.38" cy="32.53" r="6.41"/><circle class="cls-1" cx="28.99" cy="45.97" r="6.41"/><circle class="cls-1" cx="88.9" cy="105.62" r="6.41"/></svg>