<svg id="Layer_1" data-name="Layer 1" xmlns="http://www.w3.org/2000/svg" viewBox="0 0 1100.92 627.44"><defs><style>.cls-1{fill:#44424e;}.cls-2{fill:#fdf8d8;}.cls-3{fill:#e05a45;}.cls-4{fill:#5fa9a5;}.cls-5{fill:#f8e7e3;}.cls-6{fill:#a6c1bb;}.cls-7{fill:#e9bf11;}.cls-8{font-size:135.78px;fill:#ce6522;font-family:Carosello-Regular, Carosello;}.cls-9{letter-spacing:0.01em;}.cls-10{letter-spacing:-0.02em;}</style></defs><path class="cls-1" d="M84.76,472.11s19.48,41.32,86.46,75.53,152,28.5,152,28.5-78.54,55-173.38-5.7C90.46,532.43,84.76,472.11,84.76,472.11Z"/><path class="cls-1" d="M694.85,345S621.38,234.75,516.24,220.18s-226.74,4.44-226.74,4.44,193-71.75,316-3.17C688.52,267.69,694.85,345,694.85,345Z"/><path class="cls-2" d="M103,306.46c-5.49-5.46-11.11-10.8-16.92-15.93s-11.85-10-18-14.6a172.89,172.89,0,0,0-19.43-12.6,64,64,0,0,0-10.46-4.72,23,23,0,0,0-5.46-1.19,6.12,6.12,0,0,0-4.73,1.27,6.14,6.14,0,0,0-1.18,4.72A22.75,22.75,0,0,0,28,268.82a64.39,64.39,0,0,0,4.86,10.34,171,171,0,0,0,12.93,19.12,346.47,346.47,0,0,0,30.79,34.55,346.46,346.46,0,0,0,34.93,30.3A173.87,173.87,0,0,0,130.7,375.8a62.09,62.09,0,0,0,10.21,4.77,21.79,21.79,0,0,0,5.19,1.22,4,4,0,0,0,5-4.94,22,22,0,0,0-1.15-5.24,64.8,64.8,0,0,0-4.58-10.34A174.32,174.32,0,0,0,133,341.8,301,301,0,0,0,103,306.46Zm.26-.26q8.27,8.19,16.15,16.75c5.26,5.71,10.37,11.56,15.21,17.66A169.78,169.78,0,0,1,148,359.79a65,65,0,0,1,5.17,10.72,25.17,25.17,0,0,1,1.44,6.07c0,.55,0,1.11,0,1.67a12.09,12.09,0,0,1-.22,1.76,6.44,6.44,0,0,1-5.21,5.25,12.35,12.35,0,0,1-1.77.25c-.56,0-1.12,0-1.67,0a25.44,25.44,0,0,1-6.11-1.36,67.09,67.09,0,0,1-10.87-5A170.18,170.18,0,0,1,109.35,366,347.49,347.49,0,0,1,74.54,334.9a348.63,348.63,0,0,1-30.63-35.18,174.68,174.68,0,0,1-12.86-19.54,66.32,66.32,0,0,1-4.89-10.73,24.56,24.56,0,0,1-1.3-5.89c0-.53,0-1.05,0-1.57a12.33,12.33,0,0,1,.23-1.6,6.38,6.38,0,0,1,1.58-3,6.27,6.27,0,0,1,3-1.52,10.83,10.83,0,0,1,1.59-.21c.52,0,1,0,1.56,0a24.53,24.53,0,0,1,5.84,1.39,66.23,66.23,0,0,1,10.62,5,171.09,171.09,0,0,1,19.22,13.19c6.15,4.74,12.06,9.77,17.84,14.94S97.74,300.73,103.24,306.2Z"/><path class="cls-2" d="M75.5,306.72c-5.09,5.84-10,11.8-14.78,17.93s-9.18,12.48-13.38,19A172.66,172.66,0,0,0,36,363.84a64.54,64.54,0,0,0-4,10.75,22.53,22.53,0,0,0-.84,5.53,6.2,6.2,0,0,0,1.58,4.63,6.12,6.12,0,0,0,4.79.87A23,23,0,0,0,42.87,384a64,64,0,0,0,10-5.54A172,172,0,0,0,71.1,364.3a346.2,346.2,0,0,0,32.45-33,345.72,345.72,0,0,0,27.93-36.85,174,174,0,0,0,11.39-19.95A63.15,63.15,0,0,0,147,264a22.06,22.06,0,0,0,.87-5.26,4,4,0,0,0-5.26-4.68,22,22,0,0,0-5.15,1.49,65.72,65.72,0,0,0-10,5.26,173.76,173.76,0,0,0-18.62,13.6A299.52,299.52,0,0,0,75.5,306.72Zm-.27-.24q7.62-8.79,15.65-17.22c5.35-5.62,10.85-11.11,16.62-16.34a169.52,169.52,0,0,1,18.25-14.67,64,64,0,0,1,10.36-5.86,25.25,25.25,0,0,1,6-1.84c.55-.06,1.1-.12,1.66-.15a11.85,11.85,0,0,1,1.77.11,7.13,7.13,0,0,1,3.55,1.54,7.28,7.28,0,0,1,2,3.31,13.8,13.8,0,0,1,.36,1.74c0,.56.07,1.12.08,1.68a25.34,25.34,0,0,1-1,6.19,66.47,66.47,0,0,1-4.26,11.16,171.19,171.19,0,0,1-11.79,20.32,347.25,347.25,0,0,1-28.77,36.78A346.84,346.84,0,0,1,72.66,366.1,172.65,172.65,0,0,1,54,380.23a66.3,66.3,0,0,1-10.38,5.58,24.54,24.54,0,0,1-5.8,1.69c-.52.05-1,.1-1.56.12a11.14,11.14,0,0,1-1.62-.12,6.37,6.37,0,0,1-3.09-1.37,6.38,6.38,0,0,1-1.72-2.9,12.44,12.44,0,0,1-.31-1.57q0-.78-.06-1.56a24.61,24.61,0,0,1,1-5.92,65.81,65.81,0,0,1,4.32-10.92,171.68,171.68,0,0,1,11.89-20.05c4.33-6.45,9-12.68,13.74-18.79S70.13,312.32,75.23,306.48Z"/><path class="cls-2" d="M111.25,319.94c0-7.74-.21-15.49-.69-23.22s-1.33-15.44-2.45-23.09A171.74,171.74,0,0,0,103.29,251a65,65,0,0,0-4.06-10.73,23.09,23.09,0,0,0-3-4.71A6.15,6.15,0,0,0,92,233.1a6.11,6.11,0,0,0-4.17,2.5,22,22,0,0,0-2.92,4.73A64,64,0,0,0,81,251.08a172.7,172.7,0,0,0-4.38,22.66,361.48,361.48,0,0,0,.62,92.33,175,175,0,0,0,4.58,22.51,63.23,63.23,0,0,0,3.85,10.59,21.79,21.79,0,0,0,2.81,4.53A5.29,5.29,0,0,0,92,405.87a5.27,5.27,0,0,0,3.55-2.12,22.31,22.31,0,0,0,2.89-4.51,65,65,0,0,0,4.07-10.56,173.24,173.24,0,0,0,5-22.5A299.15,299.15,0,0,0,111.25,319.94Zm.37,0q.06,11.64-.42,23.27c-.32,7.75-.84,15.51-1.73,23.24a170.68,170.68,0,0,1-4.06,23.07,64.7,64.7,0,0,1-3.93,11.24,25.3,25.3,0,0,1-3.27,5.3c-.37.41-.75.82-1.15,1.21a11.86,11.86,0,0,1-1.4,1.09,6.46,6.46,0,0,1-7.4,0,12,12,0,0,1-1.42-1.07c-.41-.4-.79-.8-1.17-1.21a25.65,25.65,0,0,1-3.36-5.28,66.8,66.8,0,0,1-4.15-11.21,169.73,169.73,0,0,1-4.52-23.05,373,373,0,0,1,.62-93.16A174.67,174.67,0,0,1,79,250.5a66.56,66.56,0,0,1,4.14-11,24.39,24.39,0,0,1,3.24-5.1c.36-.38.72-.75,1.1-1.12a11.44,11.44,0,0,1,1.29-1,6.37,6.37,0,0,1,3.23-1,6.24,6.24,0,0,1,3.2,1,10.21,10.21,0,0,1,1.27,1c.37.37.73.75,1.07,1.13a23.94,23.94,0,0,1,3.15,5.12,65.72,65.72,0,0,1,4,11.06,170.88,170.88,0,0,1,4.27,22.92c1,7.7,1.62,15.44,2.05,23.18S111.6,312.19,111.62,319.94Z"/><path class="cls-2" d="M88.54,300.15c-7.74.07-15.49.32-23.22.86s-15.42,1.42-23.07,2.6a173.38,173.38,0,0,0-22.62,5,64.38,64.38,0,0,0-10.7,4.14,23,23,0,0,0-4.68,3,4.81,4.81,0,0,0,.12,8.42,22.83,22.83,0,0,0,4.74,2.89,64,64,0,0,0,10.78,3.79,171.61,171.61,0,0,0,22.68,4.23,344.85,344.85,0,0,0,46.23,2.33,344.54,344.54,0,0,0,46.1-3.59,174.9,174.9,0,0,0,22.48-4.73,64,64,0,0,0,10.56-3.92,21.5,21.5,0,0,0,4.51-2.85,5.23,5.23,0,0,0,2.15-3.5,5.29,5.29,0,0,0-2.14-3.53,21.61,21.61,0,0,0-4.54-2.86,64.47,64.47,0,0,0-10.58-4,174,174,0,0,0-22.53-4.89A300.7,300.7,0,0,0,88.54,300.15Zm0-.37c7.75-.09,15.51,0,23.27.27s15.51.73,23.25,1.56a170.23,170.23,0,0,1,23.09,3.9,65.49,65.49,0,0,1,11.27,3.85,25.59,25.59,0,0,1,5.33,3.24c.41.37.82.75,1.22,1.14a12.61,12.61,0,0,1,1.09,1.39,6.45,6.45,0,0,1,.08,7.41,11.65,11.65,0,0,1-1.06,1.42c-.39.41-.79.8-1.19,1.18a25.75,25.75,0,0,1-5.27,3.39,67.37,67.37,0,0,1-11.17,4.24,171.19,171.19,0,0,1-23,4.67,347.85,347.85,0,0,1-46.6,2.93,348.69,348.69,0,0,1-46.56-2.91,173.62,173.62,0,0,1-22.94-4.55,66,66,0,0,1-11.07-4.06,24.31,24.31,0,0,1-5.11-3.21c-.39-.35-.77-.71-1.14-1.09a12.29,12.29,0,0,1-1-1.28,5.57,5.57,0,0,1,0-6.44,11.19,11.19,0,0,1,1-1.27c.37-.37.75-.73,1.13-1.08a24.34,24.34,0,0,1,5.09-3.19,66.38,66.38,0,0,1,11-4,170.29,170.29,0,0,1,22.89-4.42c7.69-1.05,15.42-1.73,23.16-2.21S80.79,299.85,88.54,299.78Z"/><circle class="cls-2" cx="145.89" cy="272.05" r="8.03"/><circle class="cls-2" cx="36.35" cy="288.89" r="8.03"/><circle class="cls-2" cx="111.44" cy="363.67" r="8.03"/><path class="cls-3" d="M415.22,597.2C530.31,579.1,628.65,518.31,714,424.44c-22.63,53.11-51.32,97.57-93.18,123.2,11.79,40.51,34,66.94,66.27,79.8-48.48-4.86-84.28-24.14-106.89-58.43C506,608.09,461.37,601.49,415.22,597.2Z"/><path class="cls-3" d="M298.36,604.32S105.6,589.17,88.09,463.56C55.57,230.37,503,183,583.06,249.79c-86.35-66.77-241.51-62.43-373.37-2.85l-37.52-59.85,6.76,51.66-64.72-95.36,51.56,126.12S59.22,336,58,437.49c-.6,48.29,38.1,114.13,95.27,142.9C216.26,612.11,298.36,604.32,298.36,604.32Z"/><path class="cls-3" d="M174.55,546.55s132.92,89.1,339.71-1.26C792.55,423.7,674.71,289.57,674.71,289.57s-18.8-1.25-17.55,6.27,64.23,51.75-11.28,122.84C590.21,471.1,381.38,614.24,174.55,546.55Z"/><path class="cls-1" d="M534.14,462.6S387,556.5,236.93,526.1,21,376,209.06,285.42,666,269.76,667.62,353.82C669.86,470,362.56,578.59,356.32,560.3,441.6,532.65,507.7,501.37,534.14,462.6Z"/><path class="cls-2" d="M309.47,273.27c39-9.65,157.93-23.69,203.56-5.7s-38.17,86.86-90.37,105.72-198.07,81.75-233,1.76C160.86,308.91,309.47,273.27,309.47,273.27Z"/><path class="cls-4" d="M630.84,255.72l-46.38,8.78-74-31.34,68.94-25.07L582,115.33l43.87,74c143.9-65.1,305-127.82,475.1-189.29C947.68,66.25,805.42,130.16,697.28,186.78,803.47,140.15,901,99.91,984.34,70.2,883,117.06,771.93,174.33,654.66,238.17l6.26,11.29c145-59,275.48-107.79,384.84-141.65Q863.38,181.4,676,273.27l20,38.86L627.08,283.3,583.2,356V280.79Z"/><circle class="cls-5" cx="724.65" cy="489.73" r="81.06"/><circle class="cls-6" cx="680.86" cy="405.07" r="7.74"/><circle class="cls-6" cx="648.58" cy="499.17" r="7.74"/><circle class="cls-6" cx="818.24" cy="497.48" r="7.74"/><circle class="cls-6" cx="651.33" cy="522.62" r="7.74"/><circle class="cls-6" cx="698.67" cy="600.21" r="7.74"/><circle class="cls-6" cx="787.84" cy="592.46" r="7.74"/><circle class="cls-6" cx="806.18" cy="477.43" r="7.74"/><circle class="cls-6" cx="770.28" cy="397.33" r="7.74"/><ellipse class="cls-6" cx="729.7" cy="499.17" rx="84.45" ry="1.76" transform="translate(-110.12 222.89) rotate(-16.17)"/><ellipse class="cls-6" cx="734.37" cy="497.62" rx="106.13" ry="3.21" transform="translate(23.77 1028.62) rotate(-70.89)"/><ellipse class="cls-6" cx="733.71" cy="497.48" rx="2.18" ry="106.13" transform="translate(-150.14 429.45) rotate(-29.74)"/><ellipse class="cls-6" cx="732.08" cy="499.17" rx="84.82" ry="2.05" transform="translate(-3.56 5.26) rotate(-0.41)"/><path class="cls-7" d="M224.32,566.79c-.19,3.08-.28,5.38-.28,6.92v3.38l-1.62,1.9H199.65l-2.17,1.36H166.32l-1.9,1.62-22.22-.27q-2.17,0-5.7.27a13.18,13.18,0,0,0-5.42,1.36q-8.13,0-16.39.13T98,583.33L95.58,585H62.25l-2.17,1.63H28.64L27,587.93l-1.08-3.52c2.89-1.26,5.69-2.44,8.4-3.52,2.35-.9,4.84-1.9,7.45-3s4.84-2.08,6.64-3a11.46,11.46,0,0,1,5.15-3,9,9,0,0,0,4.88-3.25q7-3,14.09-6.1t14.1-6.09v-1.63L85,552.16l-.27-33.34-1.63-2.16-.27-31.17-1.35-1.9V462.18c0-1.44-.1-3.29-.27-5.55a10.61,10.61,0,0,0-1.63-5.29q-.27-8.4-.27-16.53V418.28l-1.63-2.44V409.6l-23.3-10-2.44.54L23.22,387.65l-2.17.54a28.9,28.9,0,0,1-3-1.35,16.74,16.74,0,0,0-1.9-.82l.54-3.25,2.17.27a56.86,56.86,0,0,0,5.83.41q3.93.14,11.25.68a6.08,6.08,0,0,1,2.84-.41c1,.09,1.94.14,2.85.14a14.56,14.56,0,0,0,6-1.09q8.4.27,16.53.41t16.53.68l2.71-1.36,33.34,1.36,2.17-1.36,31.17,1.36L152,382.5q6,.27,11.79.68t11.79.41a23.62,23.62,0,0,0,3.52-.28c1.27-.17,2.44-.36,3.53-.54l3.79-.54.82,3.52q-5.7,2.17-11.12,4.34-4.6,1.91-9.75,3.79t-8.95,3.26l-1.89,2.16q-6.24,2.44-12.74,4.88l-13,4.88-.27,5.15,1.35,2.17-1.89,31.17,1.35,1.89-1.9,24.4c0,.54,0,1.58.14,3.11s.14,2.67.14,3.39a12.08,12.08,0,0,0,1.08,5.42q-.54,8.13-1.08,16.4t-1.09,16.39l1.36,2.71q-.82,14.91-1.09,21.82t-.54,9.62c-.18,2-.27,2.62-.27,1.9L158.19,557l1.89-1.36q6.24.55,12.33,1.36a91.66,91.66,0,0,0,12.07.81,7.73,7.73,0,0,0,1.49-.13,7.55,7.55,0,0,1,1.49-.14l1.08-1.08a10.9,10.9,0,0,1,1.76-5.83,8,8,0,0,0,1.22-5.83L198,529.67q3.24-7.59,6.77-15.18l-.27-3,13.28-30.63-.54-2.44,1.22-2.44c.45-.9.85-1.8,1.22-2.71a14.76,14.76,0,0,0,1.35-3l2.71.54-.54,8.68q-.27,3.8-.27,7.45a57.11,57.11,0,0,1-.27,6.1l1.63,1.89-1.63,24.4a29.1,29.1,0,0,0,.27,3,29.83,29.83,0,0,1,.27,3.52,21.26,21.26,0,0,0,.14,2.58,6.3,6.3,0,0,0,.95,2.57q-.56,8.4-.82,16.67t-.81,16.39ZM213.2,527.23a5.4,5.4,0,0,1-.54-2.44,6,6,0,0,1,.27-1.9,6,6,0,0,0,.27-1.9,4.43,4.43,0,0,0-.13-1.08.65.65,0,0,0-.68-.54c-.91,0-1.58.86-2,2.57a27.57,27.57,0,0,0-.82,5.83q-.14,3.26-.27,6.37c-.09,2.08-.13,3.48-.13,4.2a31.36,31.36,0,0,1-.95,4.88c-.45,1.62-.95,3.25-1.49,4.87a20.76,20.76,0,0,0-1.22,8.14q.14,4.6-.14,8.4l-1.35.27-1.09-1.09q-9.48.83-19,1.77t-19,1.49a10.09,10.09,0,0,0-2.44-.68,19.72,19.72,0,0,0-2.44-.14,36.85,36.85,0,0,0-8.94,1.09,36.84,36.84,0,0,1-8.94,1.08,10.44,10.44,0,0,1-2.85-.41,11.81,11.81,0,0,0-3.12-.4,71,71,0,0,0-9.75.68q-4.89.68-10,1.22l-1.08-.82-4.88.27a27,27,0,0,0-.41-9,42.11,42.11,0,0,1-1-9,20.78,20.78,0,0,1,.54-4.75,22,22,0,0,0,.55-5,70.41,70.41,0,0,0-.55-8.69,70.39,70.39,0,0,1-.54-8.69l.82-1.08q-.28-8.69-.82-17.64t-.27-17.65v-3.26a10.06,10.06,0,0,0,.68-2.85c.09-1,.13-1.94.13-2.85a47.2,47.2,0,0,0-.67-8,44.85,44.85,0,0,1-.68-7.74,22.61,22.61,0,0,1,.54-4.89,22.45,22.45,0,0,0,.54-4.88q0-4.62-.4-8.83t-.68-8.82l1.08-1.08q-.54-9.51-1-18.87t-.4-18.87v-1.08q7,.27,13.68.27h13.42c.36,0,1,0,1.9-.13s1.35-.41,1.35-.95c0-.91-.32-1.45-1-1.63a7.38,7.38,0,0,0-2-.27,132.69,132.69,0,0,0-14.63.81,135.46,135.46,0,0,1-14.91.82,1.8,1.8,0,0,1-1.08-.41,2.24,2.24,0,0,0-1.36-.41q-2.44,0-7,.14t-9.62.54q-5,.4-9.48.95a59.31,59.31,0,0,0-6.64,1.08,59.68,59.68,0,0,0,7,.68q3.53.13,7,.14h8.54c1.89,0,3.56-.05,5-.14s2.26-.13,2.44-.13a3.85,3.85,0,0,0,1.36-.95c.17-.27.72-.41,1.62-.41h3a35.26,35.26,0,0,0-.81,7.87,58.08,58.08,0,0,1-.54,8.15l1.35,1.08-1.08,19.54,1.35,1.36-1.35,21.18,1.62,1.62q-.54,5.16-.81,10.32l-.54,10.31a6,6,0,0,1,1.08,3.8,11.72,11.72,0,0,1-.13,1.9,3.08,3.08,0,0,0,.4,1.9l-1.08,15.2,1.36,1.36-1.36,19.55,1.63,1.35-1.36,20.9,1.36,1.63c-.37,3.62-.59,7.11-.68,10.45s-.23,6.84-.41,10.46a5.94,5.94,0,0,1,1.09,3.79q-1.36,0-6.37.41t-10.57,1q-5.57.54-10,.95c-3,.27-4.57.5-4.74.68.17.36,1,.63,2.57.81s3.25.32,5.15.4,3.75.14,5.56.14h3.52L94,572.22l13.83.27.81.81q.27,0,1.08-.81h3.8l1.35-1.36,20.87.27,1.63-1.62q5.15.27,10.16.27h10.44a3.68,3.68,0,0,1,3.52-1.22,5.22,5.22,0,0,0,3.52-.41l15.45.54,1.08-1.62,19.52.54,1.08-1.63h.81a4.59,4.59,0,0,1,1.09.14,4.43,4.43,0,0,0,1.08.13,2.19,2.19,0,0,0,2.17-1.89A74,74,0,0,0,209,556.9c.45-2.61.86-5.19,1.22-7.72l-1.08-1.63Q211.57,537.26,213.2,527.23Z"/><path class="cls-7" d="M391.81,585h-1.9a12.58,12.58,0,0,0-1.76.14,11.19,11.19,0,0,1-1.49.13,4.88,4.88,0,0,1-3.93.68,4.59,4.59,0,0,0-4.2,1.22q-5.7-.27-11.25-.27c-3.71,0-7.45-.09-11.25-.27l-1.63,1.35-22.49-.54-1.63,1.36-15.72-.27a10.27,10.27,0,0,1-.94-1.11,1.82,1.82,0,0,1-.41-1.1,2.87,2.87,0,0,1,.41-1.52,2.52,2.52,0,0,0,.4-1.25v-.83l-1.08-1.38,1.35-6.91-6.5.27a6.82,6.82,0,0,1-3.93.55,4.54,4.54,0,0,0-3.93,1.35c-3.79,0-7.59-.18-11.38-.54l-11.12-1.08L275.54,576a110.47,110.47,0,0,1-11.11-2.7A58.32,58.32,0,0,1,253.86,569l-1.9.55a70.93,70.93,0,0,1-8.94-6.21,25.19,25.19,0,0,1-6.78-8.37l-1.9-.54c-.18,0-.4-.59-.68-1.75s-.49-2.44-.67-3.79-.37-2.61-.54-3.77a18.33,18.33,0,0,1-.28-2.3,10.27,10.27,0,0,1,.55-3.78v-.81a11.91,11.91,0,0,1,.27-2.57,11.69,11.69,0,0,0,.27-2.56,4.63,4.63,0,0,0-.27-1.89,28.13,28.13,0,0,1,5.82-9.72,37.85,37.85,0,0,1,9.08-7.29,4.68,4.68,0,0,1,.55-2.16,49,49,0,0,1,10.7-4.58,61.24,61.24,0,0,1,11.25-2.17l1.35-1.62a15.35,15.35,0,0,1,3-.27h3q3.78,0,7.58.27t7.59.81l1.36-1.35q4.06.81,8.26,1.49t8.27,1.22a3.77,3.77,0,0,1,2.44-.28,11.86,11.86,0,0,0,2.44.28,5.68,5.68,0,0,0,3-.55l6,.55q1.08-6.51,1.63-13.28l-1.36-1.63V489a63.59,63.59,0,0,0-.81-10.16,36.16,36.16,0,0,0-3-9.62l-1.9-.54a16,16,0,0,0-6.64-7.19,27.86,27.86,0,0,0-9.35-3.38l-1.35,1.35a6.63,6.63,0,0,0-2.71-.27h-3c-.73,0-1.86.05-3.39.14a24.21,24.21,0,0,0-4.47.67,17.25,17.25,0,0,0-3.93,1.49,4.55,4.55,0,0,0-2.31,2.58c-.9.72-1.72,1.35-2.44,1.9a12.25,12.25,0,0,0-2.17,2.16q4.89,4.89,4.34,12.47a7.53,7.53,0,0,1,1.36,1.9,24.68,24.68,0,0,1-4.88,10.84,18.09,18.09,0,0,1-9.76,6.5l-1.08,1.9c-1.09.18-2.13.32-3.12.41s-2,.13-3.12.13a25.33,25.33,0,0,1-7.86-1.22,14.65,14.65,0,0,1-6.5-4.2h-1.9a20.25,20.25,0,0,1-4.2-7.59,19.67,19.67,0,0,1-1-8.67,4.66,4.66,0,0,1-.27-1.9,6.22,6.22,0,0,1,.41-2.17,6.07,6.07,0,0,0,.4-2.16,4.57,4.57,0,0,0-.13-1.09,4.45,4.45,0,0,1-.14-1.08,46.61,46.61,0,0,1,13.56-18.16l.54-2.17a57.94,57.94,0,0,1,20.32-10l1.09-1.89a87.35,87.35,0,0,1,21.14-2.17l1.35-1.63q3.8.55,7.46.82a55.3,55.3,0,0,1,7.45,1.08,1,1,0,0,0,.68-.14.56.56,0,0,1,.4-.13,7.5,7.5,0,0,1,2,.27,8.44,8.44,0,0,0,2.3.27,4.46,4.46,0,0,0,2.44-.54,100.89,100.89,0,0,1,10.84,3.39,39.22,39.22,0,0,1,10,5.55h2.16A59.84,59.84,0,0,1,352.1,455a37.68,37.68,0,0,1,5.83,9.89l1.9.54a44.78,44.78,0,0,1,3,10.44,70.49,70.49,0,0,1,.81,10.7l1.63,1.09c-.19,2.53-.32,5.42-.41,8.67a28.68,28.68,0,0,1-1.22,8.13,4.34,4.34,0,0,1,.27,2.58,11.84,11.84,0,0,0-.27,2.57,5.7,5.7,0,0,0,.81,3q-.81,5.43-1.62,11t-1.9,11l1.08,1.9-3.52,22.22,1.08,1.63a24.09,24.09,0,0,1-.4,2.85,14.05,14.05,0,0,1-.68,2.84,65.52,65.52,0,0,1,6,3.12c2,1.18,4,2.3,6,3.39l1.63-.82,11.38,6.78a.25.25,0,0,1,.28.27,20.56,20.56,0,0,0,2.16,1.22c.91.45,1.81.95,2.71,1.49a22.83,22.83,0,0,0,3.53,1.9ZM355,576.28c0-.9-1-1.49-3.12-1.76a40.87,40.87,0,0,0-4.2-.41c-2,0-3.84.1-5.56.27a48.1,48.1,0,0,1-5.28.27h-2.44a12.33,12.33,0,0,1,1.08-2.16,19.48,19.48,0,0,0,1.09-1.89,18,18,0,0,0,1.35-4.87c.36-2.16.63-4,.82-5.41A20.83,20.83,0,0,1,343,559.1c2.17-.44,3.25-1,3.25-1.75,0-.36-.27-.59-.81-.68a8.57,8.57,0,0,0-1.35-.14,23.35,23.35,0,0,0-2.58.14c-.81.09-1.67.23-2.57.41a20.64,20.64,0,0,0,.4-2.17,18.24,18.24,0,0,1,.41-2.16l1.08-.81q1.36-7.85,2.31-15.69t1.49-15.69c.54.19,1.17.41,1.89.68a5.53,5.53,0,0,0,1.9.4c.54,0,.82-.08.82-.27,0-.72-.64-1.25-1.9-1.61s-2.17-.63-2.71-.82l.27-1.62a8.59,8.59,0,0,0,1.08-3.25,23.42,23.42,0,0,0,.27-3.24,36.67,36.67,0,0,0-.67-7.17,34.33,34.33,0,0,1-.68-6.89,11.41,11.41,0,0,1,.41-3.12,10.72,10.72,0,0,0,.4-2.83,31.19,31.19,0,0,0-1.35-9.07q-1.36-4.46-3-8.79l.81-1.08a49.13,49.13,0,0,0-8.81-15.14q-5.28-6-14.77-8.66a7.59,7.59,0,0,0-3.79-1.89,19.57,19.57,0,0,0-4.07-.54,34.35,34.35,0,0,0-7.45.81,34.45,34.45,0,0,1-7.46.82,14.38,14.38,0,0,1-2-.14,12.58,12.58,0,0,0-1.76-.14,21.61,21.61,0,0,0-8.94,2.44,52,52,0,0,0-8.13,4.61l-1.36-.27a31.21,31.21,0,0,0-11.92,13.41A40.9,40.9,0,0,0,257.65,485a1.56,1.56,0,0,0,.27,1.08A1.74,1.74,0,0,0,259,484.4a15.93,15.93,0,0,1,.81-4.74q.81-2.57,1.62-4.74a13,13,0,0,0,.68-1.9c.27-.9.59-1.35.95-1.35L262,470a36.76,36.76,0,0,1,11.92-12.2l.27-1.62a33.06,33.06,0,0,1,8.68-3.66,66.39,66.39,0,0,1,9.21-1.76l1.08-1.63a33.06,33.06,0,0,1,4.07-.27h4.06c1.81,0,3.53.05,5.15.14s3.35.22,5.15.4a3.16,3.16,0,0,1,2.17-.54,7.38,7.38,0,0,1,2,.27,8.51,8.51,0,0,0,2.31.27,15.55,15.55,0,0,1,2.57,1.36c1.18.72,2.31,1.49,3.39,2.3s2.44,1.86,4.07,3.12L330,456a26.91,26.91,0,0,1,4.75,7.18q1.75,3.93,3.11,8l1.9.82a84.05,84.05,0,0,1,2.17,18.7l1.62,1.08c-.18,3.25-.31,6.42-.4,9.49s-.32,6.14-.68,9.21a3.68,3.68,0,0,1,.81,3.53,5,5,0,0,0,0,3.25v1.35q-3.8-1.08-7.18-1.89t-6.91-1.9l-1.63,1.08c-4.16-.9-8.17-1.71-12.06-2.44s-7.9-1.35-12.06-1.89l-1.89,1.35a133,133,0,0,0-14.64-.81,92.55,92.55,0,0,0-11.92.81l-1.63,1.63a50.14,50.14,0,0,0-13,4.33,20.35,20.35,0,0,0-9.21,9.49,11.13,11.13,0,0,1-.28,4.2,16.34,16.34,0,0,0-.54,4.2,2.15,2.15,0,0,0,.27,1.36,26.55,26.55,0,0,0,.82,10,20.77,20.77,0,0,0,4.87,8.68h2.17A28.93,28.93,0,0,0,269,563.14a111,111,0,0,0,12.2,3.38l1.9-1.35a69.14,69.14,0,0,0,8.67,1.08q4.33.27,8.67.27h4.47a36.31,36.31,0,0,0,4.48-.27l1.89-1.62q6.24-.27,12.2-1t11.92-1.76c-.36,1.24-.72,2.44-1.08,3.59s-.73,2.35-1.08,3.59l.81,1.6L332.45,575a6.64,6.64,0,0,0,3.53,1.59,42.45,42.45,0,0,1,5.69.41q3,.4,6,.95a3.69,3.69,0,0,1,2.71-1.09c.36,0,1.22.1,2.57.27S355,577,355,576.28Zm-12.2-55.83q-.54,2.71-1.08,5.29c-.37,1.71-.73,3.48-1.09,5.28l1.36,1.08c-.73,3.08-1.4,6-2,8.81s-1.4,5.65-2.3,8.54l1.09,1.63a34.08,34.08,0,0,0-.95,3.38c-.27,1.18-.59,2.31-.95,3.39q-5.43,1.36-11,3.12a36.81,36.81,0,0,1-11.25,1.76,15.14,15.14,0,0,1-2.3-.14,18.48,18.48,0,0,0-2.3-.13,65.33,65.33,0,0,0-11,.95,49.73,49.73,0,0,1-11,.67h-2.43L284.21,563a63.78,63.78,0,0,1-11.52-1.63,36.64,36.64,0,0,1-10.43-4.06,20.41,20.41,0,0,1-10.3-18.7v-.54a4.39,4.39,0,0,0,.54-1.9q1.35-3.79,2.58-7.18a17.3,17.3,0,0,1,4.2-6.37,20.91,20.91,0,0,1,6.37-4.34,18.82,18.82,0,0,1,7.72-1.62h1.35A114.09,114.09,0,0,0,286.24,515a50.23,50.23,0,0,1,11.79-.81h1.09l1.35.81a141.65,141.65,0,0,1,21.14,1.63Q332.45,518.28,342.75,520.45Zm-24.12,4.07-1.08,1.08q-3-.54-6-1.22c-2-.45-4-.86-6-1.22a3.87,3.87,0,0,1-2.84,0,3.09,3.09,0,0,0-3.12.81,20.35,20.35,0,0,0-3.12-.27h-3.11a40.41,40.41,0,0,0-9.76,1.09l-.54,1.89q-8.13,2.72-9.49,11.39l1.36,1.08a2.89,2.89,0,0,0-.28,1.36,11.32,11.32,0,0,0,1.77,6.09,16,16,0,0,0,4.47,4.75l1.35-.82c0,.19.45.5,1.36,1s1.94.95,3.12,1.49a26.28,26.28,0,0,0,3.52,1.36,10.43,10.43,0,0,0,2.3.54,3.39,3.39,0,0,1,1.9,0,2.47,2.47,0,0,1,2.71-.68,3.13,3.13,0,0,0,3.25-1.22h8.4q4.06,0,8.13-.27l.27-.27L320.53,537l-1.09-1.35,1.63-7.59a1.9,1.9,0,0,0,.41-1.63c-.1-.72,0-1.17.4-1.35Z"/><path class="cls-7" d="M559.84,574.11,537.61,573l-1.89,1.62-26.84-1.35-1.62,1.35L488,573.57a22.69,22.69,0,0,0-5,0,9,9,0,0,0-4.74,1.36,112,112,0,0,0-12.2-.41,59.18,59.18,0,0,1-11.92-.95,8.62,8.62,0,0,0-2.44.54,12.41,12.41,0,0,0-1.36.54l-.27-2.43,1.36-1.63,27.37-9.22,1.36-1.89,16-5.15c0-1.45,0-2.94.13-4.47s.23-3,.41-4.48l-1.36-1.62,1.36-21.14a6.75,6.75,0,0,1-.54-2.58v-2.57a23.63,23.63,0,0,0-.14-2.58,10,10,0,0,0-.68-2.57,17.69,17.69,0,0,1,.14-2.17,17.44,17.44,0,0,0,.13-2.17A33.11,33.11,0,0,0,488,486.3a9.51,9.51,0,0,1-2.71-.27,18.06,18.06,0,0,0-8-3.93,43.81,43.81,0,0,0-9.08-1,56.77,56.77,0,0,0-9.48.82,6.11,6.11,0,0,0-.82.94,10.05,10.05,0,0,0-.54.95,23.16,23.16,0,0,0-11.11,6,7.67,7.67,0,0,0-2.17,5.69,24.72,24.72,0,0,1-.81,6.5l1.08,1.63q-.27,1.89-.81,4.47t-1.09,5.28q-.54,2.72-.94,5.15a25.89,25.89,0,0,0-.41,4.34,13.76,13.76,0,0,1-.27,2.71,13.91,13.91,0,0,0-.27,2.71,7.23,7.23,0,0,0,.81,3.25l-1.08,7.32h-.27c-.19,0-.28.09-.28.27s.72.77,2.17,1.76,3.12,2.08,5,3.25,3.7,2.27,5.42,3.26,2.84,1.67,3.38,2h2.71l14.1,8.4-.54,1.9-12.74-.54-1.9,1.35-26.83-1.08-1.63,1.35-21.14-1.35a5.19,5.19,0,0,1-2.57.4c-.81-.08-1.67-.13-2.58-.13a11.36,11.36,0,0,0-5.14,1.08q-6.51-.27-13-.4t-13-.68a2.7,2.7,0,0,1-1.22.27,2.7,2.7,0,0,0-1.22.27,4.44,4.44,0,0,1-1.36.27l-.54-2.44q7-2.43,12.74-4.6,4.88-1.9,9.48-3.53t6-2.17l1.35-2.16c2-.72,4-1.5,6.1-2.31s4.11-1.67,6.1-2.57v-.54a23.93,23.93,0,0,0-.14-5.7,38.4,38.4,0,0,1-.4-5.69l-1.63-1.35c0-.36,0-1.85-.14-4.47s-.27-5.56-.54-8.81-.63-6.41-1.08-9.49-1-5.06-1.76-6l-1.36-14.64a7.39,7.39,0,0,0-.27-1.62c-.18-.72-.09-1.09.27-1.09-1.45-.54-3-1.08-4.61-1.62s-3.16-1.09-4.6-1.63l-2.71.81-27.38-9.21-2.16.54L346,465.43v-2.16l11.93-1.33,1.35-1.59,20.87-2.12A9.73,9.73,0,0,1,385.3,457a6.8,6.8,0,0,0,4.88-1.71q7-1.06,14.09-1.86t14.09-1.59l2.17-2q6.51-.86,13-1.57t13.28-1.58l.81.82h-.27l-.27,2.18,1.36,2.17-1.36,9.27a62,62,0,0,1,6.51-2.25q3.24-.93,6.5-2l1.09-1.6a1.61,1.61,0,0,1,1.08-.26,1.1,1.1,0,0,0,.81-.27q4.34-1.05,8.95-1.85a52.54,52.54,0,0,1,8.94-.8,14.38,14.38,0,0,1,2,.14,12.48,12.48,0,0,0,1.76.13,11.44,11.44,0,0,1,3-.27,19.72,19.72,0,0,1,2.44.14,20,20,0,0,0,2.44.13,4.88,4.88,0,0,0,3-.81,50.79,50.79,0,0,1,13.83,4.87,35.84,35.84,0,0,1,11.38,9.19l2.44.81a41.43,41.43,0,0,1,6.64,13.39,61.4,61.4,0,0,1,2.3,14.47l1.63,1.89v1.62a102.75,102.75,0,0,1-.81,12.72q-.82,6.48-1.9,12.71l1.08,1.62q-1.08,5.4-1.9,10.55a104.27,104.27,0,0,1-2.16,10.27v1.08a13.46,13.46,0,0,1-.41,3.25,13.32,13.32,0,0,0-.41,3.24l.28,1.08q6.23,3.52,12.19,6.76t11.93,7l2.71-.27c.36.18.85.45,1.49.82s1.3.72,2,1.07a25.19,25.19,0,0,0,2.44,1.63Zm-34.42-10c0-1.26-.55-1.89-1.63-1.89a38.4,38.4,0,0,0-5.69.4c-1.81.28-3.62.5-5.42.68q1.35-.81,1.76-4.47c.27-2.44.41-4.2.41-5.28,0-1.45-.05-3-.14-4.61s-.13-3.16-.13-4.61a26.42,26.42,0,0,1,.54-5.56q.54-2.57,1.35-5.55a21.6,21.6,0,0,0,.27-3.52v-3.53c0-2.34,0-4.65-.13-6.91s-.14-4.56-.14-6.91l.82-1.08a79,79,0,0,0-2.71-20.06,39.43,39.43,0,0,0-9.76-17.62l-.81-1.62a12.77,12.77,0,0,0-4.48-4.07A19.26,19.26,0,0,0,494,466a45,45,0,0,0-6-.68q-3-.14-6-.41c-.9,0-1.85,0-2.84-.13s-1.95-.14-2.85-.14a30.84,30.84,0,0,0-10.43,1.9q-5.3,1.89-9.89,3.79l-1.36-.54a57.58,57.58,0,0,0-14.91,7.45q-7.86,5.29-13.55,9.9l.55-13-1.36-1.9.27-6.23a1.13,1.13,0,0,1,.27-.82l-1.08-1.62q-4.62.27-9.22.4c-3.07.1-6.14.23-9.21.41a4.33,4.33,0,0,1-2.44,1.08l-3.25.55q-1.63.27-2.85.54c-.81.18-1.22.45-1.22.81,0,.54.77.91,2.31,1.08s2.48.28,2.84.28a44.07,44.07,0,0,0,11.52-1.5,69.31,69.31,0,0,1,11.52-2c-.73.73-1.09,2-1.09,3.8a9.75,9.75,0,0,1-.81,4.33V476q0,3.25.27,6.51l.54,6.5c-.36.37-1,1-2,1.9s-1.49,1.54-1.49,1.9q0,.27.54.27a2.57,2.57,0,0,0,1.63-.68c.54-.45,1-.86,1.35-1.22.18,1.27.32,2.44.41,3.52s.14,2.26.14,3.53l-1.09,1.35q.54,12.19.81,24.26t.55,24.25v.82a62.79,62.79,0,0,0-10.3.81,13.49,13.49,0,0,0-1.63.27q-1.35.27-1.35.81c0,.19.17.28.54.28a20.27,20.27,0,0,0,5.15.67c2.34.1,4.15.14,5.42.14h1.35a5.21,5.21,0,0,0,.55-.68c.17-.27.36-.41.54-.41a33.94,33.94,0,0,1,6.64.68,34.46,34.46,0,0,0,6.91.68,1.2,1.2,0,0,0,1.35-1.36,1.67,1.67,0,0,0-1.89-1.89,41.36,41.36,0,0,0-5.83.4,39.91,39.91,0,0,1-5.83.41H426l-.27-.54a15.19,15.19,0,0,0,.54-3.52q.27-3,.55-6.51c.17-2.34.31-4.56.4-6.64s.14-3.48.14-4.2L426,527,427,502.29l-1.36-1.62.54-11.12q2.17-1.35,4.47-2.84t4.75-2.85v-1.62a84.2,84.2,0,0,1,18.43-8.13l.81-1.9a72.72,72.72,0,0,1,21.14-3.8l1.63-1.62a76.16,76.16,0,0,1,10.16.68,23.4,23.4,0,0,1,9.62,3.65,3.65,3.65,0,0,1,3.66.95,32,32,0,0,0,2.85,2.58,7.24,7.24,0,0,1,1.76,2.17,35.82,35.82,0,0,1,2.3,4.2c.72,1.53,1.36,3,1.9,4.33a9.42,9.42,0,0,1,.81,2.85v.27l1.63.54a67.57,67.57,0,0,1,1.62,14.64v5.42l1.36,1.35q-.55,5.43-1.22,10.84t-1.22,10.84l1.35,1.63c-.54,3.62-1.08,7.18-1.62,10.71s-1.09,7.09-1.63,10.7a3.75,3.75,0,0,1,.81,2.71,10,10,0,0,1-.13,1.63,9.85,9.85,0,0,0-.14,1.62,6.26,6.26,0,0,0,.14,1.22,2.27,2.27,0,0,0,.68,1.22,6.26,6.26,0,0,0-1.22.14,6.35,6.35,0,0,1-1.22.13c-.37,0-.54-.13-.54-.4s-.19-.41-.55-.41a55.69,55.69,0,0,0-11.92,1.36,16.45,16.45,0,0,0-2.17.27c-1.08.18-1.63.45-1.63.81a.48.48,0,0,0,.55.54,8.82,8.82,0,0,0,3.52.41c1.26-.09,2.44-.14,3.52-.14h3.66a23.13,23.13,0,0,0,3.12-.27q.27,0,.54-.54t.54-.54q3.8,0,7.73.27c2.61.18,5.28.27,8,.27A1.2,1.2,0,0,0,525.42,564.08Z"/><path class="cls-7" d="M748.74,589.56l-27.92,2.17-1.63,1.62-26,1.9-1.36,1.63-20.6,1.35a4.32,4.32,0,0,1-1.89.68,6.43,6.43,0,0,0-2.17.68,9.78,9.78,0,0,1-2.71.81l-1.9-3.52q.27-3.52.54-6.78c.18-2,.36-4,.54-6.1s.36-3.83.55-5.28a13.91,13.91,0,0,1-3.26.54c-1.8.18-3.07.27-3.79.27l-1.9,1.9q-3.24.27-6.5.41T642,582a145.54,145.54,0,0,1-14.9-.81l-1.9,1.08a135.86,135.86,0,0,1-25.75-5.69l-1.89.81q-4.07-1.62-8.27-3.65a76.32,76.32,0,0,1-8-4.48,9.92,9.92,0,0,1-4.06-2.16,9.79,9.79,0,0,0-4.34-2.17,68.4,68.4,0,0,1-9.75-10.17A51.35,51.35,0,0,1,556,542.67l-2.17-1.62a48.23,48.23,0,0,1-2.71-10.17,70.4,70.4,0,0,1-.81-10.7v-3.66a26.1,26.1,0,0,1,.27-3.66l-1.09-1.9a60.86,60.86,0,0,1,10.3-24.39l-.27-2.17c0-.36.68-1.26,2-2.71s2.93-3,4.74-4.6,3.52-3.16,5.15-4.61a14,14,0,0,1,3.25-2.44,10.21,10.21,0,0,1,3.79-3.12,9.26,9.26,0,0,0,3.8-3.38,66.62,66.62,0,0,1,13-5.15A70.83,70.83,0,0,1,609.16,456l2.17-1.63h5.42a102,102,0,0,1,22.49,2.44l2.17-1.08q6.51,1.35,12.74,3.25a77.81,77.81,0,0,1,12.2,4.88l2.16-.54,1.36.81q.54-4.6,1.08-8.95a72.17,72.17,0,0,0,.54-8.94,6.57,6.57,0,0,0-.81-3.79q.54-7,1.22-13.83t1.49-13.82l-1.08-2.17L675,384.67l-1.36-1.9.27-2.71q-4.6-2.7-9.35-5.15T655.23,370l-1.89.55-17.89-10a13.15,13.15,0,0,1-4.61-2A7.08,7.08,0,0,0,626,357.3l-6.5-3.26.81-3,20.33,2.44,2.17-1.08,27.91,3.25,1.9-1.36,26,3.26,1.62-1.36q5.14.81,10.17,1.49c3.34.46,6.72.95,10.16,1.49a16.26,16.26,0,0,1,2.44.41c1.26.27,1.9.59,1.9.95h-.28a10,10,0,0,1,0,4.61,21.28,21.28,0,0,0-.54,4.6,5.08,5.08,0,0,0,.54,2.71q-1.35,7-2.43,13.69t-2.44,13.69l1.08,2.16-4.88,27.65,1.09,2.17-4.61,25.74,1.08,1.63-3.79,20.06v1.35a15.94,15.94,0,0,1-.27,2.85,15.91,15.91,0,0,0-.27,2.84,9.19,9.19,0,0,0,.54,3c-.73,4.7-1.49,9.26-2.31,13.69s-1.67,9-2.57,13.69l1.08,2.16L701,546.47l1.08,2.17-4.34,24.66,1.09-.27,4.88,1.62q3.24,1.1,7,2.31t7.32,2a27.42,27.42,0,0,0,6,.81,4.25,4.25,0,0,0,1.9-.54l11.38,3.25q5.7,1.63,11.11,3.26h2.17l.82,2.44ZM702.66,368.14a53.51,53.51,0,0,0-6.64-.68q-3.39-.13-6.64-.41-3.79-.27-7.86-.81a59.7,59.7,0,0,0-7.86-.54,1.56,1.56,0,0,0-1.08.27c0,.36.76.77,2.3,1.22s3.25.9,5.15,1.35,3.75.82,5.56,1.09a29.77,29.77,0,0,0,3.79.4l1.36-1.08,10.3,1.63-1.36,7,1.36,1.63-3.53,20.87L698.6,402q-1.1,5.43-1.9,10.44t-1.63,10.43a4.37,4.37,0,0,1,.82,2.71,11.62,11.62,0,0,1-.14,1.9,11.81,11.81,0,0,0-.13,1.9v.81l-2.71,14.36,1.08,1.36-3.25,19.78,1.08,1.63-2.44,14.91c-1.81-.91-3.52-1.67-5.15-2.31s-3.34-1.39-5.15-2.3l-1.62,1.08q-5.43-2.16-10.71-4.06t-10.7-3.53l-1.9,1.09q-6-1.63-11.79-2.71t-12.06-1.63l-1.9,1.36c-1.45-.18-2.8-.32-4.06-.41s-2.62-.13-4.07-.13a63.86,63.86,0,0,0-16,1.89,5.57,5.57,0,0,1-3.79,2.31,6.79,6.79,0,0,0-3.8,1.76,22.89,22.89,0,0,0-6.91,3.11,48.71,48.71,0,0,0-6.37,4.48.78.78,0,0,0-.54.27l-.54.54v2.17a44.5,44.5,0,0,0-11.66,19.51l.82,1.9a59.86,59.86,0,0,0-1.63,14.09,69.79,69.79,0,0,0,.81,10.3l1.9,1.63a39.24,39.24,0,0,0,10.3,21.68,7.14,7.14,0,0,1,4.2,2.3,6.86,6.86,0,0,0,3.39,2.31,23.67,23.67,0,0,0,2.71,2,56.46,56.46,0,0,0,4.88,3c1.8,1,3.47,1.9,5,2.71a9.94,9.94,0,0,0,2.85,1.22h.27l1.62-.81a95.54,95.54,0,0,0,11,3.11c3.7.82,7.36,1.49,11,2l1.89-1.36c3.07.36,6.15.64,9.22.81s6.14.27,9.21.27c.91,0,1.85,0,2.85-.13s1.94-.14,2.84-.14l1.9-1.35c3.8-.18,7.63-.45,11.52-.81s7.73-.82,11.52-1.36l-1.63,9.76,1.36,1.62a20.63,20.63,0,0,0-.82,3.25c-.18,1.09-.36,2.27-.54,3.53l1.36,1.08q3,0,6.77.14t7.32.13a4.1,4.1,0,0,1,2.17-1.08c.9-.18,1.8-.31,2.71-.41s1.67-.17,2.3-.27.95-.31.95-.68c0-.72-.81-1.17-2.44-1.35s-2.71-.27-3.25-.27-1.67.09-3.39.27-3.52.41-5.42.68-3.57.54-5,.81a7.33,7.33,0,0,0-2.44.68c.36-1.26.72-2.44,1.08-3.53s.72-2.25,1.09-3.52a31.31,31.31,0,0,0,.54-6.1v-6.37c.72-.17,2-.44,3.79-.81s2.71-.9,2.71-1.63c0-.36-.36-.58-1.08-.67a14.74,14.74,0,0,0-1.63-.14,15.25,15.25,0,0,0-3.52.54v-2.57a13.32,13.32,0,0,1,.27-2.58l1.09-.81q.54-9.75,1.08-19.65t1.9-19.38a10,10,0,0,0,1.62-5c.18-2.07.27-3.84.27-5.28V502a30.92,30.92,0,0,1,.55-6.37c.36-1.71.9-3.75,1.62-6.1a22.42,22.42,0,0,0,.27-4.06,5.39,5.39,0,0,1,1.9.68,5.19,5.19,0,0,0,1.9.67.23.23,0,0,0,.27-.27c0-.54-.54-1.08-1.63-1.62l-2.17-1.09a67,67,0,0,0,.14-7.32,39.89,39.89,0,0,1,.41-7.31l1.08-.82q.54-9.48,1.22-18.83T697,430.74a8.74,8.74,0,0,0,1.63-4.88c.17-2.16.27-4,.27-5.42v-5.69c0-1.44,0-2.8.13-4.06a29.9,29.9,0,0,1,.55-3.93,44.47,44.47,0,0,1,1.49-5.29,27.51,27.51,0,0,0,1.08-9.89,100.45,100.45,0,0,1,0-10.43l1.08-1.09a15.28,15.28,0,0,0,.27-3,18.77,18.77,0,0,1,.28-3.25c.17-1.26.36-2.53.54-3.8Zm-13,122q-1.08,5.41-1.89,10.43T686.13,511a5.14,5.14,0,0,1,.54,2.72,14.44,14.44,0,0,1-.13,2,13,13,0,0,0-.14,2,1.08,1.08,0,0,0,.27.81l-3,15.45,1.08,1.36-3.25,19.78,1.09,1.63-1.09,7.31q-5.14,1.36-10,2.85a34.79,34.79,0,0,1-10.29,1.49,10.06,10.06,0,0,1-2.44-.27,10.18,10.18,0,0,0-2.44-.27,73.14,73.14,0,0,0-10.84.81,73.36,73.36,0,0,1-10.84.82h-.82l-1.08-1.09a85,85,0,0,1-10.44-.68q-5.55-.68-11.24-1.89a68.59,68.59,0,0,1-10.84-3.26,35.11,35.11,0,0,1-9-5,1.54,1.54,0,0,0-.54-.68,1.44,1.44,0,0,1-.54-.67A50.37,50.37,0,0,0,585,550.8a69.37,69.37,0,0,1-5.15-5.14,23.38,23.38,0,0,1-3.93-6,17.24,17.24,0,0,1-1.49-7.31,42,42,0,0,0-1.09-9.35,43.21,43.21,0,0,1-1.08-9.63v-2.16a9,9,0,0,1,.27-2.17l1.09-1.09a43.79,43.79,0,0,1,7.86-19,37.05,37.05,0,0,1,15.71-12.74,19.46,19.46,0,0,0,4.88-.81q3-.81,6.37-2t6.91-2.17a26.18,26.18,0,0,1,6.78-.95,14.21,14.21,0,0,1,3.66.41,27.75,27.75,0,0,0,3.39.68,11.52,11.52,0,0,0,3.65.54h3.66l7.59.54q3.79.27,7.59.81l1.08,1.09a135.23,135.23,0,0,1,18.43,4.06q9.21,2.71,17.89,5.69l-.81,4.34Zm-20.59.81c0-.72-.95-1.53-2.85-2.44a33.79,33.79,0,0,1-3.66-1.9l-1.63.82-.81-.55c-1.45-.54-3.7-1.39-6.77-2.57a36.6,36.6,0,0,0-6.51-2,1.56,1.56,0,0,1-1.08.27,7.33,7.33,0,0,1-2-.27A6.52,6.52,0,0,0,642,482a5.24,5.24,0,0,0-2.71.81c-1.81-.36-3.61-.63-5.42-.81s-3.61-.28-5.42-.28a53.08,53.08,0,0,0-9.21.82l-1.09,1.89a33.62,33.62,0,0,0-17.61,9.76l.27,1.9a41.25,41.25,0,0,0-5.42,8,50.32,50.32,0,0,0-3.53,8.81l1.36,1.36c-.54,2-1,3.93-1.36,5.82a31.22,31.22,0,0,0-.54,5.83,7,7,0,0,0,.27,2.17,5.08,5.08,0,0,1,1.09,3.25A2.82,2.82,0,0,0,594.8,534a28.51,28.51,0,0,0,4.74,8.81,37,37,0,0,0,7.18,6.91l2.17-.27a49.23,49.23,0,0,0,8.81,5.15,64,64,0,0,0,9.62,3.52l1.62-1.08q4.34,1.08,8.68,1.76a42,42,0,0,0,8.94.41h1.63l.81-1.36q3-.27,6.64-.54a25.7,25.7,0,0,0,6.1-1.08,7.52,7.52,0,0,0,1.49-.68,7.52,7.52,0,0,1,1.49-.68,2.07,2.07,0,0,1,.81-.27c.18,0,.45-.18.82-.54.17-.18.17-.9,0-2.17a21.15,21.15,0,0,1-.28-3,4.88,4.88,0,0,0-.81-3c.36-3.62.72-7.09,1.09-10.44s.81-6.73,1.35-10.16l-1.35-1.9,2.43-20.87-1.35-1.35,1.35-9.76A.79.79,0,0,0,669.06,490.91Z"/><text class="cls-8" transform="translate(240.77 399.6) rotate(-12.34)"><tspan class="cls-9">V</tspan><tspan x="53.63" y="0">eg</tspan><tspan class="cls-10" x="143.24" y="0">a</tspan><tspan x="198.37" y="0">s</tspan></text></svg>