<?xml version="1.0" encoding="utf-8"?>
<!-- Generator: Adobe Illustrator 25.0.0, SVG Export Plug-In . SVG Version: 6.00 Build 0)  -->
<svg version="1.1" id="Layer_1" xmlns="http://www.w3.org/2000/svg" xmlns:xlink="http://www.w3.org/1999/xlink" x="0px" y="0px"
	 viewBox="0 0 965.94 717.36" style="enable-background:new 0 0 965.94 717.36;" xml:space="preserve">
<style type="text/css">
	.st0{fill:#E27A67;}
	.st1{fill:#EDC775;}
	.st2{fill:#A6C1BB;}
	.st3{fill:#FFFFFF;}
	.st4{fill:none;stroke:#FFF4DC;stroke-width:4;stroke-miterlimit:10;}
	.st5{fill:none;stroke:#FF7900;stroke-width:8;stroke-miterlimit:10;}
	.st6{fill:#9B0400;}
	.st7{fill:#FFE8C7;}
	.st8{fill:#FFE8DC;}
	.st9{fill:#FCC8B6;}
	.st10{fill:#F26E14;}
</style>
<path class="st0" d="M699.79,495.2c0.66,0.69,1.31,1.4,2,2.09c1.81-2.29,3.58-4.63,5.29-7l0.08-3.31c-2.53-0.28-5.06-0.51-7.61-0.69
	C699.65,489.27,699.75,492.23,699.79,495.2z"/>
<path class="st0" d="M704.85,500.58l1.92,2.11l0.19-8.64c-1.24,1.6-2.49,3.19-3.77,4.76C703.74,499.41,704.3,500,704.85,500.58z"/>
<path class="st0" d="M696,507.25l-2.2,2.43c1.81-0.09,3.62-0.19,5.43-0.32c0.11-2,0.2-4.09,0.25-6.13
	C698.34,504.58,697.19,505.92,696,507.25z"/>
<path class="st0" d="M689.74,485.54c-1.6-1.52-3.21-3-4.85-4.5c-1.51,1.51-2.99,3.04-4.45,4.6c1.47,0,2.94-0.07,4.41-0.08
	C686.48,485.54,688.11,485.54,689.74,485.54z"/>
<path class="st0" d="M689.36,511.83c-1.45,0-2.89,0-4.33,0h-2.82c1.26,1.18,2.54,2.35,3.83,3.5
	C687.16,514.19,688.26,513,689.36,511.83z"/>
<path class="st0" d="M694.38,489.72c1.74,1.73,3.46,3.47,5.17,5.23c-0.05-2.89-0.14-5.77-0.28-8.66c-2.94-0.21-5.89-0.34-8.84-0.42
	C691.76,487.15,693.08,488.43,694.38,489.72z"/>
<path class="st0" d="M699.81,499.72c0.56-0.7,1.12-1.39,1.67-2.09c-0.56-0.62-1.12-1.25-1.69-1.87c0,1,0,1.92,0,2.87
	C699.82,499,699.81,499.35,699.81,499.72z"/>
<path class="st0" d="M657.15,484.58c0.63,0.82,1.27,1.63,1.92,2.44c3.56-0.39,7.14-0.68,10.71-0.9c1.38-0.1,2.75-0.18,4.12-0.25
	c0.25-4.37,0.61-8.74,1.13-13.1c-1.15-0.9-2.32-1.8-3.49-2.67c-4.01-3-8.22-5.73-12.6-8.17c-2.16-1.22-4.43-2.24-6.78-3.06
	c-1.14-0.41-2.33-0.66-3.54-0.77c-1.66-0.46-3.38,0.51-3.84,2.17c-0.16,0.56-0.15,1.15,0.01,1.71c0.14,1.2,0.42,2.38,0.83,3.51
	c0.85,2.32,1.91,4.56,3.15,6.7l0.79,1.31c0.47-0.14,0.96-0.21,1.45-0.21c2.88,0.03,5.19,2.38,5.16,5.26
	c-0.01,1.18-0.42,2.32-1.16,3.23C655.74,482.72,656.44,483.66,657.15,484.58z"/>
<path class="st0" d="M691.88,511.78c-1.49,1.6-3,3.18-4.52,4.74c2.75,2.42,5.56,4.75,8.42,7c0.62-0.71,1.42-1.23,2.31-1.52
	c0.44-3.5,0.77-7,1-10.54C696.69,511.62,694.29,511.72,691.88,511.78z"/>
<path class="st0" d="M675.67,508.22c0,0.56,0,1.13,0.07,1.69h1.66l-1.63-1.62L675.67,508.22z"/>
<path class="st0" d="M669.14,498.73c1.44,1.56,2.9,3.09,4.38,4.61c0-1.57,0-3.14,0-4.71c0-1.77,0-3.54,0.1-5.31
	C672.1,495.11,670.61,496.91,669.14,498.73z"/>
<path class="st0" d="M675.65,486c-0.07,1.57-0.13,3.14-0.17,4.72l0.74-0.86c1.17-1.35,2.36-2.67,3.56-4
	C678.4,485.93,677,486,675.65,486z"/>
<path class="st0" d="M685,510c2.06,0,4.12-0.06,6.18-0.17c1.14-1.26,2.27-2.53,3.38-3.81c1.68-1.96,3.35-3.94,5-5.95
	c0-0.47,0-0.94,0-1.41v-3.14c-1.75-1.9-3.53-3.76-5.34-5.6c-1.33-1.33-2.71-2.67-4.13-4c-1.74,0-3.49-0.06-5.23-0.06
	c-1.54,0-3.09,0-4.64,0.08c-1.28,1.38-2.56,2.77-3.81,4.18l-0.93,1.08c-0.06,2.49-0.08,4.99-0.07,7.49c0,2.26,0.08,4.52,0.15,6.78
	l1.57,1.57c1,1,2.06,2,3.1,3C681.82,510,683.42,510,685,510z"/>
<path class="st0" d="M684.6,516.86c-1.8-1.66-3.57-3.35-5.32-5.06c-1.15,0-2.29-0.05-3.43-0.09c0.25,4.21,0.61,8.4,1.12,12.58
	C679.57,521.88,682.11,519.4,684.6,516.86z"/>
<path class="st0" d="M673.56,506.05c-1.87-1.94-3.72-3.91-5.53-5.91l-1.22,1.54c-1.86,2.44-3.66,4.92-5.41,7.44
	c4.08,0.37,8.17,0.62,12.27,0.74C673.62,508.59,673.58,507.32,673.56,506.05z"/>
<path class="st0" d="M650.81,527.09c-1.07,2.25-1.94,4.6-2.6,7c-0.33,1.17-0.51,2.37-0.54,3.58c-0.35,1.69,0.73,3.34,2.41,3.7
	c0.57,0.12,1.17,0.08,1.72-0.13c1.19-0.21,2.34-0.57,3.44-1.06c2.26-1,4.43-2.2,6.48-3.58c4.14-2.79,8.09-5.86,11.82-9.18l1.33-1.2
	c-0.55-4.84-0.91-9.7-1.13-14.56c-4.47-0.19-8.93-0.52-13.38-1c-0.76,1.1-1.5,2.22-2.22,3.34
	C655.41,518.2,652.96,522.57,650.81,527.09z"/>
<path class="st0" d="M680.5,543.13c0.63,2.36,1.46,4.66,2.5,6.87c0.48,1.05,1.09,2.04,1.82,2.94c0.53,0.75,1.35,1.26,2.26,1.41
	c0.92-0.12,1.75-0.62,2.3-1.37c0.74-0.9,1.38-1.88,1.88-2.93c1.08-2.2,1.96-4.49,2.64-6.84c1.17-3.94,2.1-7.95,2.81-12
	c-1.79-1.27-2.59-3.53-2-5.64c-3.01-2.44-5.94-4.97-8.81-7.58c-2.8,2.82-5.68,5.56-8.65,8.21c0.1,0.77,0.19,1.54,0.31,2.31
	C678.21,533.44,679.2,538.33,680.5,543.13z"/>
<path class="st0" d="M706.14,531.14l0.44-20.2c-2.31,0.21-4.64,0.39-7,0.52c0,0.75,0,1.5-0.08,2.26c-0.11,2.7-0.26,5.4-0.47,8.09
	c0.21,0,0.41,0,0.62,0c2.88-0.02,5.23,2.29,5.25,5.17c0,0.01,0,0.01,0,0.02c0,0.98-0.27,1.94-0.8,2.77
	C704.78,530.22,705.45,530.68,706.14,531.14z"/>
<path class="st0" d="M706.74,503.77c-1.26-1.54-2.56-3.06-3.88-4.57c-1,1.23-2.02,2.45-3.05,3.66c0,2.16-0.06,4.31-0.12,6.47
	c2.32-0.17,4.64-0.38,6.94-0.63L706.74,503.77z"/>
<path class="st0" d="M690.09,485.54c3.05,0,6.1,0.06,9.15,0.17c0-0.71-0.07-1.42-0.12-2.13c-0.31-4.75-0.8-9.49-1.47-14.19
	c-4.37,3.62-8.56,7.47-12.59,11.48C686.76,482.41,688.43,484,690.09,485.54z"/>
<path class="st0" d="M691.78,447c-0.54-1.08-1.22-2.08-2-3c-0.84-1.5-2.74-2.04-4.24-1.21c-0.51,0.28-0.92,0.7-1.21,1.21
	c-0.76,0.94-1.39,1.97-1.9,3.07c-1.04,2.25-1.88,4.6-2.5,7c-1.28,4.82-2.23,9.73-2.85,14.68c-0.21,1.61-0.39,3.21-0.55,4.82
	c2.31,1.92,4.58,3.88,6.83,5.89l1.29,1.16c0.56-0.6,1.11-1.2,1.68-1.8c3.46-3.64,7-7.2,10.77-10.59l0.28-0.25
	c-0.69-4.73-1.69-9.4-3-14C693.72,451.58,692.85,449.24,691.78,447z"/>
<path class="st0" d="M699.36,483.56c0,0.72,0.08,1.44,0.12,2.16h0.45c2.41,0.08,4.82,0.2,7.21,0.35l0.54-24.24
	c-3.31,2.21-6.5,4.63-9.59,7.17C698.7,473.85,699.09,478.7,699.36,483.56z"/>
<path class="st0" d="M640.18,491.27c-2.39,0.68-4.71,1.58-6.94,2.68c-1.08,0.54-2.08,1.22-3,2c-1.49,0.86-2,2.77-1.14,4.26
	c0.29,0.5,0.71,0.91,1.22,1.19c0.94,0.75,1.98,1.38,3.08,1.88c2.26,1.02,4.6,1.84,7,2.46c4.84,1.24,9.75,2.16,14.71,2.74
	c2,0.24,3.93,0.44,5.9,0.62c1.84-2.55,3.74-5.07,5.67-7.54c0.41-0.53,0.83-1.06,1.25-1.58c-3.59-4-7.03-8.1-10.32-12.31
	c-0.9,0.13-1.81,0.25-2.71,0.39C649.93,488.8,645.01,489.87,640.18,491.27z"/>
<path class="st0" d="M673.61,492.94c0.06-2.28,0.15-4.55,0.28-6.83c-1.37,0.07-2.73,0.15-4.09,0.24c-3.49,0.26-6.97,0.61-10.43,1.06
	c3.06,3.83,6.28,7.53,9.61,11.14C670.49,496.66,672,494.79,673.61,492.94z"/>
<path class="st0" d="M680,485.65c1.5-1.66,3.01-3.3,4.54-4.93c-0.43-0.39-0.85-0.78-1.29-1.16c-2.19-1.92-4.44-3.79-6.72-5.61
	c-0.4,3.94-0.69,7.89-0.86,11.85C677.1,485.74,678.55,485.69,680,485.65z"/>
<path class="st1" d="M235.78,207.19c-1.59-1.52-3.21-3.02-4.85-4.5c-1.5,1.51-3,3-4.44,4.6c1.46,0,2.93-0.07,4.4-0.08
	C232.52,207.19,234.15,207.19,235.78,207.19z"/>
<path class="st1" d="M245.55,208c0.15,2.96,0.24,5.93,0.28,8.9c0.66,0.69,1.31,1.4,2,2.09c2.58-3.28,5.08-6.63,7.46-10.05
	C252.05,208.51,248.8,208.19,245.55,208z"/>
<path class="st1" d="M240.42,211.37c1.74,1.73,3.46,3.47,5.17,5.23c0-2.89-0.14-5.78-0.28-8.67c-2.94-0.2-5.89-0.33-8.84-0.41
	C237.8,208.79,239.12,210.08,240.42,211.37z"/>
<path class="st1" d="M245.86,221.36c0.55-0.69,1.11-1.38,1.66-2.08c-0.56-0.63-1.12-1.25-1.69-1.87v2.87
	C245.86,220.64,245.85,221,245.86,221.36z"/>
<path class="st1" d="M248.91,220.85c-1.01,1.23-2.03,2.45-3.06,3.66c0,2.16,0,4.31-0.12,6.47c3.56-0.26,7.1-0.61,10.62-1.06
	C254,226.83,251.48,223.8,248.91,220.85z"/>
<path class="st1" d="M242.05,228.9l-2.2,2.43c1.81-0.09,3.62-0.19,5.43-0.32c0.12-2,0.2-4.09,0.26-6.13
	C244.39,226.23,243.23,227.57,242.05,228.9z"/>
<path class="st1" d="M235.4,233.48c-1.44,0-2.89,0-4.33,0h-2.82c1.27,1.18,2.55,2.35,3.84,3.5
	C233.2,235.84,234.31,234.67,235.4,233.48z"/>
<path class="st1" d="M203.19,206.23c0.63,0.82,1.27,1.63,1.92,2.44c3.56-0.39,7.14-0.68,10.71-0.91l4.12-0.24
	c0.25-4.37,0.62-8.74,1.14-13.1c-1.16-0.9-2.32-1.8-3.5-2.67c-4.01-3.01-8.22-5.74-12.6-8.17c-2.16-1.22-4.43-2.24-6.78-3.06
	c-1.14-0.41-2.33-0.67-3.54-0.77c-1.66-0.46-3.38,0.51-3.84,2.17c-0.16,0.56-0.15,1.15,0.01,1.71c0.14,1.2,0.42,2.38,0.83,3.51
	c0.85,2.32,1.91,4.56,3.16,6.7c0.25,0.44,0.52,0.87,0.78,1.31c0.47-0.14,0.96-0.21,1.45-0.21c2.88,0.03,5.19,2.38,5.16,5.26
	c-0.01,1.18-0.42,2.32-1.16,3.23C201.79,204.37,202.48,205.31,203.19,206.23z"/>
<path class="st1" d="M237.92,233.43c-1.49,1.6-3,3.18-4.52,4.74c2.75,2.42,5.56,4.75,8.42,7c0.62-0.71,1.42-1.23,2.31-1.52
	c0.44-3.5,0.77-7,1-10.54C242.74,233.26,240.33,233.37,237.92,233.43z"/>
<path class="st1" d="M265.29,228.57l-0.11-18.17c-1.43-0.27-2.86-0.52-4.29-0.74c-1-0.16-2.05-0.3-3.08-0.44
	c-2.74,3.84-5.6,7.59-8.58,11.24c0.55,0.6,1.11,1.18,1.66,1.77c2.27,2.47,4.49,4.99,6.66,7.54c1.13-0.15,2.27-0.31,3.4-0.48
	C262.4,229.07,263.85,228.83,265.29,228.57z"/>
<path class="st1" d="M231.06,231.62c2.06,0,4.13-0.09,6.19-0.17c1.13-1.26,2.26-2.53,3.37-3.81c1.69-2,3.35-3.95,5-5.95
	c0-0.47,0-0.94,0-1.41c0-1,0-2.09,0-3.14c-1.74-1.9-3.52-3.76-5.34-5.6c-1.33-1.33-2.71-2.67-4.13-4c-1.74,0-3.48-0.06-5.23-0.06
	c-1.54,0-3.09,0-4.63,0.08c-1.29,1.38-2.57,2.77-3.82,4.18l-0.93,1.08c-0.05,2.49-0.07,4.99-0.06,7.49c0,2.26,0.05,4.52,0.14,6.78
	c0.53,0.53,1,1.05,1.57,1.57c1.03,1.01,2.06,2.01,3.1,3C227.86,231.64,229.46,231.64,231.06,231.62z"/>
<path class="st1" d="M221.71,229.87c0,0.56,0,1.13,0.07,1.69h1.66l-1.63-1.56L221.71,229.87z"/>
<path class="st1" d="M215.18,220.38c1.44,1.55,2.9,3.09,4.38,4.61c0-1.57,0-3.14,0-4.71c0-1.77,0.05-3.54,0.1-5.31
	C218.13,216.76,216.64,218.55,215.18,220.38z"/>
<path class="st1" d="M221.69,207.69c-0.07,1.57-0.13,3.14-0.16,4.72l0.73-0.86c1.17-1.35,2.37-2.68,3.56-4
	C224.44,207.58,223.07,207.63,221.69,207.69z"/>
<path class="st1" d="M219.6,227.7c-1.87-1.94-3.72-3.91-5.53-5.91c-0.4,0.51-0.81,1-1.21,1.54c-1.87,2.44-3.68,4.92-5.41,7.44
	c4.07,0.37,8.16,0.61,12.26,0.74C219.66,230.24,219.63,229,219.6,227.7z"/>
<path class="st1" d="M226.54,264.78c0.62,2.36,1.46,4.65,2.49,6.86c0.49,1.05,1.1,2.04,1.82,2.94c0.53,0.75,1.35,1.26,2.26,1.41
	c0.92-0.12,1.75-0.62,2.3-1.37c0.74-0.9,1.38-1.88,1.88-2.93c1.08-2.2,1.96-4.49,2.64-6.84c1.17-3.94,2.1-7.95,2.81-12
	c-1.79-1.27-2.59-3.53-2-5.64c-3.01-2.44-5.94-4.97-8.8-7.58c-2.81,2.82-5.69,5.55-8.66,8.2c0.1,0.77,0.2,1.55,0.31,2.31
	C224.24,255.08,225.23,259.97,226.54,264.78z"/>
<path class="st1" d="M230.64,238.51c-1.8-1.66-3.57-3.35-5.32-5.06c-1.15,0-2.29,0-3.43-0.09c0.25,4.21,0.61,8.4,1.12,12.58
	C225.62,243.53,228.17,241.06,230.64,238.51z"/>
<path class="st1" d="M196.86,248.74c-1.08,2.25-1.95,4.59-2.61,7c-0.33,1.17-0.51,2.37-0.54,3.58c-0.09,1.09,0.27,2.18,1,3
	c0.91,0.6,2.03,0.81,3.1,0.56c1.19-0.21,2.35-0.57,3.45-1.06c2.26-1,4.43-2.2,6.48-3.59c4.15-2.81,8.11-5.89,11.84-9.23l1.34-1.2
	c-0.56-4.84-0.92-9.7-1.14-14.56c-4.47-0.19-8.93-0.51-13.38-1c-0.75,1.11-1.49,2.23-2.22,3.35
	C201.45,239.8,199,244.2,196.86,248.74z"/>
<path class="st1" d="M258.23,256.5c2.11,1.22,4.32,2.26,6.61,3.09l0.63,0.2l-0.1-16.85c-1.75-2.9-3.64-5.73-5.63-8.49
	c-0.58-0.81-1.18-1.61-1.78-2.41c-4.09,0.48-8.19,0.84-12.3,1.07c0,0.75,0,1.5-0.08,2.25c-0.11,2.7-0.26,5.4-0.47,8.1
	c0.21,0,0.42,0,0.63,0c2.87-0.02,5.21,2.29,5.23,5.15c0.01,1.01-0.28,2-0.83,2.85C252.77,253.22,255.46,255,258.23,256.5z"/>
<path class="st1" d="M259.29,231.87c0.49,0.6,1,1.2,1.46,1.81c1.58,2,3.13,4,4.6,6.11L265.3,231c-1.33,0.23-2.67,0.43-4,0.62
	L259.29,231.87z"/>
<path class="st1" d="M114.79,473.48c-7-22,53.55-62.58,151.3-106.19l-0.61-105c-0.48-0.13-1-0.27-1.42-0.42
	c-2.42-0.87-4.77-1.95-7-3.23c-2.97-1.7-5.85-3.55-8.62-5.56c-1.3,0.79-2.89,0.96-4.33,0.46c-0.51,3.98-1.26,7.93-2.24,11.83
	c-0.62,2.5-1.47,4.94-2.55,7.28c-0.56,1.23-1.27,2.39-2.12,3.44c-0.24,0.27-0.49,0.53-0.74,0.79c-0.29,0.26-0.59,0.49-0.91,0.7
	c-0.72,0.47-1.55,0.73-2.4,0.77c-0.85-0.03-1.68-0.29-2.4-0.75c-0.32-0.21-0.63-0.44-0.92-0.69l-0.76-0.78
	c-0.86-1.05-1.59-2.2-2.17-3.43c-1.12-2.34-2.02-4.77-2.7-7.27c-1.32-4.91-2.3-9.9-2.93-14.94l-0.09-0.78l-0.55,0.48
	c-3.81,3.32-7.85,6.38-12.08,9.15c-2.13,1.41-4.39,2.62-6.74,3.62c-1.2,0.52-2.46,0.89-3.75,1.1l-1,0.08c-0.33,0-0.67-0.03-1-0.08
	c-1.52-0.16-2.78-1.28-3.12-2.77c-0.09-0.33-0.16-0.66-0.2-1c0-0.34,0-0.67,0-1c0.06-1.3,0.28-2.59,0.65-3.84
	c0.72-2.44,1.66-4.81,2.8-7.08c2.28-4.5,4.85-8.84,7.71-13c0.71-1.05,1.42-2.09,2.15-3.12c-1.68-0.18-3.35-0.37-5-0.6
	c-5.02-0.66-9.99-1.66-14.87-3c-2.47-0.66-4.87-1.53-7.18-2.62c-1.19-0.56-2.3-1.26-3.32-2.09c-0.24-0.22-0.49-0.46-0.73-0.7
	c-0.23-0.26-0.44-0.54-0.64-0.83c-0.4-0.63-0.62-1.35-0.66-2.09c0.03-0.74,0.26-1.46,0.66-2.08c0.19-0.29,0.4-0.57,0.63-0.83
	l0.73-0.7c1.01-0.82,2.12-1.52,3.3-2.07c2.3-1.08,4.7-1.95,7.16-2.6c4.87-1.3,9.83-2.26,14.84-2.87c0.82-0.12,1.65-0.21,2.47-0.31
	c-0.44-0.57-0.89-1.14-1.32-1.72c-0.67-0.9-1.33-1.81-2-2.72c-0.86,0.59-1.88,0.91-2.93,0.91c-2.88,0-5.21-2.34-5.2-5.22
	c0-1.81,0.94-3.49,2.48-4.43c-0.24-0.4-0.48-0.8-0.71-1.21c-1.26-2.22-2.32-4.55-3.17-6.95c-0.44-1.24-0.72-2.52-0.85-3.83
	c0-0.33,0-0.67,0-1c0.03-0.34,0.08-0.67,0.15-1c0.15-0.72,0.5-1.39,1-1.94c0.56-0.52,1.25-0.86,2-1c0.33-0.07,0.66-0.12,1-0.13h1
	c1.29,0.15,2.57,0.45,3.79,0.9c2.39,0.88,4.69,1.98,6.88,3.27c4.34,2.56,8.51,5.42,12.46,8.55c1.1,0.84,2.18,1.7,3.25,2.57
	c0.16-1.27,0.32-2.54,0.5-3.81c0.69-5.01,1.71-9.97,3.06-14.85c0.68-2.46,1.58-4.86,2.68-7.16c0.56-1.18,1.26-2.29,2.1-3.3
	c0.23-0.25,0.47-0.49,0.71-0.73c0.27-0.23,0.55-0.44,0.84-0.63c0.63-0.4,1.35-0.62,2.09-0.65c0.74,0.03,1.46,0.27,2.08,0.68
	c0.29,0.19,0.57,0.4,0.83,0.63l0.69,0.74c0.8,1.02,1.47,2.13,2,3.31c1.07,2.31,1.92,4.72,2.56,7.18c1.18,4.54,2.05,9.15,2.62,13.8
	c3.46-3.18,7.13-6.13,10.97-8.84c2.12-1.46,4.37-2.74,6.72-3.8c1.05-0.46,2.14-0.81,3.25-1.06l-0.81-139.21L61,66.28l22.75,524.19
	L267.42,597l-0.68-117.85C179.63,493.87,121,493.13,114.79,473.48z M118.63,332.48c1.81,0,3.29,1.42,3.38,3.23
	c6-0.34,18.26-0.62,32.47-0.73l0.22-0.06c-9.58-16.78-17.52-31.18-20.54-37.18c-1.71,0.76-3.7-0.02-4.46-1.72
	c-0.76-1.71,0.02-3.7,1.72-4.46c1.71-0.76,3.7,0.02,4.46,1.72c0.65,1.46,0.18,3.17-1.11,4.11c3.53,5.49,11.56,19.06,20.84,35.26
	c6.2-17.81,11.75-32.73,14.34-38.65c-1.51-1.1-1.85-3.22-0.74-4.74c1.1-1.51,3.22-1.85,4.74-0.74s1.85,3.22,0.74,4.74
	c-0.64,0.87-1.65,1.39-2.74,1.39c-0.36,0-0.73-0.07-1.07-0.19c-1.67,6.38-6.57,21.6-12.73,39.46c11-3.17,20.55-5.78,26.17-7.21
	c0-0.12,0-0.24,0-0.36c-0.02-1.89,1.5-3.43,3.39-3.45c1.89-0.02,3.43,1.5,3.45,3.39c0.02,1.89-1.5,3.43-3.39,3.45
	c-1.44,0.01-2.74-0.88-3.24-2.24c-5.26,1.72-14.06,4.41-24.39,7.45c13.37-0.06,24.51,0.08,29.48,0.33c0-0.05,0-0.1,0-0.15
	c-0.02-1.89,1.5-3.43,3.39-3.45c1.89-0.02,3.43,1.5,3.45,3.39s-1.5,3.43-3.39,3.45c-1.57,0.01-2.95-1.04-3.34-2.56
	c-5.17,0.35-17.3,0.66-31.72,0.79c9.88,17.34,17.88,31.91,20.3,36.9c1.71-0.77,3.73,0,4.49,1.71c0.77,1.71,0,3.73-1.71,4.49
	c-1.71,0.77-3.73,0-4.49-1.71c-0.68-1.52-0.16-3.3,1.22-4.22c-3-4.58-11.37-18.6-21.13-35.64c-6.41,18.38-12.1,33.6-14.49,38.86
	c1.64,0.88,2.26,2.92,1.38,4.56c-0.88,1.64-2.92,2.26-4.56,1.38s-2.26-2.92-1.38-4.56c0.59-1.1,1.74-1.79,2.99-1.78
	c0.26,0,0.51,0.03,0.76,0.09c1.4-5.7,6.42-21.42,12.85-40h-0.38c-13.2,3.82-24.68,7-30.7,8.48c0.08,0.29,0.13,0.59,0.13,0.89
	c0.02,1.89-1.51,3.44-3.4,3.46c-1.89,0.02-3.44-1.51-3.46-3.4c-0.02-1.89,1.51-3.44,3.4-3.46c1.28-0.01,2.46,0.69,3.06,1.82
	c5.09-1.69,14.37-4.53,25.38-7.76c-11.52,0-21.16-0.09-26.25-0.3c-0.34,1.84-2.1,3.06-3.94,2.72c-1.84-0.34-3.06-2.1-2.72-3.94
	c0.29-1.61,1.7-2.78,3.34-2.78L118.63,332.48z"/>
<path class="st1" d="M219.65,214.59c0.06-2.28,0.16-4.55,0.28-6.83c-1.36,0.07-2.73,0.15-4.09,0.24c-3.49,0.26-7,0.61-10.43,1.06
	c3.06,3.83,6.28,7.53,9.61,11.14C216.53,218.31,218.08,216.44,219.65,214.59z"/>
<path class="st1" d="M236.13,207.19c3.05,0,6.1,0.06,9.15,0.17c0-0.71-0.07-1.42-0.11-2.14c-0.32-4.74-0.81-9.48-1.48-14.19
	c-4.37,3.63-8.56,7.48-12.59,11.49C232.8,204.06,234.48,205.61,236.13,207.19z"/>
<path class="st1" d="M186.22,212.92c-2.39,0.68-4.71,1.58-6.94,2.68c-1.08,0.54-2.08,1.22-3,2c-1.49,0.86-2,2.77-1.14,4.26
	c0.29,0.5,0.71,0.91,1.22,1.19c0.94,0.75,1.98,1.38,3.08,1.87c2.26,1.03,4.6,1.86,7,2.47c4.84,1.24,9.75,2.16,14.71,2.74
	c2,0.24,3.94,0.44,5.91,0.62c1.83-2.55,3.73-5.07,5.67-7.54c0.41-0.53,0.82-1.06,1.24-1.58c-3.59-4-7-8.07-10.31-12.31
	c-0.91,0.13-1.82,0.25-2.72,0.39C195.97,210.45,191.05,211.52,186.22,212.92z"/>
<path class="st1" d="M237.82,168.61c-0.54-1.1-1.21-2.12-2-3.05c-0.84-1.5-2.74-2.04-4.24-1.21c-0.51,0.28-0.92,0.7-1.21,1.21
	c-0.76,0.94-1.39,1.97-1.89,3.07c-1.05,2.25-1.89,4.59-2.51,7c-1.28,4.83-2.23,9.73-2.84,14.69c-0.21,1.61-0.39,3.21-0.56,4.82
	c2.32,1.92,4.59,3.89,6.84,5.89l1.28,1.16c0.56-0.6,1.11-1.21,1.68-1.8c3.47-3.64,7-7.2,10.77-10.59l0.29-0.25
	c-0.69-4.73-1.7-9.4-3-14C239.77,173.16,238.89,170.84,237.82,168.61z"/>
<path class="st1" d="M256.09,181.94c-4.19,2.64-8.19,5.55-12,8.72c0.61,4.84,1,9.69,1.28,14.55c0,0.72,0.07,1.44,0.11,2.16H246
	c3.33,0.11,6.67,0.3,10,0.55c0.95-1.38,1.89-2.77,2.8-4.18c2.22-3.37,4.26-6.85,6.13-10.43c-2.28-1.75-2.71-5.01-0.97-7.29
	c0.3-0.39,0.65-0.73,1.04-1.02l-0.05-7.25c-0.82,0.2-1.63,0.46-2.41,0.79C260.3,179.49,258.14,180.62,256.09,181.94z"/>
<path class="st1" d="M260.7,205.05c-0.7,1-1.41,2.08-2.13,3.11c0.83,0.07,1.65,0.15,2.48,0.24c1.38,0.15,2.75,0.31,4.12,0.5
	l-0.06-10.9C263.71,200.37,262.23,202.73,260.7,205.05z"/>
<path class="st1" d="M226,207.3c1.49-1.66,3-3.31,4.53-4.93l-1.28-1.16c-2.2-1.92-4.44-3.79-6.73-5.61
	c-0.4,3.94-0.69,7.89-0.86,11.85C223.15,207.39,224.59,207.34,226,207.3z"/>
<path class="st2" d="M480.86,408.62c-46.46,14.06-90.55,25.6-130.11,34.28c-20.52-26.28-31.89-50.18-35.6-84.33
	c0-0.36-0.06-0.72-0.1-1.08c-7.01,3-13.82,6-20.45,9l3.65,95.49c51.6-8.77,114.69-23.81,182.68-44.17L480.86,408.62z"/>
<polygon class="st0" points="714.91,136.29 714.97,133.7 712.6,137.05 "/>
<polygon class="st0" points="714.84,139.28 714.87,138.18 713.17,138.75 "/>
<polygon class="st0" points="714.8,141.13 712.6,140.44 714.75,143.43 "/>
<path class="st0" d="M711.17,141.52v10c0,4.26-0.07,8.53-0.15,12.79c-0.12,8.54-0.36,17.07-0.71,25.6
	c-0.35-8.53-0.59-17.06-0.71-25.6c-0.08-4.26-0.1-8.53-0.15-12.79v-10l-5.84,8.13c-2.51,3.44-5,6.91-7.54,10.34
	c-5.05,6.88-10.19,13.69-15.43,20.44c4.67-7.16,9.43-14.25,14.28-21.26c2.41-3.52,4.87-7,7.3-10.51l5.8-8.22l-9.55,3.14
	c-4.07,1.3-8.12,2.63-12.19,3.9c-8.14,2.58-16.31,5.05-24.51,7.41c8-3.02,16.02-5.94,24.06-8.75c4-1.42,8.07-2.79,12.1-4.18
	l9.52-3.21l-9.57-3.07c-4.05-1.33-8.11-2.64-12.15-4c-8.1-2.67-16.16-5.46-24.19-8.39c8.24,2.24,16.44,4.59,24.61,7.05
	c4.09,1.21,8.17,2.48,12.25,3.72l9.62,3l-5.89-8.19c-2.47-3.48-5-6.94-7.39-10.44c-4.96-6.95-9.8-13.98-14.53-21.09
	c5.29,6.7,10.49,13.47,15.6,20.3c2.58,3.4,5.1,6.85,7.64,10.27l5.94,8.11v-10.05c0.05-4.27,0.06-8.53,0.15-12.8
	c0.12-8.53,0.35-17.06,0.7-25.59c0.35,8.53,0.59,17.06,0.7,25.59c0.09,4.27,0.11,8.53,0.15,12.8v10l3.87-5.38l1.81-81.38
	l-211.23-5.69l1.07,113.59c5.63,0.33,11.3,0.91,17,1.78c51.07,7.75,96.41,36.89,124.69,80.11c0.49,0.76,1,1.53,1.46,2.3
	c22.2-5,43.32-9.31,63.1-12.86l1.83-82.09L711.17,141.52z"/>
<path class="st3" d="M818.14,178.23c3.92-6,7.92-11.95,12-17.86c2-3,4.09-5.88,6.13-8.83l6.2-8.78l6.27-8.73
	c2.11-2.89,4.2-5.8,6.34-8.68c4.24-5.78,8.56-11.5,12.95-17.17c-3.91,6-7.91,11.95-12,17.86c-2,3-4.08,5.88-6.13,8.83l-6.2,8.78
	l-6.27,8.73c-2.11,2.89-4.2,5.8-6.34,8.68C826.85,166.84,822.53,172.56,818.14,178.23z"/>
<path class="st3" d="M802.09,130.23c6.92,1.88,13.81,3.85,20.67,5.92c3.44,1,6.86,2.08,10.29,3.13l10.26,3.2l10.23,3.28
	c3.41,1.13,6.82,2.22,10.21,3.37c6.81,2.26,13.58,4.61,20.32,7.05c-6.92-1.88-13.81-3.85-20.67-5.92c-3.44-1-6.86-2.08-10.29-3.13
	l-10.26-3.2l-10.23-3.29c-3.41-1.12-6.82-2.21-10.21-3.36C815.6,135.02,808.83,132.67,802.09,130.23z"/>
<path class="st3" d="M817.82,108.41c4.45,5.63,8.82,11.3,13.11,17c2.16,2.86,4.28,5.75,6.42,8.62l6.34,8.68l6.29,8.72
	c2.07,2.93,4.16,5.83,6.21,8.77c4.13,5.87,8.18,11.8,12.15,17.8c-4.45-5.63-8.82-11.31-13.11-17.05c-2.16-2.86-4.28-5.75-6.42-8.62
	l-6.34-8.68l-6.28-8.72c-2.08-2.93-4.17-5.84-6.22-8.78C825.84,120.3,821.79,114.39,817.82,108.41z"/>
<path class="st3" d="M843.08,100.21c0.29,7.16,0.48,14.33,0.59,21.5c0.07,3.58,0.09,7.16,0.13,10.75v10.74v10.75
	c0,3.59-0.06,7.17-0.13,10.75c-0.1,7.17-0.3,14.34-0.59,21.5c-0.3-7.17-0.5-14.33-0.59-21.5c-0.07-3.58-0.09-7.16-0.13-10.75V143.2
	v-10.74c0-3.59,0.06-7.17,0.13-10.75C842.59,114.57,842.79,107.4,843.08,100.21z"/>
<path class="st3" d="M802.28,156.78c6.71-2.54,13.45-4.99,20.22-7.35c3.37-1.19,6.77-2.34,10.15-3.51l10.19-3.44l10.21-3.35
	c3.41-1.09,6.82-2.21,10.24-3.28c6.83-2.17,13.7-4.24,20.59-6.22c-6.71,2.54-13.45,4.99-20.21,7.35c-3.38,1.2-6.78,2.34-10.16,3.51
	l-10.19,3.44l-10.21,3.35c-3.41,1.09-6.82,2.21-10.24,3.27C816.04,152.72,809.18,154.8,802.28,156.78z"/>
<path class="st2" d="M348.22,138.74c3.23,1,6.45,2,9.68,2.94l7.61,2.38l-4.66-6.47l-1.06-1.5l-14.53,1.78L348.22,138.74z"/>
<path class="st2" d="M361.29,135.91c0.21,0.3,0.43,0.59,0.65,0.89l4.69,6.4v-7.94l0,0L361.29,135.91z"/>
<path class="st2" d="M374.43,134.3l-6.42,0.79v0.17v7.91l4.61-6.42L374.43,134.3z"/>
<path class="st2" d="M478.72,121.54l-102.56,12.55c-0.8,1.15-1.61,2.29-2.4,3.44l-4.59,6.47l7.55-2.48c3.21-1,6.42-2.08,9.64-3.08
	c6.42-2.04,12.88-3.99,19.37-5.86c-6.31,2.39-12.65,4.7-19,6.92c-3.18,1.13-6.38,2.2-9.56,3.3l-7.53,2.54l7.56,2.42
	c3.21,1.06,6.42,2.09,9.61,3.17c6.4,2.13,12.77,4.35,19.12,6.64c-6.51-1.77-13-3.63-19.46-5.58c-3.23-0.95-6.45-2-9.67-2.93
	l-7.61-2.38l4.66,6.46c1.95,2.76,3.92,5.49,5.84,8.26c3.89,5.51,7.7,11.08,11.44,16.7c-4.19-5.29-8.3-10.63-12.34-16
	c-2-2.69-4-5.41-6-8.12l-4.79-6.43v7.94c0,3.37-0.05,6.75-0.11,10.12c-0.1,6.74-0.29,13.48-0.56,20.23
	c-0.28-6.75-0.47-13.49-0.56-20.23c-0.07-3.37-0.08-6.75-0.12-10.12v-7.9L362,154c-2,2.72-4,5.46-6,8.17
	c-4,5.44-8.06,10.82-12.19,16.15c3.68-5.65,7.44-11.25,11.28-16.8c1.9-2.78,3.85-5.54,5.77-8.31l4.59-6.49l-7.45,2.49
	c-3.21,1-6.41,2.08-9.63,3.08c-6.43,2.04-12.89,3.99-19.37,5.86c6.31-2.39,12.64-4.7,19-6.91c3.18-1.13,6.37-2.21,9.56-3.31
	l7.52-2.54l-7.59-2.39c-3.2-1.06-6.41-2.09-9.61-3.17l-4.88-1.68l-56.89,7l8,210c6.57-2.77,13.27-5.54,20.11-8.33
	c-4.2-96.88,68.24-180.07,164.78-189.24L478.72,121.54z"/>
<path class="st2" d="M481.63,511.1c-4.55-0.35-9.12-0.88-13.7-1.58c-40.27-6.15-76.45-24-103.18-50.74
	c-23.12,5.55-45.23,10.39-66.06,14.48l3.68,96.08L482,558L481.63,511.1z M365.76,526.38c1.33,1.89,2.69,3.77,4,5.66
	c2.67,3.78,5.28,7.6,7.84,11.46c-2.87-3.63-5.69-7.29-8.46-11c-1.4-1.84-2.76-3.71-4.14-5.56l-3.22-4.4v5.45
	c0,2.31,0,4.62-0.08,6.94c-0.06,4.62-0.19,9.24-0.38,13.87c-0.19-4.62-0.32-9.24-0.39-13.87c0-2.32-0.05-4.63-0.08-6.94v-5.43
	l-3.19,4.44c-1.36,1.87-2.71,3.75-4.09,5.6c-2.74,3.73-5.53,7.43-8.36,11.08c2.53-3.87,5.11-7.71,7.74-11.52
	c1.3-1.91,2.64-3.8,4-5.7l3.14-4.45l-5.18,1.7c-2.2,0.71-4.4,1.43-6.61,2.11c-4.41,1.4-8.83,2.73-13.28,4
	c4.32-1.64,8.65-3.22,13-4.74c2.18-0.77,4.37-1.51,6.56-2.27l5.16-1.74l-5.19-1.66c-2.19-0.73-4.4-1.43-6.59-2.17
	c-4.39-1.46-8.76-2.98-13.11-4.56c4.47,1.22,8.91,2.5,13.34,3.83c2.22,0.65,4.43,1.34,6.64,2l5.22,1.63l-3.19-4.43
	c-1.34-1.89-2.69-3.77-4-5.67c-2.67-3.78-5.28-7.6-7.85-11.45c2.87,3.63,5.69,7.29,8.46,11c1.4,1.84,2.77,3.71,4.15,5.56l3.21,4.4
	v-5.45c0-2.31,0-4.62,0.09-6.94c0.06-4.62,0.19-9.24,0.38-13.87c0.19,4.62,0.32,9.24,0.38,13.87c0,2.32,0.05,4.63,0.08,6.94v5.42
	l3.16-4.4c1.37-1.87,2.72-3.75,4.09-5.6c2.74-3.73,5.53-7.42,8.36-11.08c-2.52,3.87-5.1,7.71-7.73,11.52c-1.31,1.91-2.64,3.8-4,5.7
	l-3.15,4.45l5.18-1.7c2.21-0.71,4.4-1.43,6.61-2.12c4.41-1.4,8.84-2.73,13.29-4c-4.33,1.64-8.68,3.22-13.05,4.74
	c-2.18,0.77-4.37,1.51-6.55,2.27l-5.09,1.7l5.18,1.66c2.2,0.73,4.4,1.43,6.59,2.17c4.39,1.46,8.76,2.98,13.11,4.56
	c-4.46-1.22-8.91-2.5-13.34-3.83c-2.22-0.65-4.43-1.34-6.64-2l-5.22-1.56L365.76,526.38z"/>
<path class="st0" d="M677.11,347.49c11.7-5.02,22.85-10,33.44-14.93l0.39-17.64c-4.56-8.3-8.08-14.87-10.11-18.89
	c-2.52,1.13-5.48-0.01-6.6-2.53c-1.13-2.52,0.01-5.48,2.53-6.6c2.52-1.13,5.48,0.01,6.6,2.53c0.96,2.16,0.28,4.7-1.63,6.08
	c2.11,3.29,5.32,8.54,9.3,15.22l1.57-70.27c-17.56,2.57-36.75,6-57.25,10.18c15.68,28,22.14,53.4,20.7,87.64
	c-45.72,19.61-99.09,39.63-156.73,58.3c-3.49,1.13-6.97,2.24-10.44,3.35l0.09,9.23l3.9-1.24c59.81-19,115-39.42,161.88-59.42
	C675.44,347.97,676.25,347.62,677.11,347.49z"/>
<path class="st0" d="M710.13,351.39l0.15-6.77c-5.5,2.38-11.11,4.77-16.82,7.16C698.25,351.63,703.89,351.5,710.13,351.39z"/>
<path class="st0" d="M644.72,458.08c0.54-0.5,1.21-0.85,1.94-1c0.33-0.07,0.66-0.11,1-0.13h1c1.3,0.15,2.57,0.45,3.79,0.91
	c2.39,0.87,4.69,1.97,6.88,3.26c4.34,2.56,8.51,5.42,12.46,8.55c1.09,0.84,2.18,1.7,3.25,2.58c0.15-1.28,0.32-2.55,0.5-3.82
	c0.69-5.01,1.71-9.97,3.06-14.85c0.67-2.46,1.57-4.86,2.68-7.16c0.56-1.18,1.26-2.29,2.1-3.3c0.23-0.25,0.47-0.49,0.71-0.73
	c0.27-0.23,0.55-0.44,0.84-0.63c0.63-0.4,1.35-0.62,2.09-0.65c0.74,0.03,1.46,0.27,2.08,0.68c0.29,0.19,0.56,0.4,0.82,0.63
	c0.24,0.24,0.47,0.49,0.7,0.74c0.8,1.02,1.47,2.13,2,3.31c1.06,2.31,1.92,4.72,2.56,7.18c1.17,4.54,2.05,9.15,2.62,13.8
	c3.13-2.85,6.41-5.52,9.84-8l0.82-36.88c-2.59-0.95-3.92-3.82-2.97-6.42c0.53-1.45,1.71-2.58,3.18-3.04l1.33-53.63
	c-10.82,3-19.8,5.45-25.48,6.87c0.12,0.43,0.18,0.87,0.18,1.31c0,2.76-2.23,5-4.99,5.01c-2.76,0-5-2.23-5.01-4.99s2.23-5,4.99-5.01
	c1.86,0,3.56,1.02,4.43,2.66c5.66-1.88,14.82-4.73,25.93-8.05l0.08-3.45c-8.24,0-15.42-0.11-21-0.23
	c-5.01,2.08-10.09,4.17-15.24,6.26c-12.94,82.36-80.84,144.99-163.97,151.26l0.5,53.34l194.23,33.32l1.42-63.78
	c-1.26-0.82-2.5-1.67-3.72-2.54c-1.3,0.79-2.88,0.96-4.32,0.46c-0.51,3.98-1.26,7.93-2.24,11.83c-0.62,2.5-1.48,4.94-2.55,7.28
	c-0.56,1.23-1.27,2.39-2.12,3.44c-0.24,0.27-0.49,0.53-0.75,0.79c-0.28,0.26-0.58,0.49-0.9,0.7c-0.72,0.47-1.55,0.73-2.4,0.77
	c-0.85-0.02-1.68-0.28-2.4-0.75c-0.32-0.21-0.63-0.44-0.92-0.69c-0.26-0.26-0.52-0.52-0.76-0.78c-0.86-1.05-1.6-2.2-2.18-3.43
	c-1.11-2.34-2.01-4.77-2.69-7.27c-1.32-4.91-2.3-9.9-2.93-14.94l-0.09-0.78l-0.55,0.48c-3.81,3.32-7.85,6.38-12.08,9.15
	c-2.13,1.41-4.39,2.62-6.74,3.62c-1.2,0.52-2.47,0.89-3.76,1.1l-1,0.08c-0.35,0-0.7-0.03-1.05-0.08c-1.52-0.17-2.77-1.28-3.11-2.77
	c-0.1-0.33-0.16-0.66-0.2-1c0-0.34,0-0.67,0-1c0.05-1.3,0.27-2.59,0.65-3.84c0.72-2.44,1.65-4.81,2.8-7.08
	c2.27-4.5,4.85-8.85,7.71-13c0.7-1,1.42-2.08,2.15-3.12c-1.68-0.18-3.35-0.37-5-0.6c-5.04-0.67-10.02-1.69-14.92-3.03
	c-2.47-0.66-4.87-1.54-7.18-2.63c-1.19-0.56-2.3-1.26-3.32-2.08c-0.25-0.23-0.49-0.47-0.73-0.71c-0.23-0.26-0.44-0.54-0.64-0.83
	c-0.4-0.62-0.63-1.35-0.66-2.09c0.02-0.74,0.25-1.46,0.66-2.08c0.19-0.29,0.4-0.57,0.63-0.83l0.73-0.7c1.01-0.82,2.12-1.52,3.3-2.07
	c2.3-1.08,4.7-1.95,7.16-2.6c4.88-1.29,9.83-2.25,14.84-2.87l2.47-0.31c-0.44-0.57-0.89-1.14-1.32-1.72c-0.67-0.9-1.33-1.8-2-2.72
	c-2.39,1.6-5.62,0.95-7.21-1.43s-0.95-5.62,1.43-7.21c0.04-0.03,0.09-0.06,0.13-0.08c-0.24-0.41-0.48-0.81-0.71-1.22
	c-1.27-2.23-2.33-4.57-3.17-7c-0.44-1.24-0.72-2.52-0.85-3.83c0-0.33,0-0.67,0-1c0.03-0.34,0.08-0.67,0.15-1
	C643.87,459.27,644.22,458.61,644.72,458.08z"/>
<path class="st1" d="M735.92,333.22l0.1,4.61l2-5.57L735.92,333.22z"/>
<path class="st1" d="M824.52,248.41c-4.35-13.71-38.22-16.77-90.75-10.73l1.86,82.75c2.77-1.39,5.49-2.77,8.16-4.16
	c4.31-11.73,7.85-20.86,10-25.78c-2.23-1.63-2.72-4.76-1.09-6.99c1.63-2.23,4.76-2.72,6.99-1.09c2.23,1.63,2.72,4.76,1.09,6.99
	c-1.29,1.76-3.57,2.49-5.64,1.79c-1.23,4.71-3.65,12.67-6.9,22.75C799.83,286.74,829.12,262.93,824.52,248.41z"/>
<path class="st1" d="M919,483c0.31-0.27,0.62-0.54,0.94-0.8l1-48.66c-2.12-0.1-4.24-0.2-6.37-0.28c-4.63-0.14-9.27-0.23-13.9-0.27
	l-3.35,3.08c-2.15,2-4.29,4.03-6.4,6.1c-0.15,3.28-0.29,6.55-0.39,9.83c-0.11,4.23-0.16,8.46-0.17,12.69
	c2.48,2.43,4.98,4.84,7.51,7.24c3.87,3.62,7.79,7.19,11.78,10.7l2.87,0.16C914.67,482.91,916.81,483,919,483z"/>
<path class="st1" d="M895.18,474.79c-1.61-1.56-3.21-3.13-4.81-4.71c0,3.72,0.09,7.43,0.21,11.14c4.17,0.42,8.35,0.76,12.53,1
	C900.44,479.79,897.8,477.31,895.18,474.79z"/>
<path class="st1" d="M891.44,433c-0.08,1.13-0.16,2.26-0.22,3.39c1.15-1.07,2.29-2.14,3.45-3.19l0.24-0.21L891.44,433z"/>
<path class="st1" d="M921.12,425.31l0.22-10.22c-2,1.67-4.02,3.36-6.05,5.05C917.25,421.85,919.19,423.58,921.12,425.31z"/>
<path class="st1" d="M919.58,496.91c-2.59-2.2-5.17-4.42-7.71-6.68c-1.26,1.08-2.52,2.17-3.79,3.24c-5.24,4.44-10.57,8.77-16,13
	c0.21,2.34,0.44,4.67,0.69,7c1.02,10.14,2.71,20.2,5.06,30.12c0.83,3.52,1.86,7,3.08,10.41l17.48-1.76L919.58,496.91z"/>
<path class="st1" d="M891.24,401.45c-2.21-1.63-4.42-3.24-6.66-4.82c-8.37-5.95-17.14-11.34-26.23-16.12
	c-4.5-2.39-9.2-4.37-14.05-5.92c-2.36-0.77-4.82-1.25-7.3-1.41c-2.41-0.14-4.8,0.39-6.24,1.84s-1.7,3.93-1.41,6.31
	c0.32,2.45,0.95,4.85,1.87,7.15c1.86,4.72,4.13,9.26,6.8,13.58c5.36,8.72,11.31,17.07,17.79,25c0.78,0.95,1.57,1.89,2.35,2.83
	c10-0.72,19.94-1.06,29.92-1.08C888.85,419.65,889.91,410.53,891.24,401.45z"/>
<path class="st1" d="M914.74,429.4l6.29,0.35l0.08-3.8c-2.05-1.84-4.12-3.68-6.2-5.49c-3.33,2.81-6.61,5.67-9.82,8.58
	C908.31,429.14,911.52,429.25,914.74,429.4z"/>
<path class="st1" d="M879.41,453.69c2.29,2.38,4.61,4.74,6.94,7.08c0.07-2.96,0.16-5.91,0.28-8.86c0.08-1.93,0.18-3.86,0.28-5.79
	C884.38,448.62,881.89,451.14,879.41,453.69z"/>
<path class="st1" d="M886.24,465.94c-3.15-3.18-6.25-6.4-9.32-9.66c-5.19,5.42-10.23,10.97-15.13,16.65
	c1.4,1.33,2.41,3.01,2.93,4.87c7.13,1.19,14.3,2.19,21.51,3C886.16,475.83,886.17,470.88,886.24,465.94z"/>
<path class="st1" d="M903.84,482.94c-4.42-0.21-8.83-0.47-13.24-0.78c0.23,7.3,0.65,14.58,1.26,21.84
	c6.55-4.62,12.95-9.45,19.21-14.48C908.64,487.35,906.23,485.16,903.84,482.94z"/>
<path class="st1" d="M918.39,483.51l-5.89-0.19l-2.21-0.1c1.36,1.21,2.74,2.41,4.12,3.6C915.74,485.72,917.07,484.62,918.39,483.51z
	"/>
<path class="st1" d="M830.36,518.88c-0.91,2.19-1.55,4.48-1.9,6.83c-0.31,2.25,0.06,4.25,1,5.37s3,1.65,5.26,1.56
	c2.38-0.13,4.73-0.54,7-1.24c4.82-1.42,9.5-3.27,14-5.51c9.18-4.52,18.05-9.64,26.55-15.33c1.71-1.13,3.4-2.28,5.08-3.43
	c-0.64-8.43-1-16.86-1.14-25.3c-1.54-0.11-3.08-0.23-4.61-0.36c-5.53-0.45-11.05-1-16.56-1.64c0.03,0.43,0.03,0.85,0,1.28
	c-0.23,5.88-5.19,10.46-11.07,10.23c-2.03-0.08-3.99-0.74-5.66-1.89c-4,5.23-7.7,10.6-11.11,16.14
	C834.53,509.81,832.24,514.26,830.36,518.88z"/>
<path class="st1" d="M823,440c-4.89,1.08-9.66,2.6-14.28,4.53c-2.2,0.9-4.27,2.07-6.18,3.48c-1.59,1.03-2.7,2.66-3.07,4.52
	c0,1.46,0.94,3.28,2.62,4.82c1.77,1.6,3.73,2.98,5.84,4.1c4.42,2.39,9.03,4.4,13.79,6c7.96,2.71,16.06,4.96,24.28,6.73
	c2.11-2.77,5.43-4.33,8.91-4.19c0.96,0.05,1.91,0.22,2.82,0.51c5.26-5.95,10.68-11.74,16.27-17.39c-5.53-6-10.89-12.15-16.07-18.44
	c-1.59,0.15-3.18,0.28-4.76,0.44C843.02,436.07,832.94,437.71,823,440z"/>
<path class="st1" d="M887.26,440.12c0.15-2.34,0.31-4.67,0.48-7c-8.64,0.15-17.27,0.54-25.87,1.22c4.72,5.54,9.58,10.96,14.58,16.26
	C880,447.05,883.61,443.56,887.26,440.12z"/>
<path class="st1" d="M899.53,428.89c4.14-3.67,8.33-7.27,12.58-10.82c-1-0.88-2-1.76-3.06-2.62c-4.83-4-9.75-7.91-14.78-11.72
	c-1.1,8.33-1.95,16.69-2.55,25.06C894.32,428.8,896.93,428.84,899.53,428.89z"/>
<path class="st1" d="M919.87,483.56h-0.33c-1.47,1.3-2.94,2.59-4.43,3.88c1.52,1.3,3.06,2.59,4.59,3.87L919.87,483.56z"/>
<path class="st1" d="M918.42,337.48c-2,0-4.06,1.34-5.65,3.14c-1.61,1.87-2.99,3.93-4.1,6.14c-2.3,4.53-4.2,9.25-5.67,14.11
	c-2.96,9.8-5.25,19.79-6.86,29.9c-0.66,4-1.24,8-1.78,12c5.08,4,10.08,8.09,15,12.26l3.13,2.68c3-2.45,5.93-4.85,8.94-7.23
	l1.57-70.65C921.81,338.51,920.18,337.68,918.42,337.48z"/>
<path class="st1" d="M730.66,98.78l0.23,10.21c3-4,6.03-7.97,9.09-11.92c-2.98,4.56-6,9.09-9.05,13.59l0.45,20.3l3-1
	c8.14-2.58,16.31-5.05,24.51-7.41c-8,3.03-16.02,5.95-24.06,8.75l-3.37,1.18l0.27,12.23l3.21,1.06c8.09,2.67,16.16,5.47,24.19,8.4
	c-8.24-2.24-16.45-4.59-24.62-7.05l-2.74-0.83l0.49,21.84c2.74,4,5.45,8,8.13,12c-2.72-3.45-5.42-6.91-8.1-10.4l1.24,55.1
	C815.36,211.79,870,213.17,876,232.1c6.54,20.61-46.08,57.47-133,97.86c-2.06,6.17-4.3,12.76-6.67,19.61
	c16.32-4.69,30.4-8.56,38.71-10.67c-0.01-0.18-0.01-0.36,0-0.54c-0.02-2.79,2.23-5.06,5.02-5.08s5.06,2.23,5.08,5.02
	s-2.23,5.06-5.02,5.08c-2.13,0.01-4.04-1.31-4.77-3.31c-7.78,2.55-20.81,6.53-36.09,11c19.79-0.08,36.26,0.12,43.61,0.5
	c0-0.07,0-0.15,0-0.22c-0.02-2.79,2.23-5.06,5.02-5.08c2.79-0.02,5.06,2.23,5.08,5.02c0.02,2.79-2.23,5.06-5.02,5.08
	c-2.31,0.01-4.34-1.55-4.92-3.79c-7.62,0.51-25.42,1-46.59,1.16v0.64c14.45,25.37,26.13,46.64,29.68,54
	c2.52-1.14,5.48-0.02,6.62,2.5c1.14,2.52,0.02,5.48-2.5,6.62s-5.48,0.02-6.62-2.5c-1.01-2.23-0.26-4.86,1.78-6.22
	c-4.25-6.39-15.45-25.21-28.83-48.47l4.71,209.86l154.55-15.6c-1.14-3.22-2-6.48-2.88-9.74c-2.35-10.15-4.01-20.45-4.95-30.83
	c-0.13-1.37-0.23-2.75-0.35-4.12c-1.27,1-2.54,1.92-3.82,2.85c-8.34,6.2-17.1,11.81-26.21,16.8c-4.67,2.53-9.56,4.62-14.62,6.25
	c-2.63,0.86-5.37,1.39-8.13,1.57c-0.74,0-1.48,0-2.22,0c-0.78-0.08-1.56-0.21-2.32-0.39c-3.53-0.76-6.2-3.65-6.7-7.22
	c-0.14-0.78-0.21-1.56-0.23-2.35c0-0.75,0.07-1.49,0.13-2.23c0.39-2.74,1.11-5.43,2.15-8c1.98-4.92,4.39-9.66,7.22-14.15
	c3.72-5.98,7.76-11.75,12.1-17.29c-1.48-2.74-1.69-5.99-0.56-8.89c-8.1-1.38-16.12-3.25-24-5.59c-5.07-1.49-10-3.45-14.71-5.84
	c-2.47-1.26-4.78-2.81-6.87-4.63c-0.52-0.52-1-1-1.54-1.6c-0.51-0.6-0.96-1.24-1.36-1.92c-0.91-1.51-1.39-3.24-1.37-5
	c0.13-1.75,0.73-3.43,1.73-4.86c0.45-0.65,0.96-1.26,1.5-1.83c0.55-0.51,1.1-1,1.67-1.49c2.22-1.68,4.64-3.07,7.2-4.16
	c4.88-2.08,9.94-3.72,15.11-4.91c10.17-2.28,20.48-3.86,30.87-4.72l1.6-0.13l-0.94-1.16c-6.48-8.1-12.4-16.64-17.73-25.54
	c-2.7-4.49-4.99-9.2-6.84-14.1c-0.97-2.51-1.62-5.12-1.93-7.79c0-0.7-0.07-1.39-0.08-2.09c0.03-0.72,0.11-1.43,0.25-2.13
	c0.3-1.49,0.99-2.87,2-4c1.1-1.05,2.46-1.79,3.94-2.13c0.7-0.16,1.41-0.26,2.12-0.32c0.69,0,1.38,0,2.07,0
	c2.66,0.23,5.28,0.79,7.81,1.66c4.94,1.68,9.71,3.81,14.27,6.35c9.04,5.03,17.73,10.68,26,16.9c2.08,1.53,4.15,3.08,6.21,4.66
	c0.51-3.42,1.05-6.83,1.66-10.23c1.74-10.23,4.18-20.33,7.28-30.23c1.56-5,3.57-9.85,6-14.49c1.24-2.38,2.76-4.61,4.54-6.62
	c0.5-0.48,1-1,1.51-1.44c0.56-0.45,1.15-0.86,1.76-1.23c2.64-1.7,6.06-1.56,8.55,0.35c0.1,0.07,0.2,0.14,0.3,0.22L929,60.59
	L730.66,98.78z"/>
<polygon class="st4" points="935.94,14.58 913.77,575.24 50.53,556.5 67.6,88.38 "/>
<polygon class="st5" points="924.02,31.98 917.56,590.63 43.91,548.37 60.98,80.25 "/>
<path class="st3" d="M27.88,636.09c6.81-10.44,13.76-20.77,20.84-31c3.51-5.14,7.1-10.23,10.65-15.34l10.77-15.26L81,559.3
	c3.68-5,7.31-10.09,11-15.09c7.33-10.04,14.83-19.98,22.5-29.82c-6.8,10.44-13.74,20.77-20.82,31c-3.52,5.14-7.11,10.23-10.66,15.34
	L72.29,576L61.4,591.17c-3.67,5-7.3,10.09-11,15.09C43.03,616.3,35.52,626.24,27.88,636.09z"/>
<path class="st3" d="M0,552.69c12,3.27,23.97,6.7,35.92,10.3c6,1.76,11.91,3.61,17.87,5.42L71.62,574l17.78,5.7
	c5.91,2,11.84,3.85,17.74,5.85c11.82,3.92,23.59,8,35.3,12.25c-12-3.26-23.97-6.69-35.92-10.29c-6-1.76-11.92-3.62-17.87-5.42
	l-17.83-5.58L53,570.79c-5.92-1.95-11.84-3.85-17.74-5.85C23.47,561.02,11.71,556.94,0,552.69z"/>
<path class="st3" d="M27.33,514.78c7.73,9.78,15.33,19.66,22.78,29.63c3.75,5,7.43,10,11.15,15l11,15.07l10.94,15.14
	c3.6,5.08,7.24,10.13,10.8,15.24c7.17,10.18,14.2,20.46,21.1,30.83c-7.73-9.79-15.32-19.67-22.77-29.62c-3.76-5-7.43-10-11.15-15
	L70.15,576l-10.91-15.14c-3.6-5.08-7.24-10.14-10.79-15.25C41.27,535.44,34.23,525.17,27.33,514.78z"/>
<path class="st3" d="M71.22,500.53c0.51,12.45,0.85,24.91,1,37.36c0.12,6.22,0.14,12.45,0.22,18.67l0.07,18.68l-0.07,18.67
	c-0.07,6.23-0.1,12.45-0.22,18.68c-0.17,12.45-0.5,24.9-1,37.35c-0.51-12.45-0.85-24.9-1-37.35c-0.12-6.23-0.15-12.45-0.22-18.68
	l-0.07-18.67L70,556.56c0.07-6.22,0.1-12.45,0.22-18.67C70.38,525.44,70.71,512.99,71.22,500.53z"/>
<path class="st3" d="M0.34,598.83c11.65-4.42,23.36-8.68,35.12-12.77C41.32,584,47.22,582,53.11,580l17.69-6l17.74-5.84
	c5.93-1.89,11.85-3.84,17.79-5.69c11.87-3.76,23.8-7.36,35.77-10.81c-11.65,4.41-23.36,8.66-35.12,12.77
	c-5.86,2.08-11.76,4.07-17.65,6.11l-17.69,6l-17.75,5.83C48,584.22,42.05,586.16,36.1,588C24.24,591.77,12.32,595.38,0.34,598.83z"
	/>
<path class="st6" d="M309.51,25.41c0.04,1.13-0.28,2.25-0.9,3.19c-0.6,0.89-1.62,1.39-2.69,1.32l-22.66,1.44l-59,308.53
	c-0.33,2.18-2.37,3.69-4.55,3.36c-1.73-0.26-3.09-1.62-3.36-3.36l-66.5-322.56c-3.12,0.49-6.29,0.85-9.53,1.08s-6.41,0.36-9.53,0.36
	c-2.63,0-3.95-1.31-3.95-3.95s1.2-4,3.59-4l77.32-5.75h0.36c1.11-0.04,2.18,0.44,2.89,1.3c0.72,0.85,1.11,1.94,1.08,3.05
	c0,2.16-1.32,3.49-3.95,4l-25.54,1.8l45.67,261.06L275,32.08l-27.33,1.8c-0.96,0-1.89-0.31-2.67-0.88
	c-0.86-0.65-1.33-1.69-1.25-2.76c0-3,1.19-4.48,3.59-4.48l57.9-4.09c1.09-0.03,2.17,0.3,3.05,0.94
	C309.13,23.29,309.59,24.33,309.51,25.41z"/>
<path class="st6" d="M355.54,206.15c0,2.38-1.32,3.82-4,4.29l-59.34,4.67c-0.24,3.12-0.42,6.18-0.54,9.17
	c-0.12,2.99-0.18,6.17-0.18,9.53c0,3.6,0.24,8.16,0.72,13.67c0.49,5.54,1.51,11.02,3.06,16.36c1.37,5.04,3.75,9.75,7,13.84
	c2.93,3.75,7.47,5.89,12.23,5.76c3.21,0.12,6.41-0.49,9.35-1.8c2.16-1.05,4.2-2.32,6.11-3.78c1.45-1.11,2.77-2.37,3.95-3.77
	c0.63-1.01,1.69-1.68,2.88-1.8c2.64,0,4,1.31,4,3.95c0.02,0.62-0.11,1.23-0.36,1.8c-1.03,2.25-2.57,4.22-4.5,5.76
	c-2.03,1.66-4.26,3.05-6.65,4.13c-2.43,1.09-4.96,1.93-7.55,2.52c-2.36,0.56-4.77,0.86-7.19,0.9c-7.68,0-14.21-2.15-19.6-6.46
	c-5.49-4.42-10.02-9.91-13.31-16.14c-3.51-6.55-6.11-13.55-7.73-20.8c-1.59-6.7-2.44-13.55-2.52-20.44
	c0.09-7.35,0.88-14.68,2.34-21.88c1.5-7.95,4.04-15.66,7.55-22.95c3.33-6.94,8-13.16,13.74-18.29c5.57-5,12.84-7.69,20.32-7.53
	c10.54,0,18.81,3.39,24.81,10.18c6,6.86,10.4,14.98,12.87,23.75c0.48,2.62,1,5.19,1.62,7.69
	C355.23,200.99,355.54,203.57,355.54,206.15z M330.37,196.05c0-2.39-0.12-5.39-0.36-9c-0.23-3.48-0.9-6.93-2-10.24
	c-0.99-3.06-2.51-5.93-4.49-8.46c-1.93-2.39-4.68-3.59-8.27-3.59c-3.33,0-6.27,1.74-8.81,5.21c-2.67,3.78-4.83,7.9-6.44,12.24
	c-1.76,4.56-3.2,9.24-4.31,14c-1.08,4.67-1.86,8.2-2.34,10.61L330,204c0.25-1.32,0.37-2.66,0.36-4L330.37,196.05z"/>
<path class="st6" d="M490,303.21c0.11,5.16-1.47,10.21-4.49,14.39c-3.01,4.08-6.58,7.71-10.61,10.79
	c-6.58,4.95-14.1,8.5-22.11,10.42c-7.93,2.08-16.08,3.17-24.28,3.24c-5.46-0.05-10.92-0.4-16.34-1.05
	c-6.26-0.7-12.42-2.15-18.34-4.31c-5.53-1.95-10.61-5.02-14.92-9c-4.08-3.84-6.12-8.88-6.12-15.11c0-6,2.1-10.61,6.3-13.84
	c4.16-3.23,9.29-4.94,14.56-4.86c5.51,0,9.77,1.74,12.77,5.22c3,3.48,4.5,7.97,4.49,13.48c0,3.12-1.33,4.68-4,4.68
	c-1.93,0-3.06-0.78-3.42-2.34s-0.72-3.36-1.08-5.39c-0.32-1.94-1.06-3.78-2.16-5.4c-1.08-1.56-3.29-2.33-6.65-2.33
	c-6.71,0-10.06,3.59-10.07,10.78c-0.1,4.33,1.83,8.46,5.22,11.15c3.67,2.99,7.88,5.24,12.4,6.65c4.82,1.56,9.8,2.58,14.85,3.04
	c5.03,0.48,9.23,0.72,12.58,0.72c4.4-0.1,8.79-0.51,13.13-1.25c5.44-0.86,10.79-2.18,16-3.95c4.91-1.6,9.48-4.09,13.48-7.36
	c3.54-2.75,5.61-6.99,5.58-11.48c0-4.54-2.4-8.25-7.19-11.12c-5.7-3.24-11.81-5.71-18.16-7.35c-7.33-2.04-15.25-3.95-23.74-5.74
	c-8.49-1.79-16.4-3.82-23.73-6.1c-6.42-1.87-12.53-4.64-18.16-8.25c-4.8-3.23-7.2-7.48-7.19-12.74c-0.14-4.34,1.26-8.59,3.95-12
	c2.78-3.34,6.2-6.09,10.07-8.07c-6.22-2.3-12-5.66-17.08-9.93c-5.24-4.13-8.23-10.47-8.09-17.14c-0.02-4,1.03-7.93,3.06-11.37
	c2.06-3.52,4.74-6.63,7.91-9.19c3.25-2.65,6.74-4.99,10.43-7c3.35-1.9,6.91-3.41,10.6-4.52c15.28-4.32,31.47-4.32,46.75,0
	c0.72-0.72,1.92-2,3.6-3.95s3.47-4,5.39-6.12c1.74-1.97,3.6-3.83,5.58-5.57c1.79-1.56,3.16-2.34,4.13-2.34
	c1.67,0.15,3.27,0.71,4.68,1.62c1.91,1.08,2.87,2.22,2.87,3.42c0,1.92-0.48,3.23-1.44,4l-15.51,12.11
	c5.41,2.33,10.34,5.62,14.57,9.71c4.19,4.08,6.29,9.47,6.29,16.18c0.17,6.01-1.95,11.86-5.93,16.36
	c-4.13,4.56-9.15,8.24-14.75,10.79c-5.89,2.77-12.12,4.76-18.52,5.93c-5.69,1.13-11.46,1.73-17.26,1.8c-2.22,0-4.44-0.12-6.65-0.36
	c-2.24-0.22-4.46-0.58-6.65-1.08c-2.75,0.87-5.4,2.01-7.91,3.42c-2.88,1.56-4.32,3.77-4.32,6.65c0,1.68,1.5,3.18,4.5,4.5
	c3.25,1.41,6.62,2.55,10.06,3.41c3.72,0.96,7.39,1.74,11,2.34c3.6,0.6,6,1,7.19,1.26c5.52,1.2,11.87,2.52,19.06,3.95
	c7.05,1.4,13.93,3.57,20.5,6.48c6.19,2.68,11.8,6.52,16.54,11.32C487.74,290.09,490,296.02,490,303.21z M398,127l-4,35.6l-3.94-35.6
	l-21.22,19.06l19.78-21.58l-18.7-3.59l18.7-3.6l-19.78-21.56l21.22,19.41l3.95-36l4,36l21.21-19.41L399.4,117.3l18.7,3.6l-18.7,3.59
	l19.78,21.58L398,127z M450.5,209.53c0-8.45-2.7-14.78-8.09-19c-5.39-4.22-12.06-6.33-20-6.34c-8.15,0-14.82,2.67-20,8
	s-7.76,12.22-7.73,20.65c0,7.72,2.33,13.45,7,17.2c4.67,3.75,10.72,5.62,18.16,5.61c3.85,0,7.67-0.61,11.33-1.81
	c3.56-1.13,6.9-2.84,9.89-5.07c6.02-4.52,9.5-11.66,9.35-19.19L450.5,209.53z"/>
<path class="st6" d="M597.18,266.07c0,2.48-1.2,3.84-3.59,4.06l-28.41,3.6c-1.16,0.32-2.41-0.03-3.24-0.9
	c-0.72-0.84-1.16-1.89-1.26-3c-0.12-1.21-0.12-2.43,0-3.64c0.12-1.26,0.18-2.23,0.18-2.92c-4.72,2.38-9.74,4.12-14.92,5.17
	c-5.01,1.23-10.13,1.92-15.28,2.06c-3.84,0-8.46-0.24-13.85-0.72c-5.28-0.46-10.48-1.6-15.46-3.41c-4.62-1.62-8.85-4.2-12.41-7.56
	c-3.33-3.23-5-7.61-5-13.12c0-6,2.28-10.62,6.83-13.85c4.88-3.37,10.38-5.75,16.18-7c6.32-1.45,12.76-2.29,19.24-2.52
	c6.59-0.23,11.92-0.36,16-0.36c2.88,0,6.12,0.18,9.71,0.54c3.27,0.31,6.52,0.85,9.71,1.62V218c0-5.24-0.42-10.47-1.26-15.64
	c-0.74-4.85-2.32-9.54-4.67-13.85c-2.27-4.06-5.55-7.47-9.53-9.89c-4.08-2.51-9.23-3.77-15.46-3.77c-2.6,0.02-5.19,0.26-7.74,0.72
	c-2.68,0.46-5.29,1.31-7.73,2.51c-2.32,1.14-4.35,2.81-5.93,4.86c-1.62,2.24-2.45,4.96-2.34,7.73c0,4.08,1,6.83,2.88,8.27
	c1.86,1.41,4.01,2.4,6.29,2.88c2.28,0.48,4.37,0.9,6.29,1.26c1.73,0.14,3.02,1.66,2.88,3.4c0,0,0,0.01,0,0.01
	c0.04,1.1-0.42,2.16-1.26,2.88c-0.73,0.68-1.69,1.06-2.69,1.08c-3.16-0.04-6.3-0.46-9.35-1.26c-3.23-0.79-6.32-2.06-9.17-3.78
	c-2.69-1.6-5.02-3.75-6.84-6.29c-1.81-2.58-2.75-5.66-2.69-8.81c-0.16-4.04,1.03-8.02,3.38-11.31c2.35-3.04,5.36-5.5,8.81-7.19
	c3.63-1.83,7.51-3.11,11.52-3.81c3.8-0.69,7.65-1.06,11.51-1.08c9.82,0,18.15,1.56,25,4.69c6.53,2.92,12.21,7.45,16.49,13.18
	c4.37,6.04,7.43,12.92,9,20.21c1.86,8.35,2.76,16.89,2.7,25.45c0,5.54-0.24,11.21-0.72,17c-0.48,5.79-0.96,11.46-1.44,17l13.31-1.8
	c1.02,0.02,2.02,0.33,2.87,0.9C596.63,264.06,597.19,265.03,597.18,266.07z M561.58,232.4c-3.35-0.96-6.78-1.63-10.25-2
	c-3.41-0.36-6.83-0.54-10.25-0.54c-3.26,0.05-6.5,0.36-9.71,0.91c-3.78,0.58-7.47,1.62-11,3.09c-3.31,1.34-6.35,3.24-9,5.63
	c-2.5,2.27-3.89,5.53-3.78,8.91c-0.11,2.57,0.72,5.09,2.34,7.09c1.63,1.88,3.65,3.36,5.93,4.36c2.4,1.09,4.94,1.83,7.55,2.18
	c2.5,0.36,5.02,0.54,7.55,0.55c5.39-0.01,10.77-0.68,16-2c5.28-1.27,10.15-3.83,14.2-7.45L561.58,232.4z M560.86,91.05l-4,35.6
	l-4-35.6l-21.22,19.06l19.78-21.58l-18.7-3.59l18.7-3.6l-19.69-21.57L553,79.18l4-36l4,36l21.22-19.41L562.3,81.34l18.7,3.6
	l-18.7,3.59l19.78,21.58L560.86,91.05z"/>
<path class="st6" d="M678.81,234.89c0.09,4.46-1.16,8.85-3.59,12.59c-2.37,3.57-5.43,6.63-9,9c-3.7,2.44-7.77,4.26-12.05,5.39
	c-4.28,1.18-8.69,1.78-13.13,1.8c-3.86-0.07-7.7-0.43-11.5-1.08c-4.5-0.7-8.9-1.91-13.13-3.6c-3.97-1.53-7.63-3.79-10.79-6.65
	c-2.98-2.71-4.62-6.59-4.49-10.61c-0.14-3.74,1.37-7.36,4.13-9.89c2.8-2.53,6.48-3.88,10.25-3.77c3.51,0.13,6.89,1.32,9.71,3.41
	c3.33,2.29,5,5.22,5,8.81c0,2.65-1.32,4-4,4c-1.12,0.16-2.23-0.33-2.88-1.26c-0.5-0.95-0.95-1.93-1.34-2.93
	c-0.49-1.07-1.17-2.04-2-2.87c-0.85-0.84-2.34-1.26-4.5-1.26c-3.12,0-4.67,1.95-4.67,5.86c0.01,2.71,1.35,5.25,3.59,6.78
	c2.61,1.94,5.53,3.42,8.63,4.39c3.27,1.08,6.65,1.82,10.07,2.2c2.63,0.32,5.27,0.5,7.91,0.55c2.29-0.01,4.58-0.19,6.84-0.54
	c2.38-0.36,4.68-1.09,6.83-2.17c2.06-1,3.85-2.49,5.21-4.33c1.37-1.95,2.07-4.29,2-6.67c0-2.89-1.67-5.29-5-7.22
	c-3.96-2.18-8.12-3.99-12.41-5.41c-4.92-1.68-10.25-3.54-16-5.59c-5.58-1.96-10.94-4.5-16-7.58c-4.84-2.93-9.06-6.79-12.41-11.36
	c-3.33-4.57-5-10.34-5-17.33c-0.06-5.28,1.05-10.52,3.23-15.33c2.1-4.6,5.07-8.75,8.75-12.22c7.6-7.1,17.48-11.26,27.87-11.72
	c1.92,0,3.96,0.06,6.11,0.18s4.19,0.18,6.12,0.18c4.37,0.05,8.72-0.5,12.94-1.64c3.83-1.08,6.71-4.14,8.63-9.17
	c0.27-1.75,1.83-3,3.6-2.88c1.11-0.04,2.2,0.34,3.06,1.05c0.83,0.72,1.29,1.78,1.25,2.88l-3.59,44.59L672,199.29
	c0.07,1.06-0.41,2.07-1.26,2.7c-0.9,0.62-1.97,0.93-3.06,0.9c-1.05,0.07-2.07-0.41-2.69-1.26c-0.62-0.9-0.93-1.97-0.9-3.06
	c0.23-3.11,0.54-6.17,0.9-9.17c0.36-3.04,0.54-6.11,0.54-9.17c0-8.39-2.64-14.5-7.91-18.34s-11.87-5.76-19.78-5.75
	c-6.13-0.18-12.17,1.57-17.26,5c-4.8,3.33-7.2,8.73-7.2,16.18c-0.14,4.89,1.6,9.66,4.86,13.31c3.47,3.79,7.52,7.01,12,9.53
	c5.08,2.9,10.37,5.43,15.82,7.55c5.39,2.12,10.68,4.52,15.82,7.19c4.42,2.24,8.5,5.1,12.12,8.48
	C677.16,226.37,678.9,230.55,678.81,234.89z"/>
<path class="st7" d="M315.67,20.3c0.04,1.13-0.28,2.25-0.9,3.2c-0.61,0.88-1.63,1.37-2.69,1.31l-22.66,1.44l-59,308.54
	c-0.33,2.18-2.37,3.69-4.55,3.36c-1.73-0.26-3.09-1.62-3.36-3.36L156,12.23c-3.12,0.48-6.29,0.84-9.53,1.07s-6.41,0.36-9.53,0.36
	c-2.63,0-3.95-1.31-3.95-3.95s1.2-4,3.59-4L213.91,0h0.35c1.1-0.04,2.16,0.42,2.88,1.26c0.72,0.85,1.11,1.94,1.08,3.06
	c0,2.15-1.33,3.46-4,3.95l-25.53,1.8l45.71,261.07L281.15,27l-27.33,1.8c-0.97,0-1.92-0.32-2.7-0.9c-0.86-0.65-1.34-1.69-1.26-2.76
	c0-2.98,1.2-4.47,3.6-4.47l57.9-4.1c1.09-0.03,2.16,0.31,3.05,0.95C315.26,18.18,315.73,19.22,315.67,20.3z"/>
<path class="st7" d="M361.7,201c0,2.39-1.33,3.82-4,4.29L298.41,210c-0.24,3.11-0.42,6.17-0.54,9.17s-0.18,6.17-0.18,9.52
	c0,3.6,0.24,8.16,0.72,13.67c0.48,5.54,1.51,11.02,3.06,16.36c1.37,5.04,3.75,9.75,7,13.85c2.93,3.75,7.47,5.88,12.23,5.75
	c3.21,0.12,6.41-0.49,9.35-1.8c2.15-1.05,4.2-2.32,6.11-3.77c1.45-1.11,2.78-2.38,3.95-3.78c0.63-1.01,1.7-1.67,2.88-1.8
	c2.67,0,4,1.33,4,4c0.02,0.62-0.11,1.23-0.36,1.79c-1.03,2.25-2.57,4.22-4.5,5.76c-2.02,1.67-4.26,3.05-6.65,4.13
	c-2.43,1.09-4.96,1.93-7.55,2.52c-2.36,0.57-4.77,0.87-7.19,0.9c-7.68,0-14.21-2.15-19.6-6.46c-5.49-4.41-10.02-9.9-13.31-16.13
	c-3.51-6.55-6.11-13.55-7.73-20.8c-1.59-6.7-2.44-13.56-2.52-20.45c0.09-7.35,0.88-14.67,2.34-21.87c1.5-7.96,4.04-15.7,7.55-23
	c3.31-6.94,7.95-13.15,13.67-18.29c5.57-5,12.84-7.69,20.32-7.53c10.54,0,18.81,3.39,24.81,10.18c6.02,6.86,10.44,14.97,12.94,23.75
	c0.48,2.63,1.02,5.19,1.62,7.69C361.42,195.86,361.71,198.43,361.7,201z M336.53,191c0-2.4-0.13-5.4-0.36-9
	c-0.22-3.49-0.9-6.93-2-10.25c-0.99-3.06-2.51-5.92-4.49-8.45c-1.93-2.4-4.68-3.6-8.27-3.6c-3.33,0-6.27,1.74-8.81,5.22
	c-2.68,3.77-4.86,7.88-6.48,12.22c-1.76,4.56-3.2,9.24-4.31,14c-1.08,4.67-1.86,8.2-2.34,10.6l36.68-2.87
	c0.25-1.32,0.37-2.66,0.36-4L336.53,191z"/>
<path class="st7" d="M496.18,298.11c0.11,5.15-1.47,10.2-4.49,14.38c-3.01,4.08-6.58,7.71-10.61,10.79
	c-6.57,4.95-14.08,8.5-22.08,10.43c-7.93,2.08-16.08,3.16-24.27,3.23c-5.47-0.06-10.93-0.42-16.36-1.08
	c-6.28-0.69-12.44-2.14-18.37-4.31c-5.53-1.95-10.61-5.02-14.92-9c-4.05-3.83-6.08-8.86-6.08-15.09c0-6,2.1-10.62,6.3-13.85
	c4.16-3.22,9.3-4.93,14.56-4.85c5.51,0,9.76,1.74,12.77,5.21s4.5,7.97,4.49,13.49c0,3.11-1.32,4.67-3.95,4.67
	c-1.93,0-3.06-0.78-3.42-2.34s-0.72-3.36-1.08-5.39c-0.32-1.93-1.05-3.77-2.16-5.39c-1.08-1.57-3.29-2.34-6.65-2.34
	c-6.71,0-10.06,3.6-10.07,10.79c-0.11,4.33,1.82,8.45,5.21,11.14c3.67,2.99,7.88,5.25,12.4,6.66c4.79,1.55,9.74,2.57,14.75,3.05
	c5.03,0.48,9.22,0.72,12.58,0.72c4.4-0.1,8.79-0.51,13.13-1.25c5.44-0.85,10.79-2.18,16-3.95c4.91-1.6,9.48-4.1,13.48-7.36
	c3.53-2.75,5.58-6.99,5.54-11.47c0-4.55-2.4-8.26-7.19-11.12c-5.7-3.25-11.81-5.72-18.16-7.36c-7.33-2.04-15.25-3.95-23.74-5.74
	c-8.49-1.79-16.4-3.82-23.73-6.1c-6.42-1.86-12.54-4.64-18.16-8.25c-4.8-3.23-7.2-7.48-7.19-12.74c-0.13-4.35,1.29-8.6,4-12
	c2.78-3.34,6.21-6.08,10.07-8.07c-6.22-2.3-12-5.65-17.08-9.92c-5.24-4.13-8.23-10.48-8.09-17.15c-0.03-3.99,1.03-7.92,3.06-11.36
	c2.06-3.52,4.74-6.64,7.91-9.2c3.25-2.65,6.74-4.99,10.43-7c3.35-1.9,6.91-3.41,10.6-4.51c15.28-4.33,31.47-4.33,46.75,0
	c0.72-0.72,1.92-2.05,3.6-4c1.68-1.95,3.48-3.98,5.39-6.11c1.74-1.98,3.6-3.84,5.58-5.58c1.79-1.55,3.17-2.34,4.13-2.34
	c1.67,0.15,3.27,0.71,4.68,1.62c1.91,1.08,2.87,2.22,2.87,3.42c0,1.92-0.48,3.25-1.44,4l-15.46,12.22
	c5.4,2.33,10.34,5.62,14.57,9.71c4.19,4.08,6.28,9.47,6.29,16.18c0.17,6.01-1.95,11.86-5.94,16.36c-4.12,4.57-9.14,8.24-14.74,10.79
	c-5.89,2.76-12.12,4.76-18.52,5.94c-5.69,1.12-11.46,1.72-17.26,1.79c-2.22,0-4.44-0.12-6.65-0.36c-2.24-0.22-4.46-0.58-6.65-1.07
	c-2.75,0.86-5.4,2-7.91,3.41c-2.88,1.56-4.32,3.78-4.32,6.65c0,1.68,1.49,3.18,4.49,4.5c3.24,1.4,6.59,2.53,10.02,3.39
	c3.72,0.96,7.39,1.74,11,2.33c3.6,0.6,6,1,7.19,1.26c5.52,1.2,11.87,2.53,19.06,4c7.05,1.39,13.93,3.56,20.5,6.47
	c6.19,2.68,11.8,6.53,16.54,11.33C493.91,285.01,496.17,290.92,496.18,298.11z M404.13,121.9l-4,35.6l-4-35.6L375,141l19.78-21.57
	l-18.7-3.6l18.7-3.6L375,90.62L396.21,110l4-36l4,36l21.21-19.42l-19.78,21.57l18.7,3.6l-18.7,3.6l19.7,21.65L404.13,121.9z
	 M456.63,204.43c0-8.45-2.7-14.79-8.09-19c-5.39-4.21-12.06-6.33-20-6.34c-8.15,0-14.81,2.67-20,8c-5.19,5.33-7.76,12.21-7.73,20.64
	c0,7.73,2.33,13.46,7,17.2c4.67,3.74,10.72,5.61,18.16,5.61c3.85,0,7.67-0.61,11.33-1.81c3.56-1.13,6.9-2.84,9.89-5.07
	c6.02-4.52,9.5-11.66,9.35-19.19L456.63,204.43z"/>
<path class="st7" d="M603.34,261c0,2.48-1.2,3.84-3.6,4.06l-28.4,3.6c-1.16,0.32-2.41-0.03-3.24-0.9c-0.72-0.84-1.16-1.89-1.26-3
	c-0.12-1.21-0.12-2.43,0-3.64c0.12-1.25,0.18-2.23,0.18-2.91c-4.72,2.37-9.74,4.11-14.92,5.16c-5.01,1.23-10.13,1.92-15.29,2.06
	c-3.83,0-8.44-0.24-13.84-0.72c-5.28-0.45-10.48-1.6-15.46-3.41c-4.62-1.62-8.85-4.19-12.41-7.55c-3.33-3.24-5-7.62-5-13.13
	c0-6,2.28-10.61,6.83-13.84c4.88-3.38,10.38-5.76,16.18-7c6.32-1.44,12.76-2.28,19.24-2.51c6.59-0.24,11.92-0.36,16-0.36
	c2.88,0,6.11,0.18,9.71,0.54c3.27,0.31,6.52,0.85,9.71,1.62v-6.12c0-5.24-0.42-10.47-1.26-15.64c-0.74-4.85-2.32-9.54-4.67-13.85
	c-2.27-4.06-5.55-7.47-9.53-9.88c-4.08-2.52-9.24-3.78-15.47-3.78c-2.59,0.02-5.18,0.26-7.73,0.72c-2.69,0.46-5.29,1.31-7.73,2.52
	c-2.32,1.14-4.35,2.8-5.93,4.85c-1.62,2.24-2.45,4.96-2.34,7.73c0,4.08,1,6.83,2.88,8.27c1.86,1.41,4.01,2.4,6.29,2.88
	c2.28,0.48,4.37,0.9,6.29,1.26c1.73,0.14,3.02,1.66,2.88,3.4c0,0,0,0.01,0,0.01c0.04,1.1-0.42,2.16-1.26,2.88
	c-0.73,0.68-1.69,1.06-2.69,1.08c-3.16-0.04-6.3-0.46-9.35-1.26c-3.23-0.81-6.31-2.1-9.15-3.84c-2.69-1.61-5.01-3.76-6.84-6.3
	c-1.81-2.58-2.75-5.66-2.69-8.81c-0.16-4.05,1.04-8.03,3.41-11.32c2.34-3.05,5.36-5.51,8.81-7.2c3.64-1.8,7.51-3.07,11.51-3.77
	c3.8-0.69,7.65-1.06,11.51-1.08c9.82,0,18.15,1.56,25,4.69c6.55,2.91,12.24,7.44,16.54,13.18c4.37,6.04,7.43,12.92,9,20.21
	c1.86,8.35,2.76,16.89,2.7,25.44c0,5.54-0.24,11.21-0.72,17c-0.48,5.79-0.96,11.46-1.44,17l13.31-1.8c1.02,0.03,2.02,0.34,2.87,0.9
	C602.85,258.98,603.38,259.96,603.34,261z M567.74,227.33c-3.35-0.96-6.78-1.63-10.25-2c-3.41-0.36-6.83-0.54-10.25-0.54
	c-3.26,0.05-6.5,0.36-9.71,0.91c-3.78,0.59-7.47,1.62-11,3.09c-3.31,1.34-6.35,3.24-9,5.63c-2.5,2.27-3.89,5.53-3.78,8.91
	c-0.12,2.57,0.72,5.09,2.34,7.09c1.63,1.88,3.65,3.37,5.93,4.37c2.4,1.09,4.94,1.83,7.55,2.18c2.5,0.35,5.02,0.53,7.55,0.54
	c5.39-0.01,10.77-0.68,16-2c5.28-1.27,10.16-3.83,14.2-7.45L567.74,227.33z M567,85.94l-3.95,35.6l-4-35.6L537.89,105l19.78-21.57
	L539,79.83l18.7-3.6l-19.81-21.57l21.22,19.42l4-36l3.95,36l21.22-19.42l-19.82,21.57l18.7,3.6l-18.7,3.6L588.24,105L567,85.94z"/>
<path class="st7" d="M685,229.78c0.09,4.46-1.16,8.85-3.59,12.59c-2.37,3.57-5.43,6.63-9,9c-3.68,2.44-7.73,4.26-12,5.39
	c-4.28,1.18-8.69,1.78-13.13,1.8c-3.86-0.07-7.7-0.43-11.5-1.08c-4.5-0.7-8.9-1.9-13.13-3.59c-3.97-1.54-7.63-3.8-10.79-6.66
	c-2.98-2.71-4.62-6.58-4.49-10.6c-0.15-3.74,1.37-7.36,4.13-9.89c2.79-2.51,6.43-3.84,10.18-3.74c3.51,0.13,6.89,1.33,9.71,3.42
	c3.33,2.28,5,5.22,5,8.81c0,2.64-1.33,3.95-4,3.95c-1.44,0-2.4-0.41-2.88-1.26c-0.53-0.93-1.01-1.89-1.44-2.87
	c-0.48-1.07-1.16-2.05-2-2.88c-0.85-0.84-2.34-1.26-4.5-1.26c-3.12,0-4.67,2-4.67,5.86c0.01,2.71,1.35,5.25,3.59,6.78
	c2.61,1.94,5.53,3.43,8.63,4.39c3.27,1.08,6.65,1.82,10.07,2.2c2.63,0.32,5.27,0.5,7.91,0.55c2.29-0.01,4.58-0.19,6.84-0.54
	c2.38-0.35,4.68-1.09,6.83-2.17c2.06-1,3.85-2.48,5.21-4.32c1.37-1.95,2.08-4.3,2-6.68c0-2.89-1.67-5.3-5-7.21
	c-3.96-2.19-8.11-4-12.41-5.42c-4.92-1.68-10.25-3.54-16-5.59c-5.58-1.96-10.94-4.5-16-7.58c-4.84-2.93-9.06-6.79-12.41-11.36
	c-3.33-4.57-5-10.35-5-17.32c-0.05-5.29,1.05-10.52,3.24-15.34c2.11-4.62,5.1-8.78,8.81-12.26c7.6-7.1,17.48-11.26,27.87-11.73
	c1.92,0,3.96,0.06,6.11,0.18c2.16,0.12,4.19,0.18,6.12,0.18c4.37,0.05,8.72-0.49,12.94-1.62c3.83-1.08,6.71-4.14,8.63-9.17
	c0.27-1.75,1.83-3,3.6-2.88c1.1-0.02,2.16,0.37,3,1.08c0.84,0.72,1.3,1.78,1.26,2.88l-3.59,44.59l-1.08,15.82
	c0.07,1.06-0.41,2.08-1.26,2.7c-0.9,0.62-1.97,0.93-3.06,0.9c-1.05,0.07-2.07-0.41-2.69-1.26c-0.62-0.9-0.93-1.97-0.9-3.06
	c0.23-3.11,0.54-6.17,0.9-9.17c0.36-3.04,0.54-6.11,0.54-9.17c0-8.38-2.64-14.49-7.92-18.34S651.84,151.04,644,151
	c-6.14-0.18-12.17,1.57-17.26,5c-4.8,3.33-7.2,8.73-7.2,16.18c-0.14,4.89,1.6,9.65,4.86,13.3c3.47,3.79,7.52,7.01,12,9.53
	c5.08,2.9,10.37,5.43,15.82,7.55c5.4,2.12,10.68,4.52,15.82,7.2c4.38,2.24,8.42,5.08,12,8.45
	C683.27,221.18,685.08,225.39,685,229.78z"/>
<path class="st6" d="M419.51,704.58c0,2.26-1.21,3.64-3.6,4.15l-141,8.63c-2.88,0-4.32-1.44-4.32-4.32c0-2.16,1.2-3.48,3.6-3.95
	l31.28-1.8L292.21,384L278,385.45c-4.72,0.48-9.46,0.72-14.2,0.72c-1.1,0.04-2.16-0.42-2.88-1.26c-0.72-0.85-1.11-1.94-1.08-3.06
	c0-2.16,1.21-3.47,3.6-4l92.78-6.84h0.36c1.05-0.28,2.17,0.07,2.87,0.9c0.72,0.85,1.11,1.94,1.08,3.06c0,2.16-1.2,3.49-3.59,4
	l-25.94,1.8l-6.47,325.08l83.79-5l5-42.44c0-2.64,1.32-4,4-4c1.1-0.05,2.16,0.42,2.87,1.26c0.71,0.83,1.1,1.9,1.08,3L419.51,704.58z
	"/>
<path class="st6" d="M463.38,626.27c0,2.49-1.2,3.85-3.6,4.06l-28.41,3.6c-1.16,0.32-2.4-0.03-3.23-0.9c-0.72-0.84-1.16-1.89-1.26-3
	c-0.12-1.21-0.12-2.44,0-3.65c0.12-1.25,0.18-2.23,0.18-2.91c-4.72,2.37-9.74,4.11-14.92,5.16c-5.01,1.23-10.13,1.92-15.29,2.06
	c-3.84,0-8.45-0.24-13.84-0.71c-5.28-0.46-10.48-1.61-15.46-3.42c-4.62-1.62-8.85-4.2-12.41-7.56c-3.33-3.24-5-7.62-5-13.13
	c0-6,2.28-10.61,6.84-13.84c4.88-3.38,10.38-5.76,16.18-7c6.32-1.45,12.76-2.3,19.24-2.52c6.59-0.24,11.92-0.36,16-0.36
	c2.88,0,6.11,0.18,9.71,0.54c3.27,0.31,6.52,0.85,9.71,1.62v-6.12c0-5.24-0.42-10.47-1.26-15.64c-0.74-4.85-2.32-9.54-4.68-13.84
	c-2.26-4.07-5.55-7.48-9.53-9.89c-4.07-2.52-9.22-3.78-15.46-3.78c-2.59,0.02-5.18,0.26-7.73,0.72c-2.69,0.46-5.29,1.3-7.73,2.52
	c-2.32,1.14-4.35,2.8-5.93,4.85c-1.63,2.24-2.45,4.96-2.34,7.73c0,4.08,0.95,6.84,2.88,8.27c1.86,1.41,4.01,2.4,6.29,2.88
	c2.27,0.48,4.36,0.9,6.29,1.26c1.74,0.15,3.03,1.68,2.88,3.42c0,0,0,0,0,0c0.04,1.1-0.42,2.16-1.26,2.87
	c-0.74,0.68-1.7,1.06-2.7,1.08c-3.16-0.03-6.3-0.46-9.35-1.26c-3.23-0.78-6.32-2.05-9.17-3.77c-2.68-1.61-5.01-3.76-6.83-6.3
	c-1.82-2.57-2.77-5.66-2.7-8.81c-0.15-4.05,1.05-8.03,3.42-11.32c2.34-3.05,5.35-5.52,8.81-7.2c3.64-1.8,7.51-3.07,11.51-3.77
	c3.79-0.69,7.64-1.06,11.5-1.08c9.83,0,18.16,1.56,25,4.69c6.54,2.91,12.22,7.45,16.5,13.18c4.37,6.04,7.43,12.92,9,20.21
	c1.86,8.35,2.76,16.89,2.7,25.45c0,5.53-0.25,11.18-0.72,17s-1,11.43-1.44,17l13.3-1.8c1.03,0.02,2.02,0.34,2.88,0.9
	C462.84,624.28,463.39,625.24,463.38,626.27z M427.78,592.6c-3.35-0.96-6.78-1.63-10.25-2c-3.41-0.35-6.83-0.53-10.25-0.54
	c-3.26,0.05-6.5,0.36-9.71,0.91c-3.78,0.59-7.47,1.63-11,3.09c-3.3,1.35-6.35,3.25-9,5.64c-2.5,2.27-3.88,5.52-3.77,8.9
	c-0.12,2.57,0.71,5.1,2.34,7.09c1.63,1.88,3.65,3.37,5.93,4.37c2.4,1.09,4.94,1.83,7.55,2.18c2.5,0.35,5.02,0.53,7.55,0.54
	c5.39-0.01,10.77-0.68,16-2c5.28-1.27,10.16-3.83,14.21-7.45L427.78,592.6z M427.06,451.25l-4,35.61l-4-35.61l-21.22,19.06
	l19.78-21.57l-18.7-3.6l18.7-3.59L397.93,420l21.22,19.42l4-36l4,36L448.27,420l-19.77,21.55l18.7,3.59l-18.7,3.6l19.77,21.57
	L427.06,451.25z"/>
<path class="st6" d="M588.88,619.71c0.03,1.16-0.35,2.3-1.08,3.2c-0.7,0.86-1.77,1.35-2.88,1.31l-60.77,0.72c-2.67,0-4-1.37-4-4.11
	c0-2.51,1.32-4,4-4.52h19.06c0.72-7.64,1.32-15.34,1.79-23.11c0.47-7.77,0.71-15.47,0.72-23.11c0-4.06-0.12-9.08-0.36-15.05
	c-0.22-5.82-1.12-11.59-2.69-17.19c-1.36-5.13-3.82-9.9-7.19-14c-3.24-3.82-7.74-5.73-13.49-5.74c-4.39,0.04-8.67,1.43-12.23,4
	c-3.58,2.13-6.65,5.02-9,8.45c-2.41,3.5-4.35,7.3-5.76,11.31c-1.42,4.09-2.43,8.3-3,12.59c-0.59,4.17-0.88,8.38-0.89,12.59v29.84
	l16.18-0.72c1.09-0.03,2.15,0.29,3.05,0.9c0.85,0.63,1.33,1.64,1.26,2.7c0,2.88-1.32,4.31-3.95,4.31L444,606.6
	c-1.09,0.03-2.16-0.28-3.06-0.9c-0.86-0.62-1.33-1.64-1.26-2.7c0-2.87,1.33-4.31,4-4.31l34.16-1.44l-12.95-77.31l-26.25,1.44
	c-1.07,0.27-2.21,0-3.05-0.72c-0.84-0.72-1.3-1.78-1.26-2.88c-0.18-2.18,1.42-4.09,3.59-4.31l47.75-2.47c2.88,0,4.32,1.32,4.32,3.95
	l0.36,17.62c3.04-6.14,7.4-11.54,12.76-15.82c5.34-4.31,12.02-6.62,18.89-6.52c8.87,0,16.19,1.19,21.94,3.58
	c5.46,2.18,10.23,5.77,13.84,10.4c3.63,4.89,6.15,10.51,7.37,16.48c1.51,7.19,2.24,14.52,2.16,21.86
	c-0.01,17.97-2.06,35.89-6.11,53.4l23.37-0.36c1.12-0.02,2.22,0.38,3.06,1.12C588.47,617.48,588.93,618.57,588.88,619.71z"/>
<path class="st6" d="M718.33,596.89c0.07,1.84-1.11,3.49-2.88,4c-0.96,0.24-3.36,0.96-7.19,2.15s-7.92,2.44-12.26,3.74
	c-4.31,1.33-8.26,2.53-11.87,3.6c-2,0.68-4.04,1.22-6.11,1.62c-1.1,0.04-2.16-0.42-2.88-1.26c-0.72-0.86-1.1-1.94-1.07-3.06
	c0-2.22,0.12-4.44,0.36-6.65c0.23-2.21,0.34-4.44,0.35-6.66c-2.58,1.39-5.29,2.54-8.09,3.42c-3.23,1.08-6.59,2.04-10.06,2.88
	c-3.47,0.84-6.89,1.51-10.25,2c-2.98,0.45-5.99,0.68-9,0.71c-5.59-0.07-11.18-0.49-16.72-1.25c-6.47-0.81-12.82-2.44-18.88-4.86
	c-5.66-2.18-10.84-5.41-15.29-9.53c-4.14-3.84-6.43-9.27-6.29-14.92c0-6.71,2.22-12.22,6.65-16.54c4.68-4.48,10.18-8.02,16.19-10.43
	c6.4-2.66,13.1-4.54,19.96-5.59c5.95-0.99,11.97-1.53,18-1.62c6.17,0,12.32,0.67,18.34,2c6.21,1.42,12.07,4.05,17.26,7.74
	c0.24-4.55,0.36-9.11,0.36-13.67v-14c0-23.25-0.12-46.44-0.36-69.59s-0.6-46.34-1.08-69.58H654c-2.88,0-4.32-1.31-4.32-3.95
	s1.44-4,4.32-4h46c2.63,0,3.96,1.44,4,4.32c0,2.22-0.12,4.44-0.36,6.65c-0.24,2.28-0.48,4.38-0.72,6.29l-2.15,24.81
	c-2.16,26.14-3.6,52.39-4.32,78.76c-0.72,21.09-1.08,42.54-1.08,64.36v19.78c0,6.48,0.12,13.07,0.36,19.78
	c0.72-0.24,2.05-0.66,4-1.26s3.92-1.2,5.93-1.8l5.57-1.61c1.05-0.35,2.14-0.59,3.24-0.72C717.04,592.94,718.33,594.26,718.33,596.89
	z M676.25,558.42c-4.19-4.14-9.3-7.23-14.92-9c-5.74-1.9-11.75-2.87-17.8-2.88c-4.37,0.01-8.72,0.55-12.95,1.62
	c-4.12,0.99-8.06,2.63-11.68,4.84c-3.45,2.13-6.29,5.1-8.27,8.63c-2.14,3.99-3.2,8.47-3.06,13c-0.16,3.72,0.78,7.41,2.7,10.61
	c1.79,2.75,4.27,4.98,7.19,6.47c3.09,1.59,6.44,2.63,9.89,3.05c3.58,0.48,7.18,0.72,10.79,0.72c6.67-0.02,13.31-0.86,19.77-2.51
	c6.5-1.57,12.54-4.66,17.62-9c0.24-4.08,0.42-8.28,0.54-12.59S676.25,562.75,676.25,558.42L676.25,558.42z"/>
<path class="st7" d="M425.66,699.47c0,2.26-1.2,3.64-3.59,4.15l-141,8.63c-2.88,0-4.32-1.44-4.32-4.32c0-2.15,1.2-3.47,3.6-3.95
	l31.28-1.8L298.37,378.9l-14.21,1.44c-4.72,0.48-9.46,0.72-14.2,0.72c-1.1,0.04-2.16-0.42-2.88-1.26c-0.73-0.85-1.11-1.94-1.08-3.06
	c0-2.15,1.21-3.47,3.6-3.95l92.78-6.79h0.35c1.05-0.29,2.18,0.06,2.88,0.9c0.72,0.85,1.11,1.94,1.08,3.05c0,2.16-1.2,3.49-3.6,4
	l-25.89,1.8l-6.47,325.07l83.79-5l5-42.43c0-2.65,1.32-4,4-4c1.1-0.04,2.16,0.42,2.87,1.26c0.73,0.85,1.11,1.94,1.08,3.06
	L425.66,699.47z"/>
<path class="st7" d="M469.54,621.16c0,2.49-1.21,3.84-3.6,4.07l-28.41,3.59c-1.16,0.32-2.4-0.02-3.23-0.9
	c-0.72-0.84-1.16-1.89-1.26-3c-0.13-1.21-0.13-2.43,0-3.64c0.12-1.26,0.18-2.23,0.18-2.92c-4.73,2.37-9.75,4.11-14.93,5.16
	c-5.01,1.24-10.13,1.93-15.29,2.07c-3.84,0-8.45-0.24-13.84-0.72c-5.28-0.46-10.48-1.61-15.47-3.42c-4.62-1.62-8.84-4.19-12.4-7.55
	c-3.33-3.24-5-7.62-5-13.13c0-6,2.28-10.61,6.84-13.84c4.88-3.38,10.38-5.76,16.18-7c6.32-1.45,12.76-2.3,19.24-2.52
	c6.59-0.24,11.93-0.36,16-0.36c2.88,0,6.11,0.18,9.71,0.54c3.27,0.31,6.52,0.85,9.71,1.62v-6.11c0-5.24-0.42-10.48-1.26-15.65
	c-0.75-4.86-2.34-9.54-4.71-13.85c-2.27-4.07-5.55-7.47-9.53-9.89c-4.07-2.52-9.23-3.78-15.46-3.78c-2.59,0.02-5.18,0.26-7.73,0.72
	c-2.69,0.46-5.29,1.31-7.73,2.52c-2.32,1.14-4.35,2.8-5.93,4.85c-1.63,2.24-2.45,4.97-2.34,7.74c0,4.08,1,6.83,2.88,8.27
	c1.86,1.42,4,2.4,6.29,2.87c2.27,0.49,4.37,0.9,6.29,1.26c1.74,0.15,3.03,1.68,2.88,3.42c0,0,0,0,0,0c0.04,1.1-0.42,2.16-1.26,2.87
	c-0.74,0.68-1.7,1.06-2.7,1.08c-3.16-0.03-6.3-0.45-9.35-1.25c-3.23-0.79-6.32-2.06-9.17-3.78c-2.68-1.61-5.01-3.75-6.83-6.29
	c-1.82-2.57-2.76-5.66-2.7-8.81c-0.16-4.05,1.03-8.04,3.39-11.33c2.34-3.05,5.36-5.51,8.81-7.19c3.63-1.81,7.51-3.09,11.51-3.78
	c3.79-0.69,7.64-1.06,11.5-1.08c9.83,0,18.17,1.56,25,4.69c6.55,2.91,12.24,7.45,16.54,13.18c4.37,6.04,7.43,12.92,9,20.21
	c1.85,8.35,2.76,16.89,2.69,25.45c0,5.53-0.24,11.2-0.71,17c-0.47,5.8-0.95,11.47-1.44,17l13.3-1.79c1.02,0.02,2.02,0.33,2.88,0.89
	C468.98,619.17,469.54,620.12,469.54,621.16z M433.94,587.5c-3.35-0.97-6.78-1.64-10.25-2c-3.4-0.36-6.83-0.54-10.25-0.55
	c-3.25,0.06-6.5,0.36-9.71,0.91c-3.78,0.59-7.47,1.63-11,3.09c-3.3,1.35-6.35,3.25-9,5.64c-2.5,2.27-3.88,5.52-3.77,8.9
	c-0.12,2.57,0.71,5.1,2.33,7.1c1.63,1.87,3.66,3.36,5.94,4.36c2.4,1.09,4.94,1.83,7.55,2.18c2.5,0.36,5.02,0.54,7.55,0.55
	c5.39-0.02,10.77-0.69,16-2c5.28-1.28,10.16-3.84,14.21-7.45L433.94,587.5z M433.22,446.15l-4,35.6l-3.95-35.6l-21.22,19.06
	l19.78-21.58l-18.7-3.6l18.7-3.59l-19.78-21.58l21.22,19.42l3.95-36l4,36l21.21-19.42l-19.77,21.58l18.7,3.59l-18.7,3.6l19.77,21.58
	L433.22,446.15z"/>
<path class="st7" d="M595,614.6c0.03,1.16-0.35,2.3-1.08,3.2c-0.7,0.87-1.77,1.35-2.88,1.31l-60.77,0.72c-2.67,0-4-1.37-4-4.1
	c0-2.52,1.32-4,4-4.53h19.06c0.72-7.64,1.32-15.34,1.79-23.11c0.47-7.77,0.71-15.47,0.72-23.11c0-4.05-0.12-9.05-0.36-15
	c-0.22-5.82-1.12-11.59-2.69-17.2c-1.37-5.13-3.82-9.9-7.2-14c-3.2-3.85-7.68-5.78-13.44-5.78c-4.39,0.03-8.67,1.43-12.23,4
	c-3.57,2.14-6.64,5.02-9,8.45c-2.41,3.5-4.34,7.31-5.75,11.33c-1.44,4.08-2.47,8.29-3.06,12.58c-0.59,4.17-0.89,8.38-0.9,12.59
	v29.84l16.19-0.71c1.08-0.03,2.15,0.28,3.05,0.89c0.85,0.63,1.33,1.64,1.26,2.7c0,2.88-1.33,4.32-4,4.32l-63.65,2.51
	c-1.09,0.04-2.16-0.28-3.06-0.9c-0.85-0.62-1.33-1.64-1.26-2.69c0-2.88,1.33-4.32,4-4.32l34.16-1.44L471,514.83l-26.25,1.44
	c-1.07,0.27-2.21,0-3.05-0.72c-0.84-0.72-1.3-1.78-1.26-2.88c-0.18-2.18,1.42-4.09,3.59-4.31l47.83-2.52c2.88,0,4.32,1.33,4.32,4
	l0.36,17.62c3.04-6.15,7.4-11.55,12.76-15.83c5.35-4.29,12.02-6.58,18.88-6.47c8.87,0,16.18,1.2,21.94,3.59
	c5.46,2.17,10.23,5.76,13.84,10.39c3.63,4.89,6.15,10.52,7.37,16.49c1.51,7.18,2.24,14.51,2.16,21.85
	c-0.01,17.97-2.06,35.89-6.11,53.4l23.37-0.36c1.13-0.02,2.22,0.38,3.06,1.13C594.62,612.41,595.05,613.49,595,614.6z"/>
<path class="st7" d="M724.49,591.78c0.07,1.84-1.11,3.49-2.88,4c-0.96,0.24-3.36,0.96-7.19,2.16c-3.83,1.2-7.91,2.46-12.23,3.77
	c-4.31,1.33-8.27,2.53-11.87,3.6c-2,0.68-4.04,1.22-6.11,1.62c-1.1,0.04-2.16-0.42-2.88-1.26c-0.72-0.85-1.1-1.94-1.07-3.06
	c0-2.22,0.12-4.44,0.35-6.65c0.24-2.21,0.36-4.43,0.36-6.65c-2.59,1.38-5.29,2.52-8.09,3.41c-3.23,1.08-6.59,2.04-10.07,2.88
	c-3.48,0.84-6.89,1.51-10.24,2c-2.98,0.45-5.99,0.69-9,0.72c-5.6-0.1-11.18-0.54-16.72-1.32c-6.46-0.81-12.8-2.44-18.85-4.86
	c-5.66-2.18-10.85-5.41-15.29-9.53c-4.15-3.84-6.44-9.27-6.29-14.92c0-6.71,2.22-12.23,6.65-16.54c4.68-4.47,10.17-8.01,16.18-10.43
	c6.42-2.65,13.13-4.52,20-5.57c5.95-0.99,11.97-1.53,18-1.62c6.17,0,12.32,0.67,18.34,2c6.21,1.42,12.07,4.04,17.26,7.73
	c0.24-4.55,0.36-9.1,0.36-13.67v-14c0-23.25-0.12-46.44-0.36-69.58s-0.6-46.33-1.08-69.58h-21.65c-2.88,0-4.32-1.33-4.32-4
	c0-2.67,1.44-4,4.32-4h46c2.63,0,3.97,1.44,4,4.32c0,2.22-0.12,4.44-0.36,6.65c-0.24,2.28-0.48,4.38-0.72,6.29l-2.15,24.82
	c-2.16,26.13-3.6,52.38-4.32,78.75c-0.72,21.1-1.08,42.56-1.08,64.37v19.77c0,6.48,0.12,13.07,0.36,19.78l4-1.26
	c1.91-0.59,3.89-1.18,5.93-1.79l5.57-1.62c1.05-0.35,2.14-0.59,3.24-0.72C723.19,587.82,724.49,589.15,724.49,591.78z
	 M682.41,553.31c-4.19-4.14-9.3-7.23-14.92-9c-5.74-1.9-11.75-2.87-17.8-2.88c-4.38,0-8.75,0.55-13,1.62
	c-4.12,1-8.06,2.64-11.68,4.85c-3.45,2.13-6.29,5.1-8.27,8.63c-2.14,3.99-3.2,8.47-3.06,13c-0.16,3.72,0.78,7.41,2.7,10.61
	c1.79,2.75,4.27,4.98,7.19,6.47c3.09,1.59,6.44,2.63,9.89,3.06c10.21,1.38,20.59,0.77,30.56-1.8c6.5-1.57,12.54-4.66,17.62-9
	c0.24-4.07,0.42-8.27,0.54-12.59C682.3,561.96,682.38,557.64,682.41,553.31L682.41,553.31z"/>
<g>
	<path class="st3" d="M13,96.15c29.78,7,53.46,37.56,59.5,76.53c6-39,29.72-69.56,59.5-76.53c-29.78-7-53.46-37.56-59.5-76.53
		C66.44,58.59,42.76,89.17,13,96.15z"/>
	<path class="st8" d="M72.5,19.62v76.53l59.5,0C103.66,87.81,83.23,63.5,72.5,19.62z"/>
	<path class="st9" d="M72.5,172.68V96.15l59.5,0C103.66,104.49,83.23,128.8,72.5,172.68z"/>
	<path class="st8" d="M72.5,172.68V96.15l-59.5,0C41.34,104.49,61.77,128.8,72.5,172.68z"/>
	<path class="st10" d="M74,192.3h-3c0-52.19-31.85-94.65-71-94.65v-3c39.15,0,71-42.46,71-94.65h3c0,52.19,31.83,94.65,71,94.65v3
		C105.81,97.65,74,140.11,74,192.3z M13,96.15c29.78,7,53.46,37.56,59.5,76.53c6-39,29.72-69.56,59.5-76.53
		c-29.78-7-53.46-37.56-59.5-76.53C66.44,58.59,42.76,89.17,13,96.15z"/>
</g>
<g>
	<path class="st3" d="M104.55,162.85c13,4.31,23.32,17.47,27,34.28c3.73-16.81,14.07-30,27-34.28c-13-4.3-23.32-17.46-27-34.28
		c-3.68,16.81-14.02,29.97-27,34.27L104.55,162.85z"/>
	<path class="st8" d="M131.55,126.88v35.97l-27.97,0C116.91,158.93,126.51,147.51,131.55,126.88z"/>
	<path class="st9" d="M131.55,198.82v-35.97l-27.97,0C116.91,166.77,126.51,178.19,131.55,198.82z"/>
	<path class="st8" d="M131.55,198.82v-35.97l27.97,0C146.19,166.77,136.59,178.2,131.55,198.82z"/>
	<path class="st10" d="M133.09,211h-3c0-25.72-15.6-46.65-34.78-46.65v-3c19.18,0,34.78-20.92,34.78-46.65h3
		c0,25.73,15.61,46.65,34.79,46.65v3C148.7,164.34,133.09,185.27,133.09,211z M104.55,162.85c13,4.31,23.32,17.47,27,34.28
		c3.73-16.81,14.07-30,27-34.28c-13-4.3-23.32-17.46-27-34.28c-3.68,16.81-14.02,29.97-27,34.27L104.55,162.85z"/>
</g>
<g>
	<path class="st3" d="M811.06,602.51c29.78,7,53.46,37.56,59.5,76.53c6-39,29.72-69.56,59.5-76.53c-29.78-7-53.46-37.56-59.5-76.53
		C864.5,564.95,840.82,595.53,811.06,602.51z"/>
	<path class="st8" d="M870.56,525.98v76.53h59.5C901.72,594.17,881.29,569.86,870.56,525.98z"/>
	<path class="st9" d="M870.56,679.04v-76.53h59.5C901.72,610.85,881.29,635.16,870.56,679.04z"/>
	<path class="st8" d="M870.56,679.04v-76.53h-59.5C839.4,610.85,859.83,635.16,870.56,679.04z"/>
	<path class="st10" d="M872.06,698.66h-3c0-52.19-31.85-94.65-71-94.65v-3c39.15,0,71-42.46,71-94.65h3
		c0,52.19,31.83,94.65,71,94.65v3C903.87,604.01,872.06,646.47,872.06,698.66z M811.06,602.51c29.78,7,53.46,37.56,59.5,76.53
		c6-39,29.72-69.56,59.5-76.53c-29.78-7-53.46-37.56-59.5-76.53C864.5,564.95,840.82,595.53,811.06,602.51z"/>
</g>
<g>
	<path class="st3" d="M902.61,669.21c13,4.31,23.32,17.47,27,34.28c3.73-16.81,14.07-30,27-34.28c-13-4.3-23.32-17.46-27-34.28
		c-3.68,16.81-14.02,29.97-27,34.27V669.21z"/>
	<path class="st8" d="M929.61,633.24v35.97h-27.97C914.97,665.29,924.57,653.86,929.61,633.24z"/>
	<path class="st9" d="M929.61,705.18v-35.97h-27.97C914.97,673.13,924.57,684.55,929.61,705.18z"/>
	<path class="st8" d="M929.61,705.18v-35.97h27.97C944.25,673.13,934.65,684.55,929.61,705.18z"/>
	<path class="st10" d="M931.15,717.36h-3c0-25.72-15.6-46.65-34.78-46.65v-3c19.18,0,34.78-20.92,34.78-46.65h3
		c0,25.73,15.61,46.65,34.79,46.65v3C946.76,670.7,931.15,691.63,931.15,717.36z M902.61,669.21c13,4.31,23.32,17.47,27,34.28
		c3.73-16.81,14.07-30,27-34.28c-13-4.3-23.32-17.46-27-34.28c-3.68,16.81-14.02,29.97-27,34.27V669.21z"/>
</g>
</svg>
