<svg xmlns="http://www.w3.org/2000/svg" viewBox="0 0 920.06 608.46"><defs><style>.cls-1{fill:#d1ca53;}.cls-2{fill:#edc775;}.cls-3{fill:#da5c47;}.cls-4{fill:#65ab99;}.cls-5{fill:#f7a8b6;}.cls-6{fill:#ab6c77;}.cls-7{fill:#ab855b;}.cls-8{fill:#f7bb77;}.cls-9{fill:#fff;}.cls-10{fill:#ffe8c7;}</style></defs><g id="Layer_2" data-name="Layer 2"><g id="Layer_1-2" data-name="Layer 1"><path class="cls-1" d="M672.72,476.92l1.94,2.07q2.69-3.4,5.23-6.91l.07-3.27c-2.5-.28-5-.5-7.51-.68Q672.66,472.53,672.72,476.92Z"/><path class="cls-1" d="M677.72,482.24c.64.69,1.27,1.39,1.9,2.09l.19-8.54q-1.84,2.37-3.73,4.7C676.62,481.08,677.18,481.65,677.72,482.24Z"/><path class="cls-1" d="M669,488.82c-.72.81-1.44,1.61-2.17,2.41,1.79-.09,3.57-.19,5.36-.32.11-2,.2-4,.25-6.05Q670.73,486.86,669,488.82Z"/><path class="cls-1" d="M662.8,467.38q-2.37-2.25-4.79-4.44-2.24,2.24-4.4,4.54c1.45,0,2.91-.06,4.36-.08C659.58,467.38,661.19,467.38,662.8,467.38Z"/><path class="cls-1" d="M662.42,493.35c-1.43,0-2.85,0-4.27,0l-2.79,0q1.88,1.75,3.79,3.46Q660.8,495.11,662.42,493.35Z"/><path class="cls-1" d="M667.38,471.51q2.58,2.57,5.1,5.17-.06-4.29-.27-8.56-4.37-.3-8.73-.41C664.79,469,666.09,470.23,667.38,471.51Z"/><path class="cls-1" d="M672.75,481.38c.55-.68,1.1-1.36,1.64-2.05-.55-.62-1.11-1.24-1.67-1.85l0,2.83Z"/><path class="cls-1" d="M630.61,466.44c.62.81,1.25,1.61,1.89,2.41,3.52-.39,7-.68,10.58-.9l4.07-.24c.25-4.32.61-8.64,1.12-12.94-1.14-.89-2.29-1.78-3.45-2.64a110.14,110.14,0,0,0-12.44-8.07,41.82,41.82,0,0,0-6.7-3,14.94,14.94,0,0,0-3.5-.77,3.09,3.09,0,0,0-3.78,3.84,14.16,14.16,0,0,0,.82,3.46,40.69,40.69,0,0,0,3.11,6.62c.25.44.52.87.78,1.3a5.14,5.14,0,0,1,5.43,8.18C629.22,464.6,629.91,465.52,630.61,466.44Z"/><path class="cls-1" d="M664.91,493.3q-2.2,2.37-4.47,4.68,4.08,3.58,8.32,6.95a5.2,5.2,0,0,1,2.28-1.51q.65-5.19,1-10.41C669.66,493.14,667.29,493.24,664.91,493.3Z"/><path class="cls-1" d="M648.89,489.78c0,.56.05,1.12.08,1.67l1.63,0c-.53-.53-1.07-1.06-1.6-1.6Z"/><path class="cls-1" d="M642.45,480.41c1.42,1.54,2.86,3,4.32,4.55,0-1.55,0-3.1,0-4.65,0-1.74,0-3.49.1-5.24Q644.62,477.71,642.45,480.41Z"/><path class="cls-1" d="M648.88,467.87c-.07,1.56-.13,3.11-.17,4.67.25-.28.49-.57.73-.85,1.16-1.33,2.34-2.64,3.52-4C651.6,467.77,650.24,467.81,648.88,467.87Z"/><path class="cls-1" d="M658.13,491.51q3.06,0,6.11-.17c1.12-1.24,2.24-2.49,3.34-3.76q2.49-2.9,4.91-5.88c0-.46,0-.92,0-1.39,0-1,0-2.06,0-3.1-1.73-1.87-3.49-3.72-5.28-5.53-1.34-1.34-2.71-2.66-4.08-4q-2.58-.06-5.16-.06c-1.53,0-3.06,0-4.58.08-1.28,1.36-2.54,2.73-3.77,4.13l-.92,1.06q-.08,3.7-.07,7.4,0,3.36.15,6.7c.52.52,1,1,1.55,1.55,1,1,2,2,3.06,3C655,491.53,656.55,491.53,658.13,491.51Z"/><path class="cls-1" d="M657.72,498.32q-2.67-2.46-5.26-5l-3.39-.09c.25,4.16.61,8.3,1.11,12.43Q654,502.09,657.72,498.32Z"/><path class="cls-1" d="M646.81,487.64c-1.85-1.92-3.67-3.86-5.46-5.84l-1.2,1.53c-1.84,2.4-3.62,4.86-5.34,7.35q6,.54,12.11.72C646.87,490.15,646.84,488.9,646.81,487.64Z"/><path class="cls-1" d="M624.35,508.43a40.19,40.19,0,0,0-2.57,6.88,14.47,14.47,0,0,0-.54,3.54,4,4,0,0,0,1,3,3.91,3.91,0,0,0,3.07.56,14.63,14.63,0,0,0,3.4-1,40.93,40.93,0,0,0,6.4-3.55,110.55,110.55,0,0,0,11.68-9.06l1.31-1.18q-.81-7.19-1.12-14.38-6.62-.29-13.22-1-1.11,1.63-2.19,3.3A109.55,109.55,0,0,0,624.35,508.43Z"/><path class="cls-1" d="M653.67,524.27a40.19,40.19,0,0,0,2.46,6.78,13.78,13.78,0,0,0,1.8,2.9,3.41,3.41,0,0,0,2.23,1.39,3.37,3.37,0,0,0,2.27-1.36,14,14,0,0,0,1.86-2.89,41.85,41.85,0,0,0,2.6-6.76,104,104,0,0,0,2.78-11.81,5.1,5.1,0,0,1-2-5.57q-4.45-3.61-8.69-7.48c-2.78,2.78-5.62,5.48-8.56,8.1.1.76.2,1.52.31,2.28A110.63,110.63,0,0,0,653.67,524.27Z"/><path class="cls-1" d="M679,512.42l.44-19.95q-3.43.31-6.87.51c0,.75,0,1.49-.08,2.23q-.16,4-.47,8c.21,0,.41,0,.62,0a5.14,5.14,0,0,1,4.35,7.88Z"/><path class="cls-1" d="M679.59,485.39q-1.87-2.28-3.83-4.51c-1,1.21-2,2.42-3,3.61,0,2.13,0,4.26-.11,6.39q3.43-.25,6.85-.62Z"/><path class="cls-1" d="M663.14,467.39q4.51,0,9,.16c0-.7-.07-1.41-.11-2.11-.31-4.69-.8-9.37-1.46-14q-6.48,5.37-12.44,11.34C659.85,464.29,661.51,465.82,663.14,467.39Z"/><path class="cls-1" d="M664.81,429.28a14.66,14.66,0,0,0-1.93-3,3.09,3.09,0,0,0-5.39,0,14.78,14.78,0,0,0-1.87,3,40.85,40.85,0,0,0-2.48,6.88,109.32,109.32,0,0,0-2.8,14.51c-.21,1.59-.39,3.17-.56,4.76q3.44,2.85,6.76,5.82l1.27,1.14c.55-.59,1.09-1.19,1.65-1.77,3.43-3.6,6.95-7.12,10.65-10.47l.28-.25a109.32,109.32,0,0,0-3-13.8A40.83,40.83,0,0,0,664.81,429.28Z"/><path class="cls-1" d="M672.3,465.43c.05.71.08,1.42.12,2.13h.45q3.55.12,7.11.35l.53-23.95c-3.26,2.18-6.41,4.58-9.46,7.09C671.65,455.83,672,460.63,672.3,465.43Z"/><path class="cls-1" d="M613.84,473a41.68,41.68,0,0,0-6.85,2.65,14.74,14.74,0,0,0-3,1.95,3.08,3.08,0,0,0,.07,5.39,14.35,14.35,0,0,0,3,1.85,41.21,41.21,0,0,0,6.9,2.43A109.39,109.39,0,0,0,628.53,490c1.94.24,3.89.44,5.83.62q2.73-3.79,5.6-7.46l1.23-1.56c-3.54-3.92-7-8-10.19-12.15l-2.68.38A110.89,110.89,0,0,0,613.84,473Z"/><path class="cls-1" d="M646.86,474.69c.06-2.25.16-4.5.28-6.74-1.35.07-2.7.14-4,.24-3.44.25-6.88.6-10.3,1,3,3.78,6.2,7.44,9.49,11C643.78,478.36,645.31,476.52,646.86,474.69Z"/><path class="cls-1" d="M653.17,467.49c1.47-1.64,3-3.26,4.48-4.87-.43-.38-.84-.77-1.27-1.14q-3.25-2.85-6.64-5.55c-.4,3.89-.67,7.8-.85,11.71C650.32,467.58,651.74,467.53,653.17,467.49Z"/><path class="cls-2" d="M214.39,192.44c-1.57-1.5-3.17-3-4.79-4.44-1.48,1.48-2.95,3-4.39,4.53,1.45,0,2.9-.06,4.36-.07C211.18,192.44,212.78,192.44,214.39,192.44Z"/><path class="cls-2" d="M224,193.19q.22,4.4.28,8.79c.65.68,1.29,1.38,1.94,2.07q3.84-4.86,7.38-9.93C230.45,193.73,227.25,193.41,224,193.19Z"/><path class="cls-2" d="M219,196.57q2.58,2.55,5.1,5.17c0-2.86-.13-5.71-.27-8.57q-4.37-.3-8.73-.4Q217,194.65,219,196.57Z"/><path class="cls-2" d="M224.34,206.44c.56-.68,1.11-1.37,1.65-2.06-.55-.62-1.11-1.23-1.67-1.85l0,2.84C224.35,205.73,224.34,206.08,224.34,206.44Z"/><path class="cls-2" d="M227.36,205.93c-1,1.22-2,2.42-3,3.62,0,2.13-.05,4.26-.11,6.39,3.5-.26,7-.61,10.48-1.05C232.36,211.83,229.9,208.85,227.36,205.93Z"/><path class="cls-2" d="M220.59,213.88c-.72.81-1.44,1.61-2.17,2.41,1.79-.09,3.57-.2,5.36-.32.11-2,.2-4,.25-6.06C222.89,211.24,221.75,212.57,220.59,213.88Z"/><path class="cls-2" d="M214,218.41c-1.42,0-2.84,0-4.27,0l-2.78,0q1.88,1.75,3.78,3.46C211.84,220.74,212.94,219.58,214,218.41Z"/><path class="cls-2" d="M182.21,191.49c.62.81,1.25,1.61,1.89,2.41,3.52-.38,7.05-.67,10.58-.89,1.36-.1,2.71-.17,4.07-.24q.36-6.5,1.12-12.94-1.71-1.35-3.46-2.65A111.13,111.13,0,0,0,184,169.11a41.33,41.33,0,0,0-6.69-3,14.92,14.92,0,0,0-3.5-.76,3.08,3.08,0,0,0-3.78,3.84,14.38,14.38,0,0,0,.82,3.46,41.09,41.09,0,0,0,3.11,6.62c.25.44.52.86.78,1.29a5.14,5.14,0,0,1,5.43,8.18C180.82,189.65,181.51,190.58,182.21,191.49Z"/><path class="cls-2" d="M216.51,218.36q-2.2,2.37-4.47,4.68,4.08,3.59,8.32,7a5.14,5.14,0,0,1,2.28-1.51q.65-5.19,1-10.41C221.26,218.2,218.89,218.29,216.51,218.36Z"/><path class="cls-2" d="M243.54,213.56l-.1-17.95c-1.42-.26-2.83-.51-4.25-.73-1-.16-2-.3-3-.44q-4.05,5.7-8.47,11.11c.54.58,1.1,1.16,1.64,1.75,2.24,2.43,4.44,4.91,6.57,7.45l3.36-.48C240.69,214.06,242.11,213.81,243.54,213.56Z"/><path class="cls-2" d="M209.73,216.57q3.06,0,6.11-.17c1.12-1.25,2.24-2.5,3.33-3.76q2.51-2.91,4.92-5.88c0-.46,0-.93,0-1.39,0-1,0-2.07,0-3.1q-2.58-2.82-5.27-5.53-2-2-4.08-4c-1.72,0-3.44-.07-5.16-.07-1.53,0-3.06.05-4.58.09q-1.92,2-3.77,4.12L200.3,198q-.09,3.69-.07,7.4c0,2.23.08,4.46.15,6.7.52.51,1,1,1.55,1.55q1.51,1.49,3.06,3C206.57,216.59,208.15,216.59,209.73,216.57Z"/><path class="cls-2" d="M200.49,214.84c0,.56,0,1.11.08,1.67l1.63,0c-.53-.53-1.07-1.06-1.6-1.6Z"/><path class="cls-2" d="M194,205.47q2.15,2.29,4.33,4.55c0-1.55,0-3.1,0-4.65,0-1.75.05-3.5.1-5.24C197,201.89,195.49,203.66,194,205.47Z"/><path class="cls-2" d="M200.48,192.93c-.07,1.55-.13,3.11-.17,4.66l.73-.84c1.16-1.33,2.34-2.65,3.51-4C203.19,192.82,201.84,192.87,200.48,192.93Z"/><path class="cls-2" d="M198.41,212.7q-2.78-2.88-5.46-5.84l-1.2,1.52q-2.76,3.62-5.34,7.35,6,.54,12.11.73C198.47,215.21,198.44,214,198.41,212.7Z"/><path class="cls-2" d="M205.26,249.32a41.11,41.11,0,0,0,2.47,6.78,14.12,14.12,0,0,0,1.8,2.91,2.53,2.53,0,0,0,4.5,0,13.87,13.87,0,0,0,1.85-2.89,41.67,41.67,0,0,0,2.61-6.76,106.67,106.67,0,0,0,2.78-11.81,5.16,5.16,0,0,1-2.19-4.21,5.08,5.08,0,0,1,.19-1.36q-4.46-3.63-8.69-7.48c-2.78,2.77-5.62,5.48-8.56,8.1.1.76.2,1.52.31,2.28A112.14,112.14,0,0,0,205.26,249.32Z"/><path class="cls-2" d="M209.31,223.37q-2.66-2.46-5.25-5-1.69,0-3.39-.09c.25,4.15.61,8.3,1.11,12.43Q205.64,227.14,209.31,223.37Z"/><path class="cls-2" d="M176,233.48a41.75,41.75,0,0,0-2.58,6.88,15.1,15.1,0,0,0-.53,3.54,3.9,3.9,0,0,0,1,3,4,4,0,0,0,3.07.56,14.66,14.66,0,0,0,3.4-1.05,40.87,40.87,0,0,0,6.4-3.54,109.42,109.42,0,0,0,11.67-9.06c.45-.39.88-.79,1.32-1.19-.55-4.78-.91-9.58-1.12-14.38q-6.61-.28-13.22-1-1.11,1.63-2.19,3.3A109.42,109.42,0,0,0,176,233.48Z"/><path class="cls-2" d="M236.56,241.14a40.77,40.77,0,0,0,6.54,3.06l.62.19-.1-16.64c-1.73-2.86-3.6-5.66-5.56-8.39-.58-.79-1.16-1.59-1.75-2.37q-6.08.7-12.15,1c0,.74,0,1.49-.09,2.23-.11,2.67-.26,5.33-.46,8a4.21,4.21,0,0,1,.62,0,5.14,5.14,0,0,1,5.14,5.14,5.07,5.07,0,0,1-.79,2.73C231.18,237.9,233.83,239.61,236.56,241.14Z"/><path class="cls-2" d="M237.61,216.82c.49.59,1,1.18,1.45,1.78,1.56,2,3.09,4,4.54,6l0-8.68c-1.32.22-2.64.42-4,.61Z"/><path class="cls-2" d="M94.88,455.47c-6.9-21.75,52.89-61.82,149.45-104.89l-.6-103.7c-.47-.12-.94-.26-1.4-.42a42.68,42.68,0,0,1-7-3.19,93.55,93.55,0,0,1-8.52-5.48,5.08,5.08,0,0,1-2.62.73,5,5,0,0,1-1.65-.28,99.68,99.68,0,0,1-2.21,11.68,41.9,41.9,0,0,1-2.52,7.2,16,16,0,0,1-2.09,3.4c-.24.26-.48.52-.74.77a7,7,0,0,1-.9.7,4.59,4.59,0,0,1-2.36.76,4.78,4.78,0,0,1-2.38-.74,9.05,9.05,0,0,1-.91-.69c-.25-.25-.5-.51-.74-.77a16.43,16.43,0,0,1-2.15-3.38,42.33,42.33,0,0,1-2.66-7.18,110.61,110.61,0,0,1-2.9-14.76c0-.26-.05-.52-.09-.77l-.54.47a110.59,110.59,0,0,1-11.93,9,41.77,41.77,0,0,1-6.66,3.58,15.73,15.73,0,0,1-3.71,1.08l-1,.08a6,6,0,0,1-1-.08,4,4,0,0,1-2-.88,3.94,3.94,0,0,1-1.1-1.85,5.82,5.82,0,0,1-.2-1c0-.33,0-.67,0-1a15.82,15.82,0,0,1,.64-3.79,42.73,42.73,0,0,1,2.77-7,109.57,109.57,0,0,1,7.62-12.84c.69-1,1.4-2.07,2.12-3.08-1.66-.18-3.31-.38-5-.6a110.32,110.32,0,0,1-14.69-2.92,41.92,41.92,0,0,1-7.09-2.6,15.48,15.48,0,0,1-3.28-2l-.72-.7a7.41,7.41,0,0,1-.63-.82,4.08,4.08,0,0,1-.65-2.06,4,4,0,0,1,.65-2.06,6.3,6.3,0,0,1,.62-.82q.36-.36.72-.69a15.56,15.56,0,0,1,3.26-2,41.59,41.59,0,0,1,7.07-2.57,109.64,109.64,0,0,1,14.66-2.84c.81-.11,1.63-.21,2.44-.3l-1.3-1.7c-.66-.89-1.31-1.78-2-2.68a5.14,5.14,0,1,1-5.58-8.64c-.23-.4-.48-.79-.7-1.19a41.92,41.92,0,0,1-3.13-6.88,15.65,15.65,0,0,1-.84-3.77c0-.33,0-.67,0-1a7.1,7.1,0,0,1,.15-1,4.19,4.19,0,0,1,1-1.92,4,4,0,0,1,1.93-1,7.14,7.14,0,0,1,1-.14l1,0a16,16,0,0,1,3.75.89,42.27,42.27,0,0,1,6.79,3.23,108.46,108.46,0,0,1,12.31,8.44c1.08.83,2.15,1.69,3.21,2.55.16-1.26.32-2.52.5-3.77a112,112,0,0,1,3-14.67,42.81,42.81,0,0,1,2.65-7.07,15.2,15.2,0,0,1,2.07-3.26c.23-.25.46-.49.7-.72a8.62,8.62,0,0,1,.83-.63,4.17,4.17,0,0,1,2.07-.64,4,4,0,0,1,2.05.67,8.48,8.48,0,0,1,.82.63l.68.72a15.76,15.76,0,0,1,2,3.28,41.28,41.28,0,0,1,2.52,7.09,105.65,105.65,0,0,1,2.6,13.63,106.61,106.61,0,0,1,10.94-8.74,41.79,41.79,0,0,1,6.64-3.75,18.19,18.19,0,0,1,3.2-1.06l-.79-137.5L41.75,53.25,64.23,571l181.42,6.43L245,461C158.93,475.61,101,474.88,94.88,455.47Zm3.8-139.32a3.33,3.33,0,0,1,3.33,3.18c5.94-.33,18-.61,32.08-.72l.22-.06C124.85,302,117,287.76,114,281.83a3.31,3.31,0,0,1-1.37.3,3.37,3.37,0,1,1,2-.65c3.48,5.43,11.42,18.83,20.58,34.84,6.13-17.6,11.62-32.34,14.17-38.18a3.35,3.35,0,1,1,2,.64,3.43,3.43,0,0,1-1.07-.18c-1.65,6.29-6.48,21.33-12.57,39,10.9-3.13,20.31-5.71,25.86-7.12a2.2,2.2,0,0,1,0-.36,3.38,3.38,0,1,1,.21,1.14c-5.19,1.7-13.89,4.36-24.09,7.35,13.21-.05,24.21.08,29.11.34,0-.06,0-.1,0-.15a3.39,3.39,0,1,1,.11.82c-5.11.34-17.09.65-31.34.77,9.76,17.13,17.67,31.52,20.05,36.46a3.35,3.35,0,1,1-.47.26c-3-4.52-11.24-18.37-20.88-35.2-6.33,18.15-12,33.18-14.31,38.38a3.33,3.33,0,1,1-1.55-.39,3.08,3.08,0,0,1,.75.09c1.38-5.63,6.34-21.16,12.69-39.57h-.38c-13,3.77-24.38,6.89-30.32,8.37a3.16,3.16,0,0,1,.13.87,3.4,3.4,0,1,1-.4-1.55c5-1.67,14.2-4.48,25.08-7.67-11.39,0-20.9-.08-25.93-.29a3.35,3.35,0,1,1-3.29-4Z"/><path class="cls-2" d="M198.46,199.75q.09-3.37.28-6.75c-1.35.07-2.7.15-4,.24q-5.17.38-10.3,1c3,3.79,6.2,7.45,9.48,11Q196.13,202.49,198.46,199.75Z"/><path class="cls-2" d="M214.74,192.44c3,0,6,.06,9,.17,0-.71-.07-1.41-.12-2.11q-.45-7-1.46-14c-4.31,3.58-8.45,7.38-12.43,11.35C211.45,189.34,213.1,190.88,214.74,192.44Z"/><path class="cls-2" d="M165.44,198.1a40.47,40.47,0,0,0-6.85,2.65,14.33,14.33,0,0,0-3,1.95,3.08,3.08,0,0,0,.07,5.39,15.23,15.23,0,0,0,3,1.85,41.47,41.47,0,0,0,6.9,2.43,107.78,107.78,0,0,0,14.53,2.7c1.94.24,3.88.44,5.83.62q2.73-3.78,5.6-7.45l1.23-1.56c-3.54-3.92-6.95-8-10.19-12.16-.89.13-1.79.25-2.68.39A110.89,110.89,0,0,0,165.44,198.1Z"/><path class="cls-2" d="M216.41,154.33a14.86,14.86,0,0,0-1.93-3,3.09,3.09,0,0,0-5.39,0,14.51,14.51,0,0,0-1.87,3,40.53,40.53,0,0,0-2.48,6.88,109.34,109.34,0,0,0-2.81,14.51c-.2,1.58-.38,3.17-.55,4.76,2.29,1.89,4.54,3.84,6.76,5.82l1.27,1.14c.55-.59,1.09-1.19,1.65-1.78,3.43-3.6,6.95-7.11,10.64-10.46L222,175a107.21,107.21,0,0,0-3-13.8A40.94,40.94,0,0,0,216.41,154.33Z"/><path class="cls-2" d="M234.45,167.5a111.67,111.67,0,0,0-11.81,8.62c.61,4.77,1,9.56,1.26,14.36,0,.71.08,1.42.11,2.13l.45,0q4.92.17,9.83.54c.94-1.36,1.87-2.74,2.77-4.13a116,116,0,0,0,6.05-10.3,5.14,5.14,0,0,1,.18-8.21l0-7.18a16.59,16.59,0,0,0-2.38.79A40.13,40.13,0,0,0,234.45,167.5Z"/><path class="cls-2" d="M239,190.32c-.69,1-1.4,2.06-2.11,3.07l2.46.24c1.35.15,2.71.31,4.07.5l-.07-10.81C242,185.7,240.52,188,239,190.32Z"/><path class="cls-2" d="M204.77,192.55c1.47-1.65,3-3.27,4.48-4.88L208,186.54c-2.17-1.91-4.39-3.75-6.64-5.55q-.6,5.83-.85,11.7C201.91,192.63,203.34,192.58,204.77,192.55Z"/><path class="cls-3" d="M456.48,391.4C410.58,405.29,367,416.69,328,425.26c-20.26-26-31.49-49.56-35.15-83.3,0-.35-.07-.71-.1-1.06q-10.4,4.44-20.21,8.85l3.61,94.32c51-8.66,113.29-23.52,180.44-43.63Z"/><polygon class="cls-1" points="687.66 122.41 687.72 119.85 685.38 123.16 687.66 122.41"/><polygon class="cls-1" points="687.59 125.36 687.62 124.27 685.95 124.83 687.59 125.36"/><polygon class="cls-1" points="687.55 127.19 685.38 126.51 687.5 129.46 687.55 127.19"/><path class="cls-1" d="M684,127.57l0,9.93c0,4.21-.06,8.42-.15,12.64q-.16,12.63-.69,25.28-.52-12.64-.7-25.28c-.08-4.22-.1-8.43-.15-12.64l0-9.89-5.76,8c-2.48,3.41-4.94,6.83-7.45,10.21q-7.49,10.2-15.24,20.19,6.91-10.59,14.1-21c2.38-3.48,4.81-6.93,7.22-10.39l5.73-8.11-9.44,3.1c-4,1.28-8,2.6-12,3.85q-12.06,3.83-24.21,7.32,11.83-4.48,23.77-8.64c4-1.41,8-2.76,11.94-4.13l9.41-3.17-9.45-3c-4-1.31-8-2.6-12-4q-12-4-23.89-8.3,12.21,3.33,24.31,7c4,1.19,8.07,2.45,12.1,3.67l9.51,3L675,115.12c-2.44-3.44-4.9-6.86-7.31-10.32q-7.27-10.33-14.29-20.87,7.85,9.93,15.42,20.06c2.54,3.36,5,6.76,7.54,10.14l5.86,8,0-9.93c0-4.21.07-8.42.15-12.64q.18-12.64.7-25.28.51,12.64.69,25.28c.08,4.22.1,8.43.15,12.64l0,9.88,3.81-5.31,1.79-80.39L480.85,30.77l1,112.2q8.36.5,16.78,1.76a179.31,179.31,0,0,1,123.18,79.1c.49.75,1,1.51,1.44,2.27,21.94-4.95,42.8-9.2,62.34-12.7l1.8-81.08Z"/><path class="cls-4" d="M789.62,163.83q5.8-8.9,11.85-17.63c2-2.93,4-5.82,6-8.73l6.13-8.67,6.19-8.62c2.09-2.86,4.15-5.74,6.26-8.58q6.28-8.56,12.8-17-5.8,8.91-11.85,17.64c-2,2.92-4,5.81-6,8.72l-6.13,8.67-6.19,8.63c-2.09,2.86-4.15,5.73-6.26,8.57Q796.14,155.44,789.62,163.83Z"/><path class="cls-4" d="M773.77,116.42q10.26,2.79,20.42,5.85c3.4,1,6.77,2.06,10.16,3.09l10.14,3.16,10.11,3.24c3.36,1.11,6.73,2.19,10.08,3.33q10.08,3.34,20.07,7-10.26-2.79-20.42-5.86c-3.4-1-6.78-2-10.16-3.08L814,130l-10.11-3.24c-3.36-1.11-6.73-2.19-10.08-3.33Q783.76,120,773.77,116.42Z"/><path class="cls-4" d="M789.31,94.87q6.59,8.34,13,16.84c2.13,2.82,4.22,5.68,6.34,8.52l6.27,8.57,6.2,8.61c2,2.89,4.12,5.76,6.14,8.67q6.12,8.67,12,17.53-6.6-8.34-13-16.84c-2.14-2.83-4.23-5.68-6.34-8.52l-6.27-8.57-6.2-8.62c-2.05-2.89-4.11-5.76-6.14-8.66Q795.19,103.72,789.31,94.87Z"/><path class="cls-4" d="M814.26,86.77q.43,10.62.58,21.23c.07,3.54.09,7.08.13,10.62l0,10.62,0,10.61c0,3.54-.06,7.08-.13,10.62q-.14,10.62-.58,21.24-.43-10.62-.59-21.24c-.07-3.54-.08-7.08-.12-10.62l0-10.61,0-10.62c0-3.54.06-7.08.13-10.62Q813.82,97.38,814.26,86.77Z"/><path class="cls-4" d="M774,142.65q9.94-3.77,20-7.26c3.33-1.18,6.69-2.32,10-3.47L814,128.53l10.09-3.32c3.37-1.08,6.73-2.18,10.11-3.23q10.13-3.23,20.34-6.16-9.94,3.78-20,7.27c-3.33,1.18-6.69,2.31-10,3.47L814.5,130l-10.09,3.31c-3.37,1.08-6.73,2.18-10.11,3.24Q784.18,139.71,774,142.65Z"/><path class="cls-3" d="M325.46,124.83c3.19.94,6.37,1.93,9.56,2.9l7.51,2.35-4.6-6.39-1.05-1.48L322.53,124Z"/><path class="cls-3" d="M338.36,122l.65.88,4.63,6.32,0-7.84h0Z"/><path class="cls-3" d="M351.35,120.44l-6.35.78a1,1,0,0,1,0,.17l0,7.81,4.55-6.34Z"/><path class="cls-3" d="M454.36,107.84,353.05,120.23l-2.37,3.4L346.15,130l7.46-2.45c3.17-1,6.33-2,9.52-3q9.51-3,19.13-5.79-9.35,3.55-18.79,6.84c-3.14,1.11-6.29,2.17-9.44,3.26l-7.43,2.51,7.47,2.39c3.16,1,6.33,2.06,9.49,3.13q9.48,3.15,18.88,6.55-9.65-2.61-19.22-5.5c-3.19-.94-6.37-1.94-9.56-2.9l-7.51-2.35,4.6,6.39c1.92,2.71,3.87,5.42,5.77,8.15q5.76,8.16,11.3,16.49-6.21-7.84-12.19-15.84c-2-2.66-4-5.35-6-8L345,133.53l0,7.84c0,3.33-.05,6.66-.12,10q-.13,10-.55,20-.4-10-.55-20c-.07-3.33-.08-6.66-.12-10l0-7.81-4.55,6.35c-2,2.69-3.91,5.39-5.89,8.07q-5.91,8.06-12,16,5.46-8.38,11.14-16.6c1.88-2.75,3.8-5.47,5.7-8.21l4.53-6.41-7.46,2.45c-3.17,1-6.34,2.05-9.52,3q-9.53,3-19.13,5.79,9.34-3.54,18.79-6.83c3.14-1.11,6.29-2.18,9.44-3.26l7.43-2.51-7.47-2.4c-3.16-1-6.33-2.06-9.49-3.13-1.6-.53-3.2-1.08-4.81-1.63l-56.2,6.88,7.95,207.44q9.74-4.11,19.86-8.23A180,180,0,0,1,454.63,143.44Z"/><path class="cls-3" d="M457.23,492.63q-6.74-.53-13.53-1.56C403.92,485,368.19,467.38,341.79,441c-22.84,5.49-44.68,10.26-65.26,14.31l3.64,94.89,177.4-11.24ZM342.78,507.72c1.32,1.87,2.66,3.72,4,5.6q3.94,5.59,7.75,11.31-4.26-5.39-8.36-10.87c-1.38-1.82-2.73-3.67-4.09-5.5l-3.18-4.34,0,5.38c0,2.28,0,4.57-.08,6.85q-.09,6.86-.38,13.71-.27-6.86-.37-13.71c-.05-2.28-.06-4.57-.09-6.85l0-5.36-3.12,4.35c-1.35,1.85-2.68,3.7-4,5.54q-4,5.52-8.26,10.94,3.75-5.73,7.65-11.38c1.28-1.88,2.6-3.75,3.91-5.63l3.1-4.4L332,505.05c-2.18.69-4.35,1.4-6.53,2.08q-6.54,2.07-13.13,4,6.42-2.43,12.89-4.68c2.15-.77,4.32-1.5,6.48-2.24l5.09-1.72-5.12-1.65c-2.17-.71-4.34-1.41-6.51-2.14q-6.49-2.16-12.95-4.5,6.62,1.8,13.18,3.78c2.19.65,4.37,1.33,6.56,2l5.15,1.61L334,497.17c-1.32-1.86-2.66-3.72-4-5.59q-4-5.61-7.75-11.32,4.26,5.39,8.36,10.87c1.37,1.83,2.72,3.67,4.09,5.5L337.9,501l0-5.38c0-2.28,0-4.56.08-6.85q.09-6.86.37-13.7.28,6.84.38,13.7c0,2.29.05,4.57.08,6.85l0,5.36L342,496.6c1.35-1.85,2.68-3.7,4-5.54q4.05-5.52,8.25-10.94-3.73,5.75-7.64,11.38c-1.29,1.89-2.6,3.75-3.91,5.63l-3.11,4.4,5.12-1.68c2.18-.7,4.35-1.41,6.53-2.09q6.53-2.07,13.12-4-6.4,2.43-12.88,4.69c-2.16.76-4.32,1.49-6.48,2.24l-5.1,1.72,5.12,1.64c2.17.71,4.35,1.41,6.51,2.14q6.51,2.16,13,4.5-6.63-1.8-13.18-3.78c-2.2-.64-4.38-1.32-6.56-2l-5.16-1.61Z"/><path class="cls-1" d="M650.32,331c11.55-4.95,22.59-9.88,33-14.74l.39-17.43c-4.51-8.2-8-14.69-10-18.66a5,5,0,1,1,.88-.51c2.1,3.25,5.26,8.43,9.2,15l1.54-69.42c-17.34,2.54-36.29,5.9-56.54,10.06,15.49,27.69,21.87,52.74,20.45,86.57-45.17,19.36-97.88,39.14-154.82,57.58q-5.18,1.68-10.31,3.31l.09,9.11,3.85-1.22C547.17,372,601.72,351.77,648,332A5,5,0,0,1,650.32,331Z"/><path class="cls-1" d="M682.94,334.87l.15-6.69q-8.16,3.54-16.62,7.08C671.2,335.11,676.77,335,682.94,334.87Z"/><path class="cls-1" d="M618.32,440.26a4.09,4.09,0,0,1,1.93-1,7.11,7.11,0,0,1,1-.13c.33,0,.67,0,1,0a15.12,15.12,0,0,1,3.74.89,41.39,41.39,0,0,1,6.79,3.22,109.78,109.78,0,0,1,12.31,8.44c1.09.84,2.15,1.69,3.21,2.55.16-1.26.32-2.51.5-3.77a112,112,0,0,1,3-14.67,42.81,42.81,0,0,1,2.65-7.07,15.5,15.5,0,0,1,2.08-3.26c.22-.24.46-.49.7-.72a6.3,6.3,0,0,1,.82-.62,3.59,3.59,0,0,1,4.12,0,7.41,7.41,0,0,1,.82.63c.23.24.46.48.68.73a15.53,15.53,0,0,1,2,3.27,42.5,42.5,0,0,1,2.53,7.09,107.5,107.5,0,0,1,2.59,13.64,108.21,108.21,0,0,1,9.71-7.86l.81-36.42a5,5,0,0,1,.21-9.35l1.18-53.05c-10.69,3-19.56,5.38-25.17,6.78a4.93,4.93,0,1,1-.39-1c5.59-1.86,14.63-4.66,25.61-7.95l.07-3.4c-8.13,0-15.22-.11-20.71-.24q-7.42,3.09-15,6.19A177.45,177.45,0,0,1,485.18,492.65l.49,52.69,191.86,32.91,1.4-63c-1.24-.81-2.47-1.65-3.67-2.51a5.12,5.12,0,0,1-2.63.73,5.28,5.28,0,0,1-1.65-.27,100.07,100.07,0,0,1-2.21,11.68,41,41,0,0,1-2.52,7.19,16,16,0,0,1-2.09,3.4c-.24.26-.48.52-.74.78a8.78,8.78,0,0,1-.89.69,4.66,4.66,0,0,1-2.37.76,4.59,4.59,0,0,1-2.38-.74,7.58,7.58,0,0,1-.9-.68c-.26-.26-.51-.51-.75-.78a16.16,16.16,0,0,1-2.15-3.38,42.33,42.33,0,0,1-2.66-7.18,108.71,108.71,0,0,1-2.89-14.76c0-.26-.06-.51-.1-.77-.18.16-.35.32-.54.47a112,112,0,0,1-11.93,9,42.54,42.54,0,0,1-6.66,3.57,15.75,15.75,0,0,1-3.71,1.09l-1,.08a9.1,9.1,0,0,1-1-.08,4.12,4.12,0,0,1-2-.88,4,4,0,0,1-1.1-1.86,6.94,6.94,0,0,1-.2-1c0-.33,0-.66,0-1a16,16,0,0,1,.64-3.8,42.73,42.73,0,0,1,2.77-7,110.39,110.39,0,0,1,7.62-12.84c.69-1,1.4-2.06,2.12-3.08-1.65-.18-3.31-.37-5-.6a110.32,110.32,0,0,1-14.69-2.92,41.87,41.87,0,0,1-7.09-2.59,15.62,15.62,0,0,1-3.27-2.06c-.25-.22-.49-.46-.73-.69a8.62,8.62,0,0,1-.63-.83,3.59,3.59,0,0,1,0-4.12,8.39,8.39,0,0,1,.62-.82l.72-.69a16.22,16.22,0,0,1,3.27-2,42,42,0,0,1,7.06-2.57,109.64,109.64,0,0,1,14.66-2.84c.81-.11,1.63-.2,2.44-.3l-1.3-1.7c-.66-.89-1.31-1.78-1.95-2.68a5.14,5.14,0,1,1-5.59-8.63c-.23-.4-.47-.79-.7-1.2A42.67,42.67,0,0,1,618,448a16.22,16.22,0,0,1-.84-3.78c0-.33,0-.67,0-1a7.53,7.53,0,0,1,.15-1A4.11,4.11,0,0,1,618.32,440.26Z"/><path class="cls-2" d="M708.41,316.92l.1,4.56,2-5.5Z"/><path class="cls-4" d="M795.93,233.16c-4.3-13.55-37.76-16.57-89.64-10.6l1.83,81.73c2.74-1.37,5.43-2.75,8.06-4.11,4.26-11.58,7.76-20.6,9.88-25.46a5,5,0,1,1,2.92.95,4.85,4.85,0,0,1-1.58-.26c-1.22,4.65-3.61,12.51-6.82,22.47C771.54,271,800.47,247.49,795.93,233.16Z"/><path class="cls-4" d="M889.21,464.91l.93-.79,1-48.06c-2.1-.1-4.19-.2-6.29-.28q-6.87-.21-13.73-.26-1.67,1.51-3.32,3-3.18,3-6.32,6-.22,4.86-.38,9.71-.17,6.27-.17,12.54c2.45,2.4,4.92,4.79,7.42,7.14q5.75,5.37,11.63,10.57c1,0,1.9.12,2.84.16C885,464.79,887.09,464.85,889.21,464.91Z"/><path class="cls-4" d="M865.72,456.76c-1.59-1.53-3.17-3.09-4.75-4.65,0,3.67.09,7.34.2,11q6.18.61,12.38,1C870.92,461.71,868.3,459.25,865.72,456.76Z"/><path class="cls-4" d="M862,415.52c-.07,1.12-.15,2.23-.21,3.35,1.13-1.05,2.27-2.11,3.41-3.15l.23-.21Z"/><path class="cls-4" d="M891.35,407.88l.21-10.09c-2,1.65-4,3.31-6,5Q888.49,405.32,891.35,407.88Z"/><path class="cls-4" d="M889.83,478.62q-3.86-3.27-7.62-6.61c-1.25,1.07-2.49,2.14-3.75,3.2q-7.76,6.59-15.81,12.84c.21,2.31.43,4.62.68,6.92a228.87,228.87,0,0,0,5,29.75,98.19,98.19,0,0,0,3,10.32l17.27-1.74Z"/><path class="cls-4" d="M861.83,384.32q-3.27-2.42-6.58-4.76a227,227,0,0,0-25.91-15.92,84.08,84.08,0,0,0-13.88-5.85,30,30,0,0,0-7.21-1.4c-2.38-.13-4.74.39-6.16,1.83s-1.68,3.87-1.4,6.23a30.17,30.17,0,0,0,1.85,7.06,84.87,84.87,0,0,0,6.72,13.41,223.36,223.36,0,0,0,17.58,24.68c.76.95,1.54,1.87,2.31,2.81,9.85-.72,19.7-1.05,29.56-1.08Q859.85,397.79,861.83,384.32Z"/><path class="cls-4" d="M885,411.93c2.07.1,4.14.23,6.21.35l.08-3.75q-3-2.75-6.12-5.43-4.9,4.17-9.7,8.47C878.69,411.67,881.86,411.78,885,411.93Z"/><path class="cls-4" d="M850.15,435.92c2.26,2.35,4.54,4.69,6.85,7,.07-2.92.16-5.83.27-8.75.08-1.9.18-3.81.28-5.71Q853.82,432.14,850.15,435.92Z"/><path class="cls-4" d="M856.89,448q-4.67-4.72-9.21-9.55c-5.12,5.36-10.12,10.84-14.94,16.45a10.51,10.51,0,0,1,2.89,4.81q10.57,1.75,21.25,2.92Q856.77,455.34,856.89,448Z"/><path class="cls-4" d="M874.27,464.82c-4.36-.22-8.72-.47-13.07-.78q.34,10.81,1.24,21.58,9.7-6.86,19-14.31Q877.82,468.1,874.27,464.82Z"/><path class="cls-4" d="M888.65,465.38c-1.94-.06-3.88-.12-5.82-.2-.73,0-1.46-.06-2.19-.09,1.35,1.19,2.71,2.38,4.08,3.55Z"/><path class="cls-4" d="M801.7,500.31a28.59,28.59,0,0,0-1.88,6.75c-.31,2.22.06,4.2,1,5.3s2.95,1.64,5.2,1.54a28.83,28.83,0,0,0,6.94-1.21,85.51,85.51,0,0,0,13.82-5.46A227.18,227.18,0,0,0,853,492.09c1.68-1.11,3.35-2.25,5-3.39-.63-8.32-1-16.65-1.13-25l-4.56-.36c-5.45-.45-10.9-1-16.35-1.62a8.84,8.84,0,0,1,0,1.26,10.52,10.52,0,0,1-16.52,8.24c-3.91,5.17-7.61,10.47-11,15.94A82.73,82.73,0,0,0,801.7,500.31Z"/><path class="cls-4" d="M794.4,422.36a83,83,0,0,0-14.1,4.47,28.58,28.58,0,0,0-6.1,3.45,7,7,0,0,0-3,4.45c0,1.45.93,3.24,2.59,4.77a28.14,28.14,0,0,0,5.77,4,84.28,84.28,0,0,0,13.62,5.92,215.48,215.48,0,0,0,24,6.7,10.51,10.51,0,0,1,11.59-3.63q7.8-8.82,16.07-17.18-8.19-8.88-15.87-18.21c-1.57.14-3.14.27-4.7.43A229.37,229.37,0,0,0,794.4,422.36Z"/><path class="cls-4" d="M857.9,422.52q.21-3.47.48-6.93-12.81.23-25.56,1.21,7,8.22,14.4,16.06Q852.49,427.61,857.9,422.52Z"/><path class="cls-4" d="M870,411.43q6.13-5.44,12.43-10.7c-1-.86-2-1.73-3-2.58q-7.15-6-14.6-11.57-1.62,12.33-2.52,24.75Q866.17,411.35,870,411.43Z"/><path class="cls-4" d="M890.11,465.43l-.33,0q-2.17,1.93-4.37,3.84c1.5,1.29,3,2.56,4.54,3.83Z"/><path class="cls-4" d="M888.68,321.14c-2,0-4,1.32-5.59,3.09a29.77,29.77,0,0,0-4,6.08,82.79,82.79,0,0,0-5.57,13.93,224.09,224.09,0,0,0-6.78,29.53q-1,5.94-1.76,11.9,7.53,5.9,14.8,12.11l3.09,2.64c2.91-2.42,5.86-4.79,8.83-7.14l1.5-69.83A7.2,7.2,0,0,0,888.68,321.14Z"/><path class="cls-4" d="M703.22,85.36l.22,10.08c3-3.94,5.95-7.87,9-11.77q-4.41,6.75-8.94,13.42l.45,20,2.92-.93q12.06-3.83,24.21-7.32-11.82,4.48-23.77,8.64L704,118.69l.27,12.08c1.06.35,2.12.69,3.17,1q12,4,23.89,8.3-12.21-3.33-24.31-7l-2.71-.82.48,21.57q4.07,5.91,8,11.87-4-5.1-8-10.26L706,209.93c80.87-13,134.82-11.58,140.75,7.11,6.46,20.36-45.52,56.77-131.38,96.67-2,6.09-4.25,12.6-6.58,19.37,16.11-4.63,30-8.45,38.24-10.54a4.63,4.63,0,0,1,0-.54,5,5,0,1,1,.3,1.7c-7.69,2.51-20.56,6.44-35.65,10.87,19.54-.08,35.81.12,43.08.49,0-.07,0-.14,0-.22a5,5,0,1,1,.16,1.22c-7.54.5-25.11,1-46,1.15l0,.63c14.27,25.06,25.8,46.07,29.31,53.31a5,5,0,1,1-.71.39c-4.19-6.31-15.26-24.9-28.47-47.88L713.65,551l152.66-15.41c-1.12-3.18-2-6.4-2.84-9.63a223.23,223.23,0,0,1-4.88-30.46c-.13-1.35-.23-2.71-.34-4.06-1.26.94-2.51,1.89-3.78,2.81a222.54,222.54,0,0,1-25.89,16.6A84.72,84.72,0,0,1,814.22,517a33,33,0,0,1-8,1.56q-1.1,0-2.19,0a17.28,17.28,0,0,1-2.3-.39,8.47,8.47,0,0,1-6.61-7.12,15.71,15.71,0,0,1-.23-2.33c0-.74.07-1.47.13-2.2a33.12,33.12,0,0,1,2.12-7.94,87.47,87.47,0,0,1,7.13-14,194.18,194.18,0,0,1,12-17,10.46,10.46,0,0,1-.56-8.78,207.09,207.09,0,0,1-23.74-5.52,84.68,84.68,0,0,1-14.53-5.77,33.07,33.07,0,0,1-6.79-4.58c-.51-.51-1-1-1.52-1.57a14.73,14.73,0,0,1-1.35-1.9,8.47,8.47,0,0,1,.36-9.71,16.62,16.62,0,0,1,1.48-1.81c.54-.51,1.09-1,1.65-1.47a33.55,33.55,0,0,1,7.12-4.11,87.42,87.42,0,0,1,14.92-4.85,225,225,0,0,1,30.5-4.67l1.58-.12-.92-1.14a228.25,228.25,0,0,1-17.52-25.23,87,87,0,0,1-6.76-13.93,32.27,32.27,0,0,1-1.9-7.7c0-.68-.07-1.37-.08-2.06a14,14,0,0,1,.25-2.11,7.31,7.31,0,0,1,5.86-6.08,15,15,0,0,1,2.08-.32c.69,0,1.37,0,2,0a32.43,32.43,0,0,1,7.72,1.63A86.83,86.83,0,0,1,830.18,362a225.62,225.62,0,0,1,25.66,16.7c2.06,1.51,4.11,3,6.13,4.6.51-3.37,1-6.74,1.65-10.1a226.81,226.81,0,0,1,7.22-29.85,87.56,87.56,0,0,1,5.92-14.31,32.37,32.37,0,0,1,4.49-6.54c.49-.48,1-1,1.49-1.42a14.26,14.26,0,0,1,1.74-1.22,7.32,7.32,0,0,1,8.44.34l.31.22,5.86-272.83Z"/><path class="cls-5" d="M886,558,37.9,551.5,46.31,73.24,908.07,0ZM42,547.53,882.16,554,903.9,4.37,50.24,76.92Z"/><path class="cls-6" d="M891.78,575.38l-871-42.14,17.13-470,860.4-48.13ZM29,525.64,883.88,567l6.28-543.38L45.59,70.85Z"/><ellipse class="cls-7" cx="826.75" cy="522.49" rx="68.21" ry="77.32"/><ellipse class="cls-7" cx="883.41" cy="561.25" rx="30.97" ry="33.99"/><ellipse class="cls-8" cx="835.26" cy="531.14" rx="68.21" ry="77.32"/><ellipse class="cls-9" cx="889.09" cy="567.49" rx="30.97" ry="33.99"/><ellipse class="cls-7" cx="58.5" cy="82.85" rx="51.58" ry="63.55"/><ellipse class="cls-7" cx="98.07" cy="123.7" rx="29.01" ry="35.72"/><ellipse class="cls-5" cx="51.57" cy="75.21" rx="51.58" ry="63.55"/><ellipse class="cls-9" cx="92.56" cy="118.87" rx="29.01" ry="35.72"/><path class="cls-7" d="M351,37.75a5.49,5.49,0,0,1-.89,3.16,3,3,0,0,1-2.66,1.3L325,43.63,266.79,348.39a4,4,0,0,1-7.81,0L193.26,29.78c-3.08.47-6.21.83-9.41,1.06s-6.33.36-9.41.36c-2.6,0-3.91-1.3-3.91-3.91s1.19-3.91,3.55-3.91l76.37-5.68h.36a3.58,3.58,0,0,1,2.84,1.24,4.51,4.51,0,0,1,1.06,3c0,2.13-1.3,3.44-3.9,3.91l-25.22,1.78L270.7,285.52,316.87,44.34l-27,1.78a4.53,4.53,0,0,1-2.67-.89A3.12,3.12,0,0,1,286,42.5c0-2.94,1.18-4.42,3.55-4.42l57.19-4a4.91,4.91,0,0,1,3,.93A3.25,3.25,0,0,1,351,37.75Z"/><path class="cls-7" d="M396.44,216.28c0,2.36-1.31,3.77-3.91,4.24l-58.61,4.61c-.24,3.08-.41,6.1-.53,9.06s-.18,6.1-.18,9.41q0,5.34.71,13.5a84,84,0,0,0,3,16.16,38.22,38.22,0,0,0,6.93,13.68,14.82,14.82,0,0,0,12.07,5.68,20.78,20.78,0,0,0,9.24-1.77,36.38,36.38,0,0,0,6-3.73,24.92,24.92,0,0,0,3.91-3.73,3.82,3.82,0,0,1,2.84-1.78q3.9,0,3.9,3.91a4,4,0,0,1-.35,1.77,15.55,15.55,0,0,1-4.44,5.69,29.42,29.42,0,0,1-6.57,4.08,39.85,39.85,0,0,1-7.46,2.49,32.47,32.47,0,0,1-7.11.89q-11.37,0-19.35-6.38a51.08,51.08,0,0,1-13.15-15.94,80.62,80.62,0,0,1-7.63-20.55,91.82,91.82,0,0,1-2.49-20.19,116,116,0,0,1,2.31-21.61,91,91,0,0,1,7.46-22.67A57.35,57.35,0,0,1,336.59,175a29.07,29.07,0,0,1,20.07-7.45q15.61,0,24.5,10.06A60.56,60.56,0,0,1,394,201.11c.47,2.59,1,5.12,1.6,7.59A32.54,32.54,0,0,1,396.44,216.28Zm-24.87-10q0-3.56-.35-8.88a40.26,40.26,0,0,0-2-10.12,26.54,26.54,0,0,0-4.44-8.35q-2.83-3.56-8.16-3.55-5,0-8.71,5.15a53.24,53.24,0,0,0-6.39,12.07,102,102,0,0,0-4.26,13.86Q335.7,213.4,335,217l36.23-2.85a20.41,20.41,0,0,0,.35-3.9Z"/><path class="cls-7" d="M529.27,312.16a23.36,23.36,0,0,1-4.44,14.21A52.81,52.81,0,0,1,514.36,337a59.23,59.23,0,0,1-21.85,10.3,97.72,97.72,0,0,1-24,3.2,147,147,0,0,1-16.17-1.07,77.71,77.71,0,0,1-18.11-4.26,42.49,42.49,0,0,1-14.74-8.88q-6-5.69-6-14.92,0-8.88,6.22-13.67a22.85,22.85,0,0,1,14.38-4.8q8.18,0,12.61,5.15t4.44,13.32q0,4.62-3.91,4.62c-1.89,0-3-.77-3.37-2.31s-.71-3.32-1.07-5.33a13.08,13.08,0,0,0-2.13-5.32c-1.06-1.55-3.26-2.31-6.57-2.31q-9.94,0-9.94,10.65a13.61,13.61,0,0,0,5.15,11A36.82,36.82,0,0,0,441.54,339a68,68,0,0,0,14.56,3q7.47.72,12.44.71a89.13,89.13,0,0,0,13-1.23,95.29,95.29,0,0,0,15.81-3.9,41.55,41.55,0,0,0,13.32-7.27,14.26,14.26,0,0,0,5.5-11.34q0-6.73-7.1-11a73.33,73.33,0,0,0-17.94-7.27q-10.84-3-23.44-5.67t-23.45-6a68.89,68.89,0,0,1-17.93-8.15q-7.11-4.78-7.11-12.58a18.16,18.16,0,0,1,3.91-11.88,31.91,31.91,0,0,1,9.95-8,56.9,56.9,0,0,1-16.88-9.8,21,21,0,0,1-8-16.94,21.85,21.85,0,0,1,3-11.22,33.62,33.62,0,0,1,7.82-9.09,67.58,67.58,0,0,1,10.3-6.95A51.55,51.55,0,0,1,439.76,190a84.76,84.76,0,0,1,46.18,0q1.06-1.07,3.55-3.91c1.66-1.89,3.43-3.9,5.33-6a59.38,59.38,0,0,1,5.51-5.5q2.66-2.31,4.08-2.31a10.17,10.17,0,0,1,4.62,1.6c1.89,1.06,2.84,2.19,2.84,3.37,0,1.9-.48,3.2-1.42,3.91l-15.27,12.08a47.88,47.88,0,0,1,14.38,9.59q6.21,6,6.22,16a23.44,23.44,0,0,1-5.86,16.16,44.54,44.54,0,0,1-14.57,10.66,75,75,0,0,1-18.29,5.86A94.31,94.31,0,0,1,460,253.2a62,62,0,0,1-6.57-.36,55.56,55.56,0,0,1-6.57-1.07,42.25,42.25,0,0,0-7.82,3.38q-4.26,2.31-4.26,6.57,0,2.49,4.44,4.44a64.32,64.32,0,0,0,9.95,3.37q5.51,1.43,10.83,2.31t7.1,1.25q8.17,1.77,18.83,3.9a96.35,96.35,0,0,1,20.25,6.4,52.11,52.11,0,0,1,16.34,11.19Q529.27,301.5,529.27,312.16ZM490.2,219.63q0-12.52-8-18.78t-19.71-6.26q-12.09,0-19.72,7.87t-7.63,20.39q0,11.44,6.92,17T460,245.38a35.78,35.78,0,0,0,11.19-1.79,32.81,32.81,0,0,0,9.77-5,23.09,23.09,0,0,0,9.23-19Z"/><path class="cls-7" d="M635.12,275.47c0,2.45-1.19,3.79-3.55,4L603.51,283a3.24,3.24,0,0,1-3.2-.89,5.23,5.23,0,0,1-1.24-3,17.94,17.94,0,0,1,0-3.59c.11-1.24.17-2.21.17-2.88a59.41,59.41,0,0,1-14.74,5.1,71.71,71.71,0,0,1-15.09,2q-5.68,0-13.68-.72a59.3,59.3,0,0,1-15.27-3.37,34.31,34.31,0,0,1-12.25-7.46c-3.32-3.2-5-7.51-5-13q0-8.88,6.75-13.68a44.62,44.62,0,0,1,16-6.93,100.7,100.7,0,0,1,19-2.48c6.51-.23,11.78-.36,15.8-.36a95.84,95.84,0,0,1,9.59.54A66.91,66.91,0,0,1,600,234v-6a95.84,95.84,0,0,0-1.25-15.45,41.54,41.54,0,0,0-4.62-13.68,26.61,26.61,0,0,0-9.41-9.77q-6-3.72-15.27-3.73a45.07,45.07,0,0,0-7.64.71,28,28,0,0,0-7.64,2.49,16.78,16.78,0,0,0-5.86,4.79A12.24,12.24,0,0,0,546,201c0,4,.94,6.75,2.84,8.17A15.52,15.52,0,0,0,555,212c2.25.48,4.32.89,6.22,1.25a3.11,3.11,0,0,1,2.84,3.37,3.57,3.57,0,0,1-1.24,2.84,4.06,4.06,0,0,1-2.67,1.07,37.65,37.65,0,0,1-9.23-1.25,32,32,0,0,1-9.06-3.73,22.71,22.71,0,0,1-6.75-6.21,14.63,14.63,0,0,1-2.66-8.7,18,18,0,0,1,3.37-11.19,24.55,24.55,0,0,1,8.7-7.11,41.59,41.59,0,0,1,11.37-3.73,65.57,65.57,0,0,1,11.37-1.06q14.55,0,24.68,4.63a41.28,41.28,0,0,1,16.34,13,52.85,52.85,0,0,1,8.88,20,111.94,111.94,0,0,1,2.67,25.14q0,8.19-.71,16.75t-1.43,16.76L630.86,272a5.37,5.37,0,0,1,2.84.89A2.85,2.85,0,0,1,635.12,275.47ZM600,242.21a59.26,59.26,0,0,0-10.13-2,97,97,0,0,0-10.12-.54,62.89,62.89,0,0,0-9.59.9,47.23,47.23,0,0,0-10.83,3.05,30.19,30.19,0,0,0-8.88,5.57,11.36,11.36,0,0,0-3.73,8.79,10.39,10.39,0,0,0,2.3,7,16.81,16.81,0,0,0,5.87,4.31,26.24,26.24,0,0,0,7.45,2.15,54.59,54.59,0,0,0,7.46.54,65.09,65.09,0,0,0,15.81-2,32.37,32.37,0,0,0,14-7.35Z"/><path class="cls-7" d="M715.75,244.67a21.93,21.93,0,0,1-3.55,12.43,31.68,31.68,0,0,1-8.88,8.88,40,40,0,0,1-11.9,5.33,49.69,49.69,0,0,1-13,1.78A75,75,0,0,1,667.09,272a59.79,59.79,0,0,1-13-3.55,34.56,34.56,0,0,1-10.65-6.57A13.57,13.57,0,0,1,639,251.42a12.63,12.63,0,0,1,4.08-9.77,14.44,14.44,0,0,1,10.13-3.73,17.2,17.2,0,0,1,9.59,3.38q5,3.38,5,8.7,0,3.92-3.91,3.91a3,3,0,0,1-2.84-1.25,27.78,27.78,0,0,1-1.42-2.84,9.71,9.71,0,0,0-2-2.84c-.84-.83-2.31-1.24-4.44-1.24q-4.62,0-4.62,5.78a8.15,8.15,0,0,0,3.55,6.7,28.39,28.39,0,0,0,8.53,4.34,48.36,48.36,0,0,0,9.94,2.17,76.75,76.75,0,0,0,7.82.54,46.18,46.18,0,0,0,6.74-.53A22.45,22.45,0,0,0,692,262.6a14.08,14.08,0,0,0,5.15-4.28,10.88,10.88,0,0,0,2-6.59q0-4.28-5-7.13a71.81,71.81,0,0,0-12.25-5.34q-7.29-2.5-15.81-5.53a84.13,84.13,0,0,1-15.8-7.48A42.61,42.61,0,0,1,638,215q-5-6.77-5-17.11a35.8,35.8,0,0,1,3.2-15.14,38.62,38.62,0,0,1,8.7-12.12,43.1,43.1,0,0,1,27.53-11.58q2.83,0,6,.18c2.13.12,4.14.17,6,.17a47.07,47.07,0,0,0,12.79-1.6q5.69-1.59,8.53-9a3.34,3.34,0,0,1,3.55-2.84,4.51,4.51,0,0,1,3,1.06,3.58,3.58,0,0,1,1.24,2.84l-3.55,44L709,209.51a3,3,0,0,1-1.24,2.66,5.09,5.09,0,0,1-3,.89,3,3,0,0,1-2.66-1.25,5,5,0,0,1-.89-3q.34-4.62.89-9.06a77.09,77.09,0,0,0,.53-9.06q0-12.44-7.82-18.11t-19.53-5.69a28.93,28.93,0,0,0-17,5q-7.11,5-7.1,16A18.9,18.9,0,0,0,655.9,201a48,48,0,0,0,11.9,9.41,117.5,117.5,0,0,0,15.63,7.46A164.13,164.13,0,0,1,699.06,225,51.85,51.85,0,0,1,711,233.3,15.2,15.2,0,0,1,715.75,244.67Z"/><path class="cls-10" d="M357.06,32.71a5.44,5.44,0,0,1-.89,3.15,3,3,0,0,1-2.67,1.3l-22.37,1.42L272.87,343.34a4,4,0,0,1-7.81,0L199.35,24.73c-3.08.48-6.22.83-9.41,1.07s-6.34.35-9.42.35q-3.9,0-3.9-3.9t3.55-3.91l76.37-5.68h.35a3.55,3.55,0,0,1,2.84,1.24,4.5,4.5,0,0,1,1.07,3c0,2.13-1.31,3.43-3.91,3.9L231.67,22.6l45.11,257.87L323,39.29l-27,1.78a4.41,4.41,0,0,1-2.66-.89,3.12,3.12,0,0,1-1.25-2.72c0-2.94,1.19-4.42,3.56-4.42L352.79,29a4.83,4.83,0,0,1,3,.94A3.24,3.24,0,0,1,357.06,32.71Z"/><path class="cls-10" d="M402.52,211.24c0,2.35-1.3,3.77-3.91,4.23L340,220.09q-.36,4.62-.54,9.06c-.12,3-.17,6.1-.17,9.41q0,5.33.71,13.5a83.34,83.34,0,0,0,3,16.16A38,38,0,0,0,350,281.89,14.83,14.83,0,0,0,362,287.58a20.75,20.75,0,0,0,9.23-1.78,36,36,0,0,0,6-3.73,24,24,0,0,0,3.91-3.73,3.8,3.8,0,0,1,2.84-1.77c2.6,0,3.91,1.29,3.91,3.9a4,4,0,0,1-.36,1.78,15.6,15.6,0,0,1-4.44,5.68,29,29,0,0,1-6.57,4.09,39.58,39.58,0,0,1-7.46,2.48,32.46,32.46,0,0,1-7.1.89q-11.37,0-19.36-6.38a50.94,50.94,0,0,1-13.14-15.94,80.43,80.43,0,0,1-7.64-20.54,91.79,91.79,0,0,1-2.48-20.2,115.83,115.83,0,0,1,2.3-21.6,91.13,91.13,0,0,1,7.46-22.67A57.28,57.28,0,0,1,342.67,170a29.11,29.11,0,0,1,20.07-7.44q15.63,0,24.51,10A60.68,60.68,0,0,1,400,196.06q.72,3.9,1.6,7.6A32.47,32.47,0,0,1,402.52,211.24Zm-24.86-10q0-3.54-.36-8.88a40.79,40.79,0,0,0-1.95-10.12,27,27,0,0,0-4.44-8.35,9.88,9.88,0,0,0-8.17-3.55q-5,0-8.7,5.15a52.94,52.94,0,0,0-6.4,12.08,104.72,104.72,0,0,0-4.26,13.85c-1.06,4.62-1.84,8.12-2.31,10.48l36.23-2.84a19.71,19.71,0,0,0,.36-3.91Z"/><path class="cls-10" d="M535.36,307.11a23.34,23.34,0,0,1-4.44,14.21A53.18,53.18,0,0,1,520.44,332a59.34,59.34,0,0,1-21.84,10.3,97.77,97.77,0,0,1-24,3.19,146.59,146.59,0,0,1-16.16-1.06,77.68,77.68,0,0,1-18.12-4.26,43,43,0,0,1-14.74-8.88q-6-5.68-6-14.92,0-8.88,6.22-13.68a22.93,22.93,0,0,1,14.39-4.79q8.16,0,12.6,5.15t4.44,13.32c0,3.07-1.3,4.62-3.9,4.62-1.9,0-3-.78-3.38-2.31s-.71-3.32-1.06-5.33a13.41,13.41,0,0,0-2.13-5.33q-1.61-2.31-6.57-2.31-10,0-9.95,10.66a13.62,13.62,0,0,0,5.15,11,36.8,36.8,0,0,0,12.25,6.57,68.12,68.12,0,0,0,14.57,3q7.46.71,12.43.71a89.25,89.25,0,0,0,13-1.24,94.07,94.07,0,0,0,15.81-3.9,41.52,41.52,0,0,0,13.32-7.26,14.27,14.27,0,0,0,5.51-11.34q0-6.74-7.11-11a73,73,0,0,0-17.94-7.26q-10.83-3-23.44-5.67t-23.44-6a68.64,68.64,0,0,1-17.94-8.16q-7.11-4.79-7.1-12.58a18.18,18.18,0,0,1,3.9-11.87,32.06,32.06,0,0,1,10-8,56.55,56.55,0,0,1-16.87-9.8,21,21,0,0,1-8-16.93,21.91,21.91,0,0,1,3-11.23,33.43,33.43,0,0,1,7.82-9.08,67.89,67.89,0,0,1,10.3-7,51,51,0,0,1,10.48-4.45,84.72,84.72,0,0,1,46.17,0c.71-.72,1.9-2,3.56-3.91s3.43-3.91,5.32-6a62.15,62.15,0,0,1,5.51-5.51c1.78-1.53,3.13-2.3,4.08-2.3a10.22,10.22,0,0,1,4.62,1.59q2.83,1.61,2.84,3.38c0,1.9-.47,3.2-1.42,3.91l-15.27,12.07a48,48,0,0,1,14.38,9.59q6.21,6,6.22,16A23.39,23.39,0,0,1,516,229.86a44.61,44.61,0,0,1-14.56,10.65,74.63,74.63,0,0,1-18.3,5.86,94.22,94.22,0,0,1-17.05,1.78,62,62,0,0,1-6.57-.36,55.56,55.56,0,0,1-6.57-1.06,42.48,42.48,0,0,0-7.81,3.37c-2.84,1.55-4.26,3.73-4.26,6.57,0,1.66,1.47,3.15,4.44,4.45a64.19,64.19,0,0,0,9.94,3.37q5.5,1.42,10.83,2.31c3.56.59,5.92,1,7.11,1.24q8.16,1.77,18.82,3.91a96,96,0,0,1,20.25,6.39,52,52,0,0,1,16.34,11.19Q535.35,296.46,535.36,307.11Zm-39.07-92.53q0-12.51-8-18.78t-19.71-6.26q-12.07,0-19.71,7.87t-7.64,20.39q0,11.44,6.93,17t17.93,5.55a36.07,36.07,0,0,0,11.19-1.79,32.81,32.81,0,0,0,9.77-5,23.32,23.32,0,0,0,6.75-8A23.56,23.56,0,0,0,496.29,214.58Z"/><path class="cls-10" d="M641.2,270.42c0,2.46-1.18,3.79-3.55,4L609.59,278a3.24,3.24,0,0,1-3.2-.89,5.29,5.29,0,0,1-1.24-3,18,18,0,0,1,0-3.6q.18-1.86.18-2.88a58.6,58.6,0,0,1-14.74,5.1,71.13,71.13,0,0,1-15.1,2q-5.68,0-13.67-.71a60.12,60.12,0,0,1-15.28-3.37,34.54,34.54,0,0,1-12.25-7.46q-5-4.8-5-13c0-5.91,2.24-10.48,6.75-13.67a44.39,44.39,0,0,1,16-6.93,100.82,100.82,0,0,1,19-2.49q9.76-.34,15.81-.35,4.26,0,9.59.53A68.11,68.11,0,0,1,606,229v-6a97.08,97.08,0,0,0-1.24-15.45,41.63,41.63,0,0,0-4.62-13.67,26.54,26.54,0,0,0-9.41-9.77q-6-3.73-15.28-3.73a45,45,0,0,0-7.63.71,27.71,27.71,0,0,0-7.64,2.48,16.7,16.7,0,0,0-5.86,4.8,12.21,12.21,0,0,0-2.31,7.64c0,4,.94,6.75,2.84,8.17a15.5,15.5,0,0,0,6.22,2.84c2.24.47,4.31.89,6.21,1.24a3.11,3.11,0,0,1,2.84,3.37,3.56,3.56,0,0,1-1.24,2.85,4,4,0,0,1-2.66,1.06,38.24,38.24,0,0,1-9.24-1.24A32.31,32.31,0,0,1,548,210.5a22.46,22.46,0,0,1-6.74-6.22,14.53,14.53,0,0,1-2.67-8.7,17.94,17.94,0,0,1,3.38-11.19,24.34,24.34,0,0,1,8.7-7.1A41.18,41.18,0,0,1,562,173.56a65.72,65.72,0,0,1,11.37-1.07q14.57,0,24.69,4.64a41.42,41.42,0,0,1,16.34,13,53.13,53.13,0,0,1,8.88,20,112.38,112.38,0,0,1,2.66,25.13q0,8.2-.71,16.76t-1.42,16.75L636.94,267a5.44,5.44,0,0,1,2.84.88A2.84,2.84,0,0,1,641.2,270.42ZM606,237.17a58.22,58.22,0,0,0-10.12-2,100,100,0,0,0-10.13-.54,63,63,0,0,0-9.59.9,47.23,47.23,0,0,0-10.83,3,30.53,30.53,0,0,0-8.88,5.57,11.38,11.38,0,0,0-3.73,8.8,10.37,10.37,0,0,0,2.31,7,16.53,16.53,0,0,0,5.86,4.31,26.56,26.56,0,0,0,7.46,2.16,54.48,54.48,0,0,0,7.46.54,65.51,65.51,0,0,0,15.8-2,32.5,32.5,0,0,0,14-7.36Z"/><path class="cls-10" d="M721.84,239.63a21.86,21.86,0,0,1-3.56,12.43,31.68,31.68,0,0,1-8.88,8.88,40.27,40.27,0,0,1-11.9,5.33,49.67,49.67,0,0,1-13,1.77A75,75,0,0,1,673.17,267a59.72,59.72,0,0,1-13-3.56,34.12,34.12,0,0,1-10.66-6.57,13.59,13.59,0,0,1-4.44-10.48,12.57,12.57,0,0,1,4.09-9.76,14.42,14.42,0,0,1,10.12-3.73,17.16,17.16,0,0,1,9.59,3.37q5,3.38,5,8.7,0,3.92-3.9,3.91a3,3,0,0,1-2.85-1.24c-.47-.83-.94-1.78-1.42-2.84a9.39,9.39,0,0,0-2-2.85c-.83-.82-2.31-1.24-4.44-1.24q-4.62,0-4.62,5.79a8.17,8.17,0,0,0,3.55,6.69,28.39,28.39,0,0,0,8.53,4.34,48.45,48.45,0,0,0,10,2.17,74.3,74.3,0,0,0,7.81.55,45,45,0,0,0,6.75-.54,22.25,22.25,0,0,0,6.75-2.14,14,14,0,0,0,5.15-4.27,10.88,10.88,0,0,0,1.95-6.59q0-4.29-5-7.13a72.26,72.26,0,0,0-12.26-5.35q-7.27-2.49-15.8-5.52a84.55,84.55,0,0,1-15.81-7.48A42.58,42.58,0,0,1,644.05,210q-5-6.76-5-17.11a35.88,35.88,0,0,1,3.2-15.15,38.47,38.47,0,0,1,8.7-12.11A43.18,43.18,0,0,1,678.5,154c1.89,0,3.91.06,6,.18s4.14.18,6,.18a47.17,47.17,0,0,0,12.79-1.6c3.78-1.07,6.62-4.08,8.52-9.06a3.35,3.35,0,0,1,3.55-2.84,4.5,4.5,0,0,1,3,1.07,3.55,3.55,0,0,1,1.24,2.84l-3.55,44-1.06,15.63a3.06,3.06,0,0,1-1.25,2.67,5.06,5.06,0,0,1-3,.88,3,3,0,0,1-2.66-1.24,5.07,5.07,0,0,1-.89-3c.24-3.07.53-6.09.89-9.06a74.71,74.71,0,0,0,.53-9.05q0-12.44-7.81-18.12t-19.54-5.68a29,29,0,0,0-17.05,5q-7.11,5-7.1,16A19,19,0,0,0,662,195.94a48,48,0,0,0,11.9,9.41,120.66,120.66,0,0,0,15.63,7.46,163,163,0,0,1,15.63,7.1,51.65,51.65,0,0,1,11.9,8.35A15.16,15.16,0,0,1,721.84,239.63Z"/><path class="cls-7" d="M443.68,583.1c0,1.63-1.19,2.63-3.55,3l-139.24,6.23q-4.26,0-4.26-3.11,0-2.34,3.55-2.86l30.91-1.3L317.94,351.72l-14,1q-6.92.53-14,.52a4.21,4.21,0,0,1-2.84-.91,2.8,2.8,0,0,1-1.06-2.21q0-2.32,3.55-2.85l91.64-4.93h.35a3.44,3.44,0,0,1,2.84.64,2.8,2.8,0,0,1,1.07,2.21c0,1.56-1.19,2.51-3.55,2.86l-25.58,1.29L349.91,584l82.76-3.64,5-30.63q0-2.85,3.91-2.85a4.21,4.21,0,0,1,2.84.91,2.79,2.79,0,0,1,1.07,2.2Z"/><path class="cls-7" d="M487,526.58c0,1.79-1.19,2.77-3.55,2.93l-28.06,2.6a4.07,4.07,0,0,1-3.2-.65,3.4,3.4,0,0,1-1.24-2.17,8.91,8.91,0,0,1,0-2.63,19.06,19.06,0,0,0,.17-2.11,74.46,74.46,0,0,1-14.74,3.73,96.51,96.51,0,0,1-15.09,1.49q-5.69,0-13.68-.52a78.79,78.79,0,0,1-15.27-2.47,38,38,0,0,1-12.26-5.45,11,11,0,0,1-5-9.47c0-4.32,2.25-7.66,6.75-10a54,54,0,0,1,16-5.06,135.17,135.17,0,0,1,19-1.82q9.76-.25,15.8-.26,4.26,0,9.59.39a89.92,89.92,0,0,1,9.59,1.17v-4.41a51.66,51.66,0,0,0-1.24-11.29,25.39,25.39,0,0,0-4.62-10,23.91,23.91,0,0,0-9.41-7.13q-6-2.73-15.27-2.73a60,60,0,0,0-7.64.52,35.12,35.12,0,0,0-7.64,1.82,16.51,16.51,0,0,0-5.86,3.5,7.38,7.38,0,0,0-2.31,5.58q0,4.41,2.85,6a18.74,18.74,0,0,0,6.21,2.08q3.38.51,6.22.9c1.89.26,2.84,1.09,2.84,2.47a2.38,2.38,0,0,1-1.24,2.08,5,5,0,0,1-2.67.78,51.13,51.13,0,0,1-9.23-.91,40,40,0,0,1-9.06-2.73,21.44,21.44,0,0,1-6.75-4.54,8.79,8.79,0,0,1-2.66-6.36,10.89,10.89,0,0,1,3.37-8.18,24.56,24.56,0,0,1,8.7-5.19,53.23,53.23,0,0,1,11.37-2.72,88.84,88.84,0,0,1,11.37-.78q14.55,0,24.68,3.39a41.59,41.59,0,0,1,16.34,9.51,34.79,34.79,0,0,1,8.88,14.58,60.83,60.83,0,0,1,2.66,18.37,106.83,106.83,0,0,1-.71,12.24q-.7,6.25-1.42,12.25l13.15-1.3a6.86,6.86,0,0,1,2.84.65A2,2,0,0,1,487,526.58Zm-35.17-24.3a78.78,78.78,0,0,0-10.12-1.45c-3.43-.26-6.81-.39-10.12-.39a85.2,85.2,0,0,0-9.59.66,61,61,0,0,0-10.84,2.23,33.41,33.41,0,0,0-8.88,4.07,7.48,7.48,0,0,0-3.73,6.42,6.41,6.41,0,0,0,2.31,5.12,17.1,17.1,0,0,0,5.86,3.15,34.21,34.21,0,0,0,7.46,1.58c2.61.26,5.09.39,7.46.39a89.05,89.05,0,0,0,15.81-1.44,37.86,37.86,0,0,0,14-5.38Z"/><path class="cls-7" d="M611,521.84a3,3,0,0,1-1.07,2.31,4.11,4.11,0,0,1-2.84,1l-60,.52q-3.9,0-3.9-3,0-2.71,3.9-3.26h18.83q1.07-8.28,1.78-16.68t.71-16.68c0-2.93-.13-6.55-.36-10.86a40.48,40.48,0,0,0-2.66-12.41,25.21,25.21,0,0,0-7.11-10.09q-4.79-4.14-13.32-4.14a31.57,31.57,0,0,0-20.95,9,32.41,32.41,0,0,0-5.69,8.17,36.51,36.51,0,0,0-3,9.09,48.69,48.69,0,0,0-.88,9.08v21.54l16-.52a6.51,6.51,0,0,1,3,.65,2.09,2.09,0,0,1,1.24,1.95q0,3.1-3.9,3.11l-62.87,1.82a6.48,6.48,0,0,1-3-.65,2.08,2.08,0,0,1-1.25-2c0-2.07,1.31-3.11,3.91-3.11l33.74-1-12.78-55.8-25.93,1a4.36,4.36,0,0,1-3-.52,2.36,2.36,0,0,1-1.24-2.08c0-1.73,1.18-2.76,3.55-3.11L509,443.34q4.26,0,4.26,2.86l.36,12.71a38.53,38.53,0,0,1,12.61-11.42,36.28,36.28,0,0,1,18.64-4.67q13.14,0,21.67,2.59a33.65,33.65,0,0,1,13.68,7.5,27.1,27.1,0,0,1,7.28,11.9,54.08,54.08,0,0,1,2.13,15.78,127.63,127.63,0,0,1-6,38.54l23.09-.26a5.45,5.45,0,0,1,3,.81A2.49,2.49,0,0,1,611,521.84Z"/><path class="cls-7" d="M738.85,505.37c0,1.39-1,2.34-2.85,2.86q-1.41.25-7.1,1.55t-12.08,2.73l-11.72,2.6a60.65,60.65,0,0,1-6,1.16,4.21,4.21,0,0,1-2.84-.91,2.77,2.77,0,0,1-1.06-2.2,33.1,33.1,0,0,1,.35-4.8,33.34,33.34,0,0,0,.36-4.8,59.59,59.59,0,0,1-8,2.46q-4.8,1.17-10,2.08t-10.12,1.42a85.55,85.55,0,0,1-8.88.52q-6.75,0-16.52-.9a99.28,99.28,0,0,1-18.65-3.51,52.09,52.09,0,0,1-15.09-6.88q-6.23-4.28-6.22-10.77,0-7.26,6.57-11.94a54.89,54.89,0,0,1,16-7.52,110.13,110.13,0,0,1,19.71-4,160.21,160.21,0,0,1,17.76-1.16,114.15,114.15,0,0,1,18.11,1.42,58.12,58.12,0,0,1,17,5.58q.36-4.92.36-9.86V450.35q0-25.17-.36-50.22t-1.06-50.23H675.27q-4.28,0-4.27-2.85c0-1.9,1.42-2.86,4.27-2.86h45.46c2.6,0,3.91,1,3.91,3.12a33.24,33.24,0,0,1-.36,4.8c-.24,1.65-.47,3.16-.71,4.54l-2.13,17.91q-3.2,28.29-4.26,56.84-1.06,22.85-1.07,46.46v14.27q0,7,.36,14.28l3.91-.91q2.83-.64,5.86-1.3t5.5-1.16a20.67,20.67,0,0,1,3.2-.52C737.54,502.52,738.85,503.47,738.85,505.37ZM697.29,477.6a40.87,40.87,0,0,0-14.74-6.49A75.82,75.82,0,0,0,665,469a70.83,70.83,0,0,0-12.79,1.16,49.31,49.31,0,0,0-11.55,3.51,21,21,0,0,0-8.17,6.23,14.79,14.79,0,0,0-3,9.34,11.06,11.06,0,0,0,2.66,7.66,17.73,17.73,0,0,0,7.1,4.67,37.27,37.27,0,0,0,9.77,2.2c3.55.35,7.11.52,10.66.52a108.63,108.63,0,0,0,19.53-1.81A49.21,49.21,0,0,0,696.58,496q.34-4.41.53-9.09C697.23,483.83,697.29,480.71,697.29,477.6Z"/><path class="cls-10" d="M449.77,579.41q0,2.45-3.56,3L307,588.63c-2.84,0-4.26-1-4.26-3.11q0-2.34,3.55-2.86l30.9-1.29L324,348l-14,1q-6.93.53-14,.52a4.19,4.19,0,0,1-2.84-.91,2.76,2.76,0,0,1-1.07-2.2c0-1.56,1.19-2.51,3.55-2.86l91.64-4.93h.36a3.42,3.42,0,0,1,2.84.65,2.8,2.8,0,0,1,1.06,2.2q0,2.34-3.55,2.86l-25.57,1.3L356,580.33l82.77-3.63,5-30.63q0-2.87,3.91-2.86a4.21,4.21,0,0,1,2.84.91,2.8,2.8,0,0,1,1.06,2.21Z"/><path class="cls-10" d="M493.1,522.89c0,1.79-1.19,2.77-3.55,2.93l-28.06,2.6a4.08,4.08,0,0,1-3.2-.65,3.44,3.44,0,0,1-1.24-2.17,9.65,9.65,0,0,1,0-2.63,17.3,17.3,0,0,0,.18-2.1,73.83,73.83,0,0,1-14.74,3.72,96.62,96.62,0,0,1-15.1,1.49q-5.68,0-13.67-.52a78.14,78.14,0,0,1-15.28-2.46,38.42,38.42,0,0,1-12.25-5.45,11,11,0,0,1-5-9.48q0-6.48,6.74-10a54.35,54.35,0,0,1,16-5.06,136.53,136.53,0,0,1,19-1.82q9.76-.26,15.81-.26,4.26,0,9.59.39a90.24,90.24,0,0,1,9.59,1.17v-4.41a51.67,51.67,0,0,0-1.25-11.29,25.41,25.41,0,0,0-4.61-10,24.06,24.06,0,0,0-9.42-7.14q-6-2.73-15.27-2.73a61.94,61.94,0,0,0-7.64.52,35.48,35.48,0,0,0-7.63,1.82,16.71,16.71,0,0,0-5.86,3.5,7.38,7.38,0,0,0-2.31,5.58c0,3,.94,4.93,2.84,6a18.72,18.72,0,0,0,6.22,2.08q3.36.53,6.21.91c1.89.26,2.84,1.08,2.84,2.46a2.36,2.36,0,0,1-1.24,2.08,4.93,4.93,0,0,1-2.66.78,51.15,51.15,0,0,1-9.24-.91,39,39,0,0,1-9.06-2.73,21.39,21.39,0,0,1-6.75-4.54,8.81,8.81,0,0,1-2.66-6.36,10.85,10.85,0,0,1,3.37-8.17,24.61,24.61,0,0,1,8.71-5.19,52.41,52.41,0,0,1,11.36-2.73,89.09,89.09,0,0,1,11.37-.78q14.57,0,24.69,3.39a41.86,41.86,0,0,1,16.34,9.51,34.74,34.74,0,0,1,8.87,14.59,60.76,60.76,0,0,1,2.67,18.36,109.32,109.32,0,0,1-.71,12.25q-.72,6.26-1.42,12.24l13.14-1.3a6.86,6.86,0,0,1,2.84.65A2,2,0,0,1,493.1,522.89Zm-35.16-24.3a77.44,77.44,0,0,0-10.13-1.44c-3.43-.26-6.81-.4-10.12-.4a85.36,85.36,0,0,0-9.59.66,61.83,61.83,0,0,0-10.83,2.23,33.43,33.43,0,0,0-8.88,4.07,7.47,7.47,0,0,0-3.73,6.43,6.38,6.38,0,0,0,2.31,5.12,17.35,17.35,0,0,0,5.86,3.15,34.67,34.67,0,0,0,7.46,1.57q3.9.39,7.46.39a89,89,0,0,0,15.8-1.44,37.52,37.52,0,0,0,14-5.38Z"/><path class="cls-10" d="M617.06,518.15a3,3,0,0,1-1.06,2.31,4.13,4.13,0,0,1-2.84.95l-60,.52q-3.92,0-3.91-3c0-1.82,1.3-2.9,3.91-3.27H572q1.06-8.27,1.78-16.68t.71-16.68q0-4.39-.35-10.86a40.26,40.26,0,0,0-2.67-12.41,25.08,25.08,0,0,0-7.1-10.08q-4.8-4.14-13.32-4.15a26.61,26.61,0,0,0-12.08,2.86,26.91,26.91,0,0,0-8.88,6.1,32.37,32.37,0,0,0-5.68,8.17,36.51,36.51,0,0,0-3,9.09,47.88,47.88,0,0,0-.89,9.08v21.55l16-.52a6.48,6.48,0,0,1,3,.65,2.08,2.08,0,0,1,1.25,1.94c0,2.08-1.31,3.12-3.91,3.12l-62.87,1.81a6.39,6.39,0,0,1-3-.65,2.06,2.06,0,0,1-1.24-1.94q0-3.12,3.9-3.12l33.75-1-12.79-55.81-25.93,1a4.32,4.32,0,0,1-3-.52,2.37,2.37,0,0,1-1.24-2.07c0-1.73,1.19-2.77,3.55-3.12l47.24-1.82c2.84,0,4.27,1,4.27,2.86l.35,12.72a38.41,38.41,0,0,1,12.61-11.42A36.22,36.22,0,0,1,551,439.13q13.14,0,21.66,2.59a33.7,33.7,0,0,1,13.68,7.5,27.15,27.15,0,0,1,7.28,11.9,54.08,54.08,0,0,1,2.13,15.78,127.27,127.27,0,0,1-6,38.54l23.09-.26a5.43,5.43,0,0,1,3,.81A2.47,2.47,0,0,1,617.06,518.15Z"/><path class="cls-10" d="M744.93,501.69c0,1.38-.95,2.33-2.84,2.85-1,.18-3.32.69-7.11,1.56s-7.81,1.77-12.07,2.72-8.17,1.82-11.72,2.6a60.22,60.22,0,0,1-6,1.17,4.19,4.19,0,0,1-2.84-.91,2.81,2.81,0,0,1-1.07-2.21,33.24,33.24,0,0,1,.36-4.8,34.57,34.57,0,0,0,.35-4.8,56.39,56.39,0,0,1-8,2.46q-4.8,1.17-10,2.08c-3.43.61-6.81,1.08-10.12,1.43a85.55,85.55,0,0,1-8.88.52q-6.75,0-16.52-.91a99.17,99.17,0,0,1-18.64-3.5,52.3,52.3,0,0,1-15.1-6.88q-6.22-4.29-6.22-10.77,0-7.28,6.58-11.94a54.71,54.71,0,0,1,16-7.53,111,111,0,0,1,19.71-4,160.64,160.64,0,0,1,17.76-1.17,114.19,114.19,0,0,1,18.12,1.43,57.63,57.63,0,0,1,17.05,5.58q.35-4.93.35-9.87V446.66q0-25.17-.35-50.22t-1.07-50.22H681.35q-4.26,0-4.26-2.86t4.26-2.85h45.47c2.6,0,3.9,1,3.9,3.11a34.57,34.57,0,0,1-.35,4.8c-.24,1.65-.48,3.16-.71,4.54l-2.13,17.91q-3.21,28.31-4.27,56.84-1.07,22.85-1.06,46.46v14.28q0,7,.35,14.27l3.91-.9c1.89-.43,3.85-.87,5.86-1.3l5.51-1.17a22,22,0,0,1,3.19-.52Q744.94,498.83,744.93,501.69Zm-41.56-27.78a40.69,40.69,0,0,0-14.74-6.48,75.17,75.17,0,0,0-17.58-2.08,70.93,70.93,0,0,0-12.79,1.17,49.22,49.22,0,0,0-11.54,3.5,21.06,21.06,0,0,0-8.17,6.23,14.76,14.76,0,0,0-3,9.34,11.09,11.09,0,0,0,2.66,7.66,17.7,17.7,0,0,0,7.11,4.67,37.58,37.58,0,0,0,9.77,2.21q5.32.53,10.65.52a108.85,108.85,0,0,0,19.54-1.82,49,49,0,0,0,17.4-6.49q.35-4.41.53-9.08C703.31,480.14,703.37,477,703.37,473.91Z"/></g></g></svg>