<svg id="Layer_1" data-name="Layer 1" xmlns="http://www.w3.org/2000/svg" viewBox="0 0 1233.98 666.6"><defs><style>.cls-1{fill:#4d8783;}.cls-2{fill:none;}.cls-3{fill:#ff8778;}.cls-4{fill:#eaa775;}.cls-5{fill:#c30559;}.cls-6{fill:#ff2114;}.cls-7{fill:#fff;}.cls-8{fill:#77acaa;}.cls-9{fill:#ff1803;}.cls-10{fill:#ffe8c7;}.cls-11{fill:#a86e47;}</style></defs><path class="cls-1" d="M737.46,219.52,56.7,77.43C21.3,70-8.85,103.71,2.39,138.08L94.27,419.14a47,47,0,0,0,49.18,32.2L767.1,391.68a4.89,4.89,0,0,0,4.42-4.74l3.34-120.07A47,47,0,0,0,737.46,219.52Z"/><polygon class="cls-2" points="470.26 536.07 461.16 520.42 462.27 503.47 443.16 491.84 470.26 536.07"/><polygon class="cls-2" points="428.44 442.39 464.14 474.99 466.32 441.82 437.29 440.24 428.44 442.39"/><polygon class="cls-2" points="443.46 408.04 493.45 405.81 518.09 385.01 463.96 382.39 432.89 403.79 443.46 408.04"/><polygon class="cls-3" points="337.45 455.32 273.25 485.41 210.74 541.46 339.3 462.69 344.45 454.9 337.45 455.32"/><polygon class="cls-3" points="362.54 383.85 362.39 377.48 336.17 376.21 342.38 380.08 362.54 383.85"/><polygon class="cls-3" points="407.36 470.06 407.7 481.37 427.95 503.95 408.44 470.72 407.36 470.06"/><polygon class="cls-3" points="470.26 536.07 443.16 491.84 441.48 490.82 456.31 535.58 499.39 583.61 478.63 549.73 477.39 548.34 470.26 536.07"/><polygon class="cls-4" points="319.82 401.63 303.65 395.57 172.04 388.41 321.94 424.4 340.48 420.23 319.82 401.63"/><polygon class="cls-4" points="437.29 440.24 466.32 441.82 466.44 439.95 449.72 437.23 437.29 440.24"/><polygon class="cls-3" points="350.55 544.83 346.34 622.32 376.77 495.57 375.73 490.69 350.55 544.83"/><polygon class="cls-5" points="390.18 459.61 375.73 490.69 376.77 495.57 413.29 666.6 407.7 481.37 407.36 470.06 390.18 459.61"/><polygon class="cls-5" points="366.07 384.51 363.66 377.54 362.39 377.48 362.54 383.85 366.07 384.51"/><polygon class="cls-5" points="475.54 420.94 493.45 405.81 443.46 408.04 475.54 420.94"/><polygon class="cls-5" points="428.44 442.39 437.29 440.24 449.72 437.23 422.23 432.76 424.11 438.43 428.44 442.39"/><polygon class="cls-5" points="344.45 454.9 347.19 450.76 337.45 455.32 344.45 454.9"/><polygon class="cls-5" points="343.04 422.54 340.48 420.23 321.94 424.4 128.6 467.93 289.55 458.21 343.04 422.54"/><polygon class="cls-5" points="366.58 443.74 365.07 442.38 347.19 450.76 344.45 454.9 339.3 462.69 226.29 633.59 351.24 498.57 366.58 443.74"/><polygon class="cls-5" points="342.38 380.08 336.17 376.21 316.68 375.27 342.38 380.08"/><polygon class="cls-5" points="319.82 401.63 340.48 420.23 343.04 422.54 354.76 414.72 319.82 401.63"/><polygon class="cls-5" points="424.11 438.43 441.48 490.82 443.16 491.84 462.27 503.47 464.14 474.99 428.44 442.39 424.11 438.43"/><polygon class="cls-5" points="390.18 459.61 407.36 470.06 408.44 470.72 395.37 448.46 390.18 459.61"/><polygon class="cls-5" points="365.07 442.38 366.58 443.74 367.24 441.36 365.07 442.38"/><polygon class="cls-6" points="347.19 450.76 365.07 442.38 367.24 441.36 372.8 421.49 354.76 414.72 343.04 422.54 289.55 458.21 190.92 523.99 273.25 485.41 337.45 455.32 347.19 450.76"/><polygon class="cls-6" points="432.89 403.79 463.96 382.39 420.82 380.31 416.16 397.05 432.89 403.79"/><polygon class="cls-6" points="366.07 384.51 385.24 388.1 389.62 378.8 363.66 377.54 366.07 384.51"/><polygon class="cls-6" points="424.11 438.43 422.23 432.76 404.05 429.8 395.37 448.46 408.44 470.72 427.95 503.95 469.01 573.88 456.31 535.58 441.48 490.82 424.11 438.43"/><polygon class="cls-6" points="432.89 403.79 416.16 397.05 411.49 413.79 404.05 429.8 422.23 432.76 449.72 437.23 466.44 439.95 467.23 427.95 475.54 420.94 443.46 408.04 432.89 403.79"/><polygon class="cls-6" points="354.76 414.72 372.8 421.49 377.59 404.37 385.24 388.1 366.07 384.51 362.54 383.85 342.38 380.08 316.68 375.27 239.54 371.54 303.65 395.57 319.82 401.63 354.76 414.72"/><polygon class="cls-6" points="390.18 459.61 395.37 448.46 404.05 429.8 411.49 413.79 416.16 397.05 420.82 380.31 389.62 378.8 385.24 388.1 377.59 404.37 372.8 421.49 367.24 441.36 366.58 443.74 351.24 498.57 319.82 610.91 350.55 544.83 375.73 490.69 390.18 459.61"/><path class="cls-7" d="M752.62,203.61,71.86,61.51C36.45,54.12,6.31,87.79,17.55,122.16l91.88,281.06a47,47,0,0,0,49.18,32.2l623.64-59.66a4.91,4.91,0,0,0,4.43-4.74L790,251A47,47,0,0,0,752.62,203.61Z"/><path class="cls-8" d="M752.62,203.61,71.86,61.51C36.45,54.12,6.31,87.79,17.55,122.16l91.88,281.06a47,47,0,0,0,49.18,32.2l623.64-59.66a4.91,4.91,0,0,0,4.43-4.74L790,251A47,47,0,0,0,752.62,203.61ZM307.78,370.75s-26.86-2.24-55.91-1.65a298.05,298.05,0,0,0-38.34,3.11c-42-116.63-79.78-200.8-111.93-269.91A112.93,112.93,0,0,0,122,108.79a159.09,159.09,0,0,0,34.81,3.86c41.28,131.88,60.37,190.5,70.68,191,10.1.49,12.86-53.83,18-162.06,0,0,10.57,2.73,25.68,6.06,25,5.51,61.06,12.36,80.93,12.07C323.73,269.33,307.78,370.75,307.78,370.75Zm134.92,3c-58.09,1.87-71.44-33.82-78.85-87.1-8.43-60.85-8.22-115.35,70.14-98.55,48.14,10.33,69.19,39.44,66.77,91.19-1.13,25.67-7,26.71-52.61,25.64-40.34-.86-44.5,1.45-43.9,13.91.46,13.31,6.69,18.45,21.6,18.69,14.21.53,14.86-7.88,12.94-19.76,18.61,4.95,55.32,1.81,71.15-.25C510.56,366.21,489.61,372.24,442.7,373.74Zm174.44-93.66c-10.29.92-43.65-3.8-52.69-4.88.64-19,.15-26.4-9.1-28.17-9.28-1.51-12.93,15.83-11.63,39.33,2.27,39.38,7.45,49.86,23.6,51.46,13.11,1.23,15.25-4.1,15.59-11.43.56-12.27-1.48-10.66-27-13.64a212.92,212.92,0,0,0,.34-24.63c9.81,3.53,32.45,6.63,58.67,6.44.55,52.92-13.64,68.53-43.39,67-41.34-2.09-49.31-29.18-52.14-78.7-2.8-51.79-1.11-97.83,53.13-84.49C613.24,208.13,621.6,223,617.14,280.08Zm74.67,16.34s-3.37,50.17-1.25,60.11c-18.06,7-32.43,7.38-32.43,7.38-22.28,5-31.55-5.85-30.58-47,.49-20.66,7.94-35.78,20.77-33.51,6.7,1,25.23,5.89,28.72.54,2-2.93,4.15-20.59-6.77-22.67-6.62-1.35-9,4.71-8.62,13.41-9.11-4.45-26.25-4.21-36.41-3.07-.35-43.35,10-45.17,37.09-39.13C688.71,238.41,694.24,260.38,691.81,296.42Zm63,7.14S742,294,725.92,293.37c.44-5.93.75-10.15-7.2-11.3-6.21-.89-8.22,3.83-8.25,10s2.58,11.55,27.21,13.94c9.62.94,15.67,6.55,14.07,26.21-1.78,22.29-8.64,29.61-23.75,29.83-18.86.12-30-7.77-29.24-38.93,7.18,4.9,18.86,5.62,18.86,5.62-.8,7,1.48,9.37,5.28,9.46,3.49.09,5.78-1.71,6.32-6.89.95-9.09-2.18-9.66-9-11.61-7.74-2-19-4-19.4-32.26-.67-52.62,20.73-47,33.34-44C757.5,248.91,758.44,271.27,754.8,303.56Z"/><path class="cls-8" d="M654.57,297.06c-12.32-1.22-13.13,4.79-13.53,12.18-.4,7.14-.16,13.18,12.2,13.8,11.81.59,12.52-5.12,12.85-11.94C666.43,304.05,666.26,298.22,654.57,297.06Z"/><path class="cls-8" d="M435.52,267c-.07-10.34-1.22-18.67-29.06-22.42-30-4-30.47,4.72-29.46,16s2.81,20,31.24,22.46C434.74,285.26,435.76,277.28,435.52,267Z"/><polygon class="cls-9" points="1117.25 96.34 857.94 323.81 509.93 0.95 857.94 191.73 1117.25 96.34"/><polygon class="cls-10" points="508.23 0 866.14 283.64 1030.6 195.73 850.23 356.4 508.23 0"/><path class="cls-11" d="M512.89,588.41c-36.48-2.83-42-43.67-44.18-93.38s.47-90.51,45.13-97.7c50.45-8.11,53.44,37,50,93.77C560.37,546.9,553,591.52,512.89,588.41Z"/><path class="cls-11" d="M637.49,603.33c-50.2-4.17-57.52-50.66-60.34-107.83-2.8-56.63.94-103.51,62.39-113,71.09-11,75,42.2,70,108.33C704.28,556.43,693.8,608,637.49,603.33Z"/><path class="cls-11" d="M811.9,611.56c-70.19-5.43-80.09-60.51-83.71-127.26S730,362.57,815.93,348.74c102.19-16.43,107.56,47.3,99.86,127.79C907.83,555.31,892.36,617.8,811.9,611.56Z"/><path class="cls-11" d="M1067.42,620c-105-7.26-119.29-74.09-124.21-155s3.33-147.75,132.06-169.54c159.33-27,167.41,53.3,154.54,155.27C1216.6,550.18,1191.73,628.61,1067.42,620Z"/><path class="cls-4" d="M493.69,580.51c-36.48-2.82-42-43.67-44.18-93.37s.47-90.52,45.13-97.7c50.45-8.12,53.44,37,50,93.76C541.17,539,533.83,583.62,493.69,580.51Z"/><path class="cls-4" d="M618.29,595.44c-50.2-4.18-57.52-50.67-60.34-107.83-2.8-56.63.94-103.52,62.39-113,71.09-11,75,42.2,70,108.33C685.08,548.54,674.6,600.12,618.29,595.44Z"/><path class="cls-4" d="M792.7,603.67c-70.19-5.44-80.09-60.51-83.71-127.27s1.78-121.73,87.74-135.55c102.19-16.44,107.56,47.29,99.86,127.79C888.63,547.42,873.16,609.9,792.7,603.67Z"/><path class="cls-4" d="M1048.22,612.13c-105-7.26-119.29-74.1-124.21-155s3.33-147.75,132.06-169.54c159.33-27,167.41,53.29,154.54,155.27C1197.4,542.28,1172.53,620.71,1048.22,612.13Z"/><path class="cls-7" d="M514.79,449.23c-2.16,3.32-2.54,14.64-5,11.68-2.66-3.55,2-7.66,3.25-14,.9-4.16-.53-8.43-5.17-8s-5.82,4.9-5.12,8.87c.69,4.9,4.91,9.86,2.79,12.82-3,4.24-3.15-6.59-5.07-10.46-.86-1.78-2.25-2.58-3.46-1.55l.54-13.3c-26.76,5.15-29.82,2.78-29.82,2.78,3.36,29.15,2.51,95.38,2.51,95.38,23.05-2.3,48.76,3.46,48.76,3.46a208.4,208.4,0,0,1,1.34-29c-19.44,5.8-24.46,4-24.59-23.29,1.89,2.69,3.62,2,4.84-.2,2.28-4.43,1.95-14.94,4.75-12,2.47,2.66-2.12,8.48-3,13.47-.88,3.74.33,8,5.08,7.89s5.71-4.25,5.18-8.3c-.52-5-5.85-10-3.19-13.29,3-3.62,3.38,9.21,5.53,12.57,1.62,2.45,4.35,2.66,6.74-4.71,2.22-7.41.57-10.81-1.62-11.94-2.55-.79-8.15,3-8.14-1.39,0-5.32,5.77-.68,8.33-2.1,2.38-1.43,4.23-6,1.67-12.8C519.34,444.74,516.42,446.57,514.79,449.23Z"/><path class="cls-7" d="M659.74,475.85c2-38.62-5.58-59.7-36.87-56.37-27.14,2.88-36.43,7.3-35.73,44.19,9.29-2.64,26.17-6.18,36-4-.65-8.14.08-14.24,7.53-14.83,12.85-.64,10.82,17.66,8.41,21.06-3.84,6-22.87,4.44-29.86,4.46-12.6,0-19.36,14.72-19.66,33.22-.37,37.25,8.44,48.16,31.51,44.41,0,0,16.34.52,39.27-6.12C657.16,530.79,659.74,475.85,659.74,475.85Z"/><path class="cls-7" d="M850.18,467.46c2.79-52.47-7.59-77.53-52.76-67.82-19.86,3.79-39,7.05-52.75,4.46A552.34,552.34,0,0,1,747,472c-.61,34.62-2.68,68.31-2.68,68.31,10.43-1.81,27.5.57,27.5.57s-3.48-56.26-2.68-75.2c.52-21-.57-36.59,14.48-39.51,15.82-3.45,14.67,12.72,14.43,35.13-.83,79.27,6.35,80.68,6.35,80.68,22.2-3.41,46.27,1.42,46.27,1.42S847,523.54,850.18,467.46Z"/><path class="cls-7" d="M1068.88,353c-23.4,3.85-86.4,16.81-95.68,18.86,8.13,42,15.29,94.92,8.85,162.55,44.75,9.2,71.29,12.29,95.38,12.26,20.21-.12,52.68-9.87,61.55-90.86C1150.06,355.57,1110.09,345.37,1068.88,353Z"/><path class="cls-4" d="M614.87,507.75c-12.52.15-12.71-5.4-12.46-12.35s.94-12.54,13.49-13c12.91-.51,13.11,5.21,13.07,12.36C628.7,501.88,628,507.6,614.87,507.75Z"/><path class="cls-4" d="M1058.85,516.14c-26.33.05-29.77-21.36-30.27-47.35s2.25-47.13,31.55-49.25c30.6-2.21,32.79,19.58,31.74,46.9C1090.3,493.7,1086.24,516.09,1058.85,516.14Z"/><path class="cls-4" d="M496.08,468.94v-2.46c3.11.11,7.13-4.18,7.3.15C503.72,471.57,498.67,468.78,496.08,468.94Z"/></svg>