<?xml version="1.0" encoding="utf-8"?>
<!-- Generator: Adobe Illustrator 25.0.0, SVG Export Plug-In . SVG Version: 6.00 Build 0)  -->
<svg version="1.1" id="Layer_1" xmlns="http://www.w3.org/2000/svg" xmlns:xlink="http://www.w3.org/1999/xlink" x="0px" y="0px"
	 viewBox="0 0 965.9 717.4" style="enable-background:new 0 0 965.9 717.4;" xml:space="preserve">
<style type="text/css">
	.st0{fill:#D1CA53;}
	.st1{fill:#EDC775;}
	.st2{fill:#DA5C47;}
	.st3{fill:#E27A67;}
	.st4{fill:#FFFFFF;}
	.st5{fill:#A6C1BB;}
	.st6{fill:#65AB99;}
	.st7{fill:none;stroke:#FFF4DC;stroke-width:4;stroke-miterlimit:10;}
	.st8{fill:none;stroke:#FF7900;stroke-width:8;stroke-miterlimit:10;}
	.st9{fill:#AB855B;}
	.st10{fill:#FFE8C7;}
	.st11{fill:#FFE8DC;}
	.st12{fill:#FCC8B6;}
</style>
<path class="st0" d="M699.8,495.2c0.7,0.7,1.3,1.4,2,2.1c1.8-2.3,3.6-4.6,5.3-7l0.1-3.3c-2.5-0.3-5.1-0.5-7.6-0.7
	C699.7,489.3,699.8,492.2,699.8,495.2z"/>
<path class="st0" d="M704.8,500.6l1.9,2.1l0.2-8.6c-1.2,1.6-2.5,3.2-3.8,4.8C703.7,499.4,704.3,500,704.8,500.6z"/>
<path class="st0" d="M696,507.2l-2.2,2.4c1.8-0.1,3.6-0.2,5.4-0.3c0.1-2,0.2-4.1,0.2-6.1C698.3,504.6,697.2,505.9,696,507.2z"/>
<path class="st0" d="M689.7,485.5c-1.6-1.5-3.2-3-4.8-4.5c-1.5,1.5-3,3-4.5,4.6c1.5,0,2.9-0.1,4.4-0.1
	C686.5,485.5,688.1,485.5,689.7,485.5z"/>
<path class="st0" d="M689.4,511.8c-1.5,0-2.9,0-4.3,0h-2.8c1.3,1.2,2.5,2.4,3.8,3.5C687.2,514.2,688.3,513,689.4,511.8z"/>
<path class="st0" d="M694.4,489.7c1.7,1.7,3.5,3.5,5.2,5.2c0-2.9-0.1-5.8-0.3-8.7c-2.9-0.2-5.9-0.3-8.8-0.4
	C691.8,487.1,693.1,488.4,694.4,489.7z"/>
<path class="st0" d="M699.8,499.7c0.6-0.7,1.1-1.4,1.7-2.1c-0.6-0.6-1.1-1.2-1.7-1.9c0,1,0,1.9,0,2.9
	C699.8,499,699.8,499.4,699.8,499.7z"/>
<path class="st0" d="M657.2,484.6c0.6,0.8,1.3,1.6,1.9,2.4c3.6-0.4,7.1-0.7,10.7-0.9c1.4-0.1,2.8-0.2,4.1-0.2
	c0.2-4.4,0.6-8.7,1.1-13.1c-1.2-0.9-2.3-1.8-3.5-2.7c-4-3-8.2-5.7-12.6-8.2c-2.2-1.2-4.4-2.2-6.8-3.1c-1.1-0.4-2.3-0.7-3.5-0.8
	c-1.7-0.5-3.4,0.5-3.8,2.2c-0.2,0.6-0.2,1.1,0,1.7c0.1,1.2,0.4,2.4,0.8,3.5c0.8,2.3,1.9,4.6,3.2,6.7l0.8,1.3c0.5-0.1,1-0.2,1.5-0.2
	c2.9,0,5.2,2.4,5.2,5.3c0,1.2-0.4,2.3-1.2,3.2C655.7,482.7,656.4,483.7,657.2,484.6z"/>
<path class="st0" d="M691.9,511.8c-1.5,1.6-3,3.2-4.5,4.7c2.8,2.4,5.6,4.8,8.4,7c0.6-0.7,1.4-1.2,2.3-1.5c0.4-3.5,0.8-7,1-10.5
	C696.7,511.6,694.3,511.7,691.9,511.8z"/>
<path class="st0" d="M675.7,508.2c0,0.6,0,1.1,0.1,1.7h1.7L675.7,508.2L675.7,508.2z"/>
<path class="st0" d="M669.1,498.7c1.4,1.6,2.9,3.1,4.4,4.6c0-1.6,0-3.1,0-4.7c0-1.8,0-3.5,0.1-5.3
	C672.1,495.1,670.6,496.9,669.1,498.7z"/>
<path class="st0" d="M675.7,486c-0.1,1.6-0.1,3.1-0.2,4.7l0.7-0.9c1.2-1.4,2.4-2.7,3.6-4C678.4,485.9,677,486,675.7,486z"/>
<path class="st0" d="M685,510c2.1,0,4.1-0.1,6.2-0.2c1.1-1.3,2.3-2.5,3.4-3.8c1.7-2,3.3-3.9,5-6c0-0.5,0-0.9,0-1.4v-3.1
	c-1.8-1.9-3.5-3.8-5.3-5.6c-1.3-1.3-2.7-2.7-4.1-4c-1.7,0-3.5-0.1-5.2-0.1c-1.5,0-3.1,0-4.6,0.1c-1.3,1.4-2.6,2.8-3.8,4.2l-0.9,1.1
	c-0.1,2.5-0.1,5-0.1,7.5c0,2.3,0.1,4.5,0.2,6.8l1.6,1.6c1,1,2.1,2,3.1,3C681.8,510,683.4,510,685,510z"/>
<path class="st0" d="M684.6,516.9c-1.8-1.7-3.6-3.3-5.3-5.1c-1.2,0-2.3,0-3.4-0.1c0.2,4.2,0.6,8.4,1.1,12.6
	C679.6,521.9,682.1,519.4,684.6,516.9z"/>
<path class="st0" d="M673.6,506c-1.9-1.9-3.7-3.9-5.5-5.9l-1.2,1.5c-1.9,2.4-3.7,4.9-5.4,7.4c4.1,0.4,8.2,0.6,12.3,0.7
	C673.6,508.6,673.6,507.3,673.6,506z"/>
<path class="st0" d="M650.8,527.1c-1.1,2.2-1.9,4.6-2.6,7c-0.3,1.2-0.5,2.4-0.5,3.6c-0.3,1.7,0.7,3.3,2.4,3.7
	c0.6,0.1,1.2,0.1,1.7-0.1c1.2-0.2,2.3-0.6,3.4-1.1c2.3-1,4.4-2.2,6.5-3.6c4.1-2.8,8.1-5.9,11.8-9.2l1.3-1.2
	c-0.5-4.8-0.9-9.7-1.1-14.6c-4.5-0.2-8.9-0.5-13.4-1c-0.8,1.1-1.5,2.2-2.2,3.3C655.4,518.2,653,522.6,650.8,527.1z"/>
<path class="st0" d="M680.5,543.1c0.6,2.4,1.5,4.7,2.5,6.9c0.5,1,1.1,2,1.8,2.9c0.5,0.8,1.3,1.3,2.3,1.4c0.9-0.1,1.8-0.6,2.3-1.4
	c0.7-0.9,1.4-1.9,1.9-2.9c1.1-2.2,2-4.5,2.6-6.8c1.2-3.9,2.1-8,2.8-12c-1.8-1.3-2.6-3.5-2-5.6c-3-2.4-5.9-5-8.8-7.6
	c-2.8,2.8-5.7,5.6-8.7,8.2c0.1,0.8,0.2,1.5,0.3,2.3C678.2,533.4,679.2,538.3,680.5,543.1z"/>
<path class="st0" d="M706.1,531.1l0.4-20.2c-2.3,0.2-4.6,0.4-7,0.5c0,0.7,0,1.5-0.1,2.3c-0.1,2.7-0.3,5.4-0.5,8.1c0.2,0,0.4,0,0.6,0
	c2.9,0,5.2,2.3,5.2,5.2c0,0,0,0,0,0c0,1-0.3,1.9-0.8,2.8C704.8,530.2,705.5,530.7,706.1,531.1z"/>
<path class="st0" d="M706.7,503.8c-1.3-1.5-2.6-3.1-3.9-4.6c-1,1.2-2,2.5-3,3.7c0,2.2-0.1,4.3-0.1,6.5c2.3-0.2,4.6-0.4,6.9-0.6
	L706.7,503.8z"/>
<path class="st0" d="M690.1,485.5c3,0,6.1,0.1,9.2,0.2c0-0.7-0.1-1.4-0.1-2.1c-0.3-4.8-0.8-9.5-1.5-14.2c-4.4,3.6-8.6,7.5-12.6,11.5
	C686.8,482.4,688.4,484,690.1,485.5z"/>
<path class="st0" d="M691.8,447c-0.5-1.1-1.2-2.1-2-3c-0.8-1.5-2.7-2-4.2-1.2c-0.5,0.3-0.9,0.7-1.2,1.2c-0.8,0.9-1.4,2-1.9,3.1
	c-1,2.2-1.9,4.6-2.5,7c-1.3,4.8-2.2,9.7-2.8,14.7c-0.2,1.6-0.4,3.2-0.5,4.8c2.3,1.9,4.6,3.9,6.8,5.9l1.3,1.2
	c0.6-0.6,1.1-1.2,1.7-1.8c3.5-3.6,7-7.2,10.8-10.6l0.3-0.2c-0.7-4.7-1.7-9.4-3-14C693.7,451.6,692.8,449.2,691.8,447z"/>
<path class="st0" d="M699.4,483.6c0,0.7,0.1,1.4,0.1,2.2h0.5c2.4,0.1,4.8,0.2,7.2,0.4l0.5-24.2c-3.3,2.2-6.5,4.6-9.6,7.2
	C698.7,473.9,699.1,478.7,699.4,483.6z"/>
<path class="st0" d="M640.2,491.3c-2.4,0.7-4.7,1.6-6.9,2.7c-1.1,0.5-2.1,1.2-3,2c-1.5,0.9-2,2.8-1.1,4.3c0.3,0.5,0.7,0.9,1.2,1.2
	c0.9,0.8,2,1.4,3.1,1.9c2.3,1,4.6,1.8,7,2.5c4.8,1.2,9.8,2.2,14.7,2.7c2,0.2,3.9,0.4,5.9,0.6c1.8-2.5,3.7-5.1,5.7-7.5
	c0.4-0.5,0.8-1.1,1.2-1.6c-3.6-4-7-8.1-10.3-12.3c-0.9,0.1-1.8,0.2-2.7,0.4C649.9,488.8,645,489.9,640.2,491.3z"/>
<path class="st0" d="M673.6,492.9c0.1-2.3,0.2-4.5,0.3-6.8c-1.4,0.1-2.7,0.1-4.1,0.2c-3.5,0.3-7,0.6-10.4,1.1
	c3.1,3.8,6.3,7.5,9.6,11.1C670.5,496.7,672,494.8,673.6,492.9z"/>
<path class="st0" d="M680,485.6c1.5-1.7,3-3.3,4.5-4.9c-0.4-0.4-0.8-0.8-1.3-1.2c-2.2-1.9-4.4-3.8-6.7-5.6
	c-0.4,3.9-0.7,7.9-0.9,11.9C677.1,485.7,678.5,485.7,680,485.6z"/>
<path class="st1" d="M235.8,207.2c-1.6-1.5-3.2-3-4.9-4.5c-1.5,1.5-3,3-4.4,4.6c1.5,0,2.9-0.1,4.4-0.1
	C232.5,207.2,234.1,207.2,235.8,207.2z"/>
<path class="st1" d="M245.6,208c0.1,3,0.2,5.9,0.3,8.9c0.7,0.7,1.3,1.4,2,2.1c2.6-3.3,5.1-6.6,7.5-10.1
	C252.1,208.5,248.8,208.2,245.6,208z"/>
<path class="st1" d="M240.4,211.4c1.7,1.7,3.5,3.5,5.2,5.2c0-2.9-0.1-5.8-0.3-8.7c-2.9-0.2-5.9-0.3-8.8-0.4
	C237.8,208.8,239.1,210.1,240.4,211.4z"/>
<path class="st1" d="M245.9,221.4c0.6-0.7,1.1-1.4,1.7-2.1c-0.6-0.6-1.1-1.2-1.7-1.9v2.9C245.9,220.6,245.9,221,245.9,221.4z"/>
<path class="st1" d="M248.9,220.9c-1,1.2-2,2.4-3.1,3.7c0,2.2,0,4.3-0.1,6.5c3.6-0.3,7.1-0.6,10.6-1.1
	C254,226.8,251.5,223.8,248.9,220.9z"/>
<path class="st1" d="M242.1,228.9l-2.2,2.4c1.8-0.1,3.6-0.2,5.4-0.3c0.1-2,0.2-4.1,0.3-6.1C244.4,226.2,243.2,227.6,242.1,228.9z"/>
<path class="st1" d="M235.4,233.5c-1.4,0-2.9,0-4.3,0h-2.8c1.3,1.2,2.6,2.4,3.8,3.5C233.2,235.8,234.3,234.7,235.4,233.5z"/>
<path class="st1" d="M203.2,206.2c0.6,0.8,1.3,1.6,1.9,2.4c3.6-0.4,7.1-0.7,10.7-0.9l4.1-0.2c0.2-4.4,0.6-8.7,1.1-13.1
	c-1.2-0.9-2.3-1.8-3.5-2.7c-4-3-8.2-5.7-12.6-8.2c-2.2-1.2-4.4-2.2-6.8-3.1c-1.1-0.4-2.3-0.7-3.5-0.8c-1.7-0.5-3.4,0.5-3.8,2.2
	c-0.2,0.6-0.1,1.1,0,1.7c0.1,1.2,0.4,2.4,0.8,3.5c0.9,2.3,1.9,4.6,3.2,6.7c0.2,0.4,0.5,0.9,0.8,1.3c0.5-0.1,1-0.2,1.4-0.2
	c2.9,0,5.2,2.4,5.2,5.3c0,1.2-0.4,2.3-1.2,3.2C201.8,204.4,202.5,205.3,203.2,206.2z"/>
<path class="st1" d="M237.9,233.4c-1.5,1.6-3,3.2-4.5,4.7c2.8,2.4,5.6,4.8,8.4,7c0.6-0.7,1.4-1.2,2.3-1.5c0.4-3.5,0.8-7,1-10.5
	C242.7,233.3,240.3,233.4,237.9,233.4z"/>
<path class="st1" d="M265.3,228.6l-0.1-18.2c-1.4-0.3-2.9-0.5-4.3-0.7c-1-0.2-2-0.3-3.1-0.4c-2.7,3.8-5.6,7.6-8.6,11.2
	c0.6,0.6,1.1,1.2,1.7,1.8c2.3,2.5,4.5,5,6.7,7.5c1.1-0.1,2.3-0.3,3.4-0.5C262.4,229.1,263.9,228.8,265.3,228.6z"/>
<path class="st1" d="M231.1,231.6c2.1,0,4.1-0.1,6.2-0.2c1.1-1.3,2.3-2.5,3.4-3.8c1.7-2,3.4-3.9,5-5.9c0-0.5,0-0.9,0-1.4
	c0-1,0-2.1,0-3.1c-1.7-1.9-3.5-3.8-5.3-5.6c-1.3-1.3-2.7-2.7-4.1-4c-1.7,0-3.5-0.1-5.2-0.1c-1.5,0-3.1,0-4.6,0.1
	c-1.3,1.4-2.6,2.8-3.8,4.2l-0.9,1.1c-0.1,2.5-0.1,5-0.1,7.5c0,2.3,0.1,4.5,0.1,6.8c0.5,0.5,1,1.1,1.6,1.6c1,1,2.1,2,3.1,3
	C227.9,231.6,229.5,231.6,231.1,231.6z"/>
<path class="st1" d="M221.7,229.9c0,0.6,0,1.1,0.1,1.7h1.7l-1.6-1.6L221.7,229.9z"/>
<path class="st1" d="M215.2,220.4c1.4,1.6,2.9,3.1,4.4,4.6c0-1.6,0-3.1,0-4.7c0-1.8,0.1-3.5,0.1-5.3
	C218.1,216.8,216.6,218.6,215.2,220.4z"/>
<path class="st1" d="M221.7,207.7c-0.1,1.6-0.1,3.1-0.2,4.7l0.7-0.9c1.2-1.4,2.4-2.7,3.6-4C224.4,207.6,223.1,207.6,221.7,207.7z"/>
<path class="st1" d="M219.6,227.7c-1.9-1.9-3.7-3.9-5.5-5.9c-0.4,0.5-0.8,1-1.2,1.5c-1.9,2.4-3.7,4.9-5.4,7.4
	c4.1,0.4,8.2,0.6,12.3,0.7C219.7,230.2,219.6,229,219.6,227.7z"/>
<path class="st1" d="M226.5,264.8c0.6,2.4,1.5,4.6,2.5,6.9c0.5,1,1.1,2,1.8,2.9c0.5,0.8,1.4,1.3,2.3,1.4c0.9-0.1,1.8-0.6,2.3-1.4
	c0.7-0.9,1.4-1.9,1.9-2.9c1.1-2.2,2-4.5,2.6-6.8c1.2-3.9,2.1-8,2.8-12c-1.8-1.3-2.6-3.5-2-5.6c-3-2.4-5.9-5-8.8-7.6
	c-2.8,2.8-5.7,5.6-8.7,8.2c0.1,0.8,0.2,1.6,0.3,2.3C224.2,255.1,225.2,260,226.5,264.8z"/>
<path class="st1" d="M230.6,238.5c-1.8-1.7-3.6-3.4-5.3-5.1c-1.1,0-2.3,0-3.4-0.1c0.2,4.2,0.6,8.4,1.1,12.6
	C225.6,243.5,228.2,241.1,230.6,238.5z"/>
<path class="st1" d="M196.9,248.7c-1.1,2.2-1.9,4.6-2.6,7c-0.3,1.2-0.5,2.4-0.5,3.6c-0.1,1.1,0.3,2.2,1,3c0.9,0.6,2,0.8,3.1,0.6
	c1.2-0.2,2.4-0.6,3.4-1.1c2.3-1,4.4-2.2,6.5-3.6c4.1-2.8,8.1-5.9,11.8-9.2l1.3-1.2c-0.6-4.8-0.9-9.7-1.1-14.6
	c-4.5-0.2-8.9-0.5-13.4-1c-0.8,1.1-1.5,2.2-2.2,3.4C201.4,239.8,199,244.2,196.9,248.7z"/>
<path class="st1" d="M258.2,256.5c2.1,1.2,4.3,2.3,6.6,3.1l0.6,0.2l-0.1-16.9c-1.8-2.9-3.6-5.7-5.6-8.5c-0.6-0.8-1.2-1.6-1.8-2.4
	c-4.1,0.5-8.2,0.8-12.3,1.1c0,0.8,0,1.5-0.1,2.2c-0.1,2.7-0.3,5.4-0.5,8.1c0.2,0,0.4,0,0.6,0c2.9,0,5.2,2.3,5.2,5.1
	c0,1-0.3,2-0.8,2.9C252.8,253.2,255.5,255,258.2,256.5z"/>
<path class="st1" d="M259.3,231.9c0.5,0.6,1,1.2,1.5,1.8c1.6,2,3.1,4,4.6,6.1l-0.1-8.8c-1.3,0.2-2.7,0.4-4,0.6L259.3,231.9z"/>
<path class="st1" d="M114.8,473.5c-7-22,53.5-62.6,151.3-106.2l-0.6-105c-0.5-0.1-1-0.3-1.4-0.4c-2.4-0.9-4.8-2-7-3.2
	c-3-1.7-5.9-3.6-8.6-5.6c-1.3,0.8-2.9,1-4.3,0.5c-0.5,4-1.3,7.9-2.2,11.8c-0.6,2.5-1.5,4.9-2.6,7.3c-0.6,1.2-1.3,2.4-2.1,3.4
	c-0.2,0.3-0.5,0.5-0.7,0.8c-0.3,0.3-0.6,0.5-0.9,0.7c-0.7,0.5-1.6,0.7-2.4,0.8c-0.9,0-1.7-0.3-2.4-0.8c-0.3-0.2-0.6-0.4-0.9-0.7
	l-0.8-0.8c-0.9-1-1.6-2.2-2.2-3.4c-1.1-2.3-2-4.8-2.7-7.3c-1.3-4.9-2.3-9.9-2.9-14.9l-0.1-0.8l-0.6,0.5c-3.8,3.3-7.9,6.4-12.1,9.2
	c-2.1,1.4-4.4,2.6-6.7,3.6c-1.2,0.5-2.5,0.9-3.8,1.1l-1,0.1c-0.3,0-0.7,0-1-0.1c-1.5-0.2-2.8-1.3-3.1-2.8c-0.1-0.3-0.2-0.7-0.2-1
	c0-0.3,0-0.7,0-1c0.1-1.3,0.3-2.6,0.6-3.8c0.7-2.4,1.7-4.8,2.8-7.1c2.3-4.5,4.9-8.8,7.7-13c0.7-1.1,1.4-2.1,2.1-3.1
	c-1.7-0.2-3.4-0.4-5-0.6c-5-0.7-10-1.7-14.9-3c-2.5-0.7-4.9-1.5-7.2-2.6c-1.2-0.6-2.3-1.3-3.3-2.1c-0.2-0.2-0.5-0.5-0.7-0.7
	c-0.2-0.3-0.4-0.5-0.6-0.8c-0.4-0.6-0.6-1.4-0.7-2.1c0-0.7,0.3-1.5,0.7-2.1c0.2-0.3,0.4-0.6,0.6-0.8l0.7-0.7c1-0.8,2.1-1.5,3.3-2.1
	c2.3-1.1,4.7-1.9,7.2-2.6c4.9-1.3,9.8-2.3,14.8-2.9c0.8-0.1,1.6-0.2,2.5-0.3c-0.4-0.6-0.9-1.1-1.3-1.7c-0.7-0.9-1.3-1.8-2-2.7
	c-0.9,0.6-1.9,0.9-2.9,0.9c-2.9,0-5.2-2.3-5.2-5.2c0-1.8,0.9-3.5,2.5-4.4c-0.2-0.4-0.5-0.8-0.7-1.2c-1.3-2.2-2.3-4.6-3.2-6.9
	c-0.4-1.2-0.7-2.5-0.9-3.8c0-0.3,0-0.7,0-1c0-0.3,0.1-0.7,0.1-1c0.1-0.7,0.5-1.4,1-1.9c0.6-0.5,1.2-0.9,2-1c0.3-0.1,0.7-0.1,1-0.1h1
	c1.3,0.1,2.6,0.4,3.8,0.9c2.4,0.9,4.7,2,6.9,3.3c4.3,2.6,8.5,5.4,12.5,8.6c1.1,0.8,2.2,1.7,3.2,2.6c0.2-1.3,0.3-2.5,0.5-3.8
	c0.7-5,1.7-10,3.1-14.9c0.7-2.5,1.6-4.9,2.7-7.2c0.6-1.2,1.3-2.3,2.1-3.3c0.2-0.2,0.5-0.5,0.7-0.7c0.3-0.2,0.6-0.4,0.8-0.6
	c0.6-0.4,1.4-0.6,2.1-0.6c0.7,0,1.5,0.3,2.1,0.7c0.3,0.2,0.6,0.4,0.8,0.6l0.7,0.7c0.8,1,1.5,2.1,2,3.3c1.1,2.3,1.9,4.7,2.6,7.2
	c1.2,4.5,2.1,9.1,2.6,13.8c3.5-3.2,7.1-6.1,11-8.8c2.1-1.5,4.4-2.7,6.7-3.8c1-0.5,2.1-0.8,3.2-1.1l-0.8-139.2L61,66.3l22.8,524.2
	l183.7,6.5l-0.7-117.9C179.6,493.9,121,493.1,114.8,473.5z M118.6,332.5c1.8,0,3.3,1.4,3.4,3.2c6-0.3,18.3-0.6,32.5-0.7l0.2-0.1
	c-9.6-16.8-17.5-31.2-20.5-37.2c-1.7,0.8-3.7,0-4.5-1.7c-0.8-1.7,0-3.7,1.7-4.5c1.7-0.8,3.7,0,4.5,1.7c0.6,1.5,0.2,3.2-1.1,4.1
	c3.5,5.5,11.6,19.1,20.8,35.3c6.2-17.8,11.8-32.7,14.3-38.6c-1.5-1.1-1.9-3.2-0.7-4.7c1.1-1.5,3.2-1.9,4.7-0.7s1.9,3.2,0.7,4.7
	c-0.6,0.9-1.6,1.4-2.7,1.4c-0.4,0-0.7-0.1-1.1-0.2c-1.7,6.4-6.6,21.6-12.7,39.5c11-3.2,20.6-5.8,26.2-7.2c0-0.1,0-0.2,0-0.4
	c0-1.9,1.5-3.4,3.4-3.5c1.9,0,3.4,1.5,3.4,3.4s-1.5,3.4-3.4,3.5c-1.4,0-2.7-0.9-3.2-2.2c-5.3,1.7-14.1,4.4-24.4,7.5
	c13.4-0.1,24.5,0.1,29.5,0.3c0,0,0-0.1,0-0.1c0-1.9,1.5-3.4,3.4-3.5c1.9,0,3.4,1.5,3.4,3.4s-1.5,3.4-3.4,3.5c-1.6,0-2.9-1-3.3-2.6
	c-5.2,0.4-17.3,0.7-31.7,0.8c9.9,17.3,17.9,31.9,20.3,36.9c1.7-0.8,3.7,0,4.5,1.7c0.8,1.7,0,3.7-1.7,4.5c-1.7,0.8-3.7,0-4.5-1.7
	c-0.7-1.5-0.2-3.3,1.2-4.2c-3-4.6-11.4-18.6-21.1-35.6c-6.4,18.4-12.1,33.6-14.5,38.9c1.6,0.9,2.3,2.9,1.4,4.6
	c-0.9,1.6-2.9,2.3-4.6,1.4s-2.3-2.9-1.4-4.6c0.6-1.1,1.7-1.8,3-1.8c0.3,0,0.5,0,0.8,0.1c1.4-5.7,6.4-21.4,12.9-40h-0.4
	c-13.2,3.8-24.7,7-30.7,8.5c0.1,0.3,0.1,0.6,0.1,0.9c0,1.9-1.5,3.4-3.4,3.5s-3.4-1.5-3.5-3.4c0-1.9,1.5-3.4,3.4-3.5
	c1.3,0,2.5,0.7,3.1,1.8c5.1-1.7,14.4-4.5,25.4-7.8c-11.5,0-21.2-0.1-26.2-0.3c-0.3,1.8-2.1,3.1-3.9,2.7c-1.8-0.3-3.1-2.1-2.7-3.9
	C115.6,333.7,117.1,332.6,118.6,332.5L118.6,332.5z"/>
<path class="st1" d="M219.6,214.6c0.1-2.3,0.2-4.6,0.3-6.8c-1.4,0.1-2.7,0.1-4.1,0.2c-3.5,0.3-7,0.6-10.4,1.1
	c3.1,3.8,6.3,7.5,9.6,11.1C216.5,218.3,218.1,216.4,219.6,214.6z"/>
<path class="st1" d="M236.1,207.2c3.1,0,6.1,0.1,9.1,0.2c0-0.7-0.1-1.4-0.1-2.1c-0.3-4.7-0.8-9.5-1.5-14.2
	c-4.4,3.6-8.6,7.5-12.6,11.5C232.8,204.1,234.5,205.6,236.1,207.2z"/>
<path class="st1" d="M186.2,212.9c-2.4,0.7-4.7,1.6-6.9,2.7c-1.1,0.5-2.1,1.2-3,2c-1.5,0.9-2,2.8-1.1,4.3c0.3,0.5,0.7,0.9,1.2,1.2
	c0.9,0.8,2,1.4,3.1,1.9c2.3,1,4.6,1.9,7,2.5c4.8,1.2,9.8,2.2,14.7,2.7c2,0.2,3.9,0.4,5.9,0.6c1.8-2.6,3.7-5.1,5.7-7.5
	c0.4-0.5,0.8-1.1,1.2-1.6c-3.6-4-7-8.1-10.3-12.3c-0.9,0.1-1.8,0.2-2.7,0.4C196,210.4,191.1,211.5,186.2,212.9z"/>
<path class="st1" d="M237.8,168.6c-0.5-1.1-1.2-2.1-2-3.1c-0.8-1.5-2.7-2-4.2-1.2c-0.5,0.3-0.9,0.7-1.2,1.2c-0.8,0.9-1.4,2-1.9,3.1
	c-1.1,2.2-1.9,4.6-2.5,7c-1.3,4.8-2.2,9.7-2.8,14.7c-0.2,1.6-0.4,3.2-0.6,4.8c2.3,1.9,4.6,3.9,6.8,5.9l1.3,1.2
	c0.6-0.6,1.1-1.2,1.7-1.8c3.5-3.6,7-7.2,10.8-10.6l0.3-0.2c-0.7-4.7-1.7-9.4-3-14C239.8,173.2,238.9,170.8,237.8,168.6z"/>
<path class="st1" d="M256.1,181.9c-4.2,2.6-8.2,5.6-12,8.7c0.6,4.8,1,9.7,1.3,14.6c0,0.7,0.1,1.4,0.1,2.2h0.5
	c3.3,0.1,6.7,0.3,10,0.6c1-1.4,1.9-2.8,2.8-4.2c2.2-3.4,4.3-6.9,6.1-10.4c-2.3-1.8-2.7-5-1-7.3c0.3-0.4,0.6-0.7,1-1l0-7.2
	c-0.8,0.2-1.6,0.5-2.4,0.8C260.3,179.5,258.1,180.6,256.1,181.9z"/>
<path class="st1" d="M260.7,205.1c-0.7,1-1.4,2.1-2.1,3.1c0.8,0.1,1.6,0.1,2.5,0.2c1.4,0.1,2.8,0.3,4.1,0.5l-0.1-10.9
	C263.7,200.4,262.2,202.7,260.7,205.1z"/>
<path class="st1" d="M226,207.3c1.5-1.7,3-3.3,4.5-4.9l-1.3-1.2c-2.2-1.9-4.4-3.8-6.7-5.6c-0.4,3.9-0.7,7.9-0.9,11.9
	C223.1,207.4,224.6,207.3,226,207.3z"/>
<path class="st2" d="M480.9,408.6c-46.5,14.1-90.5,25.6-130.1,34.3c-20.5-26.3-31.9-50.2-35.6-84.3c0-0.4-0.1-0.7-0.1-1.1
	c-7,3-13.8,6-20.5,9l3.6,95.5c51.6-8.8,114.7-23.8,182.7-44.2L480.9,408.6z"/>
<polygon class="st3" points="714.9,136.3 715,133.7 712.6,137.1 "/>
<polygon class="st3" points="714.8,139.3 714.9,138.2 713.2,138.8 "/>
<polygon class="st3" points="714.8,141.1 712.6,140.4 714.8,143.4 "/>
<path class="st0" d="M711.2,141.5v10c0,4.3-0.1,8.5-0.2,12.8c-0.1,8.5-0.4,17.1-0.7,25.6c-0.3-8.5-0.6-17.1-0.7-25.6
	c-0.1-4.3-0.1-8.5-0.2-12.8v-10l-5.8,8.1c-2.5,3.4-5,6.9-7.5,10.3c-5,6.9-10.2,13.7-15.4,20.4c4.7-7.2,9.4-14.2,14.3-21.3
	c2.4-3.5,4.9-7,7.3-10.5l5.8-8.2l-9.5,3.1c-4.1,1.3-8.1,2.6-12.2,3.9c-8.1,2.6-16.3,5.1-24.5,7.4c8-3,16-5.9,24.1-8.8
	c4-1.4,8.1-2.8,12.1-4.2l9.5-3.2l-9.6-3.1c-4-1.3-8.1-2.6-12.2-4c-8.1-2.7-16.2-5.5-24.2-8.4c8.2,2.2,16.4,4.6,24.6,7.1
	c4.1,1.2,8.2,2.5,12.2,3.7l9.6,3l-5.9-8.2c-2.5-3.5-5-6.9-7.4-10.4c-5-6.9-9.8-14-14.5-21.1c5.3,6.7,10.5,13.5,15.6,20.3
	c2.6,3.4,5.1,6.8,7.6,10.3l5.9,8.1V126c0-4.3,0.1-8.5,0.2-12.8c0.1-8.5,0.3-17.1,0.7-25.6c0.3,8.5,0.6,17.1,0.7,25.6
	c0.1,4.3,0.1,8.5,0.2,12.8v10l3.9-5.4l1.8-81.4l-211.2-5.7l1.1,113.6c5.6,0.3,11.3,0.9,17,1.8c51.1,7.8,96.4,36.9,124.7,80.1
	c0.5,0.8,1,1.5,1.5,2.3c22.2-5,43.3-9.3,63.1-12.9l1.8-82.1L711.2,141.5z"/>
<path class="st4" d="M818.1,178.2c3.9-6,7.9-11.9,12-17.9c2-3,4.1-5.9,6.1-8.8l6.2-8.8l6.3-8.7c2.1-2.9,4.2-5.8,6.3-8.7
	c4.2-5.8,8.6-11.5,13-17.2c-3.9,6-7.9,11.9-12,17.9c-2,3-4.1,5.9-6.1,8.8l-6.2,8.8l-6.3,8.7c-2.1,2.9-4.2,5.8-6.3,8.7
	C826.8,166.8,822.5,172.6,818.1,178.2z"/>
<path class="st4" d="M802.1,130.2c6.9,1.9,13.8,3.9,20.7,5.9c3.4,1,6.9,2.1,10.3,3.1l10.3,3.2l10.2,3.3c3.4,1.1,6.8,2.2,10.2,3.4
	c6.8,2.3,13.6,4.6,20.3,7.1c-6.9-1.9-13.8-3.9-20.7-5.9c-3.4-1-6.9-2.1-10.3-3.1l-10.3-3.2l-10.2-3.3c-3.4-1.1-6.8-2.2-10.2-3.4
	C815.6,135,808.8,132.7,802.1,130.2z"/>
<path class="st4" d="M817.8,108.4c4.5,5.6,8.8,11.3,13.1,17c2.2,2.9,4.3,5.8,6.4,8.6l6.3,8.7l6.3,8.7c2.1,2.9,4.2,5.8,6.2,8.8
	c4.1,5.9,8.2,11.8,12.2,17.8c-4.5-5.6-8.8-11.3-13.1-17.1c-2.2-2.9-4.3-5.8-6.4-8.6l-6.3-8.7l-6.3-8.7c-2.1-2.9-4.2-5.8-6.2-8.8
	C825.8,120.3,821.8,114.4,817.8,108.4z"/>
<path class="st4" d="M843.1,100.2c0.3,7.2,0.5,14.3,0.6,21.5c0.1,3.6,0.1,7.2,0.1,10.7v10.7v10.8c0,3.6-0.1,7.2-0.1,10.8
	c-0.1,7.2-0.3,14.3-0.6,21.5c-0.3-7.2-0.5-14.3-0.6-21.5c-0.1-3.6-0.1-7.2-0.1-10.8v-10.8v-10.7c0-3.6,0.1-7.2,0.1-10.8
	C842.6,114.6,842.8,107.4,843.1,100.2z"/>
<path class="st4" d="M802.3,156.8c6.7-2.5,13.5-5,20.2-7.4c3.4-1.2,6.8-2.3,10.2-3.5l10.2-3.4l10.2-3.4c3.4-1.1,6.8-2.2,10.2-3.3
	c6.8-2.2,13.7-4.2,20.6-6.2c-6.7,2.5-13.5,5-20.2,7.4c-3.4,1.2-6.8,2.3-10.2,3.5l-10.2,3.4l-10.2,3.4c-3.4,1.1-6.8,2.2-10.2,3.3
	C816,152.7,809.2,154.8,802.3,156.8z"/>
<path class="st5" d="M348.2,138.7c3.2,1,6.5,2,9.7,2.9l7.6,2.4l-4.7-6.5l-1.1-1.5l-14.5,1.8L348.2,138.7z"/>
<path class="st5" d="M361.3,135.9c0.2,0.3,0.4,0.6,0.6,0.9l4.7,6.4v-7.9l0,0L361.3,135.9z"/>
<path class="st5" d="M374.4,134.3l-6.4,0.8v0.2v7.9l4.6-6.4L374.4,134.3z"/>
<path class="st2" d="M478.7,121.5l-102.6,12.5c-0.8,1.1-1.6,2.3-2.4,3.4l-4.6,6.5l7.5-2.5c3.2-1,6.4-2.1,9.6-3.1
	c6.4-2,12.9-4,19.4-5.9c-6.3,2.4-12.6,4.7-19,6.9c-3.2,1.1-6.4,2.2-9.6,3.3l-7.5,2.5l7.6,2.4c3.2,1.1,6.4,2.1,9.6,3.2
	c6.4,2.1,12.8,4.4,19.1,6.6c-6.5-1.8-13-3.6-19.5-5.6c-3.2-0.9-6.5-2-9.7-2.9l-7.6-2.4l4.7,6.5c2,2.8,3.9,5.5,5.8,8.3
	c3.9,5.5,7.7,11.1,11.4,16.7c-4.2-5.3-8.3-10.6-12.3-16c-2-2.7-4-5.4-6-8.1l-4.8-6.4v7.9c0,3.4,0,6.8-0.1,10.1
	c-0.1,6.7-0.3,13.5-0.6,20.2c-0.3-6.8-0.5-13.5-0.6-20.2c-0.1-3.4-0.1-6.8-0.1-10.1v-7.9L362,154c-2,2.7-4,5.5-6,8.2
	c-4,5.4-8.1,10.8-12.2,16.1c3.7-5.6,7.4-11.2,11.3-16.8c1.9-2.8,3.9-5.5,5.8-8.3l4.6-6.5l-7.5,2.5c-3.2,1-6.4,2.1-9.6,3.1
	c-6.4,2-12.9,4-19.4,5.9c6.3-2.4,12.6-4.7,19-6.9c3.2-1.1,6.4-2.2,9.6-3.3l7.5-2.5l-7.6-2.4c-3.2-1.1-6.4-2.1-9.6-3.2l-4.9-1.7
	l-56.9,7l8,210c6.6-2.8,13.3-5.5,20.1-8.3C310,249.9,382.5,166.8,479,157.6L478.7,121.5z"/>
<path class="st2" d="M481.6,511.1c-4.5-0.4-9.1-0.9-13.7-1.6c-40.3-6.1-76.5-24-103.2-50.7c-23.1,5.5-45.2,10.4-66.1,14.5l3.7,96.1
	L482,558L481.6,511.1z M365.8,526.4c1.3,1.9,2.7,3.8,4,5.7c2.7,3.8,5.3,7.6,7.8,11.5c-2.9-3.6-5.7-7.3-8.5-11
	c-1.4-1.8-2.8-3.7-4.1-5.6l-3.2-4.4v5.5c0,2.3,0,4.6-0.1,6.9c-0.1,4.6-0.2,9.2-0.4,13.9c-0.2-4.6-0.3-9.2-0.4-13.9
	c0-2.3,0-4.6-0.1-6.9v-5.4l-3.2,4.4c-1.4,1.9-2.7,3.8-4.1,5.6c-2.7,3.7-5.5,7.4-8.4,11.1c2.5-3.9,5.1-7.7,7.7-11.5
	c1.3-1.9,2.6-3.8,4-5.7l3.1-4.5l-5.2,1.7c-2.2,0.7-4.4,1.4-6.6,2.1c-4.4,1.4-8.8,2.7-13.3,4c4.3-1.6,8.6-3.2,13-4.7
	c2.2-0.8,4.4-1.5,6.6-2.3l5.2-1.7l-5.2-1.7c-2.2-0.7-4.4-1.4-6.6-2.2c-4.4-1.5-8.8-3-13.1-4.6c4.5,1.2,8.9,2.5,13.3,3.8
	c2.2,0.7,4.4,1.3,6.6,2l5.2,1.6l-3.2-4.4c-1.3-1.9-2.7-3.8-4-5.7c-2.7-3.8-5.3-7.6-7.9-11.5c2.9,3.6,5.7,7.3,8.5,11
	c1.4,1.8,2.8,3.7,4.1,5.6l3.2,4.4v-5.5c0-2.3,0-4.6,0.1-6.9c0.1-4.6,0.2-9.2,0.4-13.9c0.2,4.6,0.3,9.2,0.4,13.9c0,2.3,0,4.6,0.1,6.9
	v5.4l3.2-4.4c1.4-1.9,2.7-3.8,4.1-5.6c2.7-3.7,5.5-7.4,8.4-11.1c-2.5,3.9-5.1,7.7-7.7,11.5c-1.3,1.9-2.6,3.8-4,5.7l-3.1,4.5l5.2-1.7
	c2.2-0.7,4.4-1.4,6.6-2.1c4.4-1.4,8.8-2.7,13.3-4c-4.3,1.6-8.7,3.2-13,4.7c-2.2,0.8-4.4,1.5-6.5,2.3l-5.1,1.7l5.2,1.7
	c2.2,0.7,4.4,1.4,6.6,2.2c4.4,1.5,8.8,3,13.1,4.6c-4.5-1.2-8.9-2.5-13.3-3.8c-2.2-0.7-4.4-1.3-6.6-2l-5.2-1.6L365.8,526.4z"/>
<path class="st0" d="M677.1,347.5c11.7-5,22.8-10,33.4-14.9l0.4-17.6c-4.6-8.3-8.1-14.9-10.1-18.9c-2.5,1.1-5.5,0-6.6-2.5
	c-1.1-2.5,0-5.5,2.5-6.6c2.5-1.1,5.5,0,6.6,2.5c1,2.2,0.3,4.7-1.6,6.1c2.1,3.3,5.3,8.5,9.3,15.2l1.6-70.3
	c-17.6,2.6-36.8,6-57.2,10.2c15.7,28,22.1,53.4,20.7,87.6c-45.7,19.6-99.1,39.6-156.7,58.3c-3.5,1.1-7,2.2-10.4,3.4l0.1,9.2l3.9-1.2
	c59.8-19,115-39.4,161.9-59.4C675.4,348,676.2,347.6,677.1,347.5z"/>
<path class="st0" d="M710.1,351.4l0.2-6.8c-5.5,2.4-11.1,4.8-16.8,7.2C698.2,351.6,703.9,351.5,710.1,351.4z"/>
<path class="st0" d="M644.7,458.1c0.5-0.5,1.2-0.9,1.9-1c0.3-0.1,0.7-0.1,1-0.1h1c1.3,0.1,2.6,0.5,3.8,0.9c2.4,0.9,4.7,2,6.9,3.3
	c4.3,2.6,8.5,5.4,12.5,8.5c1.1,0.8,2.2,1.7,3.2,2.6c0.2-1.3,0.3-2.5,0.5-3.8c0.7-5,1.7-10,3.1-14.9c0.7-2.5,1.6-4.9,2.7-7.2
	c0.6-1.2,1.3-2.3,2.1-3.3c0.2-0.2,0.5-0.5,0.7-0.7c0.3-0.2,0.5-0.4,0.8-0.6c0.6-0.4,1.3-0.6,2.1-0.6c0.7,0,1.5,0.3,2.1,0.7
	c0.3,0.2,0.6,0.4,0.8,0.6c0.2,0.2,0.5,0.5,0.7,0.7c0.8,1,1.5,2.1,2,3.3c1.1,2.3,1.9,4.7,2.6,7.2c1.2,4.5,2,9.1,2.6,13.8
	c3.1-2.9,6.4-5.5,9.8-8l0.8-36.9c-2.6-1-3.9-3.8-3-6.4c0.5-1.5,1.7-2.6,3.2-3l1.3-53.6c-10.8,3-19.8,5.5-25.5,6.9
	c0.1,0.4,0.2,0.9,0.2,1.3c0,2.8-2.2,5-5,5c-2.8,0-5-2.2-5-5s2.2-5,5-5c1.9,0,3.6,1,4.4,2.7c5.7-1.9,14.8-4.7,25.9-8l0.1-3.5
	c-8.2,0-15.4-0.1-21-0.2c-5,2.1-10.1,4.2-15.2,6.3c-12.9,82.4-80.8,145-164,151.3l0.5,53.3l194.2,33.3l1.4-63.8
	c-1.3-0.8-2.5-1.7-3.7-2.5c-1.3,0.8-2.9,1-4.3,0.5c-0.5,4-1.3,7.9-2.2,11.8c-0.6,2.5-1.5,4.9-2.5,7.3c-0.6,1.2-1.3,2.4-2.1,3.4
	c-0.2,0.3-0.5,0.5-0.8,0.8c-0.3,0.3-0.6,0.5-0.9,0.7c-0.7,0.5-1.5,0.7-2.4,0.8c-0.8,0-1.7-0.3-2.4-0.8c-0.3-0.2-0.6-0.4-0.9-0.7
	c-0.3-0.3-0.5-0.5-0.8-0.8c-0.9-1-1.6-2.2-2.2-3.4c-1.1-2.3-2-4.8-2.7-7.3c-1.3-4.9-2.3-9.9-2.9-14.9l-0.1-0.8l-0.5,0.5
	c-3.8,3.3-7.8,6.4-12.1,9.2c-2.1,1.4-4.4,2.6-6.7,3.6c-1.2,0.5-2.5,0.9-3.8,1.1l-1,0.1c-0.3,0-0.7,0-1-0.1c-1.5-0.2-2.8-1.3-3.1-2.8
	c-0.1-0.3-0.2-0.7-0.2-1c0-0.3,0-0.7,0-1c0-1.3,0.3-2.6,0.7-3.8c0.7-2.4,1.7-4.8,2.8-7.1c2.3-4.5,4.8-8.8,7.7-13
	c0.7-1,1.4-2.1,2.2-3.1c-1.7-0.2-3.3-0.4-5-0.6c-5-0.7-10-1.7-14.9-3c-2.5-0.7-4.9-1.5-7.2-2.6c-1.2-0.6-2.3-1.3-3.3-2.1
	c-0.2-0.2-0.5-0.5-0.7-0.7c-0.2-0.3-0.4-0.5-0.6-0.8c-0.4-0.6-0.6-1.4-0.7-2.1c0-0.7,0.2-1.5,0.7-2.1c0.2-0.3,0.4-0.6,0.6-0.8
	l0.7-0.7c1-0.8,2.1-1.5,3.3-2.1c2.3-1.1,4.7-2,7.2-2.6c4.9-1.3,9.8-2.2,14.8-2.9l2.5-0.3c-0.4-0.6-0.9-1.1-1.3-1.7
	c-0.7-0.9-1.3-1.8-2-2.7c-2.4,1.6-5.6,1-7.2-1.4s-1-5.6,1.4-7.2c0,0,0.1-0.1,0.1-0.1c-0.2-0.4-0.5-0.8-0.7-1.2
	c-1.3-2.2-2.3-4.6-3.2-7c-0.4-1.2-0.7-2.5-0.8-3.8c0-0.3,0-0.7,0-1c0-0.3,0.1-0.7,0.2-1C643.9,459.3,644.2,458.6,644.7,458.1z"/>
<path class="st1" d="M735.9,333.2l0.1,4.6l2-5.6L735.9,333.2z"/>
<path class="st6" d="M824.5,248.4c-4.3-13.7-38.2-16.8-90.8-10.7l1.9,82.7c2.8-1.4,5.5-2.8,8.2-4.2c4.3-11.7,7.8-20.9,10-25.8
	c-2.2-1.6-2.7-4.8-1.1-7c1.6-2.2,4.8-2.7,7-1.1s2.7,4.8,1.1,7c-1.3,1.8-3.6,2.5-5.6,1.8c-1.2,4.7-3.7,12.7-6.9,22.8
	C799.8,286.7,829.1,262.9,824.5,248.4z"/>
<path class="st6" d="M919,483c0.3-0.3,0.6-0.5,0.9-0.8l1-48.7c-2.1-0.1-4.2-0.2-6.4-0.3c-4.6-0.1-9.3-0.2-13.9-0.3l-3.3,3.1
	c-2.2,2-4.3,4-6.4,6.1c-0.2,3.3-0.3,6.5-0.4,9.8c-0.1,4.2-0.2,8.5-0.2,12.7c2.5,2.4,5,4.8,7.5,7.2c3.9,3.6,7.8,7.2,11.8,10.7
	l2.9,0.2C914.7,482.9,916.8,483,919,483z"/>
<path class="st6" d="M895.2,474.8c-1.6-1.6-3.2-3.1-4.8-4.7c0,3.7,0.1,7.4,0.2,11.1c4.2,0.4,8.3,0.8,12.5,1
	C900.4,479.8,897.8,477.3,895.2,474.8z"/>
<path class="st6" d="M891.4,433c-0.1,1.1-0.2,2.3-0.2,3.4c1.2-1.1,2.3-2.1,3.5-3.2l0.2-0.2L891.4,433z"/>
<path class="st1" d="M921.1,425.3l0.2-10.2c-2,1.7-4,3.4-6,5C917.2,421.9,919.2,423.6,921.1,425.3z"/>
<path class="st6" d="M919.6,496.9c-2.6-2.2-5.2-4.4-7.7-6.7c-1.3,1.1-2.5,2.2-3.8,3.2c-5.2,4.4-10.6,8.8-16,13
	c0.2,2.3,0.4,4.7,0.7,7c1,10.1,2.7,20.2,5.1,30.1c0.8,3.5,1.9,7,3.1,10.4l17.5-1.8L919.6,496.9z"/>
<path class="st6" d="M891.2,401.5c-2.2-1.6-4.4-3.2-6.7-4.8c-8.4-6-17.1-11.3-26.2-16.1c-4.5-2.4-9.2-4.4-14-5.9
	c-2.4-0.8-4.8-1.2-7.3-1.4c-2.4-0.1-4.8,0.4-6.2,1.8s-1.7,3.9-1.4,6.3c0.3,2.5,1,4.9,1.9,7.1c1.9,4.7,4.1,9.3,6.8,13.6
	c5.4,8.7,11.3,17.1,17.8,25c0.8,1,1.6,1.9,2.3,2.8c10-0.7,19.9-1.1,29.9-1.1C888.8,419.6,889.9,410.5,891.2,401.5z"/>
<path class="st6" d="M914.7,429.4l6.3,0.4l0.1-3.8c-2-1.8-4.1-3.7-6.2-5.5c-3.3,2.8-6.6,5.7-9.8,8.6
	C908.3,429.1,911.5,429.2,914.7,429.4z"/>
<path class="st6" d="M879.4,453.7c2.3,2.4,4.6,4.7,6.9,7.1c0.1-3,0.2-5.9,0.3-8.9c0.1-1.9,0.2-3.9,0.3-5.8
	C884.4,448.6,881.9,451.1,879.4,453.7z"/>
<path class="st6" d="M886.2,465.9c-3.2-3.2-6.2-6.4-9.3-9.7c-5.2,5.4-10.2,11-15.1,16.6c1.4,1.3,2.4,3,2.9,4.9
	c7.1,1.2,14.3,2.2,21.5,3C886.2,475.8,886.2,470.9,886.2,465.9z"/>
<path class="st6" d="M903.8,482.9c-4.4-0.2-8.8-0.5-13.2-0.8c0.2,7.3,0.7,14.6,1.3,21.8c6.5-4.6,13-9.5,19.2-14.5
	C908.6,487.4,906.2,485.2,903.8,482.9z"/>
<path class="st6" d="M918.4,483.5l-5.9-0.2l-2.2-0.1c1.4,1.2,2.7,2.4,4.1,3.6C915.7,485.7,917.1,484.6,918.4,483.5z"/>
<path class="st6" d="M830.4,518.9c-0.9,2.2-1.5,4.5-1.9,6.8c-0.3,2.2,0.1,4.2,1,5.4s3,1.7,5.3,1.6c2.4-0.1,4.7-0.5,7-1.2
	c4.8-1.4,9.5-3.3,14-5.5c9.2-4.5,18-9.6,26.5-15.3c1.7-1.1,3.4-2.3,5.1-3.4c-0.6-8.4-1-16.9-1.1-25.3c-1.5-0.1-3.1-0.2-4.6-0.4
	c-5.5-0.5-11-1-16.6-1.6c0,0.4,0,0.9,0,1.3c-0.2,5.9-5.2,10.5-11.1,10.2c-2-0.1-4-0.7-5.7-1.9c-4,5.2-7.7,10.6-11.1,16.1
	C834.5,509.8,832.2,514.3,830.4,518.9z"/>
<path class="st6" d="M823,440c-4.9,1.1-9.7,2.6-14.3,4.5c-2.2,0.9-4.3,2.1-6.2,3.5c-1.6,1-2.7,2.7-3.1,4.5c0,1.5,0.9,3.3,2.6,4.8
	c1.8,1.6,3.7,3,5.8,4.1c4.4,2.4,9,4.4,13.8,6c8,2.7,16.1,5,24.3,6.7c2.1-2.8,5.4-4.3,8.9-4.2c1,0,1.9,0.2,2.8,0.5
	c5.3-6,10.7-11.7,16.3-17.4c-5.5-6-10.9-12.1-16.1-18.4c-1.6,0.1-3.2,0.3-4.8,0.4C843,436.1,832.9,437.7,823,440z"/>
<path class="st6" d="M887.3,440.1c0.2-2.3,0.3-4.7,0.5-7c-8.6,0.1-17.3,0.5-25.9,1.2c4.7,5.5,9.6,11,14.6,16.3
	C880,447,883.6,443.6,887.3,440.1z"/>
<path class="st6" d="M899.5,428.9c4.1-3.7,8.3-7.3,12.6-10.8c-1-0.9-2-1.8-3.1-2.6c-4.8-4-9.8-7.9-14.8-11.7
	c-1.1,8.3-2,16.7-2.5,25.1C894.3,428.8,896.9,428.8,899.5,428.9z"/>
<path class="st1" d="M919.9,483.6h-0.3c-1.5,1.3-2.9,2.6-4.4,3.9c1.5,1.3,3.1,2.6,4.6,3.9L919.9,483.6z"/>
<path class="st6" d="M918.4,337.5c-2,0-4.1,1.3-5.7,3.1c-1.6,1.9-3,3.9-4.1,6.1c-2.3,4.5-4.2,9.2-5.7,14.1c-3,9.8-5.2,19.8-6.9,29.9
	c-0.7,4-1.2,8-1.8,12c5.1,4,10.1,8.1,15,12.3l3.1,2.7c3-2.5,5.9-4.9,8.9-7.2l1.6-70.6C921.8,338.5,920.2,337.7,918.4,337.5z"/>
<path class="st6" d="M730.7,98.8l0.2,10.2c3-4,6-8,9.1-11.9c-3,4.6-6,9.1-9,13.6l0.5,20.3l3-1c8.1-2.6,16.3-5.1,24.5-7.4
	c-8,3-16,5.9-24.1,8.8l-3.4,1.2l0.3,12.2l3.2,1.1c8.1,2.7,16.2,5.5,24.2,8.4c-8.2-2.2-16.5-4.6-24.6-7.1l-2.7-0.8l0.5,21.8
	c2.7,4,5.5,8,8.1,12c-2.7-3.4-5.4-6.9-8.1-10.4l1.2,55.1c81.8-13,136.5-11.7,142.5,7.3c6.5,20.6-46.1,57.5-133,97.9
	c-2.1,6.2-4.3,12.8-6.7,19.6c16.3-4.7,30.4-8.6,38.7-10.7c0-0.2,0-0.4,0-0.5c0-2.8,2.2-5.1,5-5.1s5.1,2.2,5.1,5s-2.2,5.1-5,5.1
	c-2.1,0-4-1.3-4.8-3.3c-7.8,2.5-20.8,6.5-36.1,11c19.8-0.1,36.3,0.1,43.6,0.5c0-0.1,0-0.1,0-0.2c0-2.8,2.2-5.1,5-5.1
	c2.8,0,5.1,2.2,5.1,5c0,2.8-2.2,5.1-5,5.1c-2.3,0-4.3-1.5-4.9-3.8c-7.6,0.5-25.4,1-46.6,1.2v0.6c14.5,25.4,26.1,46.6,29.7,54
	c2.5-1.1,5.5,0,6.6,2.5s0,5.5-2.5,6.6s-5.5,0-6.6-2.5c-1-2.2-0.3-4.9,1.8-6.2c-4.2-6.4-15.5-25.2-28.8-48.5l4.7,209.9l154.5-15.6
	c-1.1-3.2-2-6.5-2.9-9.7c-2.3-10.2-4-20.5-5-30.8c-0.1-1.4-0.2-2.8-0.3-4.1c-1.3,1-2.5,1.9-3.8,2.8c-8.3,6.2-17.1,11.8-26.2,16.8
	c-4.7,2.5-9.6,4.6-14.6,6.2c-2.6,0.9-5.4,1.4-8.1,1.6c-0.7,0-1.5,0-2.2,0c-0.8-0.1-1.6-0.2-2.3-0.4c-3.5-0.8-6.2-3.7-6.7-7.2
	c-0.1-0.8-0.2-1.6-0.2-2.3c0-0.8,0.1-1.5,0.1-2.2c0.4-2.7,1.1-5.4,2.2-8c2-4.9,4.4-9.7,7.2-14.1c3.7-6,7.8-11.8,12.1-17.3
	c-1.5-2.7-1.7-6-0.6-8.9c-8.1-1.4-16.1-3.2-24-5.6c-5.1-1.5-10-3.5-14.7-5.8c-2.5-1.3-4.8-2.8-6.9-4.6c-0.5-0.5-1-1-1.5-1.6
	c-0.5-0.6-1-1.2-1.4-1.9c-0.9-1.5-1.4-3.2-1.4-5c0.1-1.8,0.7-3.4,1.7-4.9c0.5-0.6,1-1.3,1.5-1.8c0.5-0.5,1.1-1,1.7-1.5
	c2.2-1.7,4.6-3.1,7.2-4.2c4.9-2.1,9.9-3.7,15.1-4.9c10.2-2.3,20.5-3.9,30.9-4.7l1.6-0.1l-0.9-1.2c-6.5-8.1-12.4-16.6-17.7-25.5
	c-2.7-4.5-5-9.2-6.8-14.1c-1-2.5-1.6-5.1-1.9-7.8c0-0.7-0.1-1.4-0.1-2.1c0-0.7,0.1-1.4,0.2-2.1c0.3-1.5,1-2.9,2-4
	c1.1-1,2.5-1.8,3.9-2.1c0.7-0.2,1.4-0.3,2.1-0.3c0.7,0,1.4,0,2.1,0c2.7,0.2,5.3,0.8,7.8,1.7c4.9,1.7,9.7,3.8,14.3,6.4
	c9,5,17.7,10.7,26,16.9c2.1,1.5,4.2,3.1,6.2,4.7c0.5-3.4,1-6.8,1.7-10.2c1.7-10.2,4.2-20.3,7.3-30.2c1.6-5,3.6-9.9,6-14.5
	c1.2-2.4,2.8-4.6,4.5-6.6c0.5-0.5,1-1,1.5-1.4c0.6-0.5,1.2-0.9,1.8-1.2c2.6-1.7,6.1-1.6,8.5,0.4c0.1,0.1,0.2,0.1,0.3,0.2l6-276.2
	L730.7,98.8z"/>
<polygon class="st7" points="935.9,14.6 913.8,575.2 50.5,556.5 67.6,88.4 "/>
<polygon class="st8" points="924,32 917.6,590.6 43.9,548.4 61,80.2 "/>
<path class="st4" d="M27.9,636.1c6.8-10.4,13.8-20.8,20.8-31c3.5-5.1,7.1-10.2,10.7-15.3l10.8-15.3L81,559.3c3.7-5,7.3-10.1,11-15.1
	c7.3-10,14.8-20,22.5-29.8c-6.8,10.4-13.7,20.8-20.8,31c-3.5,5.1-7.1,10.2-10.7,15.3L72.3,576l-10.9,15.2c-3.7,5-7.3,10.1-11,15.1
	C43,616.3,35.5,626.2,27.9,636.1z"/>
<path class="st4" d="M0,552.7c12,3.3,24,6.7,35.9,10.3c6,1.8,11.9,3.6,17.9,5.4l17.8,5.6l17.8,5.7c5.9,2,11.8,3.8,17.7,5.8
	c11.8,3.9,23.6,8,35.3,12.2c-12-3.3-24-6.7-35.9-10.3c-6-1.8-11.9-3.6-17.9-5.4l-17.8-5.6L53,570.8c-5.9-2-11.8-3.8-17.7-5.8
	C23.5,561,11.7,556.9,0,552.7z"/>
<path class="st4" d="M27.3,514.8c7.7,9.8,15.3,19.7,22.8,29.6c3.8,5,7.4,10,11.2,15l11,15.1l10.9,15.1c3.6,5.1,7.2,10.1,10.8,15.2
	c7.2,10.2,14.2,20.5,21.1,30.8c-7.7-9.8-15.3-19.7-22.8-29.6c-3.8-5-7.4-10-11.2-15l-11-15.1l-10.9-15.1
	c-3.6-5.1-7.2-10.1-10.8-15.2C41.3,535.4,34.2,525.2,27.3,514.8z"/>
<path class="st4" d="M71.2,500.5c0.5,12.4,0.8,24.9,1,37.4c0.1,6.2,0.1,12.5,0.2,18.7l0.1,18.7l-0.1,18.7
	c-0.1,6.2-0.1,12.5-0.2,18.7c-0.2,12.5-0.5,24.9-1,37.3c-0.5-12.5-0.8-24.9-1-37.3c-0.1-6.2-0.2-12.5-0.2-18.7l-0.1-18.7l0.1-18.7
	c0.1-6.2,0.1-12.5,0.2-18.7C70.4,525.4,70.7,513,71.2,500.5z"/>
<path class="st4" d="M0.3,598.8c11.6-4.4,23.4-8.7,35.1-12.8c5.9-2.1,11.8-4.1,17.7-6.1l17.7-6l17.7-5.8c5.9-1.9,11.8-3.8,17.8-5.7
	c11.9-3.8,23.8-7.4,35.8-10.8c-11.6,4.4-23.4,8.7-35.1,12.8c-5.9,2.1-11.8,4.1-17.7,6.1l-17.7,6l-17.8,5.8
	c-5.9,1.8-11.8,3.8-17.8,5.6C24.2,591.8,12.3,595.4,0.3,598.8z"/>
<path class="st9" d="M309.5,25.4c0,1.1-0.3,2.2-0.9,3.2c-0.6,0.9-1.6,1.4-2.7,1.3l-22.7,1.4l-59,308.5c-0.3,2.2-2.4,3.7-4.6,3.4
	c-1.7-0.3-3.1-1.6-3.4-3.4L149.9,17.3c-3.1,0.5-6.3,0.9-9.5,1.1s-6.4,0.4-9.5,0.4c-2.6,0-3.9-1.3-3.9-3.9s1.2-4,3.6-4l77.3-5.8h0.4
	c1.1,0,2.2,0.4,2.9,1.3c0.7,0.8,1.1,1.9,1.1,3.1c0,2.2-1.3,3.5-3.9,4l-25.5,1.8l45.7,261.1L275,32.1l-27.3,1.8c-1,0-1.9-0.3-2.7-0.9
	c-0.9-0.7-1.3-1.7-1.2-2.8c0-3,1.2-4.5,3.6-4.5l57.9-4.1c1.1,0,2.2,0.3,3,0.9C309.1,23.3,309.6,24.3,309.5,25.4z"/>
<path class="st9" d="M355.5,206.1c0,2.4-1.3,3.8-4,4.3l-59.3,4.7c-0.2,3.1-0.4,6.2-0.5,9.2s-0.2,6.2-0.2,9.5c0,3.6,0.2,8.2,0.7,13.7
	c0.5,5.5,1.5,11,3.1,16.4c1.4,5,3.8,9.8,7,13.8c2.9,3.8,7.5,5.9,12.2,5.8c3.2,0.1,6.4-0.5,9.4-1.8c2.2-1,4.2-2.3,6.1-3.8
	c1.5-1.1,2.8-2.4,4-3.8c0.6-1,1.7-1.7,2.9-1.8c2.6,0,4,1.3,4,4c0,0.6-0.1,1.2-0.4,1.8c-1,2.2-2.6,4.2-4.5,5.8c-2,1.7-4.3,3-6.6,4.1
	c-2.4,1.1-5,1.9-7.5,2.5c-2.4,0.6-4.8,0.9-7.2,0.9c-7.7,0-14.2-2.1-19.6-6.5c-5.5-4.4-10-9.9-13.3-16.1c-3.5-6.5-6.1-13.6-7.7-20.8
	c-1.6-6.7-2.4-13.6-2.5-20.4c0.1-7.4,0.9-14.7,2.3-21.9c1.5-7.9,4-15.7,7.5-22.9c3.3-6.9,8-13.2,13.7-18.3c5.6-5,12.8-7.7,20.3-7.5
	c10.5,0,18.8,3.4,24.8,10.2c6,6.9,10.4,15,12.9,23.8c0.5,2.6,1,5.2,1.6,7.7C355.2,201,355.5,203.6,355.5,206.1z M330.4,196.1
	c0-2.4-0.1-5.4-0.4-9c-0.2-3.5-0.9-6.9-2-10.2c-1-3.1-2.5-5.9-4.5-8.5c-1.9-2.4-4.7-3.6-8.3-3.6c-3.3,0-6.3,1.7-8.8,5.2
	c-2.7,3.8-4.8,7.9-6.4,12.2c-1.8,4.6-3.2,9.2-4.3,14c-1.1,4.7-1.9,8.2-2.3,10.6L330,204c0.2-1.3,0.4-2.7,0.4-4L330.4,196.1z"/>
<path class="st9" d="M490,303.2c0.1,5.2-1.5,10.2-4.5,14.4c-3,4.1-6.6,7.7-10.6,10.8c-6.6,5-14.1,8.5-22.1,10.4
	c-7.9,2.1-16.1,3.2-24.3,3.2c-5.5,0-10.9-0.4-16.3-1c-6.3-0.7-12.4-2.1-18.3-4.3c-5.5-2-10.6-5-14.9-9c-4.1-3.8-6.1-8.9-6.1-15.1
	c0-6,2.1-10.6,6.3-13.8c4.2-3.2,9.3-4.9,14.6-4.9c5.5,0,9.8,1.7,12.8,5.2s4.5,8,4.5,13.5c0,3.1-1.3,4.7-4,4.7
	c-1.9,0-3.1-0.8-3.4-2.3s-0.7-3.4-1.1-5.4c-0.3-1.9-1.1-3.8-2.2-5.4c-1.1-1.6-3.3-2.3-6.6-2.3c-6.7,0-10.1,3.6-10.1,10.8
	c-0.1,4.3,1.8,8.5,5.2,11.1c3.7,3,7.9,5.2,12.4,6.6c4.8,1.6,9.8,2.6,14.9,3c5,0.5,9.2,0.7,12.6,0.7c4.4-0.1,8.8-0.5,13.1-1.2
	c5.4-0.9,10.8-2.2,16-4c4.9-1.6,9.5-4.1,13.5-7.4c3.5-2.8,5.6-7,5.6-11.5c0-4.5-2.4-8.2-7.2-11.1c-5.7-3.2-11.8-5.7-18.2-7.4
	c-7.3-2-15.2-4-23.7-5.7c-8.5-1.8-16.4-3.8-23.7-6.1c-6.4-1.9-12.5-4.6-18.2-8.2c-4.8-3.2-7.2-7.5-7.2-12.7c-0.1-4.3,1.3-8.6,4-12
	c2.8-3.3,6.2-6.1,10.1-8.1c-6.2-2.3-12-5.7-17.1-9.9c-5.2-4.1-8.2-10.5-8.1-17.1c0-4,1-7.9,3.1-11.4c2.1-3.5,4.7-6.6,7.9-9.2
	c3.2-2.6,6.7-5,10.4-7c3.4-1.9,6.9-3.4,10.6-4.5c15.3-4.3,31.5-4.3,46.8,0c0.7-0.7,1.9-2,3.6-3.9s3.5-4,5.4-6.1
	c1.7-2,3.6-3.8,5.6-5.6c1.8-1.6,3.2-2.3,4.1-2.3c1.7,0.1,3.3,0.7,4.7,1.6c1.9,1.1,2.9,2.2,2.9,3.4c0,1.9-0.5,3.2-1.4,4l-15.5,12.1
	c5.4,2.3,10.3,5.6,14.6,9.7c4.2,4.1,6.3,9.5,6.3,16.2c0.2,6-2,11.9-5.9,16.4c-4.1,4.6-9.1,8.2-14.8,10.8c-5.9,2.8-12.1,4.8-18.5,5.9
	c-5.7,1.1-11.5,1.7-17.3,1.8c-2.2,0-4.4-0.1-6.6-0.4c-2.2-0.2-4.5-0.6-6.6-1.1c-2.8,0.9-5.4,2-7.9,3.4c-2.9,1.6-4.3,3.8-4.3,6.6
	c0,1.7,1.5,3.2,4.5,4.5c3.2,1.4,6.6,2.5,10.1,3.4c3.7,1,7.4,1.7,11,2.3c3.6,0.6,6,1,7.2,1.3c5.5,1.2,11.9,2.5,19.1,4
	c7,1.4,13.9,3.6,20.5,6.5c6.2,2.7,11.8,6.5,16.5,11.3C487.7,290.1,490,296,490,303.2z M398,127l-4,35.6l-3.9-35.6l-21.2,19.1
	l19.8-21.6l-18.7-3.6l18.7-3.6l-19.8-21.6l21.2,19.4l4-36l4,36l21.2-19.4l-19.8,21.6l18.7,3.6l-18.7,3.6l19.8,21.6L398,127z
	 M450.5,209.5c0-8.4-2.7-14.8-8.1-19c-5.4-4.2-12.1-6.3-20-6.3c-8.1,0-14.8,2.7-20,8s-7.8,12.2-7.7,20.6c0,7.7,2.3,13.4,7,17.2
	s10.7,5.6,18.2,5.6c3.9,0,7.7-0.6,11.3-1.8c3.6-1.1,6.9-2.8,9.9-5.1C447.1,224.2,450.6,217.1,450.5,209.5L450.5,209.5z"/>
<path class="st9" d="M597.2,266.1c0,2.5-1.2,3.8-3.6,4.1l-28.4,3.6c-1.2,0.3-2.4,0-3.2-0.9c-0.7-0.8-1.2-1.9-1.3-3
	c-0.1-1.2-0.1-2.4,0-3.6c0.1-1.3,0.2-2.2,0.2-2.9c-4.7,2.4-9.7,4.1-14.9,5.2c-5,1.2-10.1,1.9-15.3,2.1c-3.8,0-8.5-0.2-13.8-0.7
	c-5.3-0.5-10.5-1.6-15.5-3.4c-4.6-1.6-8.9-4.2-12.4-7.6c-3.3-3.2-5-7.6-5-13.1c0-6,2.3-10.6,6.8-13.9c4.9-3.4,10.4-5.8,16.2-7
	c6.3-1.4,12.8-2.3,19.2-2.5c6.6-0.2,11.9-0.4,16-0.4c2.9,0,6.1,0.2,9.7,0.5c3.3,0.3,6.5,0.9,9.7,1.6V218c0-5.2-0.4-10.5-1.3-15.6
	c-0.7-4.9-2.3-9.5-4.7-13.9c-2.3-4.1-5.5-7.5-9.5-9.9c-4.1-2.5-9.2-3.8-15.5-3.8c-2.6,0-5.2,0.3-7.7,0.7c-2.7,0.5-5.3,1.3-7.7,2.5
	c-2.3,1.1-4.4,2.8-5.9,4.9c-1.6,2.2-2.5,5-2.3,7.7c0,4.1,1,6.8,2.9,8.3c1.9,1.4,4,2.4,6.3,2.9c2.3,0.5,4.4,0.9,6.3,1.3
	c1.7,0.1,3,1.7,2.9,3.4v0c0,1.1-0.4,2.2-1.3,2.9c-0.7,0.7-1.7,1.1-2.7,1.1c-3.2,0-6.3-0.5-9.4-1.3c-3.2-0.8-6.3-2.1-9.2-3.8
	c-2.7-1.6-5-3.8-6.8-6.3c-1.8-2.6-2.8-5.7-2.7-8.8c-0.2-4,1-8,3.4-11.3c2.4-3,5.4-5.5,8.8-7.2c3.6-1.8,7.5-3.1,11.5-3.8
	c3.8-0.7,7.7-1.1,11.5-1.1c9.8,0,18.2,1.6,25,4.7c6.5,2.9,12.2,7.4,16.5,13.2c4.4,6,7.4,12.9,9,20.2c1.9,8.4,2.8,16.9,2.7,25.4
	c0,5.5-0.2,11.2-0.7,17s-1,11.5-1.4,17l13.3-1.8c1,0,2,0.3,2.9,0.9C596.6,264.1,597.2,265,597.2,266.1z M561.6,232.4
	c-3.3-1-6.8-1.6-10.2-2c-3.4-0.4-6.8-0.5-10.2-0.5c-3.3,0.1-6.5,0.4-9.7,0.9c-3.8,0.6-7.5,1.6-11,3.1c-3.3,1.3-6.3,3.2-9,5.6
	c-2.5,2.3-3.9,5.5-3.8,8.9c-0.1,2.6,0.7,5.1,2.3,7.1c1.6,1.9,3.7,3.4,5.9,4.4c2.4,1.1,4.9,1.8,7.5,2.2c2.5,0.4,5,0.5,7.5,0.5
	c5.4,0,10.8-0.7,16-2c5.3-1.3,10.2-3.8,14.2-7.4L561.6,232.4z M560.9,91.1l-4,35.6l-4-35.6l-21.2,19.1l19.8-21.6l-18.7-3.6l18.7-3.6
	l-19.7-21.6L553,79.2l4-36l4,36l21.2-19.4l-19.9,21.6l18.7,3.6l-18.7,3.6l19.8,21.6L560.9,91.1z"/>
<path class="st9" d="M678.8,234.9c0.1,4.5-1.2,8.9-3.6,12.6c-2.4,3.6-5.4,6.6-9,9c-3.7,2.4-7.8,4.3-12,5.4
	c-4.3,1.2-8.7,1.8-13.1,1.8c-3.9-0.1-7.7-0.4-11.5-1.1c-4.5-0.7-8.9-1.9-13.1-3.6c-4-1.5-7.6-3.8-10.8-6.6c-3-2.7-4.6-6.6-4.5-10.6
	c-0.1-3.7,1.4-7.4,4.1-9.9c2.8-2.5,6.5-3.9,10.2-3.8c3.5,0.1,6.9,1.3,9.7,3.4c3.3,2.3,5,5.2,5,8.8c0,2.6-1.3,4-4,4
	c-1.1,0.2-2.2-0.3-2.9-1.3c-0.5-0.9-1-1.9-1.3-2.9c-0.5-1.1-1.2-2-2-2.9c-0.8-0.8-2.3-1.3-4.5-1.3c-3.1,0-4.7,1.9-4.7,5.9
	c0,2.7,1.3,5.2,3.6,6.8c2.6,1.9,5.5,3.4,8.6,4.4c3.3,1.1,6.7,1.8,10.1,2.2c2.6,0.3,5.3,0.5,7.9,0.6c2.3,0,4.6-0.2,6.8-0.5
	c2.4-0.4,4.7-1.1,6.8-2.2c2.1-1,3.8-2.5,5.2-4.3c1.4-1.9,2.1-4.3,2-6.7c0-2.9-1.7-5.3-5-7.2c-4-2.2-8.1-4-12.4-5.4
	c-4.9-1.7-10.2-3.5-16-5.6c-5.6-2-10.9-4.5-16-7.6c-4.8-2.9-9.1-6.8-12.4-11.4c-3.3-4.6-5-10.3-5-17.3c-0.1-5.3,1-10.5,3.2-15.3
	c2.1-4.6,5.1-8.8,8.8-12.2c7.6-7.1,17.5-11.3,27.9-11.7c1.9,0,4,0.1,6.1,0.2s4.2,0.2,6.1,0.2c4.4,0.1,8.7-0.5,12.9-1.6
	c3.8-1.1,6.7-4.1,8.6-9.2c0.3-1.8,1.8-3,3.6-2.9c1.1,0,2.2,0.3,3.1,1.1c0.8,0.7,1.3,1.8,1.2,2.9l-3.6,44.6l-1.1,15.8
	c0.1,1.1-0.4,2.1-1.3,2.7c-0.9,0.6-2,0.9-3.1,0.9c-1,0.1-2.1-0.4-2.7-1.3c-0.6-0.9-0.9-2-0.9-3.1c0.2-3.1,0.5-6.2,0.9-9.2
	c0.4-3,0.5-6.1,0.5-9.2c0-8.4-2.6-14.5-7.9-18.3s-11.9-5.8-19.8-5.8c-6.1-0.2-12.2,1.6-17.3,5c-4.8,3.3-7.2,8.7-7.2,16.2
	c-0.1,4.9,1.6,9.7,4.9,13.3c3.5,3.8,7.5,7,12,9.5c5.1,2.9,10.4,5.4,15.8,7.6c5.4,2.1,10.7,4.5,15.8,7.2c4.4,2.2,8.5,5.1,12.1,8.5
	C677.2,226.4,678.9,230.6,678.8,234.9z"/>
<path class="st10" d="M315.7,20.3c0,1.1-0.3,2.2-0.9,3.2c-0.6,0.9-1.6,1.4-2.7,1.3l-22.7,1.4l-59,308.5c-0.3,2.2-2.4,3.7-4.6,3.4
	c-1.7-0.3-3.1-1.6-3.4-3.4L156,12.2c-3.1,0.5-6.3,0.8-9.5,1.1s-6.4,0.4-9.5,0.4c-2.6,0-3.9-1.3-3.9-3.9s1.2-4,3.6-4L213.9,0h0.4
	c1.1,0,2.2,0.4,2.9,1.3c0.7,0.9,1.1,1.9,1.1,3.1c0,2.2-1.3,3.5-4,3.9l-25.5,1.8l45.7,261.1L281.1,27l-27.3,1.8c-1,0-1.9-0.3-2.7-0.9
	c-0.9-0.6-1.3-1.7-1.3-2.8c0-3,1.2-4.5,3.6-4.5l57.9-4.1c1.1,0,2.2,0.3,3,1C315.3,18.2,315.7,19.2,315.7,20.3z"/>
<path class="st10" d="M361.7,201c0,2.4-1.3,3.8-4,4.3l-59.3,4.7c-0.2,3.1-0.4,6.2-0.5,9.2s-0.2,6.2-0.2,9.5c0,3.6,0.2,8.2,0.7,13.7
	c0.5,5.5,1.5,11,3.1,16.4c1.4,5,3.8,9.8,7,13.9c2.9,3.8,7.5,5.9,12.2,5.8c3.2,0.1,6.4-0.5,9.4-1.8c2.1-1,4.2-2.3,6.1-3.8
	c1.5-1.1,2.8-2.4,4-3.8c0.6-1,1.7-1.7,2.9-1.8c2.7,0,4,1.3,4,4c0,0.6-0.1,1.2-0.4,1.8c-1,2.2-2.6,4.2-4.5,5.8c-2,1.7-4.3,3-6.6,4.1
	c-2.4,1.1-5,1.9-7.5,2.5c-2.4,0.6-4.8,0.9-7.2,0.9c-7.7,0-14.2-2.1-19.6-6.5c-5.5-4.4-10-9.9-13.3-16.1c-3.5-6.5-6.1-13.6-7.7-20.8
	c-1.6-6.7-2.4-13.6-2.5-20.4c0.1-7.4,0.9-14.7,2.3-21.9c1.5-8,4-15.7,7.5-23c3.3-6.9,8-13.1,13.7-18.3c5.6-5,12.8-7.7,20.3-7.5
	c10.5,0,18.8,3.4,24.8,10.2c6,6.9,10.4,15,12.9,23.8c0.5,2.6,1,5.2,1.6,7.7C361.4,195.9,361.7,198.4,361.7,201z M336.5,191
	c0-2.4-0.1-5.4-0.4-9c-0.2-3.5-0.9-6.9-2-10.2c-1-3.1-2.5-5.9-4.5-8.4c-1.9-2.4-4.7-3.6-8.3-3.6c-3.3,0-6.3,1.7-8.8,5.2
	c-2.7,3.8-4.9,7.9-6.5,12.2c-1.8,4.6-3.2,9.2-4.3,14c-1.1,4.7-1.9,8.2-2.3,10.6l36.7-2.9c0.2-1.3,0.4-2.7,0.4-4L336.5,191z"/>
<path class="st10" d="M496.2,298.1c0.1,5.1-1.5,10.2-4.5,14.4c-3,4.1-6.6,7.7-10.6,10.8c-6.6,5-14.1,8.5-22.1,10.4
	c-7.9,2.1-16.1,3.2-24.3,3.2c-5.5-0.1-10.9-0.4-16.4-1.1c-6.3-0.7-12.4-2.1-18.4-4.3c-5.5-2-10.6-5-14.9-9c-4-3.8-6.1-8.9-6.1-15.1
	c0-6,2.1-10.6,6.3-13.9c4.2-3.2,9.3-4.9,14.6-4.9c5.5,0,9.8,1.7,12.8,5.2s4.5,8,4.5,13.5c0,3.1-1.3,4.7-4,4.7
	c-1.9,0-3.1-0.8-3.4-2.3s-0.7-3.4-1.1-5.4c-0.3-1.9-1-3.8-2.2-5.4c-1.1-1.6-3.3-2.3-6.6-2.3c-6.7,0-10.1,3.6-10.1,10.8
	c-0.1,4.3,1.8,8.5,5.2,11.1c3.7,3,7.9,5.2,12.4,6.7c4.8,1.5,9.7,2.6,14.8,3c5,0.5,9.2,0.7,12.6,0.7c4.4-0.1,8.8-0.5,13.1-1.2
	c5.4-0.9,10.8-2.2,16-4c4.9-1.6,9.5-4.1,13.5-7.4c3.5-2.8,5.6-7,5.5-11.5c0-4.5-2.4-8.3-7.2-11.1c-5.7-3.2-11.8-5.7-18.2-7.4
	c-7.3-2-15.2-4-23.7-5.7c-8.5-1.8-16.4-3.8-23.7-6.1c-6.4-1.9-12.5-4.6-18.2-8.2c-4.8-3.2-7.2-7.5-7.2-12.7c-0.1-4.4,1.3-8.6,4-12
	c2.8-3.3,6.2-6.1,10.1-8.1c-6.2-2.3-12-5.6-17.1-9.9c-5.2-4.1-8.2-10.5-8.1-17.1c0-4,1-7.9,3.1-11.4c2.1-3.5,4.7-6.6,7.9-9.2
	c3.2-2.6,6.7-5,10.4-7c3.4-1.9,6.9-3.4,10.6-4.5c15.3-4.3,31.5-4.3,46.8,0c0.7-0.7,1.9-2.1,3.6-4s3.5-4,5.4-6.1
	c1.7-2,3.6-3.8,5.6-5.6c1.8-1.6,3.2-2.3,4.1-2.3c1.7,0.1,3.3,0.7,4.7,1.6c1.9,1.1,2.9,2.2,2.9,3.4c0,1.9-0.5,3.2-1.4,4l-15.5,12.2
	c5.4,2.3,10.3,5.6,14.6,9.7c4.2,4.1,6.3,9.5,6.3,16.2c0.2,6-2,11.9-5.9,16.4c-4.1,4.6-9.1,8.2-14.7,10.8c-5.9,2.8-12.1,4.8-18.5,5.9
	c-5.7,1.1-11.5,1.7-17.3,1.8c-2.2,0-4.4-0.1-6.6-0.4c-2.2-0.2-4.5-0.6-6.6-1.1c-2.8,0.9-5.4,2-7.9,3.4c-2.9,1.6-4.3,3.8-4.3,6.6
	c0,1.7,1.5,3.2,4.5,4.5c3.2,1.4,6.6,2.5,10,3.4c3.7,1,7.4,1.7,11,2.3c3.6,0.6,6,1,7.2,1.3c5.5,1.2,11.9,2.5,19.1,4
	c7,1.4,13.9,3.6,20.5,6.5c6.2,2.7,11.8,6.5,16.5,11.3C493.9,285,496.2,290.9,496.2,298.1z M404.1,121.9l-4,35.6l-4-35.6L375,141
	l19.8-21.6l-18.7-3.6l18.7-3.6L375,90.6l21.2,19.4l4-36l4,36l21.2-19.4l-19.8,21.6l18.7,3.6l-18.7,3.6l19.7,21.7L404.1,121.9z
	 M456.6,204.4c0-8.4-2.7-14.8-8.1-19c-5.4-4.2-12.1-6.3-20-6.3c-8.1,0-14.8,2.7-20,8s-7.8,12.2-7.7,20.6c0,7.7,2.3,13.5,7,17.2
	c4.7,3.7,10.7,5.6,18.2,5.6c3.9,0,7.7-0.6,11.3-1.8c3.6-1.1,6.9-2.8,9.9-5.1C453.2,219.1,456.7,212,456.6,204.4L456.6,204.4z"/>
<path class="st10" d="M603.3,261c0,2.5-1.2,3.8-3.6,4.1l-28.4,3.6c-1.2,0.3-2.4,0-3.2-0.9c-0.7-0.8-1.2-1.9-1.3-3
	c-0.1-1.2-0.1-2.4,0-3.6c0.1-1.2,0.2-2.2,0.2-2.9c-4.7,2.4-9.7,4.1-14.9,5.2c-5,1.2-10.1,1.9-15.3,2.1c-3.8,0-8.4-0.2-13.8-0.7
	c-5.3-0.5-10.5-1.6-15.5-3.4c-4.6-1.6-8.9-4.2-12.4-7.6c-3.3-3.2-5-7.6-5-13.1c0-6,2.3-10.6,6.8-13.8c4.9-3.4,10.4-5.8,16.2-7
	c6.3-1.4,12.8-2.3,19.2-2.5c6.6-0.2,11.9-0.4,16-0.4c2.9,0,6.1,0.2,9.7,0.5c3.3,0.3,6.5,0.9,9.7,1.6v-6.1c0-5.2-0.4-10.5-1.3-15.6
	c-0.7-4.9-2.3-9.5-4.7-13.9c-2.3-4.1-5.5-7.5-9.5-9.9c-4.1-2.5-9.2-3.8-15.5-3.8c-2.6,0-5.2,0.3-7.7,0.7c-2.7,0.5-5.3,1.3-7.7,2.5
	c-2.3,1.1-4.3,2.8-5.9,4.9c-1.6,2.2-2.5,5-2.3,7.7c0,4.1,1,6.8,2.9,8.3c1.9,1.4,4,2.4,6.3,2.9c2.3,0.5,4.4,0.9,6.3,1.3
	c1.7,0.1,3,1.7,2.9,3.4v0c0,1.1-0.4,2.2-1.3,2.9c-0.7,0.7-1.7,1.1-2.7,1.1c-3.2,0-6.3-0.5-9.3-1.3c-3.2-0.8-6.3-2.1-9.1-3.8
	c-2.7-1.6-5-3.8-6.8-6.3c-1.8-2.6-2.8-5.7-2.7-8.8c-0.2-4.1,1-8,3.4-11.3c2.3-3.1,5.4-5.5,8.8-7.2c3.6-1.8,7.5-3.1,11.5-3.8
	c3.8-0.7,7.7-1.1,11.5-1.1c9.8,0,18.2,1.6,25,4.7c6.5,2.9,12.2,7.4,16.5,13.2c4.4,6,7.4,12.9,9,20.2c1.9,8.4,2.8,16.9,2.7,25.4
	c0,5.5-0.2,11.2-0.7,17s-1,11.5-1.4,17l13.3-1.8c1,0,2,0.3,2.9,0.9C602.8,259,603.4,260,603.3,261z M567.7,227.3
	c-3.3-1-6.8-1.6-10.2-2c-3.4-0.4-6.8-0.5-10.2-0.5c-3.3,0.1-6.5,0.4-9.7,0.9c-3.8,0.6-7.5,1.6-11,3.1c-3.3,1.3-6.3,3.2-9,5.6
	c-2.5,2.3-3.9,5.5-3.8,8.9c-0.1,2.6,0.7,5.1,2.3,7.1c1.6,1.9,3.7,3.4,5.9,4.4c2.4,1.1,4.9,1.8,7.5,2.2c2.5,0.4,5,0.5,7.5,0.5
	c5.4,0,10.8-0.7,16-2c5.3-1.3,10.2-3.8,14.2-7.4L567.7,227.3z M567,85.9l-4,35.6l-4-35.6L537.9,105l19.8-21.6L539,79.8l18.7-3.6
	l-19.8-21.6l21.2,19.4l4-36l4,36l21.2-19.4l-19.8,21.6l18.7,3.6l-18.7,3.6l19.8,21.6L567,85.9z"/>
<path class="st10" d="M685,229.8c0.1,4.5-1.2,8.9-3.6,12.6c-2.4,3.6-5.4,6.6-9,9c-3.7,2.4-7.7,4.3-12,5.4c-4.3,1.2-8.7,1.8-13.1,1.8
	c-3.9-0.1-7.7-0.4-11.5-1.1c-4.5-0.7-8.9-1.9-13.1-3.6c-4-1.5-7.6-3.8-10.8-6.7c-3-2.7-4.6-6.6-4.5-10.6c-0.2-3.7,1.4-7.4,4.1-9.9
	c2.8-2.5,6.4-3.8,10.2-3.7c3.5,0.1,6.9,1.3,9.7,3.4c3.3,2.3,5,5.2,5,8.8c0,2.6-1.3,3.9-4,3.9c-1.4,0-2.4-0.4-2.9-1.3
	c-0.5-0.9-1-1.9-1.4-2.9c-0.5-1.1-1.2-2.1-2-2.9c-0.8-0.8-2.3-1.3-4.5-1.3c-3.1,0-4.7,2-4.7,5.9c0,2.7,1.3,5.2,3.6,6.8
	c2.6,1.9,5.5,3.4,8.6,4.4c3.3,1.1,6.7,1.8,10.1,2.2c2.6,0.3,5.3,0.5,7.9,0.6c2.3,0,4.6-0.2,6.8-0.5c2.4-0.4,4.7-1.1,6.8-2.2
	c2.1-1,3.8-2.5,5.2-4.3c1.4-1.9,2.1-4.3,2-6.7c0-2.9-1.7-5.3-5-7.2c-4-2.2-8.1-4-12.4-5.4c-4.9-1.7-10.2-3.5-16-5.6
	c-5.6-2-10.9-4.5-16-7.6c-4.8-2.9-9.1-6.8-12.4-11.4c-3.3-4.6-5-10.4-5-17.3c0-5.3,1-10.5,3.2-15.3c2.1-4.6,5.1-8.8,8.8-12.3
	c7.6-7.1,17.5-11.3,27.9-11.7c1.9,0,4,0.1,6.1,0.2c2.2,0.1,4.2,0.2,6.1,0.2c4.4,0.1,8.7-0.5,12.9-1.6c3.8-1.1,6.7-4.1,8.6-9.2
	c0.3-1.8,1.8-3,3.6-2.9c1.1,0,2.2,0.4,3,1.1c0.8,0.7,1.3,1.8,1.3,2.9l-3.6,44.6l-1.1,15.8c0.1,1.1-0.4,2.1-1.3,2.7
	c-0.9,0.6-2,0.9-3.1,0.9c-1,0.1-2.1-0.4-2.7-1.3c-0.6-0.9-0.9-2-0.9-3.1c0.2-3.1,0.5-6.2,0.9-9.2c0.4-3,0.5-6.1,0.5-9.2
	c0-8.4-2.6-14.5-7.9-18.3S651.8,151,644,151c-6.1-0.2-12.2,1.6-17.3,5c-4.8,3.3-7.2,8.7-7.2,16.2c-0.1,4.9,1.6,9.6,4.9,13.3
	c3.5,3.8,7.5,7,12,9.5c5.1,2.9,10.4,5.4,15.8,7.6c5.4,2.1,10.7,4.5,15.8,7.2c4.4,2.2,8.4,5.1,12,8.4
	C683.3,221.2,685.1,225.4,685,229.8z"/>
<path class="st9" d="M419.5,704.6c0,2.3-1.2,3.6-3.6,4.2l-141,8.6c-2.9,0-4.3-1.4-4.3-4.3c0-2.2,1.2-3.5,3.6-4l31.3-1.8L292.2,384
	l-14.2,1.5c-4.7,0.5-9.5,0.7-14.2,0.7c-1.1,0-2.2-0.4-2.9-1.3c-0.7-0.9-1.1-1.9-1.1-3.1c0-2.2,1.2-3.5,3.6-4l92.8-6.8h0.4
	c1-0.3,2.2,0.1,2.9,0.9c0.7,0.9,1.1,1.9,1.1,3.1c0,2.2-1.2,3.5-3.6,4l-25.9,1.8l-6.5,325.1l83.8-5l5-42.4c0-2.6,1.3-4,4-4
	c1.1,0,2.2,0.4,2.9,1.3c0.7,0.8,1.1,1.9,1.1,3L419.5,704.6z"/>
<path class="st9" d="M463.4,626.3c0,2.5-1.2,3.8-3.6,4.1l-28.4,3.6c-1.2,0.3-2.4,0-3.2-0.9c-0.7-0.8-1.2-1.9-1.3-3
	c-0.1-1.2-0.1-2.4,0-3.7c0.1-1.2,0.2-2.2,0.2-2.9c-4.7,2.4-9.7,4.1-14.9,5.2c-5,1.2-10.1,1.9-15.3,2.1c-3.8,0-8.5-0.2-13.8-0.7
	c-5.3-0.5-10.5-1.6-15.5-3.4c-4.6-1.6-8.9-4.2-12.4-7.6c-3.3-3.2-5-7.6-5-13.1c0-6,2.3-10.6,6.8-13.8c4.9-3.4,10.4-5.8,16.2-7
	c6.3-1.5,12.8-2.3,19.2-2.5c6.6-0.2,11.9-0.4,16-0.4c2.9,0,6.1,0.2,9.7,0.5c3.3,0.3,6.5,0.8,9.7,1.6v-6.1c0-5.2-0.4-10.5-1.3-15.6
	c-0.7-4.8-2.3-9.5-4.7-13.8c-2.3-4.1-5.5-7.5-9.5-9.9c-4.1-2.5-9.2-3.8-15.5-3.8c-2.6,0-5.2,0.3-7.7,0.7c-2.7,0.5-5.3,1.3-7.7,2.5
	c-2.3,1.1-4.4,2.8-5.9,4.8c-1.6,2.2-2.5,5-2.3,7.7c0,4.1,1,6.8,2.9,8.3c1.9,1.4,4,2.4,6.3,2.9c2.3,0.5,4.4,0.9,6.3,1.3
	c1.7,0.2,3,1.7,2.9,3.4l0,0c0,1.1-0.4,2.2-1.3,2.9c-0.7,0.7-1.7,1.1-2.7,1.1c-3.2,0-6.3-0.5-9.4-1.3c-3.2-0.8-6.3-2-9.2-3.8
	c-2.7-1.6-5-3.8-6.8-6.3c-1.8-2.6-2.8-5.7-2.7-8.8c-0.1-4,1-8,3.4-11.3c2.3-3,5.4-5.5,8.8-7.2c3.6-1.8,7.5-3.1,11.5-3.8
	c3.8-0.7,7.6-1.1,11.5-1.1c9.8,0,18.2,1.6,25,4.7c6.5,2.9,12.2,7.5,16.5,13.2c4.4,6,7.4,12.9,9,20.2c1.9,8.3,2.8,16.9,2.7,25.5
	c0,5.5-0.2,11.2-0.7,17s-1,11.4-1.4,17l13.3-1.8c1,0,2,0.3,2.9,0.9C462.8,624.3,463.4,625.2,463.4,626.3z M427.8,592.6
	c-3.4-1-6.8-1.6-10.2-2c-3.4-0.3-6.8-0.5-10.2-0.5c-3.3,0-6.5,0.4-9.7,0.9c-3.8,0.6-7.5,1.6-11,3.1c-3.3,1.3-6.4,3.2-9,5.6
	c-2.5,2.3-3.9,5.5-3.8,8.9c-0.1,2.6,0.7,5.1,2.3,7.1c1.6,1.9,3.6,3.4,5.9,4.4c2.4,1.1,4.9,1.8,7.5,2.2c2.5,0.3,5,0.5,7.5,0.5
	c5.4,0,10.8-0.7,16-2c5.3-1.3,10.2-3.8,14.2-7.5L427.8,592.6z M427.1,451.2l-4,35.6l-4-35.6l-21.2,19.1l19.8-21.6l-18.7-3.6
	l18.7-3.6L397.9,420l21.2,19.4l4-36l4,36l21.1-19.4l-19.8,21.5l18.7,3.6l-18.7,3.6l19.8,21.6L427.1,451.2z"/>
<path class="st9" d="M588.9,619.7c0,1.2-0.3,2.3-1.1,3.2c-0.7,0.9-1.8,1.3-2.9,1.3l-60.8,0.7c-2.7,0-4-1.4-4-4.1c0-2.5,1.3-4,4-4.5
	h19.1c0.7-7.6,1.3-15.3,1.8-23.1c0.5-7.8,0.7-15.5,0.7-23.1c0-4.1-0.1-9.1-0.4-15c-0.2-5.8-1.1-11.6-2.7-17.2
	c-1.4-5.1-3.8-9.9-7.2-14c-3.2-3.8-7.7-5.7-13.5-5.7c-4.4,0-8.7,1.4-12.2,4c-3.6,2.1-6.6,5-9,8.5c-2.4,3.5-4.4,7.3-5.8,11.3
	c-1.4,4.1-2.4,8.3-3,12.6c-0.6,4.2-0.9,8.4-0.9,12.6v29.8l16.2-0.7c1.1,0,2.1,0.3,3,0.9c0.9,0.6,1.3,1.6,1.3,2.7
	c0,2.9-1.3,4.3-4,4.3l-63.6,2.5c-1.1,0-2.2-0.3-3.1-0.9c-0.9-0.6-1.3-1.6-1.3-2.7c0-2.9,1.3-4.3,4-4.3l34.2-1.4l-13-77.3l-26.2,1.4
	c-1.1,0.3-2.2,0-3-0.7s-1.3-1.8-1.3-2.9c-0.2-2.2,1.4-4.1,3.6-4.3l47.8-2.5c2.9,0,4.3,1.3,4.3,3.9l0.4,17.6
	c3-6.1,7.4-11.5,12.8-15.8c5.3-4.3,12-6.6,18.9-6.5c8.9,0,16.2,1.2,21.9,3.6c5.5,2.2,10.2,5.8,13.8,10.4c3.6,4.9,6.2,10.5,7.4,16.5
	c1.5,7.2,2.2,14.5,2.2,21.9c0,18-2.1,35.9-6.1,53.4l23.4-0.4c1.1,0,2.2,0.4,3.1,1.1C588.5,617.5,588.9,618.6,588.9,619.7z"/>
<path class="st9" d="M718.3,596.9c0.1,1.8-1.1,3.5-2.9,4c-1,0.2-3.4,1-7.2,2.2s-7.9,2.4-12.3,3.7c-4.3,1.3-8.3,2.5-11.9,3.6
	c-2,0.7-4,1.2-6.1,1.6c-1.1,0-2.2-0.4-2.9-1.3c-0.7-0.9-1.1-1.9-1.1-3.1c0-2.2,0.1-4.4,0.4-6.7c0.2-2.2,0.3-4.4,0.3-6.7
	c-2.6,1.4-5.3,2.5-8.1,3.4c-3.2,1.1-6.6,2-10.1,2.9s-6.9,1.5-10.2,2c-3,0.5-6,0.7-9,0.7c-5.6-0.1-11.2-0.5-16.7-1.2
	c-6.5-0.8-12.8-2.4-18.9-4.9c-5.7-2.2-10.8-5.4-15.3-9.5c-4.1-3.8-6.4-9.3-6.3-14.9c0-6.7,2.2-12.2,6.7-16.5
	c4.7-4.5,10.2-8,16.2-10.4c6.4-2.7,13.1-4.5,20-5.6c6-1,12-1.5,18-1.6c6.2,0,12.3,0.7,18.3,2c6.2,1.4,12.1,4,17.3,7.7
	c0.2-4.5,0.4-9.1,0.4-13.7v-14c0-23.2-0.1-46.4-0.4-69.6s-0.6-46.3-1.1-69.6H654c-2.9,0-4.3-1.3-4.3-4s1.4-4,4.3-4h46
	c2.6,0,4,1.4,4,4.3c0,2.2-0.1,4.4-0.4,6.6c-0.2,2.3-0.5,4.4-0.7,6.3l-2.2,24.8c-2.2,26.1-3.6,52.4-4.3,78.8
	c-0.7,21.1-1.1,42.5-1.1,64.4v19.8c0,6.5,0.1,13.1,0.4,19.8c0.7-0.2,2-0.7,4-1.3s3.9-1.2,5.9-1.8l5.6-1.6c1-0.3,2.1-0.6,3.2-0.7
	C717,592.9,718.3,594.3,718.3,596.9z M676.2,558.4c-4.2-4.1-9.3-7.2-14.9-9c-5.7-1.9-11.8-2.9-17.8-2.9c-4.4,0-8.7,0.5-13,1.6
	c-4.1,1-8.1,2.6-11.7,4.8c-3.5,2.1-6.3,5.1-8.3,8.6c-2.1,4-3.2,8.5-3.1,13c-0.2,3.7,0.8,7.4,2.7,10.6c1.8,2.8,4.3,5,7.2,6.5
	c3.1,1.6,6.4,2.6,9.9,3c3.6,0.5,7.2,0.7,10.8,0.7c6.7,0,13.3-0.9,19.8-2.5c6.5-1.6,12.5-4.7,17.6-9c0.2-4.1,0.4-8.3,0.5-12.6
	S676.2,562.8,676.2,558.4L676.2,558.4z"/>
<path class="st10" d="M425.7,699.5c0,2.3-1.2,3.6-3.6,4.2l-141,8.6c-2.9,0-4.3-1.4-4.3-4.3c0-2.2,1.2-3.5,3.6-4l31.3-1.8
	l-13.3-323.3l-14.2,1.4c-4.7,0.5-9.5,0.7-14.2,0.7c-1.1,0-2.2-0.4-2.9-1.3c-0.7-0.9-1.1-1.9-1.1-3.1c0-2.1,1.2-3.5,3.6-4l92.8-6.8
	h0.4c1-0.3,2.2,0.1,2.9,0.9c0.7,0.9,1.1,1.9,1.1,3c0,2.2-1.2,3.5-3.6,4l-25.9,1.8l-6.5,325.1l83.8-5l5-42.4c0-2.7,1.3-4,4-4
	c1.1,0,2.2,0.4,2.9,1.3c0.7,0.8,1.1,1.9,1.1,3.1L425.7,699.5z"/>
<path class="st10" d="M469.5,621.2c0,2.5-1.2,3.8-3.6,4.1l-28.4,3.6c-1.2,0.3-2.4,0-3.2-0.9c-0.7-0.8-1.2-1.9-1.3-3
	c-0.1-1.2-0.1-2.4,0-3.6c0.1-1.3,0.2-2.2,0.2-2.9c-4.7,2.4-9.8,4.1-14.9,5.2c-5,1.2-10.1,1.9-15.3,2.1c-3.8,0-8.5-0.2-13.8-0.7
	c-5.3-0.5-10.5-1.6-15.5-3.4c-4.6-1.6-8.8-4.2-12.4-7.5c-3.3-3.2-5-7.6-5-13.1c0-6,2.3-10.6,6.8-13.8c4.9-3.4,10.4-5.8,16.2-7
	c6.3-1.5,12.8-2.3,19.2-2.5c6.6-0.2,11.9-0.4,16-0.4c2.9,0,6.1,0.2,9.7,0.5c3.3,0.3,6.5,0.8,9.7,1.6v-6.1c0-5.2-0.4-10.5-1.3-15.7
	c-0.8-4.9-2.3-9.5-4.7-13.8c-2.3-4.1-5.5-7.5-9.5-9.9c-4.1-2.5-9.2-3.8-15.5-3.8c-2.6,0-5.2,0.3-7.7,0.7c-2.7,0.5-5.3,1.3-7.7,2.5
	c-2.3,1.1-4.4,2.8-5.9,4.8c-1.6,2.2-2.5,5-2.3,7.7c0,4.1,1,6.8,2.9,8.3c1.9,1.4,4,2.4,6.3,2.9c2.3,0.5,4.4,0.9,6.3,1.3
	c1.7,0.2,3,1.7,2.9,3.4l0,0c0,1.1-0.4,2.2-1.3,2.9c-0.7,0.7-1.7,1.1-2.7,1.1c-3.2,0-6.3-0.5-9.4-1.2c-3.2-0.8-6.3-2.1-9.2-3.8
	c-2.7-1.6-5-3.8-6.8-6.3c-1.8-2.6-2.8-5.7-2.7-8.8c-0.2-4,1-8,3.4-11.3c2.3-3,5.4-5.5,8.8-7.2c3.6-1.8,7.5-3.1,11.5-3.8
	c3.8-0.7,7.6-1.1,11.5-1.1c9.8,0,18.2,1.6,25,4.7c6.5,2.9,12.2,7.5,16.5,13.2c4.4,6,7.4,12.9,9,20.2c1.9,8.3,2.8,16.9,2.7,25.5
	c0,5.5-0.2,11.2-0.7,17s-1,11.5-1.4,17l13.3-1.8c1,0,2,0.3,2.9,0.9C469,619.2,469.5,620.1,469.5,621.2z M433.9,587.5
	c-3.4-1-6.8-1.6-10.2-2c-3.4-0.4-6.8-0.5-10.2-0.5c-3.2,0.1-6.5,0.4-9.7,0.9c-3.8,0.6-7.5,1.6-11,3.1c-3.3,1.3-6.4,3.2-9,5.6
	c-2.5,2.3-3.9,5.5-3.8,8.9c-0.1,2.6,0.7,5.1,2.3,7.1c1.6,1.9,3.7,3.4,5.9,4.4c2.4,1.1,4.9,1.8,7.5,2.2c2.5,0.4,5,0.5,7.5,0.5
	c5.4,0,10.8-0.7,16-2c5.3-1.3,10.2-3.8,14.2-7.5L433.9,587.5z M433.2,446.1l-4,35.6l-4-35.6L404,465.2l19.8-21.6l-18.7-3.6l18.7-3.6
	L404,414.9l21.2,19.4l4-36l4,36l21.2-19.4l-19.8,21.6l18.7,3.6l-18.7,3.6l19.8,21.6L433.2,446.1z"/>
<path class="st10" d="M595,614.6c0,1.2-0.3,2.3-1.1,3.2c-0.7,0.9-1.8,1.3-2.9,1.3l-60.8,0.7c-2.7,0-4-1.4-4-4.1c0-2.5,1.3-4,4-4.5
	h19.1c0.7-7.6,1.3-15.3,1.8-23.1c0.5-7.8,0.7-15.5,0.7-23.1c0-4-0.1-9-0.4-15c-0.2-5.8-1.1-11.6-2.7-17.2c-1.4-5.1-3.8-9.9-7.2-14
	c-3.2-3.8-7.7-5.8-13.4-5.8c-4.4,0-8.7,1.4-12.2,4c-3.6,2.1-6.6,5-9,8.5c-2.4,3.5-4.3,7.3-5.8,11.3c-1.4,4.1-2.5,8.3-3.1,12.6
	c-0.6,4.2-0.9,8.4-0.9,12.6v29.8l16.2-0.7c1.1,0,2.2,0.3,3,0.9c0.8,0.6,1.3,1.6,1.3,2.7c0,2.9-1.3,4.3-4,4.3l-63.6,2.5
	c-1.1,0-2.2-0.3-3.1-0.9c-0.9-0.6-1.3-1.6-1.3-2.7c0-2.9,1.3-4.3,4-4.3l34.2-1.4L471,514.8l-26.2,1.4c-1.1,0.3-2.2,0-3-0.7
	s-1.3-1.8-1.3-2.9c-0.2-2.2,1.4-4.1,3.6-4.3l47.8-2.5c2.9,0,4.3,1.3,4.3,4l0.4,17.6c3-6.2,7.4-11.5,12.8-15.8
	c5.3-4.3,12-6.6,18.9-6.5c8.9,0,16.2,1.2,21.9,3.6c5.5,2.2,10.2,5.8,13.8,10.4c3.6,4.9,6.2,10.5,7.4,16.5c1.5,7.2,2.2,14.5,2.2,21.8
	c0,18-2.1,35.9-6.1,53.4l23.4-0.4c1.1,0,2.2,0.4,3.1,1.1C594.6,612.4,595,613.5,595,614.6z"/>
<path class="st10" d="M724.5,591.8c0.1,1.8-1.1,3.5-2.9,4c-1,0.2-3.4,1-7.2,2.2c-3.8,1.2-7.9,2.5-12.2,3.8
	c-4.3,1.3-8.3,2.5-11.9,3.6c-2,0.7-4,1.2-6.1,1.6c-1.1,0-2.2-0.4-2.9-1.3c-0.7-0.8-1.1-1.9-1.1-3.1c0-2.2,0.1-4.4,0.3-6.7
	c0.2-2.2,0.4-4.4,0.4-6.7c-2.6,1.4-5.3,2.5-8.1,3.4c-3.2,1.1-6.6,2-10.1,2.9s-6.9,1.5-10.2,2c-3,0.5-6,0.7-9,0.7
	c-5.6-0.1-11.2-0.5-16.7-1.3c-6.5-0.8-12.8-2.4-18.8-4.9c-5.7-2.2-10.8-5.4-15.3-9.5c-4.2-3.8-6.4-9.3-6.3-14.9
	c0-6.7,2.2-12.2,6.7-16.5c4.7-4.5,10.2-8,16.2-10.4c6.4-2.7,13.1-4.5,20-5.6c6-1,12-1.5,18-1.6c6.2,0,12.3,0.7,18.3,2
	c6.2,1.4,12.1,4,17.3,7.7c0.2-4.5,0.4-9.1,0.4-13.7v-14c0-23.2-0.1-46.4-0.4-69.6s-0.6-46.3-1.1-69.6h-21.7c-2.9,0-4.3-1.3-4.3-4
	s1.4-4,4.3-4h46c2.6,0,4,1.4,4,4.3c0,2.2-0.1,4.4-0.4,6.6c-0.2,2.3-0.5,4.4-0.7,6.3l-2.2,24.8c-2.2,26.1-3.6,52.4-4.3,78.8
	c-0.7,21.1-1.1,42.6-1.1,64.4v19.8c0,6.5,0.1,13.1,0.4,19.8l4-1.3c1.9-0.6,3.9-1.2,5.9-1.8l5.6-1.6c1-0.3,2.1-0.6,3.2-0.7
	C723.2,587.8,724.5,589.2,724.5,591.8z M682.4,553.3c-4.2-4.1-9.3-7.2-14.9-9c-5.7-1.9-11.8-2.9-17.8-2.9c-4.4,0-8.8,0.5-13,1.6
	c-4.1,1-8.1,2.6-11.7,4.8c-3.5,2.1-6.3,5.1-8.3,8.6c-2.1,4-3.2,8.5-3.1,13c-0.2,3.7,0.8,7.4,2.7,10.6c1.8,2.8,4.3,5,7.2,6.5
	c3.1,1.6,6.4,2.6,9.9,3.1c10.2,1.4,20.6,0.8,30.6-1.8c6.5-1.6,12.5-4.7,17.6-9c0.2-4.1,0.4-8.3,0.5-12.6
	C682.3,562,682.4,557.6,682.4,553.3L682.4,553.3z"/>
<g>
	<path class="st4" d="M2.1,79.9c29.8,7,53.5,37.6,59.5,76.5c6-39,29.7-69.6,59.5-76.5c-29.8-7-53.5-37.6-59.5-76.5
		C55.5,42.3,31.8,72.9,2.1,79.9z"/>
	<path class="st11" d="M61.6,3.3v76.5h59.5C92.7,71.5,72.3,47.2,61.6,3.3z"/>
	<path class="st12" d="M61.6,156.4V79.9h59.5C92.7,88.2,72.3,112.5,61.6,156.4z"/>
	<path class="st11" d="M61.6,156.4V79.9H2.1C30.4,88.2,50.9,112.5,61.6,156.4z"/>
</g>
<g>
	<path class="st4" d="M85.1,136.9c13,4.3,23.3,17.5,27,34.3c3.7-16.8,14.1-30,27-34.3c-13-4.3-23.3-17.5-27-34.3
		C108.4,119.5,98.1,132.6,85.1,136.9L85.1,136.9z"/>
	<path class="st11" d="M112.1,101v36h-28C97.5,133,107.1,121.6,112.1,101z"/>
	<path class="st12" d="M112.1,172.9v-36h-28C97.5,140.9,107.1,152.3,112.1,172.9z"/>
	<path class="st11" d="M112.1,172.9v-36h28C126.8,140.9,117.2,152.3,112.1,172.9z"/>
</g>
<g>
	<path class="st4" d="M811.1,602.5c29.8,7,53.5,37.6,59.5,76.5c6-39,29.7-69.6,59.5-76.5c-29.8-7-53.5-37.6-59.5-76.5
		C864.5,565,840.8,595.5,811.1,602.5z"/>
	<path class="st11" d="M870.6,526v76.5h59.5C901.7,594.2,881.3,569.9,870.6,526z"/>
	<path class="st12" d="M870.6,679v-76.5h59.5C901.7,610.8,881.3,635.2,870.6,679z"/>
	<path class="st11" d="M870.6,679v-76.5h-59.5C839.4,610.8,859.8,635.2,870.6,679z"/>
</g>
<g>
	<path class="st4" d="M890.8,657.4c13,4.3,23.3,17.5,27,34.3c3.7-16.8,14.1-30,27-34.3c-13-4.3-23.3-17.5-27-34.3
		C914.1,639.9,903.8,653.1,890.8,657.4L890.8,657.4z"/>
	<path class="st11" d="M917.8,621.4v36h-28C903.2,653.5,912.8,642.1,917.8,621.4z"/>
	<path class="st12" d="M917.8,693.4v-36h-28C903.2,661.3,912.8,672.7,917.8,693.4z"/>
	<path class="st11" d="M917.8,693.4v-36h28C932.4,661.3,922.8,672.7,917.8,693.4z"/>
</g>
</svg>
