<svg id="Layer_1" data-name="Layer 1" xmlns="http://www.w3.org/2000/svg" viewBox="0 0 20 20"><defs><style>.cls-1{fill:#e6e6e6;}</style></defs><g id="Page-1"><g id="_022---Surgical-Mask" data-name="022---Surgical-Mask"><path id="Shape" class="cls-1" d="M6.6,10.76a11.54,11.54,0,0,0,3.4.52,11.54,11.54,0,0,0,3.4-.52.26.26,0,0,0,.1-.44.25.25,0,0,0-.25-.05,10.92,10.92,0,0,1-6.5,0,.26.26,0,0,0-.32.17.26.26,0,0,0,.17.32Z"/><path id="Shape-2" data-name="Shape" class="cls-1" d="M6.63,9.23A22.4,22.4,0,0,0,10,9.49a22.4,22.4,0,0,0,3.37-.26.26.26,0,1,0-.08-.51,21.35,21.35,0,0,1-6.58,0,.26.26,0,0,0-.29.22A.26.26,0,0,0,6.63,9.23Z"/><path id="Shape-3" data-name="Shape" class="cls-1" d="M13.22,12.07a7.35,7.35,0,0,1-6.44,0,.27.27,0,0,0-.26,0,.26.26,0,0,0-.12.24.24.24,0,0,0,.16.21,7.84,7.84,0,0,0,6.88,0,.24.24,0,0,0,.16-.21.26.26,0,0,0-.12-.24.27.27,0,0,0-.26,0Z"/><path id="Shape-4" data-name="Shape" class="cls-1" d="M16.65,6.93H15.33a.76.76,0,0,0-.72-.51h-.39a3.11,3.11,0,0,1-2.43-1.2A2.31,2.31,0,0,0,10,4.37a2.28,2.28,0,0,0-1.78.85,3.15,3.15,0,0,1-2.44,1.2H5.39a.76.76,0,0,0-.72.51H3.35a1,1,0,0,0-1,1V9.23A3,3,0,0,0,5,12a5.53,5.53,0,0,0,4.59,3.59,3.93,3.93,0,0,0,.84,0A5.53,5.53,0,0,0,15,12a3,3,0,0,0,2.67-2.79V8A1,1,0,0,0,16.65,6.93Zm-11.26,0h.39A3.63,3.63,0,0,0,8.61,5.54a1.79,1.79,0,0,1,2.78,0,3.64,3.64,0,0,0,2.83,1.39h.39a.25.25,0,0,1,.25.26v.25h-.77A4,4,0,0,1,11,5.86a1.3,1.3,0,0,0-1-.47,1.27,1.27,0,0,0-1,.48,4.06,4.06,0,0,1-3.1,1.57H5.14V7.19a.25.25,0,0,1,.25-.26ZM2.84,9.23V8a.51.51,0,0,1,.51-.51H4.63V10a5.52,5.52,0,0,0,.19,1.46A2.45,2.45,0,0,1,2.84,9.23Zm7.53,5.87a4.57,4.57,0,0,1-.74,0,5,5,0,0,1-4.2-3.4h0A5.19,5.19,0,0,1,5.14,10V8h.77a4.54,4.54,0,0,0,3.5-1.76.76.76,0,0,1,1.18,0A4.57,4.57,0,0,0,14.09,8h.77V10a5.46,5.46,0,0,1-.28,1.7h0a5,5,0,0,1-4.21,3.4Zm6.79-5.87a2.45,2.45,0,0,1-2,2.23A5.52,5.52,0,0,0,15.37,10V7.44h1.28a.51.51,0,0,1,.51.51Z"/></g></g></svg>