<svg id="Layer_1" data-name="Layer 1" xmlns="http://www.w3.org/2000/svg" viewBox="0 0 20 20"><defs><style>.cls-1{fill:#e6e6e6;}</style></defs><path class="cls-1" d="M18.29,6.12a.77.77,0,0,0-.55-.74h0L11,3.53a3.34,3.34,0,0,0-2,0L2.27,5.38h0a.77.77,0,0,0-.55.74.17.17,0,0,0,0,.07.15.15,0,0,0,0,.07v.25a.78.78,0,0,0,.78.78H6.11a.75.75,0,0,0,.52-.2.75.75,0,0,0,.52.2H9.74v4.92H7.15a.26.26,0,0,0-.26.26.26.26,0,0,0,.26.26H9.22V13a.77.77,0,0,0,.52.73v1.37a1.3,1.3,0,0,0-1,1.27.26.26,0,0,0,.26.26.26.26,0,0,0,.26-.26.77.77,0,0,1,.52-.73v.73a.26.26,0,1,0,.52,0v-.73a.77.77,0,0,1,.52.73.26.26,0,0,0,.26.26.26.26,0,0,0,.26-.26,1.3,1.3,0,0,0-1-1.27V13.72a.77.77,0,0,0,.52-.73v-.26h2.07a.26.26,0,0,0,.26-.26.26.26,0,0,0-.26-.26H10.26V7.29h2.59a.75.75,0,0,0,.52-.2.75.75,0,0,0,.52.2h3.62a.78.78,0,0,0,.78-.78V6.26a.15.15,0,0,0,0-.07A.17.17,0,0,0,18.29,6.12Zm-8,6.87a.26.26,0,1,1-.52,0v-.26h.52ZM6.56,5.48H3.85L8.5,4.21C7.74,4.73,6.81,5.32,6.56,5.48Zm3-1.41a.72.72,0,0,1,.88,0l0,0,2.06,1.39h-5C8.18,5.06,9.09,4.45,9.56,4.07ZM6.11,6.77H2.49a.25.25,0,0,1-.26-.26V6.26a.15.15,0,0,0,0-.07.17.17,0,0,0,0-.07.21.21,0,0,1,0-.12H6.37v.51A.25.25,0,0,1,6.11,6.77Zm6.74,0H7.15a.26.26,0,0,1-.26-.26V6h6.22v.51A.26.26,0,0,1,12.85,6.77Zm4.92-.26a.25.25,0,0,1-.26.26H13.89a.25.25,0,0,1-.26-.26V6h.26a.26.26,0,0,0,.25-.26.25.25,0,0,0-.25-.26h-.44L11.6,4.24l4.55,1.24H14.92a.26.26,0,0,0-.26.26.26.26,0,0,0,.26.26h2.82a.21.21,0,0,1,0,.12.17.17,0,0,0,0,.07.15.15,0,0,0,0,.07Z"/><path class="cls-1" d="M6.89,14.78V13.57a.32.32,0,0,0-.32-.32H4V11.44a.78.78,0,0,0-.78-.78.26.26,0,0,0,0,.52.25.25,0,0,1,.26.26v3.34l-.25,1.54a.24.24,0,0,0,.21.29h0a.26.26,0,0,0,.26-.22L4,15.06H6.41l.23,1.34a.26.26,0,0,0,.25.22h0a.25.25,0,0,0,.22-.29Zm-.52-.24H4v-.77H6.37Z"/><path class="cls-1" d="M16.74,10.66a.78.78,0,0,0-.78.78v1.81H13.43a.32.32,0,0,0-.32.32v1.21l-.26,1.54a.25.25,0,0,0,.22.29h0a.26.26,0,0,0,.25-.22l.23-1.34H16l.22,1.34a.26.26,0,0,0,.26.22h0a.24.24,0,0,0,.21-.29l-.25-1.54V11.44a.25.25,0,0,1,.26-.26.26.26,0,0,0,0-.52Zm-3.11,3.11H16v.77H13.63Z"/></svg>