<svg id="Layer_1" data-name="Layer 1" xmlns="http://www.w3.org/2000/svg" viewBox="0 0 20 20"><defs><style>.cls-1{fill:#e6e6e6;}</style></defs><path class="cls-1" d="M3.36,12.72a.58.58,0,0,0,.82,0h0l1-1,0,.13.58,2.25A2.07,2.07,0,0,0,7.88,15.9a.23.23,0,0,0,.22-.21l.15-2a1.22,1.22,0,0,1,1.16-1.13h.46A1.22,1.22,0,0,1,11,13.66l0,.38a2,2,0,0,0,2,1.86.23.23,0,0,0,.22-.2l.53-4.06.55-.55a.22.22,0,0,0,0-.32h0l-.4-.4L16,9.72h0a1.16,1.16,0,0,0,.8-1.12,1,1,0,0,0-1-1h0a.66.66,0,0,1-.48-.22.83.83,0,0,1-.21-.54V6.79a1.1,1.1,0,0,0-1.1-1.1H11.87a.24.24,0,0,0-.2.12L10.39,8.2H8.1A3,3,0,0,0,5.74,9.38a8.24,8.24,0,0,1-.77.91L3.36,11.9A.59.59,0,0,0,3.36,12.72Zm10.17-1.45-1-1a1.6,1.6,0,0,0,.37-.31l1,1ZM10.81,8.4s0,0,0,0L12,6.14h2.05a.65.65,0,0,1,.64.65v.09A1.21,1.21,0,0,0,15.85,8.1a.5.5,0,0,1,.35.14.51.51,0,0,1,.15.36.73.73,0,0,1-.49.69l-.55.17,0,0a1.36,1.36,0,0,1-.81-.72.22.22,0,0,0-.28-.14.23.23,0,0,0-.15.28,1.58,1.58,0,0,0,.67.8L13.59,10l-.45-.45.37-.64a.23.23,0,0,0-.09-.31.23.23,0,0,0-.31.08l-.44.78A1.07,1.07,0,0,1,10.81,8.4ZM3.69,12.22,5.3,10.61a9.34,9.34,0,0,0,.81-1,2.46,2.46,0,0,1,2-1h2.14a1.53,1.53,0,0,0,1.23,1.79l.27,0,.3,0,1.29,1.29-.48,3.71A1.55,1.55,0,0,1,11.51,14l0-.37A1.69,1.69,0,0,0,11,12.54a1.55,1.55,0,0,0-1.1-.46H9.41a1.55,1.55,0,0,0-1.1.46,1.69,1.69,0,0,0-.51,1.09l-.13,1.8A1.61,1.61,0,0,1,6.28,14v0L5.69,11.7a1.92,1.92,0,0,1-.08-.5A.23.23,0,0,0,5.38,11a.24.24,0,0,0-.16.07L3.86,12.4a.12.12,0,0,1-.17,0h0A.13.13,0,0,1,3.69,12.22Z"/><path class="cls-1" d="M7.73,5.92A1.82,1.82,0,1,0,5.92,7.73,1.82,1.82,0,0,0,7.73,5.92Zm-3.17,0A1.36,1.36,0,1,1,5.92,7.28,1.36,1.36,0,0,1,4.56,5.92Z"/><path class="cls-1" d="M6.77,5.54a.23.23,0,0,0-.32,0l-.87.77-.19-.16a.23.23,0,0,0-.31.33h0l.34.31a.24.24,0,0,0,.3,0l1-.91a.23.23,0,0,0,0-.32Z"/><circle class="cls-1" cx="13.86" cy="7.5" r="0.23"/></svg>