<svg id="Layer_1" data-name="Layer 1" xmlns="http://www.w3.org/2000/svg" viewBox="0 0 20 20"><defs><style>.cls-1{fill:#e6e6e6;}</style></defs><path class="cls-1" d="M12,9.7A2,2,0,0,0,10.5,8V5.9H8.83V4.58H11a.87.87,0,0,1,.59.24l1.64,1.64L14,5.75,12.35,4.1A1.86,1.86,0,0,0,11,3.57H6.14v1H7.81V5.9H6.14V8A2,2,0,0,0,4.62,9.7L4,14.56a1.79,1.79,0,0,0,1.76,2h5.18a1.77,1.77,0,0,0,1.76-2ZM9.49,6.92v1H7.15v-1Zm2,8.37a.75.75,0,0,1-.57.26H5.73a.75.75,0,0,1-.57-.26.74.74,0,0,1-.18-.6l.65-4.86a1,1,0,0,1,1-.88H10a1,1,0,0,1,1,.88l.64,4.86a.74.74,0,0,1-.18.6Zm4-6.53c-.27-.39-.93-1.19-.93-1.19s-.67.8-.93,1.19a2.62,2.62,0,0,0-.6,1.38,1.53,1.53,0,1,0,3.05,0A2.56,2.56,0,0,0,15.5,8.76Zm-.93,1.89a.51.51,0,0,1-.51-.51,2.14,2.14,0,0,1,.42-.82l.09-.12.08.12a2.26,2.26,0,0,1,.43.82.51.51,0,0,1-.51.51ZM8.85,11.77h1v1h-1v1h-1v-1h-1v-1h1v-1h1Z"/></svg>