<svg id="Layer_1" data-name="Layer 1" xmlns="http://www.w3.org/2000/svg" viewBox="0 0 20 20"><defs><style>.cls-1{fill:#e6e6e6;}</style></defs><path class="cls-1" d="M10.42,2.87a1.67,1.67,0,1,0,1.67,1.67A1.67,1.67,0,0,0,10.42,2.87Zm0,2.51a.85.85,0,0,1-.84-.84.84.84,0,0,1,.84-.83.83.83,0,0,1,.83.83A.84.84,0,0,1,10.42,5.38Z"/><path class="cls-1" d="M14.2,10.42H12.09V7.88a1.67,1.67,0,1,0-3.34,0v3.79a1.16,1.16,0,0,0,.07.42H7.73L7.05,6.6a1.26,1.26,0,0,0-2.51,0,.07.07,0,0,0,0,0l.83,6.69a1.26,1.26,0,0,0,.83,1.15v2.19a.42.42,0,0,0,.84,0V14.59h3.37v2.12a.42.42,0,1,0,.83,0V14.52a1.25,1.25,0,0,0,.84-1.18,1.42,1.42,0,0,0-.07-.42H13v2.95a1.26,1.26,0,1,0,2.51,0v-4.2A1.26,1.26,0,0,0,14.2,10.42Zm-3.36,3.34H6.63a.42.42,0,0,1-.42-.42s0,.34-.83-6.73a.42.42,0,0,1,.42-.4.41.41,0,0,1,.41.42S7,12.56,7,12.56a.4.4,0,0,0,.41.36h3.48a.42.42,0,0,1,0,.84Zm3.78,2.11a.42.42,0,0,1-.42.42.41.41,0,0,1-.41-.42V12.51a.42.42,0,0,0-.42-.42H10a.42.42,0,0,1-.42-.42V7.88a.84.84,0,0,1,.84-.83.83.83,0,0,1,.83.83v3a.41.41,0,0,0,.42.41H14.2a.42.42,0,0,1,.42.42Z"/></svg>