<svg id="Layer_1" data-name="Layer 1" xmlns="http://www.w3.org/2000/svg" viewBox="0 0 20 20"><defs><style>.cls-1{fill:#e6e6e6;}</style></defs><path class="cls-1" d="M8.44,13.62a2.71,2.71,0,0,0-1.32-2,2,2,0,0,0,.67-1.49V9.66a2,2,0,1,0-4,0v.45A2,2,0,0,0,4.4,11.6a2.71,2.71,0,0,0-1.33,2l-.23,2a.45.45,0,0,0,.45.5H8.23a.46.46,0,0,0,.45-.51Zm-3.8-4a1.13,1.13,0,1,1,2.25,0v.45a1.13,1.13,0,0,1-2.25,0Zm-.85,5.62L4,13.73a1.81,1.81,0,0,1,3.59,0l.18,1.56Z"/><path class="cls-1" d="M17.22,15.67,17,13.62a2.71,2.71,0,0,0-1.32-2,2,2,0,0,0,.67-1.49V9.66a2,2,0,1,0-4,0v.45a2,2,0,0,0,.66,1.49,2.71,2.71,0,0,0-1.33,2l-.23,2a.46.46,0,0,0,.45.5h5A.44.44,0,0,0,17.22,15.67Zm-4-6a1.13,1.13,0,1,1,2.25,0v.45a1.13,1.13,0,0,1-2.25,0Zm-.85,5.62.18-1.55a1.8,1.8,0,0,1,3.58,0l.18,1.56Z"/><path class="cls-1" d="M5.6,5.16a.47.47,0,0,0,0,.46,12.05,12.05,0,0,0,1,1A.45.45,0,0,0,7.2,6l-.13-.13H13L12.86,6a.45.45,0,0,0,.32.77.45.45,0,0,0,.32-.14c1-1,.92-.91,1-1a.45.45,0,0,0,0-.5s.06,0-.94-1a.45.45,0,0,0-.64,0,.47.47,0,0,0,0,.64l.13.13H7.07l.13-.13a.45.45,0,0,0,0-.64.44.44,0,0,0-.63,0,8.18,8.18,0,0,0-1,1Z"/></svg>