<svg id="Layer_1" data-name="Layer 1" xmlns="http://www.w3.org/2000/svg" viewBox="0 0 20 20"><defs><style>.cls-1{fill:#e6e6e6;}</style></defs><path class="cls-1" d="M17.19,2.84H13.43a.29.29,0,0,0-.29.29v.29L10.7,2.76a1.91,1.91,0,0,0-1.39.14l-1.78.92a1.44,1.44,0,0,0-.78,1.27V5.6a.85.85,0,0,0,.15.47h0L6.42,8.13a.29.29,0,0,0,.11.3.27.27,0,0,0,.17.06h0c0,.3-.09.6-.15.89a17.72,17.72,0,0,0-.32,3.33v.37a3.62,3.62,0,0,0-.42.36l-.33.36-.25-.22a.29.29,0,0,0-.4,0L2.61,15.85a.25.25,0,0,0-.09.2v1a.29.29,0,0,0,.29.29H7.07a.27.27,0,0,0,.21-.09l.81-.89a.3.3,0,0,0,.08-.22A.21.21,0,0,0,8.12,16h3.19a1.59,1.59,0,0,0,.91-.29l2.09-1.47a1,1,0,0,0-1.14-1.59l-.18.12V12.7a17.72,17.72,0,0,0-.32-3.33c-.06-.29-.11-.59-.15-.89a.34.34,0,0,0,.15-.06.28.28,0,0,0,.12-.28l-.32-1.71h.67V6.7a.29.29,0,0,0,.29.29h1.15a.29.29,0,1,0,0-.58h-.86v-3h3.17V6.7a.3.3,0,0,0,.3.29.29.29,0,0,0,.29-.29V3.13a.29.29,0,0,0-.29-.29ZM6.94,16.74H3.11v-.57l2-2,2.36,2ZM13.5,13.1a.4.4,0,0,1,.47.65l-2.09,1.47a1,1,0,0,1-.57.18H7.45L6,14.16l.31-.33a2.14,2.14,0,0,1,1.58-.69h2a1,1,0,0,1,1,.74H8.77a.29.29,0,0,0,0,.58H11.2a.79.79,0,0,0,.43-.05l1.24-.87h0Zm-2.05.72a1.62,1.62,0,0,0-1.59-1.26h-2a2.87,2.87,0,0,0-1,.19V12.7a17.39,17.39,0,0,1,.31-3.22c.08-.41.15-.83.2-1.24a7,7,0,0,1,2.27-.35,8,8,0,0,1,2.27.36c0,.41.12.83.2,1.23a17.39,17.39,0,0,1,.31,3.22v.46Zm.66-6.11a7.22,7.22,0,0,0-2.49-.4,7.61,7.61,0,0,0-2.5.4l.29-1.28h4.47ZM9.35,5.85A.38.38,0,0,1,9,5.48a.37.37,0,0,1,.37-.37h1.74a.29.29,0,0,0,0-.58H9.35a1,1,0,0,0-1,1,.91.91,0,0,0,.08.37H7.58a.25.25,0,0,1-.24-.25V5.09a.86.86,0,0,1,.47-.76l1.77-.92a1.35,1.35,0,0,1,1-.1L13.14,4V5.85Z"/><path class="cls-1" d="M11.39,10.86h-.1A1.69,1.69,0,0,0,9.9,9.49V9.28a.29.29,0,1,0-.58,0v.21a1.69,1.69,0,0,0-1.39,1.37h-.1a.29.29,0,1,0,0,.58h3.56a.29.29,0,1,0,0-.58Zm-2.86,0a1.12,1.12,0,0,1,2.16,0Z"/><path class="cls-1" d="M16.16,6.59a.29.29,0,0,0-.54.22A.3.3,0,0,0,16,7,.3.3,0,0,0,16.16,6.59Z"/></svg>