<?xml version="1.0" encoding="utf-8"?>
<!-- Generator: Adobe Illustrator 25.0.0, SVG Export Plug-In . SVG Version: 6.00 Build 0)  -->
<svg version="1.1" id="Capa_1" xmlns="http://www.w3.org/2000/svg" xmlns:xlink="http://www.w3.org/1999/xlink" x="0px" y="0px"
	 viewBox="0 0 380.7 380.7" style="enable-background:new 0 0 380.7 380.7;" xml:space="preserve">
<style type="text/css">
	.st0{fill:#FF9900;}
</style>
<g>
	<g>
		<path class="st0" d="M285.5,205.3c-44.3,0-80.3,35.9-80.3,80.3c0,31.9,18.7,59.4,45.7,72.4l2.5-48.5c0,0-4.7-1.6-5.8-2.1
			c-10-4.4-17.3-17.4-17.3-34.3c0-18.4,14.3-34.3,28.1-34.4l0,0l0,0c13.8,0.1,28.1,16,28.1,34.4c0,16.9-7.3,29.9-17.3,34.3
			c-0.1,0-5.8,2.1-5.8,2.1l2.8,54c6.2,1.5,12.6,2.4,19.2,2.4c8.9,0,17.5-1.5,25.5-4.2l2.5-48.1c-6.6-1.4-12.1-5.6-15.6-10.8
			c-4.3-6.5,3.3-64,3.3-64h5v54h5v-54h5.4v54h4.9v-54h5.6v54h5v-54h3.8c0,0,7.7,57.5,3.3,64c-3.5,5.2-9,9.3-15.5,10.8
			c-0.1,0-0.2,0.1-0.2,0.1l2.2,41.4c23.9-13.9,40-39.7,40-69.4C365.8,241.2,329.9,205.3,285.5,205.3z"/>
		<path class="st0" d="M242.2,264.9c0.3-1.2,0.7-2.3,0.7-2.3c0.1-0.4-0.1-0.9-0.6-1.2c-0.5-0.2-1-0.1-1.3,0.3c0,0-0.5,0.9-1.3,2.2
			c-0.6,1.1-1.6,2.9-2.3,5.1c-0.6,1.9-1.2,4.5-1.5,7.4c-0.1,1.5-0.2,2.9-0.1,4.3c0.1,1.6,0.4,3,0.8,4.6c1.6,4.5,2.8,8.8,7.2,13.1
			c1.4,1.4,2.8,2.4,3.8,3.1l0.4,0.3c0.2,0.1,0.4,0.3,0.6,0.4c0.9,0.5,1.4,0.6,1.5,0.6c0.4,0.1,0.9-0.1,1.1-0.4
			c0.2-0.4,0-0.8-0.3-1.1c0,0-0.5-0.4-1.1-1.2c-0.4-0.5-0.9-1.2-1.5-2c-0.4-0.6-0.9-1.2-1.3-1.8c-2.1-3.3-3.4-7.8-5.1-12.5
			c-0.3-1-0.6-2.3-0.7-3.4c-0.1-1.3-0.2-2.5-0.2-3.7c0-2.7,0.1-5,0.3-6.8C241.6,267.5,241.8,266,242.2,264.9z"/>
		<path class="st0" d="M285.5,190.4c-52.5,0-95.2,42.7-95.2,95.2s42.7,95.2,95.2,95.2s95.2-42.7,95.2-95.2S338,190.4,285.5,190.4z
			 M285.5,373.6c-48.6,0-88.1-39.5-88.1-88.1s39.5-88.1,88.1-88.1s88.1,39.5,88.1,88.1S334.1,373.6,285.5,373.6z"/>
	</g>
</g>
</svg>
