<svg id="Layer_1" data-name="Layer 1" xmlns="http://www.w3.org/2000/svg" viewBox="0 0 20 14.4"><defs><style>.cls-1{fill:#e6e6e6;}</style></defs><path class="cls-1" d="M3.05,13.09l.05-.43c.29-2.41-.65-3.63-3-4l.08-.6c2.58.36,3.77,1.75,3.6,4.23l2.84-.6a1.57,1.57,0,0,0,.79-1.78L5.56,6.19a.27.27,0,0,0-.21-.1L3,6A3.12,3.12,0,0,1,1.3,5.5L-.16,4.56l.33-.51L1.62,5A2.73,2.73,0,0,0,3,5.36l2.34.13a.89.89,0,0,1,.69.37L8,9.79a2.18,2.18,0,0,1-1.11,2.48l-.09,0Z"/><path class="cls-1" d="M12.64,8.82H9.07a.61.61,0,0,1-.61-.61V4a.61.61,0,0,1,.61-.61h3.57a.61.61,0,0,1,.61.61V5h-.61V4H9.07V8.21h3.57v-.1h.61v.1A.61.61,0,0,1,12.64,8.82Z"/><rect class="cls-1" x="10.42" y="4.39" width="0.85" height="0.61"/><path class="cls-1" d="M13.09,14.35a1.55,1.55,0,0,1-1-.35.77.77,0,0,1-.25-.74L12.61,10a.89.89,0,0,1,.29-.49l1.57-1.36.4.46L13.3,10a.27.27,0,0,0-.1.17l-.76,3.22s0,.07.08.15a.88.88,0,0,0,.75.17c.12,0,.13-.09.13-.11l.8-3.2,2-1.53a.21.21,0,0,0,.08-.16V4.41A.77.77,0,0,0,15.7,4a.86.86,0,0,0-.87.35l-1,2.07H11.87a.3.3,0,1,0,0,.59h2.26a.18.18,0,0,0,.18-.12l.84-1.79.55.26-.84,1.79a.8.8,0,0,1-.73.47H11.87a.91.91,0,0,1,0-1.81h1.56l.87-1.76a1.44,1.44,0,0,1,1.51-.64,1.29,1.29,0,0,1,1.08.92V8.72a.84.84,0,0,1-.32.65l-1.84,1.39-.75,3a.74.74,0,0,1-.54.55A1.36,1.36,0,0,1,13.09,14.35Z"/><path class="cls-1" d="M19,13.63a1,1,0,0,1-.51-.14L15.83,12a.9.9,0,0,1-.41-.49l-.2-.57.57-.2.2.57a.32.32,0,0,0,.14.16L18.76,13a.41.41,0,0,0,.57-.14.43.43,0,0,0-.13-.58l-2.4-1.52L16.56,10l.58-.18.17.53,2.21,1.41a1,1,0,0,1,.32,1.41A1,1,0,0,1,19,13.63Z"/><path class="cls-1" d="M.1,14.23v-.6a1.83,1.83,0,0,0,1.82-1.82A1.82,1.82,0,0,0,.1,10v-.6a2.42,2.42,0,0,1,2.42,2.42A2.43,2.43,0,0,1,.1,14.23Z"/><path class="cls-1" d="M2.29,5.57,1.7,5.42l.9-3.58a.81.81,0,0,1,.54-.58L5.79.41,6,1l-2.64.85A.22.22,0,0,0,3.19,2Z"/><path class="cls-1" d="M14.9,3.4a1.7,1.7,0,1,1,1.7-1.7A1.7,1.7,0,0,1,14.9,3.4Zm0-2.79A1.09,1.09,0,1,0,16,1.7,1.09,1.09,0,0,0,14.9.61Z"/></svg>