<svg id="Layer_1" data-name="Layer 1" xmlns="http://www.w3.org/2000/svg" viewBox="0 0 20 18.92"><defs><style>.cls-1{fill:#e6e6e6;}</style></defs><path class="cls-1" d="M18.94,5.63H15.55a1.05,1.05,0,0,0-1.06,1.06v3.9H13.22a2.8,2.8,0,0,0,.08-.91h0A8.6,8.6,0,0,0,12.5,6a4,4,0,0,0-1.25-1.5A2.72,2.72,0,0,0,12,2.54a2.49,2.49,0,1,0-5,0,.29.29,0,0,0,.29.29h.2a1.87,1.87,0,0,0,0,.34,2,2,0,0,0,1.64,2A4.84,4.84,0,0,0,9,6.44l-.73.62-1.78.15-2-.68a.65.65,0,0,0-.59,0A.52.52,0,0,0,3.63,7V8.49a.3.3,0,0,0,.29.3h.35l-.53,1.85a.29.29,0,0,0,.2.36.3.3,0,0,0,.36-.2l.58-2h.84a9.42,9.42,0,0,0,.46,7.4H5.65L3.46,13.74l.46-1.61a.29.29,0,0,0-.2-.36.3.3,0,0,0-.36.2L2.92,13.5A3,3,0,0,0,0,15.79a.3.3,0,0,0,.22.35l.42.1a2.25,2.25,0,0,0,1.73,2.4,2.22,2.22,0,0,0,.51.06,2.2,2.2,0,0,0,1.18-.35A2.14,2.14,0,0,0,5,17.23l.33.08a.39.39,0,0,0,.28,0,.32.32,0,0,0,.17-.22,2.93,2.93,0,0,0,0-.29h6.13a2.5,2.5,0,0,0,4.94,0h.28a.4.4,0,0,0,.3-.11.39.39,0,0,0,.11-.29,3.43,3.43,0,0,0-.12-.79,4.56,4.56,0,0,0-.33-3,.77.77,0,0,0,.35-.64v-.81h1.48A1.06,1.06,0,0,0,20,10.12V6.69a1.05,1.05,0,0,0-1.06-1.06ZM3.75,17.86a1.66,1.66,0,0,1-1.25.21h0a1.67,1.67,0,0,1-1.28-1.7l3.18.73a1.77,1.77,0,0,1-.65.76Zm1.47-1.17L.66,15.64A2.37,2.37,0,0,1,3,14.09l2.23,2.5Zm4.42-5.11a2.8,2.8,0,0,0-.08.89v1.1H8.49V12.05c0-1.71.93-2,1.35-2.07h2.88a1.25,1.25,0,0,1-.27.84,1.34,1.34,0,0,1-1,.31h-1a.72.72,0,0,0-.74.45Zm-.08,2.58v.7H7.47a.79.79,0,0,1,.2-.5.7.7,0,0,1,.52-.2ZM12.7,9.4H10a8.68,8.68,0,0,1-.28-1.09l.81-.52a1.23,1.23,0,0,0,.63-1.12,1,1,0,0,0-1.63-.74,3,3,0,0,1,.14-.74,2.2,2.2,0,0,0,.37-.07,2.33,2.33,0,0,0,.69-.28c.56.34,1.8,1.44,1.93,4.56ZM7.62,2.24a1.89,1.89,0,0,1,3.77.3A2,2,0,0,1,10.3,4.43V2.88a.59.59,0,0,0-.59-.64H7.62Zm.44.93a1.27,1.27,0,0,1,0-.34H9.71V4.6H9.5A1.45,1.45,0,0,1,8.06,3.17ZM7.68,7.7l.69-.06a.28.28,0,0,0,.17-.07L9.79,6.49h0a.59.59,0,0,1,.38-.15.41.41,0,0,1,.16,0,.42.42,0,0,1,.28.36.63.63,0,0,1-.36.56l-1.4.91H7.68V7.7Zm-1.24.1.65-.06V8.2H6.33c-.09,0-.12-.08-.12-.15A.23.23,0,0,1,6.44,7.8Zm-.69-.21a.94.94,0,0,0-.13.48.51.51,0,0,0,0,.13H4.22V7.09l1.53.5Zm.59,1.2h2.6a.33.33,0,0,0,.16,0l.13-.09c.06.28.14.56.22.82-.6.18-1.55.75-1.55,2.58V13.6a1.2,1.2,0,0,0-.65.35,1.42,1.42,0,0,0-.37.91H6.29a8.59,8.59,0,0,1,0-6.07Zm.48,7.4c-.11-.25-.21-.5-.31-.75h3c.4,0,.6-.18.6-.53V12.76h2.31a.3.3,0,0,0,0-.59H10.15a1.25,1.25,0,0,1,0-.38s0-.07.19-.07h1a1.91,1.91,0,0,0,1.44-.49l.05-.05h4V12a.19.19,0,0,1-.19.18H13.77a.3.3,0,0,0,0,.59h2.75A3.48,3.48,0,0,1,17,14.57a3.19,3.19,0,0,0-4.85-.38,3.26,3.26,0,0,0-.92,2Zm7.58,2.14a1.94,1.94,0,0,1-1.88-1.55h3.75a1.92,1.92,0,0,1-1.87,1.55Zm2.21-2.14H11.77a2.6,2.6,0,0,1,5.09-.49h0a2.4,2.4,0,0,1,.1.48Zm2.81-6.07a.47.47,0,0,1-.48.47H15.07V9.08h4.35Zm0-1.63H15.07V7.87h4.35Zm0-1.2H15.07v-.6a.49.49,0,0,1,.48-.48h3.39a.48.48,0,0,1,.48.48Z"/></svg>