<svg id="Layer_1" data-name="Layer 1" xmlns="http://www.w3.org/2000/svg" viewBox="0 0 20 15.97"><defs><style>.cls-1{fill:#e6e6e6;}</style></defs><path class="cls-1" d="M20,3.3a.93.93,0,0,0-.66-.89h0L11.2.18a4.09,4.09,0,0,0-2.4,0L.67,2.4h0A.93.93,0,0,0,0,3.3a.19.19,0,0,0,0,.08.28.28,0,0,0,0,.09v.31a1,1,0,0,0,.94.94H5.31a1,1,0,0,0,.63-.24,1,1,0,0,0,.62.24H9.69v5.93H6.56a.32.32,0,0,0,0,.63h2.5v.31a.93.93,0,0,0,.63.88v1.65a1.57,1.57,0,0,0-1.25,1.53.31.31,0,1,0,.62,0,.94.94,0,0,1,.63-.88v.88a.31.31,0,1,0,.62,0v-.88a.94.94,0,0,1,.63.88.31.31,0,1,0,.62,0,1.57,1.57,0,0,0-1.25-1.53V12.47a.93.93,0,0,0,.63-.88v-.31h2.5a.32.32,0,0,0,0-.63H10.31V4.72h3.13a1,1,0,0,0,.62-.24,1,1,0,0,0,.63.24h4.37A1,1,0,0,0,20,3.78V3.47a.28.28,0,0,0,0-.09A.19.19,0,0,0,20,3.3Zm-9.69,8.29a.31.31,0,0,1-.62,0v-.31h.62ZM5.85,2.53H2.59L8.19,1C7.28,1.62,6.15,2.34,5.85,2.53ZM9.47.83a.86.86,0,0,1,1.06,0l0,0L13,2.53H7C7.8,2,8.9,1.29,9.47.83ZM5.31,4.09H.94a.32.32,0,0,1-.32-.31V3.47a.28.28,0,0,0,0-.09.19.19,0,0,0,0-.08.42.42,0,0,1,0-.15h5v.63A.31.31,0,0,1,5.31,4.09Zm8.13,0H6.56a.31.31,0,0,1-.31-.31V3.15h7.5v.63A.31.31,0,0,1,13.44,4.09Zm5.94-.31a.32.32,0,0,1-.32.31H14.69a.31.31,0,0,1-.31-.31V3.15h.31a.31.31,0,1,0,0-.62h-.53L11.93,1l5.48,1.5H15.94a.31.31,0,1,0,0,.62h3.4a.42.42,0,0,1,0,.15.19.19,0,0,0,0,.08.28.28,0,0,0,0,.09Z"/><path class="cls-1" d="M6.25,13.75V12.29a.4.4,0,0,0-.39-.39H2.81V9.72a.94.94,0,0,0-.93-.94.31.31,0,1,0,0,.62.31.31,0,0,1,.31.32v4L1.88,15.6a.32.32,0,0,0,.26.36h0a.32.32,0,0,0,.31-.27l.26-1.61H5.67l.27,1.61a.32.32,0,0,0,.31.27h0a.32.32,0,0,0,.26-.36Zm-.63-.28H2.81v-.94H5.62Z"/><path class="cls-1" d="M18.12,8.78a.94.94,0,0,0-.93.94V11.9H14.14a.4.4,0,0,0-.39.39v1.46l-.31,1.85a.32.32,0,0,0,.26.36h.05a.32.32,0,0,0,.31-.27l.27-1.61h2.91l.26,1.61a.32.32,0,0,0,.31.27h.05a.32.32,0,0,0,.26-.36l-.31-1.85v-4a.31.31,0,0,1,.31-.32.31.31,0,1,0,0-.62Zm-3.74,3.75h2.81v.94H14.38Z"/></svg>