<svg id="Layer_1" data-name="Layer 1" xmlns="http://www.w3.org/2000/svg" viewBox="0 0 20 20"><defs><style>.cls-1{fill:#e6e6e6;}</style></defs><path class="cls-1" d="M.25,14a.84.84,0,0,0,1.2,0h0L3,12.48c0,.06,0,.12,0,.19L3.88,16a3,3,0,0,0,3,2.69.34.34,0,0,0,.33-.31l.22-3a1.77,1.77,0,0,1,1.7-1.66h.68a1.77,1.77,0,0,1,1.7,1.66l0,.54a3,3,0,0,0,2.93,2.74.33.33,0,0,0,.33-.29l.78-6,.8-.81a.32.32,0,0,0,0-.47h0l-.58-.59,3-.95h0A1.73,1.73,0,0,0,20,7.94a1.4,1.4,0,0,0-1.4-1.4h0a1,1,0,0,1-.71-.34,1.13,1.13,0,0,1-.31-.78V5.28A1.61,1.61,0,0,0,16,3.67H12.75a.32.32,0,0,0-.29.17L10.58,7.36H7.2A4.27,4.27,0,0,0,3.75,9.09a13.11,13.11,0,0,1-1.14,1.33L.25,12.8A.85.85,0,0,0,.25,14Zm14.93-2.13-1.5-1.49a2.26,2.26,0,0,0,.56-.46l1.45,1.45Zm-4-4.22,0-.05L13,4.33h3a1,1,0,0,1,.94,1v.14A1.75,1.75,0,0,0,18.6,7.2a.74.74,0,0,1,.52.22.73.73,0,0,1,.21.52,1.08,1.08,0,0,1-.72,1l-.8.25-.06,0a2,2,0,0,1-1.19-1.06.33.33,0,0,0-.63.21,2.23,2.23,0,0,0,1,1.16L15.27,10l-.65-.65.53-.95A.33.33,0,0,0,15,8a.34.34,0,0,0-.46.13l-.64,1.13a1.58,1.58,0,0,1-2.75-1.56ZM.72,13.27l2.37-2.38a13.14,13.14,0,0,0,1.19-1.4A3.63,3.63,0,0,1,7.2,8h3.15a2.24,2.24,0,0,0,1.81,2.62,1.75,1.75,0,0,0,.4,0,2.12,2.12,0,0,0,.44,0l1.9,1.89L14.19,18a2.3,2.3,0,0,1-2-2.1l0-.54a2.47,2.47,0,0,0-.74-1.6,2.29,2.29,0,0,0-1.62-.68H9.13a2.29,2.29,0,0,0-1.62.68,2.47,2.47,0,0,0-.74,1.6L6.57,18a2.35,2.35,0,0,1-2-2.1s0,0,0-.05L3.66,12.5a2.89,2.89,0,0,1-.11-.74.34.34,0,0,0-.34-.33.33.33,0,0,0-.23.1l-2,2a.18.18,0,0,1-.26,0h0A.19.19,0,0,1,.72,13.27Z"/><path class="cls-1" d="M6.67,4A2.67,2.67,0,1,0,4,6.67,2.68,2.68,0,0,0,6.67,4ZM2,4A2,2,0,1,1,4,6,2,2,0,0,1,2,4Z"/><path class="cls-1" d="M5.25,3.44a.33.33,0,0,0-.47,0L3.5,4.55l-.28-.24a.32.32,0,0,0-.47,0,.34.34,0,0,0,0,.47h0l.5.45a.33.33,0,0,0,.44,0l1.5-1.33a.33.33,0,0,0,0-.47Z"/><circle class="cls-1" cx="15.67" cy="6.33" r="0.33"/></svg>