<svg id="Layer_1" data-name="Layer 1" xmlns="http://www.w3.org/2000/svg" viewBox="0 0 18.59 20"><defs><style>.cls-1{fill:#e6e6e6;}</style></defs><path class="cls-1" d="M12.37,9.5a3.11,3.11,0,0,0-2.32-2.6V3.7H7.49v-2h3.39a1.29,1.29,0,0,1,.89.36l2.51,2.51,1.09-1.1L12.87,1a2.81,2.81,0,0,0-2-.83H3.38V1.69H5.94v2H3.38V6.9A3.11,3.11,0,0,0,1.06,9.5l-1,7.42A2.72,2.72,0,0,0,2.76,20h7.91a2.72,2.72,0,0,0,2.69-3.08ZM8.5,5.26V6.81H4.93V5.26Zm3.05,12.79a1.16,1.16,0,0,1-.88.4H2.76a1.12,1.12,0,0,1-.87-.4,1.11,1.11,0,0,1-.28-.92l1-7.42A1.55,1.55,0,0,1,4.14,8.36H9.3a1.55,1.55,0,0,1,1.53,1.35l1,7.42a1.14,1.14,0,0,1-.27.92Zm6.13-10c-.41-.6-1.42-1.81-1.42-1.81s-1,1.21-1.42,1.81a3.92,3.92,0,0,0-.91,2.11,2.33,2.33,0,1,0,4.66,0A3.83,3.83,0,0,0,17.68,8.07ZM16.26,11a.77.77,0,0,1-.77-.78,3.15,3.15,0,0,1,.64-1.25l.13-.18.13.18A3.41,3.41,0,0,1,17,10.18a.78.78,0,0,1-.78.78ZM7.53,12.67H9.08v1.55H7.53v1.55H6V14.22H4.43V12.67H6V11.11H7.53Z"/></svg>