<svg id="Layer_1" data-name="Layer 1" xmlns="http://www.w3.org/2000/svg" viewBox="0 0 15.31 20"><defs><style>.cls-1{fill:#e6e6e6;}</style></defs><path class="cls-1" d="M8.24,0a2.35,2.35,0,1,0,2.35,2.34A2.34,2.34,0,0,0,8.24,0Zm0,3.52A1.18,1.18,0,1,1,9.41,2.34,1.18,1.18,0,0,1,8.24,3.52Z"/><path class="cls-1" d="M13.55,10.59h-3V7A2.35,2.35,0,0,0,5.9,7v5.31a1.63,1.63,0,0,0,.1.59H4.47s-.62-5-.95-7.7A1.76,1.76,0,0,0,0,5.27v.08l1.17,9.38a1.75,1.75,0,0,0,1.17,1.61v3.07a.59.59,0,0,0,1.18,0v-3H8.24v3a.59.59,0,1,0,1.17,0V16.34a1.75,1.75,0,0,0,1.18-1.65,1.87,1.87,0,0,0-.1-.59H11.8v4.14a1.76,1.76,0,1,0,3.51,0v-5.9A1.75,1.75,0,0,0,13.55,10.59ZM8.83,15.27H2.93a.59.59,0,0,1-.59-.58c0-.06.07.47-1.17-9.45a.59.59,0,0,1,1.17,0c0,.08,1,8.32,1,8.32A.59.59,0,0,0,4,14.1H8.83a.59.59,0,0,1,0,1.17Zm5.31,3a.59.59,0,1,1-1.17,0V13.52a.58.58,0,0,0-.59-.59H7.66a.58.58,0,0,1-.59-.59V7A1.17,1.17,0,1,1,9.41,7v4.14a.59.59,0,0,0,.59.59h3.55a.58.58,0,0,1,.59.58Z"/></svg>