<svg id="Layer_1" data-name="Layer 1" xmlns="http://www.w3.org/2000/svg" viewBox="0 0 20 17.15"><defs><style>.cls-1{fill:#e6e6e6;}</style></defs><path class="cls-1" d="M7.81,13.57A3.76,3.76,0,0,0,6,10.77,2.82,2.82,0,0,0,6.9,8.68V8.05a2.83,2.83,0,0,0-5.65,0v.63a2.84,2.84,0,0,0,.92,2.08A3.76,3.76,0,0,0,.32,13.6L0,16.45a.63.63,0,0,0,.63.7h6.9a.63.63,0,0,0,.62-.71ZM2.51,8.05a1.57,1.57,0,1,1,3.13,0v.63a1.57,1.57,0,1,1-3.13,0ZM1.33,15.89l.24-2.15a2.51,2.51,0,0,1,5,0l.26,2.17Z"/><path class="cls-1" d="M20.06,16.44l-.34-2.87a3.75,3.75,0,0,0-1.83-2.8,2.81,2.81,0,0,0,.92-2.09V8.05a2.82,2.82,0,1,0-5.64,0v.63a2.83,2.83,0,0,0,.91,2.08,3.76,3.76,0,0,0-1.85,2.84l-.31,2.85a.63.63,0,0,0,.62.7h6.9A.63.63,0,0,0,20.06,16.44ZM14.42,8.05a1.57,1.57,0,1,1,3.14,0v.63a1.57,1.57,0,1,1-3.14,0Zm-1.18,7.84.24-2.15a2.52,2.52,0,0,1,5,0l.25,2.17Z"/><path class="cls-1" d="M3.85,1.78a.6.6,0,0,0,0,.63A13.79,13.79,0,0,0,5.2,3.79a.63.63,0,0,0,.89-.88L5.9,2.72h8.26L14,2.91a.63.63,0,1,0,.89.88c1.38-1.38,1.29-1.28,1.34-1.37a.64.64,0,0,0,0-.7c0-.06.08.07-1.31-1.32A.62.62,0,0,0,14,.4a.61.61,0,0,0,0,.88l.18.19H5.9l.19-.19A.63.63,0,0,0,5.2.4,13.79,13.79,0,0,0,3.85,1.78Z"/></svg>