<svg id="Layer_1" data-name="Layer 1" xmlns="http://www.w3.org/2000/svg" viewBox="0 0 20 19.56"><defs><style>.cls-1{fill:#e6e6e6;}</style></defs><path class="cls-1" d="M19.61.21h-5a.38.38,0,0,0-.39.38V1L10.94.09a2.58,2.58,0,0,0-1.87.2L6.7,1.51a1.92,1.92,0,0,0-1,1.71V3.9a1.11,1.11,0,0,0,.19.62h0L5.21,7.28a.39.39,0,0,0,.15.39.34.34,0,0,0,.23.08h0c-.06.4-.13.8-.2,1.19A22.91,22.91,0,0,0,5,13.39v.49a3.71,3.71,0,0,0-.56.49L4,14.84l-.35-.29a.39.39,0,0,0-.53,0l-3,3a.39.39,0,0,0-.11.27v1.3a.39.39,0,0,0,.39.39H6.08a.39.39,0,0,0,.29-.13l1.08-1.19a.39.39,0,0,0,0-.47h4.26A2,2,0,0,0,13,17.38l2.8-2A1.3,1.3,0,0,0,16,13.48a1.33,1.33,0,0,0-1.74-.19l-.23.16v-.06a22.91,22.91,0,0,0-.43-4.45c-.07-.4-.14-.8-.2-1.2a.35.35,0,0,0,.2-.07.41.41,0,0,0,.16-.38L13.31,5h.89v.36a.38.38,0,0,0,.39.39h1.53a.39.39,0,1,0,0-.77H15V1h4.24V5.36a.39.39,0,0,0,.78,0V.59a.38.38,0,0,0-.39-.38ZM5.9,18.78H.78V18l2.67-2.66L6.6,18Zm8.78-4.86a.55.55,0,0,1,.71.08.53.53,0,0,1-.08.79l-2.8,2a1.3,1.3,0,0,1-.76.25H6.59l-2-1.66L5,14.89A2.87,2.87,0,0,1,7.13,14H9.82a1.39,1.39,0,0,1,1.34,1H8.36a.39.39,0,1,0,0,.77H11.6a1,1,0,0,0,.58-.07l1.66-1.16h0Zm-2.74,1A2.17,2.17,0,0,0,9.82,13.2H7.13a3.67,3.67,0,0,0-1.34.26v-.07a22.15,22.15,0,0,1,.42-4.3c.1-.55.19-1.11.26-1.67A9.4,9.4,0,0,1,9.5,7a10.37,10.37,0,0,1,3.05.48c.06.55.15,1.1.26,1.65a23,23,0,0,1,.41,4.3V14Zm.89-8.17A9.69,9.69,0,0,0,9.5,6.18a10,10,0,0,0-3.35.53L6.54,5h6ZM9.13,4.23a.5.5,0,1,1,0-1h2.32a.39.39,0,0,0,0-.78H9.13A1.28,1.28,0,0,0,7.85,3.73a1.35,1.35,0,0,0,.1.5H6.77a.33.33,0,0,1-.33-.33V3.22a1.14,1.14,0,0,1,.63-1L9.43,1a1.83,1.83,0,0,1,1.3-.13l3.47.94V4.23Z"/><path class="cls-1" d="M11.86,10.93h-.14A2.28,2.28,0,0,0,9.87,9.09V8.81a.39.39,0,0,0-.39-.38.38.38,0,0,0-.39.38v.28a2.29,2.29,0,0,0-1.86,1.84H7.1a.39.39,0,1,0,0,.77h4.76a.39.39,0,1,0,0-.77ZM8,10.93a1.51,1.51,0,0,1,1.45-1.1,1.49,1.49,0,0,1,1.44,1.1Z"/><path class="cls-1" d="M18.24,5.22A.39.39,0,0,0,17.73,5a.38.38,0,0,0-.21.5.39.39,0,0,0,.51.21A.38.38,0,0,0,18.24,5.22Z"/></svg>